<svg width="24" height="24" viewBox="0 0 24 24" fill="none" xmlns="http://www.w3.org/2000/svg">
<path fill-rule="evenodd" clip-rule="evenodd" d="M12 0C18.6274 0 24 5.37258 24 12C24 18.6274 18.6274 24 12 24C5.37258 24 0 18.6274 0 12C0 5.37258 5.37258 0 12 0ZM8.29289 13.8787C7.90237 13.4882 7.90237 12.855 8.29289 12.4645C8.68342 12.0739 9.31658 12.0739 9.70711 12.4645L11 13.7574V8.00004C11 7.44775 11.4477 7.00003 12 7.00003C12.5523 7.00003 13 7.44775 13 8.00004L13 13.8216L14.3787 12.443C14.7692 12.0524 15.4024 12.0524 15.7929 12.443C16.1834 12.8335 16.1834 13.4666 15.7929 13.8572L12.9645 16.6856C12.727 16.9231 12.3998 17.0161 12.092 16.9648C11.7572 17.056 11.3843 16.9701 11.1213 16.7071L8.29289 13.8787Z" fill="#A3A5AB"/>
</svg>
