<svg width="24" height="24" viewBox="0 0 24 24" fill="none" xmlns="http://www.w3.org/2000/svg">
<path fill-rule="evenodd" clip-rule="evenodd" d="M12 24C18.6274 24 24 18.6274 24 12C24 5.37258 18.6274 0 12 0C5.37258 0 0 5.37258 0 12C0 18.6274 5.37258 24 12 24ZM8.29289 10.1213C7.90237 10.5118 7.90237 11.145 8.29289 11.5355C8.68342 11.9261 9.31658 11.9261 9.70711 11.5355L11 10.2426V16C11 16.5522 11.4477 17 12 17C12.5523 17 13 16.5522 13 16L13 10.1784L14.3787 11.557C14.7692 11.9476 15.4024 11.9476 15.7929 11.557C16.1834 11.1665 16.1834 10.5334 15.7929 10.1428L12.9645 7.31441C12.727 7.07694 12.3998 6.98387 12.092 7.03519C11.7572 6.94405 11.3843 7.02995 11.1213 7.29289L8.29289 10.1213Z" fill="#A3A5AB"/>
</svg>
