<svg width="24" height="24" viewBox="0 0 24 24" fill="none" xmlns="http://www.w3.org/2000/svg">
    <path fill-rule="evenodd" clip-rule="evenodd" d="M5 1C3.34315 1 2 2.34315 2 4V20C2 21.6569 3.34315 23 5 23H19C20.6569 23 22 21.6569 22 20V12.9091C22 12.3568 21.5523 11.9091 21 11.9091C20.4477 11.9091 20 12.3568 20 12.9091V20C20 20.5523 19.5523 21 19 21H5C4.44772 21 4 20.5523 4 20V4C4 3.44772 4.44772 3 5 3H12C12.5523 3 13 2.55228 13 2C13 1.44772 12.5523 1 12 1H5ZM18.6247 1.21917C18.1934 0.874159 17.5641 0.94408 17.2191 1.37534C16.8741 1.8066 16.944 2.4359 17.3753 2.78091L20.1493 5.00006H13C12.4477 5.00006 12 5.44778 12 6.00006C12 6.55235 12.4477 7.00006 13 7.00006H20.1492L17.3753 9.21917C16.944 9.56418 16.8741 10.1935 17.2191 10.6247C17.5641 11.056 18.1934 11.1259 18.6247 10.7809L22.6486 7.56177C23.6494 6.76112 23.6494 5.23895 22.6486 4.4383L18.6247 1.21917ZM12.1594 18.3224C12.9925 18.3405 13.8135 17.924 13.8135 17.0909C13.8135 16.608 13.566 16.0767 12.4914 15.8051C12.4381 15.7917 12.3853 15.7788 12.3333 15.7661C11.8197 15.6406 11.3867 15.5347 11.3867 15.2497C11.3867 14.9961 11.7006 14.8452 12.0809 14.8452C12.5518 14.8452 13.1494 15.0565 13.6324 15.3704V14.4468C13.403 14.314 12.8536 14.0001 12.0809 14.0001C11.2116 14.0001 10.4812 14.5072 10.4812 15.2557C10.4812 15.8232 10.8796 16.2397 11.8032 16.4691C12.6785 16.6864 12.9079 16.8615 12.9079 17.0909C12.9079 17.3505 12.588 17.4773 12.2198 17.4773C11.6825 17.4773 11.115 17.272 10.5777 16.8253V17.755C11.0486 18.1715 11.61 18.3103 12.1594 18.3224ZM8.16118 18.3224C9.03652 18.3224 9.74282 17.8033 10.0809 17.0607L9.20555 16.8253C9.00029 17.2177 8.65016 17.4592 8.16118 17.4592C7.43676 17.4592 6.90552 16.8917 6.90552 16.1673C6.90552 15.4429 7.43676 14.8694 8.16118 14.8694C8.6562 14.8694 9.0184 15.1471 9.22366 15.5334L10.0869 15.2859C9.74282 14.5313 9.03652 14.0061 8.16118 14.0061C6.97193 14.0061 6 14.978 6 16.1673C6 17.3565 6.97193 18.3224 8.16118 18.3224ZM16.9196 18.2741H15.4889L14.1367 14.0484H15.1327L16.2073 17.592L17.306 14.0484H18.29L16.9196 18.2741Z" fill="#B1B3B5"/>
</svg>
