<svg width="24" height="24" viewBox="0 0 24 24" fill="none" xmlns="http://www.w3.org/2000/svg">
<g clip-path="url(#clip0_1635_53916)">
<path d="M12.0001 23.52C18.3624 23.52 23.5201 18.3623 23.5201 12C23.5201 5.63766 18.3624 0.47998 12.0001 0.47998C5.63778 0.47998 0.480103 5.63766 0.480103 12C0.480103 18.3623 5.63778 23.52 12.0001 23.52Z" fill="#FF4949"/>
<path d="M12 24C9.62663 24 7.30655 23.2962 5.33316 21.9776C3.35977 20.6591 1.8217 18.7849 0.913451 16.5922C0.00519937 14.3995 -0.232441 11.9867 0.230582 9.65892C0.693605 7.33115 1.83649 5.19295 3.51472 3.51472C5.19295 1.83649 7.33115 0.693605 9.65892 0.230582C11.9867 -0.232441 14.3995 0.00519937 16.5922 0.913451C18.7849 1.8217 20.6591 3.35977 21.9776 5.33316C23.2962 7.30655 24 9.62663 24 12C23.9964 15.1815 22.731 18.2317 20.4813 20.4813C18.2317 22.731 15.1815 23.9964 12 24ZM12 1.20001C9.86397 1.20001 7.7759 1.83341 5.99985 3.02013C4.2238 4.20685 2.83953 5.89358 2.02211 7.86702C1.20468 9.84047 0.990804 12.012 1.40752 14.107C1.82424 16.202 2.85284 18.1264 4.36325 19.6368C5.87366 21.1472 7.79804 22.1758 9.89303 22.5925C11.988 23.0092 14.1595 22.7953 16.133 21.9779C18.1064 21.1605 19.7932 19.7762 20.9799 18.0002C22.1666 16.2241 22.8 14.136 22.8 12C22.7965 9.13673 21.6576 6.39173 19.6329 4.36709C17.6083 2.34245 14.8633 1.20348 12 1.20001Z" fill="white"/>
<rect x="7.29602" y="8.31885" width="1.44625" height="11.57" rx="0.723127" transform="rotate(-45 7.29602 8.31885)" fill="white"/>
<rect x="15.4772" y="7.2959" width="1.44625" height="11.57" rx="0.723127" transform="rotate(45 15.4772 7.2959)" fill="white"/>
</g>
<defs>
<linearGradient id="paint0_linear_1635_53916" x1="12.0001" y1="0.47998" x2="12.0001" y2="23.52" gradientUnits="userSpaceOnUse">
<stop stop-color="#EC6C6C"/>
<stop offset="1" stop-color="#FF4949"/>
</linearGradient>
<clipPath id="clip0_1635_53916">
<rect width="24" height="24" fill="white"/>
</clipPath>
</defs>
</svg>
