<svg width="24" height="24" viewBox="0 0 24 24" fill="none" xmlns="http://www.w3.org/2000/svg">
    <mask id="path-1-inside-1_2005_96727" fill="white">
        <path fill-rule="evenodd" clip-rule="evenodd" d="M23 5.5C23 3.5 22 1 12 1C2 1 1 3.5 1 5.5C1 7.5 9 13 9 13L9 19C9 22.5 15 23 15 23V13C15 13 23 7.5 23 5.5Z"/>
    </mask>
    <path d="M9 13H11V11.9479L10.1331 11.3519L9 13ZM9 19H11H9ZM15 23L14.8339 24.9931L17 25.1736V23H15ZM15 13L13.8669 11.3519L13 11.9479V13H15ZM12 3C16.931 3 19.2249 3.63411 20.2423 4.22756C20.6937 4.49087 20.8322 4.71093 20.8879 4.82567C20.9555 4.96511 21 5.1599 21 5.5H25C25 4.8401 24.9195 3.97239 24.4871 3.08058C24.0428 2.16407 23.3063 1.38413 22.2577 0.772442C20.2751 -0.384108 17.069 -1 12 -1V3ZM3 5.5C3 5.1599 3.04452 4.96511 3.11213 4.82567C3.16776 4.71093 3.30635 4.49087 3.75774 4.22756C4.77508 3.63411 7.06898 3 12 3V-1C6.93102 -1 3.72492 -0.384108 1.74226 0.772442C0.693651 1.38413 -0.0427603 2.16407 -0.487128 3.08058C-0.919522 3.97239 -1 4.8401 -1 5.5H3ZM9 13C10.1331 11.3519 10.1332 11.352 10.1332 11.352C10.1332 11.352 10.1333 11.3521 10.1332 11.352C10.1332 11.352 10.133 11.3519 10.1327 11.3517C10.1321 11.3513 10.131 11.3505 10.1295 11.3494C10.1264 11.3473 10.1214 11.3439 10.1146 11.3392C10.101 11.3298 10.0801 11.3153 10.0525 11.2961C9.99716 11.2576 9.91472 11.2 9.80904 11.1254C9.59759 10.9763 9.29371 10.7598 8.92834 10.4934C8.19541 9.95893 7.22524 9.23107 6.26119 8.44777C5.28655 7.65588 4.36625 6.84599 3.7064 6.1449C3.37403 5.79176 3.15361 5.51419 3.02829 5.31838C2.86523 5.0636 3 5.16157 3 5.5H-1C-1 6.33843 -0.615233 7.04578 -0.340793 7.47459C-0.0286136 7.96237 0.375965 8.44262 0.7936 8.88635C1.63375 9.77901 2.71345 10.7191 3.73881 11.5522C4.77476 12.3939 5.80459 13.1661 6.57166 13.7254C6.95629 14.0059 7.27741 14.2347 7.50346 14.3941C7.61653 14.4739 7.70597 14.5364 7.76783 14.5794C7.79876 14.6009 7.82281 14.6176 7.83949 14.6291C7.84783 14.6349 7.85433 14.6394 7.85893 14.6426C7.86122 14.6441 7.86305 14.6454 7.86438 14.6463C7.86505 14.6468 7.8656 14.6472 7.86603 14.6475C7.86624 14.6476 7.86647 14.6478 7.86658 14.6478C7.86677 14.648 7.86694 14.6481 9 13ZM11 19L11 13H7L7 19H11ZM15 23C15.1661 21.0069 15.1666 21.007 15.1672 21.007C15.1673 21.007 15.1678 21.0071 15.1681 21.0071C15.1687 21.0071 15.1691 21.0072 15.1695 21.0072C15.1703 21.0073 15.1708 21.0073 15.1709 21.0073C15.1711 21.0073 15.17 21.0072 15.1675 21.007C15.1625 21.0065 15.1523 21.0056 15.1371 21.004C15.1067 21.0009 15.0568 20.9954 14.9903 20.9871C14.8567 20.9704 14.6585 20.9425 14.4179 20.899C13.9281 20.8106 13.3034 20.6653 12.7022 20.4398C11.2894 19.91 11 19.3636 11 19H7C7 22.1364 9.71059 23.59 11.2978 24.1852C12.1966 24.5222 13.0719 24.7207 13.7071 24.8354C14.029 24.8935 14.2996 24.9319 14.4941 24.9562C14.5916 24.9684 14.6706 24.9771 14.7281 24.983C14.7569 24.986 14.7804 24.9883 14.7981 24.9899C14.807 24.9907 14.8144 24.9914 14.8204 24.9919C14.8234 24.9922 14.826 24.9924 14.8283 24.9926C14.8294 24.9927 14.8304 24.9928 14.8314 24.9929C14.8318 24.9929 14.8325 24.993 14.8327 24.993C14.8333 24.993 14.8339 24.9931 15 23ZM13 13V23H17V13H13ZM21 5.5C21 5.16157 21.1348 5.0636 20.9717 5.31838C20.8464 5.51419 20.626 5.79176 20.2936 6.1449C19.6337 6.84599 18.7135 7.65588 17.7388 8.44777C16.7748 9.23107 15.8046 9.95893 15.0717 10.4934C14.7063 10.7598 14.4024 10.9763 14.191 11.1254C14.0853 11.2 14.0028 11.2576 13.9475 11.2961C13.9199 11.3153 13.899 11.3298 13.8854 11.3392C13.8786 11.3439 13.8736 11.3473 13.8705 11.3494C13.869 11.3505 13.8679 11.3513 13.8673 11.3517C13.867 11.3519 13.8668 11.352 13.8668 11.352C13.8667 11.3521 13.8668 11.352 13.8668 11.352C13.8668 11.352 13.8669 11.3519 15 13C16.1331 14.6481 16.1332 14.648 16.1334 14.6478C16.1335 14.6478 16.1338 14.6476 16.134 14.6475C16.1344 14.6472 16.1349 14.6468 16.1356 14.6463C16.137 14.6454 16.1388 14.6441 16.1411 14.6426C16.1457 14.6394 16.1522 14.6349 16.1605 14.6291C16.1772 14.6176 16.2012 14.6009 16.2322 14.5794C16.294 14.5364 16.3835 14.4739 16.4965 14.3941C16.7226 14.2347 17.0437 14.0059 17.4283 13.7254C18.1954 13.1661 19.2252 12.3939 20.2612 11.5522C21.2865 10.7191 22.3663 9.77901 23.2064 8.88635C23.624 8.44262 24.0286 7.96237 24.3408 7.47459C24.6152 7.04578 25 6.33843 25 5.5H21Z" fill="white" mask="url(#path-1-inside-1_2005_96727)"/>
    <path d="M2 5C1.07152 5.37139 1.07209 5.37281 1.07267 5.37423C1.07286 5.37472 1.07344 5.37616 1.07384 5.37713C1.07464 5.37909 1.07545 5.38108 1.07629 5.38311C1.07797 5.38716 1.07975 5.39137 1.08161 5.39573C1.08535 5.40445 1.08946 5.41375 1.09399 5.42362C1.10303 5.44337 1.1137 5.46537 1.12621 5.48943C1.15126 5.53759 1.18356 5.59378 1.22484 5.6566C1.30763 5.78258 1.42508 5.93304 1.58977 6.09773C1.91987 6.42783 2.42956 6.80508 3.2112 7.16037C4.76382 7.8661 7.42103 8.5 12 8.5V6.5C7.57897 6.5 5.23618 5.8839 4.0388 5.33963C3.44544 5.06992 3.14263 4.82217 3.00398 4.68352C2.93429 4.61383 2.90331 4.56898 2.89625 4.55824C2.89261 4.55271 2.89464 4.55518 2.90064 4.56672C2.90363 4.57247 2.90759 4.58043 2.9123 4.59072C2.91466 4.59586 2.9172 4.60158 2.9199 4.60789C2.92126 4.61105 2.92265 4.61435 2.92408 4.6178C2.92479 4.61953 2.92552 4.62129 2.92625 4.62309C2.92662 4.62399 2.92718 4.62537 2.92736 4.62582C2.92792 4.62721 2.92848 4.62861 2 5ZM12 8.5C16.579 8.5 19.2362 7.8661 20.7888 7.16037C21.5704 6.80508 22.0801 6.42783 22.4102 6.09773C22.5749 5.93304 22.6924 5.78258 22.7752 5.6566C22.8164 5.59378 22.8487 5.53759 22.8738 5.48943C22.8863 5.46537 22.897 5.44337 22.906 5.42362C22.9105 5.41375 22.9146 5.40445 22.9184 5.39573C22.9203 5.39137 22.922 5.38716 22.9237 5.38311C22.9245 5.38108 22.9254 5.37909 22.9262 5.37713C22.9266 5.37616 22.9271 5.37472 22.9273 5.37423C22.9279 5.37281 22.9285 5.37139 22 5C21.0715 4.62861 21.0721 4.62721 21.0726 4.62582C21.0728 4.62537 21.0734 4.62399 21.0737 4.62309C21.0745 4.62129 21.0752 4.61953 21.0759 4.6178C21.0774 4.61435 21.0787 4.61105 21.0801 4.60789C21.0828 4.60158 21.0853 4.59586 21.0877 4.59072C21.0924 4.58043 21.0964 4.57247 21.0994 4.56672C21.1054 4.55518 21.1074 4.55271 21.1037 4.55824C21.0967 4.56898 21.0657 4.61383 20.996 4.68352C20.8574 4.82217 20.5546 5.06992 19.9612 5.33963C18.7638 5.8839 16.421 6.5 12 6.5V8.5Z" fill="white"/>
</svg>
