<svg width="24" height="24" viewBox="0 0 24 24" fill="none" xmlns="http://www.w3.org/2000/svg">
<mask id="path-1-inside-1_774:51887" fill="white">
<path fill-rule="evenodd" clip-rule="evenodd" d="M9 13.1956L1.17616 2.59379C0.688974 1.93361 1.1603 1 1.98079 1H22.0192C22.8397 1 23.3111 1.93361 22.8239 2.59379L15 13.1957V19.1739L9 23V13.1956Z"/>
</mask>
<path d="M9 13.1956H11V12.5376L10.6092 12.0081L9 13.1956ZM1.17616 2.59379L-0.43308 3.78136L1.17616 2.59379ZM22.8239 2.59379L24.4331 3.78136L24.4331 3.78136L22.8239 2.59379ZM15 13.1957L13.3908 12.0081L13 12.5376V13.1957H15ZM15 19.1739L16.0753 20.8602L17 20.2706V19.1739H15ZM9 23H7V26.6474L10.0753 24.6863L9 23ZM10.6092 12.0081L2.78541 1.40621L-0.43308 3.78136L7.39075 14.3832L10.6092 12.0081ZM2.78541 1.40621C3.2726 2.06639 2.80127 3 1.98079 3V-1C-0.480665 -1 -1.89465 1.80083 -0.43308 3.78136L2.78541 1.40621ZM1.98079 3H22.0192V-1H1.98079V3ZM22.0192 3C21.1988 3 20.7274 2.06638 21.2146 1.40622L24.4331 3.78136C25.8947 1.80083 24.4807 -1 22.0192 -1V3ZM21.2146 1.40621L13.3908 12.0081L16.6092 14.3833L24.4331 3.78136L21.2146 1.40621ZM13 13.1957V19.1739H17V13.1957H13ZM13.9247 17.4876L7.92467 21.3137L10.0753 24.6863L16.0753 20.8602L13.9247 17.4876ZM11 23V13.1956H7V23H11Z" fill="#A3A5AB" mask="url(#path-1-inside-1_774:51887)"/>
</svg>
