<svg width="24" height="24" viewBox="0 0 24 24" fill="none" xmlns="http://www.w3.org/2000/svg">
<path fill-rule="evenodd" clip-rule="evenodd" d="M4 2H20C21.1046 2 22 2.89543 22 4V20C22 21.1046 21.1046 22 20 22H4C2.89543 22 2 21.1046 2 20V4C2 2.89543 2.89543 2 4 2ZM0 4C0 1.79086 1.79086 0 4 0H20C22.2091 0 24 1.79086 24 4V20C24 22.2091 22.2091 24 20 24H4C1.79086 24 0 22.2091 0 20V4ZM7 6C6.44771 6 6 6.44772 6 7C6 7.55228 6.44771 8 7 8H17C17.5523 8 18 7.55228 18 7C18 6.44772 17.5523 6 17 6H7ZM15.5904 10.5852C15.7894 10.3008 16.2106 10.3008 16.4096 10.5852L18.9493 14.2133C19.1813 14.5447 18.9442 15 18.5397 15H17V19C17 19.5523 16.5523 20 16 20C15.4477 20 15 19.5523 15 19V15H13.4603C13.0558 15 12.8187 14.5447 13.0507 14.2133L15.5904 10.5852ZM8.45016 19.7867C8.25111 20.0711 7.82998 20.0711 7.63093 19.7867L5.09125 16.1586C4.85928 15.8273 5.09636 15.3719 5.50087 15.3719H7.04055L7.04055 11.3719C7.04055 10.8196 7.48826 10.3719 8.04055 10.3719C8.59283 10.3719 9.04055 10.8196 9.04055 11.3719L9.04055 15.3719H10.5802C10.9847 15.3719 11.2218 15.8273 10.9898 16.1586L8.45016 19.7867Z" fill="#A3A5AB"/>
</svg>
