<svg width="20" height="14" viewBox="0 0 20 14" fill="none" xmlns="http://www.w3.org/2000/svg">
    <path fill-rule="evenodd" clip-rule="evenodd" d="M1 0C0.447715 0 0 0.447715 0 1C0 1.55228 0.447715 2 1 2C1.55228 2 2 1.55228 2 1C2 0.447715 1.55228 0 1 0ZM5 0C4.44772 0 4 0.447715 4 1C4 1.55228 4.44772 2 5 2L19 2C19.5523 2 20 1.55228 20 1C20 0.447715 19.5523 0 19 0L5 0ZM0 7C0 6.44772 0.447715 6 1 6C1.55228 6 2 6.44772 2 7C2 7.55228 1.55228 8 1 8C0.447715 8 0 7.55228 0 7ZM5 6C4.44772 6 4 6.44772 4 7C4 7.55228 4.44772 8 5 8H19C19.5523 8 20 7.55228 20 7C20 6.44772 19.5523 6 19 6H5ZM0 13C0 12.4477 0.447715 12 1 12C1.55228 12 2 12.4477 2 13C2 13.5523 1.55228 14 1 14C0.447715 14 0 13.5523 0 13ZM5 12C4.44772 12 4 12.4477 4 13C4 13.5523 4.44772 14 5 14H19C19.5523 14 20 13.5523 20 13C20 12.4477 19.5523 12 19 12H5Z" fill="black"/>
</svg>

