<svg width="63" height="18" viewBox="0 0 63 18" fill="none" xmlns="http://www.w3.org/2000/svg">
    <path d="M13.8344 2.03425e-07C12.3895 -0.000393749 11.0018 0.57142 9.96832 1.5931L10.5286 2.67028L10.2989 2.85737C9.81336 2.00627 9.11754 1.29748 8.27967 0.800529C7.4418 0.303576 6.49068 0.0355227 5.51956 0.022674C2.47154 0.022674 0.00621469 2.72131 0.00621469 5.88483V12.6881C0.00384096 12.7461 0.0133813 12.8039 0.0342227 12.858C0.0550642 12.912 0.0867641 12.9611 0.127309 13.0021C0.167854 13.0431 0.21636 13.0752 0.269778 13.0963C0.323195 13.1174 0.380364 13.127 0.437655 13.1246H2.65084C2.70429 13.1246 2.75719 13.1139 2.80651 13.093C2.85582 13.0722 2.90053 13.0416 2.93807 13.0031C2.9756 12.9646 3.00523 12.9189 3.02517 12.8687C3.04511 12.8186 3.05498 12.7649 3.05424 12.7108V5.81113C3.05424 4.24071 3.99552 2.97643 5.59797 2.97643C7.09397 2.97643 8.16415 4.11031 8.16415 5.78278V11.4522C8.16033 11.5084 8.16789 11.5648 8.18638 11.6179C8.20486 11.6711 8.2339 11.7199 8.27167 11.7613C8.30943 11.8027 8.35515 11.8358 8.40603 11.8587C8.45691 11.8816 8.5119 11.8937 8.56758 11.8944H10.6799C10.7356 11.8937 10.7905 11.8816 10.8414 11.8587C10.8923 11.8358 10.938 11.8027 10.9758 11.7613C11.0136 11.7199 11.0426 11.6711 11.0611 11.6179C11.0796 11.5648 11.0871 11.5084 11.0833 11.4522V5.78278C11.0585 5.42072 11.1081 5.05738 11.2291 4.71572C11.3501 4.37406 11.5398 4.0615 11.7862 3.79777C12.0326 3.53405 12.3304 3.3249 12.6608 3.18353C12.9911 3.04216 13.3469 2.97164 13.7055 2.97643C15.3023 2.97643 16.1932 4.26338 16.1932 5.81113V12.6994C16.1976 12.8117 16.2451 12.9178 16.3257 12.9952C16.4063 13.0725 16.5136 13.1149 16.6247 13.1133H18.8098C18.8673 13.1166 18.9249 13.1076 18.9787 13.0868C19.0325 13.066 19.0814 13.034 19.1221 12.9927C19.1628 12.9515 19.1945 12.9021 19.215 12.8476C19.2355 12.7932 19.2445 12.735 19.2412 12.6768V5.87349C19.2188 2.69863 16.888 2.03425e-07 13.8344 2.03425e-07Z" fill="#28C480"/>
    <path d="M33.8892 0.244912H31.8492C31.7925 0.241049 31.7356 0.24874 31.6821 0.267496C31.6286 0.286252 31.5797 0.315668 31.5384 0.353873C31.4972 0.392077 31.4645 0.438234 31.4425 0.489425C31.4204 0.540617 31.4095 0.595718 31.4105 0.651239V0.923984L32.1341 2.03722L31.9404 2.22646C31.3414 1.53898 30.5989 0.984634 29.7625 0.600619C28.9261 0.216605 28.0153 0.0118121 27.0912 0C25.3094 0 23.6006 0.691407 22.3407 1.92211C21.0808 3.15282 20.373 4.82202 20.373 6.5625C20.373 8.30299 21.0808 9.97218 22.3407 11.2029C23.6006 12.4336 25.3094 13.125 27.0912 13.125C28.019 13.1153 28.9338 12.9115 29.7742 12.5275C30.6146 12.1434 31.361 11.588 31.9632 10.8985L32.1341 11.0321L31.4105 12.1899V12.4459C31.4097 12.5024 31.4205 12.5585 31.4423 12.6108C31.4641 12.6632 31.4964 12.7107 31.5373 12.7507C31.5782 12.7906 31.6268 12.8221 31.6804 12.8434C31.734 12.8647 31.7914 12.8753 31.8492 12.8745H33.8892C33.9477 12.8778 34.0062 12.8689 34.0609 12.8485C34.1156 12.8281 34.1653 12.7966 34.2068 12.7562C34.2482 12.7157 34.2804 12.6671 34.3013 12.6137C34.3222 12.5602 34.3312 12.5031 34.3279 12.4459V0.651239C34.3307 0.595237 34.3211 0.539319 34.2997 0.487294C34.2783 0.435268 34.2456 0.388362 34.2039 0.349787C34.1623 0.311213 34.1126 0.281875 34.0583 0.263776C34.004 0.245676 33.9463 0.239241 33.8892 0.244912ZM27.0912 10.2918C26.0772 10.2918 25.1046 9.89833 24.3876 9.1979C23.6705 8.49747 23.2677 7.54749 23.2677 6.55693C23.2677 5.56638 23.6705 4.6164 24.3876 3.91597C25.1046 3.21554 26.0772 2.82205 27.0912 2.82205C28.1053 2.82205 29.0778 3.21554 29.7948 3.91597C30.5119 4.6164 30.9147 5.56638 30.9147 6.55693C30.9147 7.54749 30.5119 8.49747 29.7948 9.1979C29.0778 9.89833 28.1053 10.2918 27.0912 10.2918Z" fill="#28C480"/>
    <path d="M62.5552 0.244912H60.5152C60.4585 0.241049 60.4016 0.24874 60.3481 0.267496C60.2946 0.286252 60.2456 0.315668 60.2044 0.353873C60.1631 0.392077 60.1305 0.438234 60.1084 0.489425C60.0864 0.540617 60.0756 0.595718 60.0765 0.651239V0.923984L60.8001 2.03722L60.6064 2.22646C60.0074 1.53898 59.2648 0.984634 58.4285 0.600619C57.5921 0.216605 56.6813 0.0118121 55.7572 0C53.9755 0 52.2667 0.691407 51.0068 1.92211C49.7469 3.15282 49.0391 4.82202 49.0391 6.5625C49.0391 8.30299 49.7469 9.97218 51.0068 11.2029C52.2667 12.4336 53.9755 13.125 55.7572 13.125C56.685 13.1153 57.5998 12.9115 58.4402 12.5275C59.2806 12.1434 60.027 11.588 60.6292 10.8985L60.8001 11.0321L60.0765 12.1899V12.4459C60.0757 12.5024 60.0865 12.5585 60.1083 12.6108C60.1301 12.6632 60.1624 12.7107 60.2033 12.7507C60.2442 12.7906 60.2929 12.8221 60.3464 12.8434C60.4 12.8647 60.4574 12.8753 60.5152 12.8745H62.5552C62.6137 12.8778 62.6722 12.8689 62.7269 12.8485C62.7816 12.8281 62.8314 12.7966 62.8728 12.7562C62.9142 12.7157 62.9464 12.6671 62.9673 12.6137C62.9882 12.5602 62.9973 12.5031 62.994 12.4459V0.651239C62.9967 0.595237 62.987 0.539319 62.9656 0.487294C62.9442 0.435268 62.9116 0.388362 62.87 0.349787C62.8283 0.311213 62.7786 0.281875 62.7243 0.263776C62.67 0.245676 62.6123 0.239241 62.5552 0.244912ZM55.7572 10.2918C54.7432 10.2918 53.7707 9.89833 53.0536 9.1979C52.3366 8.49747 51.9337 7.54749 51.9337 6.55693C51.9337 5.56638 52.3366 4.6164 53.0536 3.91597C53.7707 3.21554 54.7432 2.82205 55.7572 2.82205C56.7713 2.82205 57.7438 3.21554 58.4609 3.91597C59.1779 4.6164 59.5807 5.56638 59.5807 6.55693C59.5807 7.54749 59.1779 8.49747 58.4609 9.1979C57.7438 9.89833 56.7713 10.2918 55.7572 10.2918Z" fill="#28C480"/>
    <path d="M47.4438 0.379325H45.412C45.0863 0.379325 44.9096 0.557032 44.9096 0.729184V6.87664C44.9382 7.30643 44.876 7.73746 44.727 8.1413C44.578 8.54515 44.3456 8.91265 44.0451 9.2196C43.7446 9.52654 43.3829 9.76596 42.9838 9.92208C42.5846 10.0782 42.1571 10.1474 41.7294 10.1253C39.9515 10.1253 38.8031 8.79251 38.8031 6.87664V0.729184C38.8031 0.557032 38.5271 0.379325 38.3504 0.379325H36.1861C36.0964 0.386885 36.0122 0.426175 35.9485 0.490219C35.8849 0.554264 35.8458 0.638927 35.8383 0.729184V6.83777C35.8205 8.43453 36.432 9.97341 37.539 11.1181C38.646 12.2627 40.1585 12.92 41.7459 12.9464C43.2644 12.9465 44.7307 12.3898 45.8702 11.3803L45.9807 11.4858L45.0807 12.7187V13.2129C45.0807 14.4735 43.198 15.1788 42.0993 15.1788H41.3981C41.2847 15.1727 41.1736 15.2119 41.0888 15.2878C41.004 15.3637 40.9525 15.4702 40.9454 15.5842V17.5944C40.9552 17.7073 41.0075 17.8122 41.0917 17.8876C41.1758 17.9629 41.2855 18.0031 41.3981 17.9998H42.0993C45.4562 17.9998 47.9076 16.034 47.9076 12.3299V0.729184C47.9001 0.675507 47.8822 0.623839 47.8548 0.577159C47.8274 0.530478 47.7912 0.489707 47.7481 0.457189C47.705 0.424672 47.6559 0.401052 47.6037 0.387689C47.5514 0.374326 47.4971 0.371482 47.4438 0.379325Z" fill="#28C480"/>
</svg>


