<svg width="28" height="28" viewBox="0 0 28 28" fill="none" xmlns="http://www.w3.org/2000/svg">
<path d="M20.122 4.375C18.0228 4.37892 16.0078 5.20079 14.5047 6.66615L15.2834 8.21708L14.9629 8.47984C14.2624 7.24945 13.2526 6.22342 12.0334 5.50343C10.8143 4.78343 9.42828 4.39445 8.01257 4.375C3.57768 4.375 0.00156095 8.25553 0.00156095 12.7994V22.5888C-0.00463996 22.6746 0.00768037 22.7607 0.0376946 22.8412C0.0677088 22.9218 0.114716 22.995 0.175511 23.0558C0.236306 23.1166 0.309466 23.1636 0.390034 23.1936C0.470602 23.2236 0.556689 23.2359 0.642442 23.2297H3.84685C3.92478 23.231 4.00218 23.2166 4.07447 23.1875C4.14677 23.1584 4.21249 23.1151 4.26776 23.0601C4.32302 23.0051 4.36671 22.9396 4.39623 22.8675C4.42576 22.7954 4.44053 22.718 4.43966 22.6401V12.7385C4.43966 10.4954 5.80474 8.63685 8.13434 8.63685C10.3133 8.63685 11.8643 10.2615 11.8643 12.6648V20.7944C11.8576 20.8762 11.868 20.9584 11.8948 21.036C11.9216 21.1136 11.9642 21.1847 12.0199 21.245C12.0757 21.3052 12.1433 21.3532 12.2185 21.386C12.2938 21.4187 12.375 21.4355 12.4571 21.4352H15.5237C15.6056 21.4356 15.6867 21.4188 15.7618 21.386C15.8369 21.3532 15.9044 21.3051 15.9598 21.2448C16.0153 21.1845 16.0576 21.1133 16.084 21.0358C16.1105 20.9582 16.1204 20.876 16.1133 20.7944V12.652C16.1133 10.2487 17.7411 8.62403 19.9201 8.62403C22.2465 8.62403 23.5411 10.4698 23.5411 12.7257V22.6273C23.5444 22.7081 23.5636 22.7875 23.5976 22.8609C23.6316 22.9343 23.6798 23.0002 23.7393 23.055C23.7988 23.1097 23.8686 23.1522 23.9445 23.18C24.0205 23.2078 24.1012 23.2203 24.182 23.2169H27.3576C27.4433 23.2231 27.5294 23.2108 27.61 23.1808C27.6905 23.1507 27.7637 23.1037 27.8245 23.0429C27.8853 22.9821 27.9323 22.909 27.9623 22.8284C27.9923 22.7479 28.0046 22.6618 27.9984 22.576V12.7994C27.9536 8.25553 24.5185 4.375 20.122 4.375Z" fill="black"/>
</svg>
