<svg width="20" height="22" viewBox="0 0 20 22" fill="none" xmlns="http://www.w3.org/2000/svg">
<path fill-rule="evenodd" clip-rule="evenodd" d="M9.84961 0.849609C4.87905 0.849609 0.849609 4.87905 0.849609 9.84961C0.849609 14.8202 4.87905 18.8496 9.84961 18.8496C11.6804 18.8496 13.3836 18.3029 14.8047 17.3639L18.2354 21.3063L19.9705 19.7964L16.5467 15.8621C17.9785 14.2684 18.8496 12.1607 18.8496 9.84961C18.8496 4.87905 14.8202 0.849609 9.84961 0.849609ZM3.14961 9.84961C3.14961 6.1493 6.1493 3.14961 9.84961 3.14961C13.5499 3.14961 16.5496 6.1493 16.5496 9.84961C16.5496 13.5499 13.5499 16.5496 9.84961 16.5496C6.1493 16.5496 3.14961 13.5499 3.14961 9.84961Z" fill="#00A651" fill-opacity="0.8"/>
</svg>
