<svg width="28" height="28" viewBox="0 0 28 28" fill="none" xmlns="http://www.w3.org/2000/svg">
<path fill-rule="evenodd" clip-rule="evenodd" d="M8 7.46478L3.7786 12.4957C3.06859 13.3418 1.80708 13.4522 0.960931 12.7422C0.114782 12.0322 0.00441407 10.7707 0.714418 9.92451L8.42787 0.731979C8.63651 0.483336 8.89276 0.298227 9.17211 0.178799C9.42439 0.0639293 9.70472 -6.10352e-05 10 -6.10352e-05C11.1046 -6.10352e-05 12 0.89537 12 1.99994V19.9999C12 21.1045 11.1046 21.9999 10 21.9999C8.89543 21.9999 8 21.1045 8 19.9999V7.46478Z" fill="#1D1E21"/>
<path fill-rule="evenodd" clip-rule="evenodd" d="M20 20.4713L24.1679 15.5042C24.8779 14.6581 26.1394 14.5477 26.9855 15.2577C27.8317 15.9677 27.9421 17.2292 27.2321 18.0754L19.7054 27.0453C19.3536 27.618 18.7214 27.9999 18 27.9999C17.3585 27.9999 16.7876 27.698 16.4216 27.2284C16.0835 26.8047 15.9393 26.2688 16 25.7485V7.99994C16 6.89537 16.8954 5.99994 18 5.99994C19.1046 5.99994 20 6.89537 20 7.99994V20.4713Z" fill="#1D1E21"/>
</svg>
