<svg width="24" height="24" viewBox="0 0 24 24" fill="none" xmlns="http://www.w3.org/2000/svg">
<g clip-path="url(#clip0_774:54509)">
<path d="M12 23.5205C18.3623 23.5205 23.52 18.3628 23.52 12.0005C23.52 5.63815 18.3623 0.480469 12 0.480469C5.63766 0.480469 0.47998 5.63815 0.47998 12.0005C0.47998 18.3628 5.63766 23.5205 12 23.5205Z" fill="#8FCC58"/>
<path d="M12 24C9.62663 24 7.30655 23.2962 5.33316 21.9776C3.35977 20.6591 1.8217 18.7849 0.913451 16.5922C0.00519937 14.3995 -0.232441 11.9867 0.230582 9.65892C0.693605 7.33115 1.83649 5.19295 3.51472 3.51472C5.19295 1.83649 7.33115 0.693605 9.65892 0.230582C11.9867 -0.232441 14.3995 0.00519937 16.5922 0.913451C18.7849 1.8217 20.6591 3.35977 21.9776 5.33316C23.2962 7.30655 24 9.62663 24 12C23.9964 15.1815 22.731 18.2317 20.4813 20.4813C18.2317 22.731 15.1815 23.9964 12 24ZM12 1.20001C9.86397 1.20001 7.7759 1.83341 5.99985 3.02013C4.2238 4.20685 2.83953 5.89358 2.02211 7.86702C1.20468 9.84047 0.990804 12.012 1.40752 14.107C1.82424 16.202 2.85284 18.1264 4.36325 19.6368C5.87366 21.1472 7.79804 22.1758 9.89303 22.5925C11.988 23.0092 14.1595 22.7953 16.133 21.9779C18.1064 21.1605 19.7932 19.7762 20.9799 18.0002C22.1666 16.2241 22.8 14.136 22.8 12C22.7965 9.13673 21.6576 6.39173 19.6329 4.36709C17.6083 2.34245 14.8633 1.20348 12 1.20001Z" fill="white"/>
<path d="M15.3993 8.83841L10.4231 13.7895L8.60547 11.9629C8.54659 11.8986 8.47536 11.8469 8.39602 11.8109C8.31669 11.7748 8.23089 11.7551 8.14377 11.753C8.05665 11.7509 7.96999 11.7663 7.88899 11.7985C7.808 11.8307 7.73432 11.8788 7.67238 11.9401C7.61044 12.0014 7.56152 12.0746 7.52853 12.1553C7.49554 12.2359 7.47918 12.3224 7.48041 12.4096C7.48165 12.4967 7.50045 12.5827 7.53571 12.6624C7.57097 12.7421 7.62195 12.8139 7.68559 12.8734L9.95734 15.1609C10.0174 15.2213 10.0887 15.2692 10.1673 15.3019C10.246 15.3347 10.3303 15.3515 10.4154 15.3515C10.5006 15.3515 10.5849 15.3347 10.6635 15.3019C10.7421 15.2692 10.8135 15.2213 10.8735 15.1609L16.3106 9.75453C16.3707 9.6947 16.4185 9.6236 16.4512 9.5453C16.4839 9.467 16.5008 9.38303 16.501 9.29819C16.5013 9.21335 16.4848 9.12929 16.4525 9.05082C16.4203 8.97235 16.3729 8.901 16.313 8.84084C16.2532 8.78069 16.1821 8.73291 16.1038 8.70023C16.0255 8.66755 15.9415 8.65062 15.8567 8.65039C15.7718 8.65017 15.6878 8.66665 15.6093 8.69891C15.5308 8.73117 15.4595 8.77857 15.3993 8.83841Z" fill="white"/>
</g>
<defs>
<linearGradient id="paint0_linear_774:54509" x1="12" y1="0.480469" x2="12" y2="23.5205" gradientUnits="userSpaceOnUse">
<stop stop-color="#A8E063"/>
<stop offset="1" stop-color="#59C329"/>
</linearGradient>
<clipPath id="clip0_774:54509">
<rect width="24" height="24" fill="white"/>
</clipPath>
</defs>
</svg>
