<svg width="12" height="12" viewBox="0 0 12 12" fill="none" xmlns="http://www.w3.org/2000/svg">
<path fill-rule="evenodd" clip-rule="evenodd" d="M5.68359 0.71875H5.18359V1.67897C2.742 1.91072 0.832031 3.9669 0.832031 6.46918C0.832031 9.12674 2.98641 11.2811 5.64398 11.2811C8.14625 11.2811 10.2024 9.37118 10.4342 6.9296H11.3944V6.4296C11.3944 3.27558 8.83761 0.71875 5.68359 0.71875ZM9.42841 6.9296H5.18359V2.68474C3.29541 2.91205 1.83203 4.51972 1.83203 6.46918C1.83203 8.57446 3.5387 10.2811 5.64398 10.2811C7.59343 10.2811 9.20109 8.81777 9.42841 6.9296ZM6.18359 5.9296V1.74497C8.38596 1.97732 10.1359 3.72723 10.3682 5.9296H6.18359Z" fill="white"/>
</svg>
