<svg width="16" height="12" viewBox="0 0 16 12" fill="none" xmlns="http://www.w3.org/2000/svg">
<path fill-rule="evenodd" clip-rule="evenodd" d="M13.9939 5.72449L15.0521 4.66626L15.9949 5.60907L14.1093 7.49469L13.1665 8.4375L12.2237 7.49469L10.3381 5.60907L11.2809 4.66626L12.6665 6.05187C12.6667 6.0346 12.6668 6.01731 12.6668 6C12.6668 3.42267 10.5774 1.33333 8.00009 1.33333C6.41426 1.33333 5.01318 2.12434 4.16988 3.33333H2.62376C3.60557 1.35771 5.64427 0 8.00009 0C11.2215 0 13.8499 2.53867 13.9939 5.72449ZM8.00009 10.6667C9.27162 10.6667 10.4244 10.1581 11.2661 9.33333H12.9897C11.9134 10.9413 10.0804 12 8.00009 12C4.91473 12 2.3733 9.67118 2.03768 6.67544L0.942321 7.7708L-0.000488281 6.82799L1.88513 4.94238L2.82794 3.99957L3.77075 4.94238L5.65637 6.82799L4.71356 7.7708L3.35103 6.40828C3.55784 8.79441 5.56032 10.6667 8.00009 10.6667Z" fill="black"/>
</svg>
