<svg width="16" height="15" viewBox="0 0 16 15" fill="none" xmlns="http://www.w3.org/2000/svg">
<path d="M15.1398 0.272125H12.8862C12.8236 0.267832 12.7607 0.276377 12.7016 0.297218C12.6425 0.318058 12.5884 0.350743 12.5428 0.393192C12.4973 0.435641 12.4612 0.486927 12.4368 0.543806C12.4125 0.600685 12.4005 0.661909 12.4015 0.723599V1.02665L13.2009 2.26357L12.9869 2.47385C12.3252 1.70998 11.5049 1.09404 10.581 0.667355C9.65705 0.240672 8.65086 0.0131245 7.63004 0C5.66172 0 3.77402 0.76823 2.3822 2.13568C0.990392 3.50314 0.208496 5.3578 0.208496 7.29167C0.208496 9.22554 0.990392 11.0802 2.3822 12.4477C3.77402 13.8151 5.66172 14.5833 7.63004 14.5833C8.65492 14.5725 9.66557 14.3461 10.5939 13.9194C11.5223 13.4927 12.3469 12.8755 13.0121 12.1095L13.2009 12.2579L12.4015 13.5443V13.8288C12.4007 13.8916 12.4126 13.9539 12.4367 14.012C12.4608 14.0702 12.4964 14.123 12.5416 14.1674C12.5868 14.2118 12.6405 14.2468 12.6997 14.2705C12.7589 14.2941 12.8223 14.3059 12.8862 14.305H15.1398C15.2044 14.3086 15.269 14.2987 15.3294 14.2761C15.3899 14.2534 15.4448 14.2185 15.4906 14.1735C15.5363 14.1286 15.5719 14.0746 15.595 14.0152C15.6181 13.9558 15.6281 13.8923 15.6244 13.8288V0.723599C15.6275 0.661374 15.6168 0.599243 15.5932 0.541437C15.5696 0.483631 15.5335 0.431513 15.4875 0.388653C15.4414 0.345792 15.3866 0.313195 15.3266 0.293084C15.2665 0.272974 15.2028 0.265823 15.1398 0.272125ZM7.63004 11.4354C6.50982 11.4354 5.43547 10.9981 4.64336 10.2199C3.85124 9.44164 3.40626 8.3861 3.40626 7.28548C3.40626 6.18486 3.85124 5.12933 4.64336 4.35108C5.43547 3.57283 6.50982 3.13561 7.63004 3.13561C8.75026 3.13561 9.8246 3.57283 10.6167 4.35108C11.4088 5.12933 11.8539 6.18486 11.8539 7.28548C11.8539 8.3861 11.4088 9.44164 10.6167 10.2199C9.8246 10.9981 8.75026 11.4354 7.63004 11.4354Z" fill="#00A651"/>
</svg>
