<svg width="29" height="28" viewBox="0 0 29 28" fill="none" xmlns="http://www.w3.org/2000/svg">
<path fill-rule="evenodd" clip-rule="evenodd" d="M5.70178 2.48926H23.3069C23.7632 2.49301 24.2062 2.64327 24.5707 2.91781C24.9352 3.19236 25.2018 3.57671 25.3314 4.01424L25.3348 4.02584L27.0264 9.96417C27.061 10.0745 27.0796 10.1919 27.0796 10.3137V12.2159C27.0796 13.5343 26.5559 14.7988 25.6236 15.731C25.4822 15.8724 25.3331 16.0045 25.1774 16.1267V23.6293C25.1774 24.191 24.9543 24.7296 24.5571 25.1268C24.1599 25.524 23.6213 25.7471 23.0596 25.7471H5.93964C5.37798 25.7471 4.83931 25.524 4.44215 25.1268C4.04499 24.7297 3.82187 24.191 3.82187 23.6293V16.1267C3.66613 16.0045 3.51706 15.8724 3.37563 15.731C2.44337 14.7988 1.91963 13.5343 1.91963 12.2159V10.3265C1.91919 10.2867 1.92078 10.2469 1.92444 10.2071C1.93181 10.1257 1.94755 10.0467 1.97079 9.97095L3.66762 4.01422C3.79718 3.57669 4.0639 3.19236 4.42838 2.91781C4.79213 2.64382 5.23411 2.49366 5.68944 2.48932L5.70178 2.48926ZM23.3112 14.5635C23.3844 14.5087 23.4642 14.4622 23.5492 14.4255C23.7011 14.3265 23.8435 14.2113 23.9737 14.0811C24.4684 13.5864 24.7463 12.9155 24.7463 12.2159V11.4804H19.4708V12.2159C19.4708 12.9155 19.7487 13.5864 20.2433 14.0811C20.738 14.5758 21.4089 14.8537 22.1085 14.8537C22.5307 14.8537 22.9424 14.7525 23.3112 14.5635ZM18.5934 15.731C18.4921 15.6297 18.3956 15.5244 18.304 15.4156C18.2125 15.5244 18.116 15.6297 18.0147 15.731C17.0824 16.6633 15.818 17.187 14.4996 17.187C13.1811 17.187 11.9167 16.6633 10.9845 15.731C10.8831 15.6297 10.7867 15.5245 10.6951 15.4157C10.6036 15.5245 10.5071 15.6297 10.4058 15.731C9.47357 16.6633 8.20915 17.187 6.89073 17.187C6.64303 17.187 6.39724 17.1685 6.1552 17.1323V23.4138H22.844V17.1323C22.602 17.1685 22.3562 17.187 22.1085 17.187C20.7901 17.187 19.5257 16.6633 18.5934 15.731ZM17.1373 11.4804H11.8618V12.2159L11.8618 12.2285C11.8651 12.9235 12.1427 13.5894 12.6344 14.0811C13.129 14.5758 13.8 14.8537 14.4996 14.8537C15.1991 14.8537 15.8701 14.5758 16.3647 14.0811C16.8594 13.5864 17.1373 12.9155 17.1373 12.2159V11.4804ZM9.52845 11.4804H4.25296V12.2159C4.25296 12.9155 4.53087 13.5864 5.02554 14.0811C5.15573 14.2113 5.29813 14.3265 5.45004 14.4255C5.53508 14.4622 5.6149 14.5087 5.68805 14.5636C6.05689 14.7525 6.46859 14.8537 6.89073 14.8537C7.59031 14.8537 8.26124 14.5758 8.75591 14.0811C9.24763 13.5894 9.52517 12.9235 9.52847 12.2285L9.52845 12.2159V11.4804Z" fill="#00A651"/>
</svg>
