<svg width="24" height="24" viewBox="0 0 24 24" fill="none" xmlns="http://www.w3.org/2000/svg">
<path fill-rule="evenodd" clip-rule="evenodd" d="M4 12C4 16.4183 7.58172 20 12 20C16.4183 20 20 16.4183 20 12C20 7.58172 16.4183 4 12 4C7.58172 4 4 7.58172 4 12ZM12 22C6.47715 22 2 17.5228 2 12C2 6.47715 6.47715 2 12 2C17.5228 2 22 6.47715 22 12C22 17.5228 17.5228 22 12 22ZM12.02 8.00391C11.0291 8.00391 10.2227 8.80898 10.2227 9.78009V9.98879H8.22266V9.78009C8.22266 7.68471 9.94438 6.00391 12.02 6.00391C14.0724 6.00391 15.775 7.66591 15.775 9.73809C15.775 11.0011 15.1366 12.1785 14.0782 12.8676L12.7911 13.7054V14.4868H10.7911V12.621L12.987 11.1914C13.4785 10.8714 13.775 10.3246 13.775 9.73809C13.775 8.79018 12.9877 8.00391 12.02 8.00391ZM12.7949 16.001V18.001H10.7949V16.001H12.7949Z" fill="black"/>
</svg>
