<svg width="21" height="21" viewBox="0 0 21 21" fill="none" xmlns="http://www.w3.org/2000/svg">
<path fill-rule="evenodd" clip-rule="evenodd" d="M2.13281 10.0625C2.13281 14.4808 5.71453 18.0625 10.1328 18.0625C14.5511 18.0625 18.1328 14.4808 18.1328 10.0625C18.1328 5.64422 14.5511 2.0625 10.1328 2.0625C5.71454 2.0625 2.13281 5.64422 2.13281 10.0625ZM10.1328 20.0625C4.60996 20.0625 0.132812 15.5853 0.132812 10.0625C0.132812 4.53965 4.60997 0.0625 10.1328 0.0625C15.6557 0.0625 20.1328 4.53965 20.1328 10.0625C20.1328 15.5853 15.6557 20.0625 10.1328 20.0625ZM10.1528 6.06641C9.16195 6.06641 8.35547 6.87148 8.35547 7.84259V8.05129H6.35547V7.84259C6.35547 5.74721 8.07719 4.06641 10.1528 4.06641C12.2052 4.06641 13.9078 5.72841 13.9078 7.80059C13.9078 9.06358 13.2694 10.241 12.211 10.9301L10.9239 11.7679V12.5493H8.9239V10.6835L11.1198 9.25394C11.6114 8.93393 11.9078 8.38713 11.9078 7.80059C11.9078 6.85268 11.1205 6.06641 10.1528 6.06641ZM10.9277 14.0635H8.92773V16.0635H10.9277V14.0635Z" fill="black"/>
</svg>
