<svg width="61" height="60" viewBox="0 0 61 60" fill="none" xmlns="http://www.w3.org/2000/svg">
<path d="M0.5 30C0.5 13.4315 13.9315 0 30.5 0C47.0685 0 60.5 13.4315 60.5 30C60.5 46.5685 47.0685 60 30.5 60C13.9315 60 0.5 46.5685 0.5 30Z" fill="#1DC439" fill-opacity="0.15"/>
<path fill-rule="evenodd" clip-rule="evenodd" d="M21.0729 17.666H39.9355C40.4244 17.67 40.8991 17.831 41.2896 18.1252C41.6801 18.4193 41.9658 18.8311 42.1046 19.2999L42.1083 19.3124L43.9207 25.6748C43.9577 25.7931 43.9777 25.9189 43.9777 26.0493V28.0874C43.9777 29.5 43.4166 30.8548 42.4177 31.8536C42.2662 32.0051 42.1065 32.1466 41.9396 32.2775V40.3161C41.9396 40.9179 41.7006 41.495 41.275 41.9205C40.8495 42.3461 40.2723 42.5851 39.6706 42.5851H21.3277C20.726 42.5851 20.1488 42.3461 19.7233 41.9205C19.2978 41.495 19.0587 40.9179 19.0587 40.3161V32.2775C18.8918 32.1466 18.7321 32.0051 18.5806 31.8536C17.5817 30.8548 17.0206 29.5 17.0206 28.0874V26.0631C17.0201 26.0205 17.0218 25.9778 17.0257 25.9351C17.0336 25.8479 17.0505 25.7632 17.0754 25.6821L18.8934 19.2999C19.0322 18.8311 19.318 18.4193 19.7085 18.1252C20.0983 17.8316 20.5718 17.6707 21.0597 17.6661L21.0729 17.666ZM39.9401 30.6028C40.0185 30.5439 40.104 30.4941 40.1951 30.4549C40.3579 30.3487 40.5105 30.2253 40.65 30.0858C41.18 29.5558 41.4777 28.837 41.4777 28.0874V27.2993H35.8254V28.0874C35.8254 28.837 36.1231 29.5558 36.6531 30.0858C37.1831 30.6159 37.902 30.9136 38.6515 30.9136C39.1038 30.9136 39.5449 30.8052 39.9401 30.6028ZM34.8854 31.8536C34.7768 31.745 34.6734 31.6323 34.5753 31.5156C34.4772 31.6323 34.3738 31.745 34.2653 31.8536C33.2664 32.8525 31.9117 33.4136 30.4991 33.4136C29.0865 33.4136 27.7318 32.8525 26.7329 31.8536C26.6244 31.7451 26.521 31.6323 26.4229 31.5157C26.3249 31.6323 26.2215 31.7451 26.1129 31.8536C25.1141 32.8525 23.7594 33.4136 22.3468 33.4136C22.0814 33.4136 21.818 33.3938 21.5587 33.355V40.0851H39.4396V33.355C39.1803 33.3938 38.9169 33.4136 38.6515 33.4136C37.239 33.4136 35.8842 32.8525 34.8854 31.8536ZM33.3253 27.2993H27.6729V28.0874L27.6729 28.1009C27.6765 28.8456 27.9738 29.559 28.5007 30.0858C29.0307 30.6159 29.7495 30.9136 30.4991 30.9136C31.2486 30.9136 31.9675 30.6159 32.4975 30.0858C33.0275 29.5558 33.3253 28.837 33.3253 28.0874V27.2993ZM25.1729 27.2993H19.5206V28.0874C19.5206 28.837 19.8183 29.5558 20.3484 30.0858C20.4878 30.2253 20.6404 30.3487 20.8032 30.4548C20.8943 30.4941 20.9798 30.5439 21.0582 30.6028C21.4534 30.8052 21.8945 30.9136 22.3468 30.9136C23.0963 30.9136 23.8152 30.6159 24.3452 30.0858C24.872 29.559 25.1694 28.8456 25.1729 28.1009L25.1729 28.0874V27.2993Z" fill="#00A651"/>
<path d="M30.5 59C14.4837 59 1.5 46.0163 1.5 30H-0.5C-0.5 47.1208 13.3792 61 30.5 61V59ZM59.5 30C59.5 46.0163 46.5163 59 30.5 59V61C47.6208 61 61.5 47.1208 61.5 30H59.5ZM30.5 1C46.5163 1 59.5 13.9837 59.5 30H61.5C61.5 12.8792 47.6208 -1 30.5 -1V1ZM30.5 -1C13.3792 -1 -0.5 12.8792 -0.5 30H1.5C1.5 13.9837 14.4837 1 30.5 1V-1Z" fill="#F4F5F5"/>
</svg>
