<svg width="24" height="24" viewBox="0 0 24 24" fill="none" xmlns="http://www.w3.org/2000/svg">
<path fill-rule="evenodd" clip-rule="evenodd" d="M19.3965 18.2959C19.9488 18.2959 20.3965 17.8482 20.3965 17.2959L20.3965 10.0449L3.60642 10.0449L3.60642 17.2959C3.60642 17.8482 4.05413 18.2959 4.60642 18.2959L19.3965 18.2959ZM20.3965 6.70322V8.04494L3.60642 8.04494L3.60642 6.70322C3.60642 6.15093 4.05413 5.70322 4.60642 5.70322L19.3965 5.70322C19.9488 5.70322 20.3965 6.15093 20.3965 6.70322ZM22.3965 17.2959C22.3965 18.9528 21.0533 20.2959 19.3965 20.2959L4.60641 20.2959C2.94956 20.2959 1.60641 18.9528 1.60641 17.2959V6.70322C1.60641 5.04636 2.94956 3.70322 4.60642 3.70322H19.3965C21.0533 3.70322 22.3965 5.04636 22.3965 6.70322L22.3965 17.2959ZM5.5 12H10.0178L10.0178 14L5.5 14V12Z" fill="black"/>
</svg>