<svg width="30" height="31" viewBox="0 0 30 31" fill="none" xmlns="http://www.w3.org/2000/svg">
<path d="M26.6442 22.2794C27.8585 20.2244 28.4989 17.8812 28.4986 15.4943C28.4981 13.4264 28.0166 11.3869 27.0922 9.53711C26.1678 7.68732 24.8258 6.07789 23.1723 4.83604C21.5188 3.5942 19.5991 2.75398 17.565 2.38179C15.5308 2.00961 13.438 2.11567 11.4519 2.69158C9.46581 3.2675 7.64089 4.29748 6.1214 5.70012C4.6019 7.10276 3.42949 8.83961 2.69683 10.7734C1.96416 12.7072 1.69133 14.7848 1.8999 16.8422C2.10847 18.8996 2.79273 20.8802 3.89858 22.6276L1.83191 28.8276L8.03191 26.7609C10.0485 28.0379 12.3709 28.7502 14.7567 28.8233C17.1425 28.8965 19.5042 28.3278 21.5952 27.1767C23.6862 26.0256 25.4299 24.3343 26.6442 22.2794Z" stroke="black" stroke-width="3" stroke-linecap="round" stroke-linejoin="round"/>
<mask id="path-2-inside-1_22027_80240" fill="white">
<path d="M16.2274 23.5L16.2274 20.8324L13.5597 20.8324L13.5597 23.5L16.2274 23.5Z"/>
</mask>
<path d="M16.2274 20.8324L19.4287 20.8324L19.4287 17.6311L16.2274 17.6311L16.2274 20.8324ZM16.2274 23.5L16.2274 26.7013L19.4287 26.7013L19.4287 23.5L16.2274 23.5ZM13.5597 20.8324L13.5597 17.6311L10.3584 17.6311L10.3584 20.8324L13.5597 20.8324ZM13.5597 23.5L10.3584 23.5L10.3584 26.7013L13.5597 26.7013L13.5597 23.5ZM13.0261 20.8324L13.0261 23.5L19.4287 23.5L19.4287 20.8324L13.0261 20.8324ZM13.5597 24.0337L16.2274 24.0337L16.2274 17.6311L13.5597 17.6311L13.5597 24.0337ZM16.7609 23.5L16.7609 20.8324L10.3584 20.8324L10.3584 23.5L16.7609 23.5ZM16.2274 20.2987L13.5597 20.2987L13.5597 26.7013L16.2274 26.7013L16.2274 20.2987Z" fill="black" mask="url(#path-2-inside-1_22027_80240)"/>
<path fill-rule="evenodd" clip-rule="evenodd" d="M15.1936 10.1676C13.8719 10.1676 12.7962 11.2414 12.7962 12.5367V12.815H10.1284V12.5367C10.1284 9.74186 12.425 7.5 15.1936 7.5C17.9313 7.5 20.2024 9.71677 20.2024 12.4806C20.2024 14.1652 19.3508 15.7356 17.9389 16.6547L16.2222 17.7723V18.8145H13.5544V16.3258L16.4835 14.4191C17.1391 13.9923 17.5346 13.263 17.5346 12.4806C17.5346 11.2163 16.4844 10.1676 15.1936 10.1676Z" fill="black"/>
</svg>
