<svg width="24" height="25" viewBox="0 0 24 25" fill="none" xmlns="http://www.w3.org/2000/svg">
    <path fill-rule="evenodd" clip-rule="evenodd" d="M10.8297 6.43254L7.77912 6.43255C6.76545 6.38026 5.95963 5.54179 5.95964 4.51511C5.95964 3.45469 6.81929 2.59505 7.8797 2.59505H8.90962C9.97003 2.59505 10.8297 3.45468 10.8297 4.51509V6.43254ZM16.224 6.43254L13.1733 6.43254V4.51509C13.1733 3.45468 14.0329 2.59505 15.0933 2.59505H16.1232C17.1836 2.59505 18.0433 3.45469 18.0433 4.51511C18.0433 5.54171 17.2376 6.38013 16.224 6.43254ZM19.921 6.43253C20.2124 5.85638 20.3766 5.20491 20.3766 4.51509C20.3766 2.16601 18.4723 0.261719 16.1232 0.261719L15.0933 0.261719C13.8753 0.261719 12.7769 0.773692 12.0015 1.59418C11.2261 0.773692 10.1276 0.261719 8.90962 0.261719L7.8797 0.261719C5.53063 0.261719 3.62632 2.16601 3.6263 4.51509C3.6263 5.20492 3.79051 5.8564 4.08199 6.43255L3.80175 6.43255C1.86876 6.43256 0.301757 7.99956 0.301758 9.93255L0.301765 20.7418C0.301766 22.6748 1.86877 24.2418 3.80177 24.2418H20.1991C20.3106 24.2418 20.4208 24.2366 20.5296 24.2264C22.3078 24.0601 23.6995 22.5635 23.6995 20.7418V9.93253C23.6995 8.0296 22.1809 6.48137 20.2895 6.43367C20.2596 6.43292 20.2296 6.43253 20.1995 6.43253H20.1993H20.1991L19.921 6.43253ZM13.1579 8.76846H13.163L16.1233 8.76847C16.1735 8.76847 16.2235 8.7676 16.2734 8.76587L17.2048 8.76587V21.9085H13.1579L13.1579 8.76846ZM7.72991 8.76588C7.77961 8.7676 7.82953 8.76847 7.87966 8.76847L10.7932 8.76846L10.7932 21.9085H3.80177C3.15743 21.9085 2.6351 21.3861 2.6351 20.7418L2.63509 9.93255C2.63509 9.28822 3.15742 8.76589 3.80176 8.76589L7.72991 8.76588Z" fill="black"/>
    </svg>
    