<svg width="10" height="11" viewBox="0 0 10 11" fill="none" xmlns="http://www.w3.org/2000/svg">
<path d="M6.91303 10.9818C6.70303 10.8968 6.55303 10.7068 6.51803 10.4818C6.49303 10.3518 6.51803 10.2618 6.71803 9.90176C7.46803 8.55176 7.85303 7.02676 7.83303 5.48176C7.85303 3.98176 7.48803 2.51676 6.76803 1.20176C6.66303 0.981758 6.56803 0.771758 6.48803 0.546758C6.51803 0.356758 6.61303 0.181758 6.76803 0.0767578C6.99303 -0.0432422 7.26803 -0.0182422 7.47303 0.121758C7.61303 0.301758 7.73303 0.481758 7.83303 0.691758C8.37101 1.72221 8.73748 2.83344 8.91803 3.98176C9.03303 4.88676 9.04803 5.80676 8.96303 6.71676C8.80803 7.88676 8.46303 9.01676 7.93303 10.0718C7.61303 10.7118 7.43303 10.9818 7.24303 10.9818H6.91303ZM4.73303 9.87676C4.44803 9.79676 4.26803 9.50676 4.32803 9.21676C4.32803 9.15676 4.48303 8.88176 4.62303 8.60176C5.21303 7.46676 5.46803 6.18676 5.35303 4.91176C5.28303 3.99676 5.01803 3.10676 4.58303 2.30176C4.26803 1.67176 4.24803 1.57176 4.43303 1.30176C4.65303 1.05676 5.01803 1.02176 5.28803 1.23176C5.64803 1.76176 5.93303 2.34176 6.14303 2.95176C6.78303 4.84676 6.68303 6.91176 5.86303 8.73176C5.44303 9.67676 5.14803 9.98176 4.73303 9.85176V9.87676ZM2.48303 8.76176C2.39401 8.7218 2.31503 8.66245 2.25188 8.58806C2.18873 8.51366 2.143 8.4261 2.11803 8.33176C2.11803 8.23176 2.11803 8.10176 2.34303 7.70176C2.70939 7.03717 2.90152 6.29064 2.90152 5.53176C2.90152 4.77288 2.70939 4.02635 2.34303 3.36176C2.01803 2.73176 2.01803 2.60176 2.28303 2.36176C2.37803 2.25176 2.51803 2.19676 2.66803 2.21676C2.98803 2.21676 3.16803 2.37176 3.43803 2.93676C3.86337 3.71724 4.08358 4.59293 4.07803 5.48176C4.09803 6.38676 3.87803 7.28676 3.44303 8.08176C3.17303 8.60676 3.03803 8.73176 2.76803 8.77676C2.67303 8.78676 2.57303 8.77676 2.48303 8.73176V8.76176ZM0.378034 7.69676C0.213034 7.61676 0.083034 7.48176 0.018034 7.30676C-0.031966 7.13176 0.018034 6.98176 0.218034 6.66176C0.468034 6.32176 0.588034 5.90176 0.563034 5.48176C0.598034 5.05676 0.483034 4.63676 0.238034 4.28676C0.154869 4.16081 0.081327 4.02877 0.018034 3.89176C-0.036966 3.57676 0.173034 3.27676 0.518034 3.21676C0.788034 3.16676 0.978034 3.28176 1.22803 3.66176C1.58269 4.20157 1.77167 4.83336 1.77167 5.47926C1.77167 6.12516 1.58269 6.75694 1.22803 7.29676C0.973034 7.68176 0.683034 7.79676 0.383034 7.69676H0.378034Z" fill="#808080"/>
</svg>
