<svg width="29" height="28" viewBox="0 0 29 28" fill="none" xmlns="http://www.w3.org/2000/svg">
<path d="M14.9385 0.459229L15.6494 0.503174L16.3564 0.583252L17.0596 0.701416L17.7539 0.855713L18.4404 1.04517L19.1152 1.27173L19.7783 1.53247L20.4258 1.82739L21.0576 2.15649L21.6709 2.51782L22.2646 2.9104L22.8369 3.33423L23.3867 3.78735L23.9111 4.26782L24.4102 4.77563L24.8828 5.30981L25.3027 5.83911C25.1693 5.83121 25.0349 5.82739 24.8994 5.82739C22.9551 5.83105 21.0886 6.59764 19.6963 7.96509L20.417 9.41333L20.1201 9.65845C19.4712 8.51006 18.5355 7.55214 17.4062 6.88013C16.2771 6.20826 14.9929 5.84554 13.6816 5.82739C9.5739 5.82767 6.26196 9.44895 6.26172 13.6897V22.8274C6.25598 22.9074 6.26717 22.9876 6.29492 23.0627C6.32272 23.1379 6.36654 23.2062 6.42285 23.2629C6.47913 23.3196 6.54652 23.3638 6.62109 23.3918C6.69572 23.4199 6.77603 23.4318 6.85547 23.426H9.82324C9.89543 23.4272 9.96721 23.4132 10.0342 23.386C10.1011 23.3588 10.1617 23.3181 10.2129 23.2668C10.2641 23.2156 10.3047 23.1545 10.332 23.0872C10.3593 23.0199 10.3729 22.9479 10.3721 22.8752V13.6331C10.3722 11.5395 11.6371 9.80493 13.7949 9.80493C15.8134 9.80494 17.25 11.3215 17.25 13.5647V21.1526C17.2438 21.2289 17.2535 21.3058 17.2783 21.3782C17.3031 21.4505 17.3429 21.5173 17.3945 21.5735C17.446 21.6295 17.5086 21.6738 17.5781 21.7043C17.6477 21.7349 17.7229 21.7505 17.7988 21.7502H20.6396C20.7155 21.7505 20.7908 21.7349 20.8604 21.7043C20.9299 21.6737 20.9926 21.6288 21.0439 21.5725C21.0951 21.5163 21.1347 21.4503 21.1592 21.3782C21.1837 21.3058 21.1921 21.2288 21.1855 21.1526V13.553C21.1855 11.3099 22.6937 9.7934 24.7119 9.79321C26.5834 9.79321 27.7326 11.0927 28.0029 12.8137L28.0312 13.1028L28.0625 13.8137L28.0557 14.5256L28.0127 15.2366L27.9316 15.9436L27.8145 16.6467L27.6602 17.3411L27.4697 18.0276L27.2441 18.7024L26.9834 19.3655L26.6875 20.0129L26.3594 20.6448L25.998 21.2581L25.6045 21.8518L25.1807 22.4241L24.7285 22.9739L24.2471 23.4983L23.7393 23.9973L23.2061 24.47L22.6484 24.9124L22.0693 25.3264L21.4688 25.7092L20.8486 26.0598L20.2119 26.3772L19.5586 26.6614L18.8916 26.9104L18.2129 27.1243L17.5234 27.303L16.8262 27.4446L16.1211 27.55L15.4131 27.6184L14.7012 27.6497L13.9893 27.6428L13.2793 27.5999L12.5713 27.5188L11.8691 27.4016L11.1738 27.2473L10.4883 27.0569L9.8125 26.8313L9.15039 26.5706L8.50195 26.2747L7.87109 25.9465L7.25684 25.5852L6.66309 25.1917L6.09082 24.7678L5.54199 24.3157L5.0166 23.8342L4.51758 23.3264L4.0459 22.7932L3.60254 22.2356L3.18945 21.6565L2.80664 21.0559L2.45605 20.4358L2.13867 19.7991L1.85449 19.1458L1.60547 18.4788L1.39062 17.8L1.21289 17.1106L1.07031 16.4133L0.96582 15.7083L0.897461 15.0002L0.866211 14.2883L0.87207 13.5764L0.916016 12.8665L0.996094 12.1584L1.11426 11.4563L1.26855 10.761L1.45801 10.0754L1.68457 9.39966L1.94531 8.73755L2.24023 8.08911L2.56934 7.45825L2.93066 6.84399L3.32324 6.25024L3.74707 5.67798L4.2002 5.12915L4.68066 4.60376L5.18848 4.10474L5.72266 3.63306L6.2793 3.1897L6.85938 2.77661L7.45996 2.3938L8.0791 2.04321L8.7168 1.72583L9.36914 1.44165L10.0361 1.19263L10.7158 0.977783L11.4053 0.800049L12.1025 0.657471L12.8066 0.552979L13.5156 0.484619L14.2266 0.453369L14.9385 0.459229Z" fill="url(#paint0_linear_54230_821)"/>
<defs>
<linearGradient id="paint0_linear_54230_821" x1="28.0625" y1="25.5918" x2="2.90521" y2="1.33514" gradientUnits="userSpaceOnUse">
<stop/>
<stop offset="1" stop-opacity="0.56"/>
</linearGradient>
</defs>
</svg>
