<svg width="25" height="24" viewBox="0 0 25 24" fill="none" xmlns="http://www.w3.org/2000/svg">
<path fill-rule="evenodd" clip-rule="evenodd" d="M18.3637 2.46719L11.422 2.46094L4.27284 2.46724C2.48965 2.46881 1.04492 3.91482 1.04492 5.69801V15.3839C1.04492 17.1682 2.49139 18.6147 4.27569 18.6147H18.3608C20.1451 18.6147 21.5916 17.1682 21.5916 15.3839V5.69796C21.5916 3.91479 20.1469 2.4688 18.3637 2.46719ZM3.19877 9.0745V15.3839C3.19877 15.9787 3.68092 16.4608 4.27569 16.4608H18.3608C18.9556 16.4608 19.4378 15.9787 19.4378 15.3839V9.0745H3.19877ZM19.4378 6.92065H3.19877V5.69801C3.19877 5.10361 3.68035 4.62161 4.27474 4.62108L18.3618 4.62104C18.9562 4.62157 19.4378 5.10357 19.4378 5.69796V6.92065Z" fill="black"/>
<path d="M23.9539 9.99756C23.9539 8.3407 22.6108 6.99755 20.9539 6.99756L19.4572 6.99757V16.4936H4.12988V18.5378C4.12988 20.1947 5.47303 21.5378 7.12988 21.5378H20.4539C22.3869 21.5378 23.9539 19.9708 23.9539 18.0378V9.99756Z" fill="black"/>
<path d="M4.9126 10.8H10.0869V12.95H4.9126V10.8Z" fill="black"/>
</svg>
