<svg width="25" height="28" viewBox="0 0 25 28" fill="none" xmlns="http://www.w3.org/2000/svg">
    <path d="M12.6382 -0.00195312C12.1334 -0.00195312 11.6287 0.337507 11.6382 1.01367V4.14258L9.80039 2.30274C9.40742 1.89844 8.75688 1.89831 8.36879 2.29874C7.98092 2.69936 7.99101 3.33205 8.38639 3.71671C9.47037 4.80069 10.5543 5.88464 11.6383 6.96866V12.2675L7.04854 9.61905C6.65169 8.13795 6.25595 6.65679 5.85912 5.17569C5.72366 4.641 5.18128 4.31743 4.6404 4.45304C4.09959 4.58893 3.7739 5.15078 3.92753 5.69327L4.60134 8.20499L1.89048 6.64054C1.41663 6.35823 0.804084 6.51172 0.517484 6.99015C0.231134 7.46871 0.398294 8.09605 0.890514 8.37101L3.59942 9.93546L1.08973 10.6073C0.543114 10.7455 0.218274 11.3093 0.371004 11.8456C0.523994 12.3818 1.07653 12.689 1.60729 12.539C3.08758 12.1423 4.56826 11.7462 6.04857 11.3495L10.6383 13.9999L6.04857 16.6483C4.56826 16.2517 3.08758 15.8556 1.60729 15.4589C1.07653 15.3089 0.523994 15.616 0.371004 16.1523C0.218274 16.6886 0.543114 17.2523 1.08973 17.3905L3.60137 18.0624L0.890514 19.6269C0.398294 19.9018 0.231134 20.5292 0.517484 21.0077C0.804084 21.4862 1.41663 21.6396 1.89048 21.3573L4.60134 19.7929L3.92753 22.3046C3.7739 22.8471 4.09958 23.4089 4.6404 23.5448C5.18128 23.6804 5.72366 23.3569 5.85912 22.8222C6.25595 21.3411 6.65168 19.8599 7.04854 18.3788L11.6383 15.7304V21.0292C10.5543 22.1132 9.47037 23.1972 8.38639 24.2812C7.99103 24.6658 7.98094 25.2985 8.36879 25.6991C8.75688 26.0996 9.40742 26.0995 9.80039 25.6951L11.6382 23.8572V26.9842C11.6302 27.548 12.0884 28.0066 12.646 27.9979C13.2036 27.9889 13.6457 27.5357 13.6382 26.9842V23.8611L15.4741 25.6951C15.867 26.0994 16.5176 26.0995 16.9057 25.6991C17.2935 25.2985 17.2834 24.6658 16.8881 24.2812C15.8047 23.1978 14.7215 22.1145 13.6382 21.0312V15.7323L18.2259 18.3808C18.6226 19.8613 19.0206 21.3417 19.4173 22.8222C19.5527 23.3569 20.0951 23.6804 20.636 23.5448C21.1768 23.4089 21.5025 22.8471 21.3489 22.3046L20.677 19.7948L23.384 21.3573C24.5455 22.0501 25.5646 20.2845 24.3839 19.6249L21.677 18.0624L24.1847 17.3905C24.7313 17.2523 25.0562 16.6886 24.9035 16.1523C24.7505 15.616 24.1979 15.3089 23.6672 15.4589C22.1875 15.8554 20.7075 16.2518 19.2278 16.6483L14.6381 13.9999L19.2278 11.3495C20.7075 11.746 22.1875 12.1425 23.6672 12.539C24.1979 12.689 24.7505 12.3818 24.9035 11.8456C25.0562 11.3093 24.7313 10.7455 24.1847 10.6073L21.677 9.93546L24.3839 8.37296C25.5646 7.71334 24.5455 5.9478 23.384 6.64054L20.6751 8.20499L21.3489 5.69327C21.5025 5.15078 21.1768 4.58893 20.636 4.45304C20.0951 4.31743 19.5527 4.64101 19.4173 5.17569C19.0205 6.6568 18.6228 8.13794 18.2259 9.61905L13.6382 12.2675V6.96671C14.7215 5.88334 15.8047 4.80004 16.8881 3.71671C17.2834 3.33205 17.2935 2.69936 16.9057 2.29874C16.5176 1.89822 15.867 1.89835 15.4741 2.30274L13.6382 4.13867V1.01367C13.6482 0.337507 13.143 -0.00195312 12.6382 -0.00195312Z" fill="black"/>
    </svg>
    