<svg width="24" height="24" viewBox="0 0 24 24" fill="none" xmlns="http://www.w3.org/2000/svg">
<path d="M4.24609 11.5362C4.24609 7.25325 7.71809 3.78125 12.001 3.78125C16.284 3.78125 19.756 7.25325 19.756 11.5362H21.756C21.756 6.14868 17.3885 1.78125 12.001 1.78125C6.61352 1.78125 2.24609 6.14868 2.24609 11.5362H4.24609Z" fill="black"/>
<path d="M8.35303 11.3868C8.35303 9.36381 9.99296 7.72388 12.0159 7.72388C14.0389 7.72388 15.6788 9.36381 15.6788 11.3868H17.6788C17.6788 8.25924 15.1434 5.72388 12.0159 5.72388C8.88839 5.72388 6.35303 8.25924 6.35303 11.3868H8.35303Z" fill="black"/>
<path d="M12.8948 11.5716C12.7308 11.2169 12.3752 10.9902 11.9845 10.9912C11.5937 10.9922 11.2394 11.2207 11.0772 11.5763L6.87043 20.8006C6.72926 21.1102 6.75515 21.4703 6.93916 21.7564C7.12318 22.0426 7.44006 22.2156 7.78028 22.2156H16.2515C16.5926 22.2156 16.9102 22.0417 17.094 21.7543C17.2778 21.4669 17.3023 21.1056 17.1592 20.7959L12.8948 11.5716Z" fill="black"/>
</svg>
