<svg width="21" height="21" viewBox="0 0 21 21" fill="none" xmlns="http://www.w3.org/2000/svg">
<path fill-rule="evenodd" clip-rule="evenodd" d="M10.1732 4.09049C13.8551 4.09049 16.8398 7.07526 16.8398 10.7572C16.8398 14.4391 13.8551 17.4238 10.1732 17.4238C6.49128 17.4238 3.50651 14.4391 3.50651 10.7572C3.50651 7.07526 6.49128 4.09049 10.1732 4.09049ZM18.5065 10.7572C18.5065 6.15479 14.7756 2.42383 10.1732 2.42383C5.5708 2.42383 1.83984 6.15479 1.83984 10.7572C1.83984 15.3595 5.5708 19.0905 10.1732 19.0905C14.7756 19.0905 18.5065 15.3595 18.5065 10.7572ZM9.33984 9.56677V15.2001H11.0065V9.56677H9.33984ZM9.33984 7.94059V6.27393H11.0065V7.94059H9.33984Z" fill="#00A651"/>
</svg>
