<svg width="19" height="19" viewBox="0 0 19 19" fill="none" xmlns="http://www.w3.org/2000/svg">
<path fill-rule="evenodd" clip-rule="evenodd" d="M4.50001 3.00001C4.5 1.34315 5.84315 0 7.50001 0H15.5C17.1569 0 18.5 1.34315 18.5 3V12C18.5 13.657 17.1564 15 15.4997 15H13.7308V13H15.4997C16.0522 13 16.5 12.5521 16.5 12V3C16.5 2.44772 16.0523 2 15.5 2H7.50001C6.94772 2 6.5 2.44772 6.50001 3L6.50001 5.71428L4.50001 5.71429L4.50001 3.00001Z" fill="#00A651"/>
<path fill-rule="evenodd" clip-rule="evenodd" d="M2.64242 6.09387C2.56777 6.1821 2.5 6.33291 2.5 6.52941V16.4706C2.5 16.6671 2.56777 16.8179 2.64242 16.9061C2.71526 16.9922 2.77253 17 2.79403 17H12.206C12.2275 17 12.2847 16.9922 12.3576 16.9061C12.4322 16.8179 12.5 16.6671 12.5 16.4706V6.52941C12.5 6.33291 12.4322 6.1821 12.3576 6.09387C12.2847 6.00778 12.2275 6 12.206 6H2.79403C2.77253 6 2.71526 6.00778 2.64242 6.09387ZM0.5 6.52941C0.5 5.29563 1.37694 4 2.79403 4H12.206C13.6231 4 14.5 5.29563 14.5 6.52941V16.4706C14.5 17.7044 13.6231 19 12.206 19H2.79403C1.37694 19 0.5 17.7044 0.5 16.4706V6.52941Z" fill="#00A651"/>
</svg>
