<svg width="24" height="18" viewBox="0 0 24 18" fill="none" xmlns="http://www.w3.org/2000/svg">
<path fill-rule="evenodd" clip-rule="evenodd" d="M5.6203 15.5H21.1203V17.5H5.6203V15.5Z" fill="black"/>
<path fill-rule="evenodd" clip-rule="evenodd" d="M7.35161 0.5C7.02951 0.499997 6.72712 0.655148 6.53927 0.916802C6.35142 1.17846 6.30111 1.51458 6.40411 1.81977L7.47741 5.00002H6.33868L4.76353 3.10984C4.57354 2.88184 4.29209 2.75002 3.99531 2.75002H1.23829C0.912839 2.75002 0.607747 2.90839 0.420462 3.17455C0.233177 3.44072 0.187129 3.78136 0.297025 4.0877L2.80087 11.0671C2.81153 11.0968 2.8235 11.1258 2.8367 11.1539C3.25069 12.2674 4.32052 13.0353 5.54537 13.0353H21.3702C22.4748 13.0353 23.3703 12.1398 23.3702 11.0352L23.3702 10.242C23.3703 10.2352 23.3703 10.2284 23.3703 10.2217V9.00002C23.3703 7.93915 22.9489 6.92174 22.1987 6.17159C21.4486 5.42145 20.4312 5.00002 19.3703 5.00002H14.5602L10.7325 0.824296C10.5431 0.617669 10.2756 0.500023 9.99532 0.500021L7.35161 0.5ZM21.3703 9.46472V9.00002C21.3703 8.46959 21.1596 7.96088 20.7845 7.58581C20.4094 7.21073 19.9007 7.00002 19.3703 7.00002H14.1203C13.84 7.00002 13.5726 6.88237 13.3832 6.67575L9.55541 2.50002L8.74451 2.50001L9.8178 5.68025C9.9208 5.98544 9.87049 6.32156 9.68264 6.58322C9.49479 6.84487 9.19241 7.00002 8.87031 7.00002H5.87031C5.57353 7.00002 5.29208 6.8682 5.10209 6.64021L3.52693 4.75002H2.65944L4.35083 9.46472H21.3703Z" fill="black"/>
</svg>
