<svg width="22" height="22" viewBox="0 0 22 22" fill="none" xmlns="http://www.w3.org/2000/svg">
<path fill-rule="evenodd" clip-rule="evenodd" d="M2 2H8V8H2L2 2ZM0 2C0 0.89543 0.895431 0 2 0H8C9.10457 0 10 0.895431 10 2V8C10 9.10457 9.10457 10 8 10H2C0.89543 10 0 9.10457 0 8V2ZM2 14H8V20H2L2 14ZM0 14C0 12.8954 0.895431 12 2 12H8C9.10457 12 10 12.8954 10 14V20C10 21.1046 9.10457 22 8 22H2C0.89543 22 0 21.1046 0 20V14ZM20 2H14V8H20V2ZM14 0C12.8954 0 12 0.89543 12 2V8C12 9.10457 12.8954 10 14 10H20C21.1046 10 22 9.10457 22 8V2C22 0.895431 21.1046 0 20 0H14ZM14 14H20V20H14V14ZM12 14C12 12.8954 12.8954 12 14 12H20C21.1046 12 22 12.8954 22 14V20C22 21.1046 21.1046 22 20 22H14C12.8954 22 12 21.1046 12 20V14Z" fill="black"/>
</svg>
