<svg width="27" height="30" viewBox="0 0 27 30" fill="none" xmlns="http://www.w3.org/2000/svg">
<path fill-rule="evenodd" clip-rule="evenodd" d="M14.7136 0.564545C14.372 0.41185 14.0019 0.332909 13.6272 0.333376C13.2525 0.333843 12.8826 0.413708 12.5413 0.567248L12.5389 0.56833L1.91078 5.37533C1.44562 5.58333 1.05173 5.92089 0.773793 6.34549C0.495116 6.77123 0.344063 7.26742 0.336719 7.77503L0.336712 7.77552C0.290152 11.0787 0.925031 23.1575 12.3578 29.3478L12.9926 28.1753L12.3578 29.3478C13.1475 29.7754 14.1158 29.7711 14.9002 29.3464L14.9031 29.3448C26.2496 23.1648 27.0108 11.1216 27.0012 7.80395L27.0012 7.8026C26.9992 7.28812 26.8493 6.78398 26.568 6.35181C26.2878 5.92141 25.8886 5.58007 25.4169 5.37183L14.7159 0.565547L14.7136 0.564545ZM24.3289 7.80649L13.6305 3.00136L3.00667 7.8064L3.00421 7.80752C3.00369 7.80885 3.00315 7.81092 3.00311 7.81361C2.95932 10.9262 3.59869 21.5689 13.6219 26.9997C13.6231 26.9999 13.6248 27 13.6269 27C13.6284 27 13.6297 27 13.6309 26.9999C13.6322 26.9997 13.6334 26.9996 13.6342 26.9994C23.5916 21.5714 24.3436 10.9413 24.3345 7.81165L25.6678 7.8078L24.3345 7.81301C24.3345 7.81174 24.3344 7.81065 24.3342 7.80974C24.3341 7.80938 24.334 7.80904 24.334 7.80874L24.3289 7.80654L24.3289 7.80649ZM19.606 8.42354L12.6096 15.5951L8.67526 11.6607L6.78964 13.5463L11.6786 18.4353C11.9306 18.6873 12.2731 18.828 12.6296 18.8258C12.9861 18.8236 13.3268 18.6787 13.5758 18.4235L21.5148 10.2857L19.606 8.42354Z" fill="black"/>
</svg>
