<svg width="29" height="23" viewBox="0 0 29 23" fill="none" xmlns="http://www.w3.org/2000/svg">
<path d="M9.70936 22.5677V14.325H7.46536V12.301H11.836V22.5677H9.70936Z" fill="black"/>
<path d="M13.4923 22.5677V21.101L17.6723 16.7597C17.9657 16.4517 18.2883 16.085 18.3177 15.5717C18.3617 14.7797 17.7897 14.0757 16.9097 14.0757C16.0297 14.0757 15.4577 14.7797 15.4577 15.5424H13.331C13.331 13.313 15.091 12.169 16.9097 12.169C18.7137 12.169 20.4443 13.2837 20.4443 15.513C20.4443 16.4664 19.9897 17.2584 19.2123 18.0504L16.7923 20.5144H20.415L20.4003 22.5677H13.4923Z" fill="black"/>
<path d="M25.2896 22.685C23.2216 22.685 21.5643 21.145 21.5643 19.3264H23.7203C23.7203 20.1624 24.3656 20.7784 25.2896 20.7784C26.2723 20.7784 26.8003 20.1477 26.8003 19.429C26.8003 18.2557 25.6709 17.4637 23.9696 17.889L23.2069 16.921L26.0963 14.325H21.7696V12.301H28.6776L28.6923 14.633L26.6243 16.437C27.8709 16.7157 28.9269 17.6544 28.9269 19.3557C28.9269 21.673 26.9763 22.685 25.2896 22.685Z" fill="black"/>
<path fill-rule="evenodd" clip-rule="evenodd" d="M7.4987 19.8944H4.97266C4.23628 19.8944 3.63932 19.2975 3.63932 18.5611L3.63932 8.89443L26.0261 8.89443V10.8346H28.6928V4.4375C28.6928 2.22836 26.9019 0.437502 24.6927 0.437502L4.97266 0.4375C2.76352 0.4375 0.972658 2.22836 0.972658 4.4375L0.972656 18.5611C0.972656 20.7702 2.76352 22.5611 4.97266 22.5611H7.4987V19.8944ZM26.0261 4.4375V6.22776L3.63932 6.22776L3.63932 4.4375C3.63932 3.70112 4.23628 3.10417 4.97266 3.10417L24.6927 3.10417C25.4291 3.10417 26.0261 3.70112 26.0261 4.4375Z" fill="black"/>
</svg>
