<svg width="22" height="22" viewBox="0 0 22 22" fill="none" xmlns="http://www.w3.org/2000/svg">
<path fill-rule="evenodd" clip-rule="evenodd" d="M0.472656 12.0424C0.472656 7.93724 3.80053 4.60938 7.90566 4.60938H9.92515C14.212 4.60938 17.6871 8.08454 17.6871 12.3714V20.3674C17.6871 20.6983 17.5235 21.0078 17.25 21.194C16.9765 21.3802 16.6286 21.4191 16.3207 21.2979L11.6928 19.4754H7.90566C3.80052 19.4754 0.472656 16.1475 0.472656 12.0424ZM7.90566 6.60938C4.9051 6.60938 2.47266 9.04181 2.47266 12.0424C2.47266 15.0429 4.90509 17.4754 7.90566 17.4754H11.8826C12.008 17.4754 12.1323 17.499 12.249 17.5449L15.6871 18.8989V12.3714C15.6871 9.18911 13.1074 6.60938 9.92515 6.60938H7.90566Z" fill="black"/>
<path fill-rule="evenodd" clip-rule="evenodd" d="M4.74609 5.31231C5.57325 4.92333 6.48378 4.68235 7.44355 4.6235C8.43978 3.40093 9.95744 2.62012 11.6575 2.62012H14.0059C17.0065 2.62012 19.4389 5.05256 19.4389 8.05312C19.4389 9.6366 18.7615 11.0619 17.6807 12.0549C17.6849 12.1599 17.687 12.2654 17.687 12.3714V14.5121C19.9283 13.232 21.4389 10.819 21.4389 8.05312C21.4389 3.94799 18.1111 0.620117 14.0059 0.620117H11.6575C8.52029 0.620117 5.83705 2.56363 4.74609 5.31231Z" fill="black"/>
</svg>
