<svg width="29" height="28" viewBox="0 0 29 28" fill="none" xmlns="http://www.w3.org/2000/svg">
<path d="M21.6258 9.69399C21.2058 9.21566 20.7741 8.73733 20.3191 8.28233L19.9808 7.96733L20.1441 7.82733C20.7146 7.33757 21.1212 6.68459 21.309 5.9565C21.4967 5.22841 21.4566 4.46025 21.1941 3.75566C20.8136 2.96113 20.2113 2.29375 19.4598 1.83414C18.7082 1.37453 17.8397 1.14235 16.9591 1.16566V3.49899C17.3742 3.49322 17.7833 3.59829 18.1443 3.80337C18.5052 4.00845 18.8049 4.30612 19.0124 4.66566C19.2108 5.13233 19.0124 5.64566 18.4641 6.19399C18.3824 6.28733 18.2891 6.34566 18.2074 6.42733C14.7074 3.61566 10.8691 2.02899 8.99076 3.90733C8.79401 4.10846 8.63233 4.34112 8.51243 4.59566V4.71233L8.30243 5.33066L3.15743 20.614C2.96282 21.1899 2.90823 21.8039 2.99817 22.4052C3.08812 23.0064 3.32002 23.5776 3.67467 24.0713C4.02931 24.5651 4.49649 24.9673 5.03752 25.2445C5.57854 25.5218 6.17783 25.6661 6.78576 25.6657C7.18271 25.6618 7.57651 25.5949 7.95243 25.4673L23.9591 20.159C24.1558 20.0858 24.3291 19.9608 24.4608 19.7973L24.7058 19.5873C26.3741 17.9073 25.3008 14.6757 23.0608 11.5373C24.3908 10.7611 25.9223 10.3995 27.4591 10.499V8.16566C25.4027 8.05252 23.3625 8.58703 21.6258 9.69399ZM7.27576 23.2507C7.01094 23.3383 6.72696 23.3506 6.45554 23.2863C6.18412 23.2219 5.93593 23.0833 5.73868 22.8861C5.54143 22.6888 5.40288 22.4406 5.3385 22.1692C5.27412 21.8978 5.28644 21.6138 5.3741 21.349L6.96076 16.5657C8.09311 18.725 9.83305 20.5055 11.9658 21.6873L7.27576 23.2507ZM15.4424 20.5323C13.6793 20.0654 12.0709 19.1407 10.7801 17.852C9.48938 16.5633 8.56217 14.9564 8.09243 13.194L9.2591 9.69399L9.3291 9.79899C9.45743 10.0557 9.62076 10.324 9.7841 10.5923C9.94743 10.8607 9.97076 10.9307 10.0874 11.1057C10.2041 11.2807 10.4724 11.6657 10.6824 11.9573C10.8924 12.249 10.9041 12.284 11.0324 12.4473C11.1608 12.6107 11.5341 13.089 11.8024 13.404L12.1408 13.8123C12.5374 14.2673 12.9574 14.7107 13.4008 15.1657C13.8441 15.6207 14.1941 15.9123 14.5674 16.3323L14.9524 16.659L15.8624 17.394L16.2941 17.7207C16.6208 17.954 16.9358 18.1873 17.2624 18.3973L17.6241 18.6307C18.0441 18.8873 18.4641 19.1323 18.8724 19.3423H18.9308L15.4424 20.5323ZM23.0374 17.9307H22.9674C22.1624 18.374 18.8141 17.2657 15.0458 13.4857C14.6491 13.089 14.2758 12.704 13.9374 12.319L13.5991 11.9107L12.9808 11.164L12.6424 10.6973C12.4908 10.4757 12.3274 10.2657 12.1874 10.0557L11.8841 9.56566L11.5458 9.01733C11.4524 8.85399 11.3824 8.70233 11.3008 8.55066C11.2191 8.39899 11.1258 8.24733 11.0558 8.08399C10.9932 7.94729 10.9387 7.80705 10.8924 7.66399C10.8341 7.51233 10.7641 7.36066 10.7174 7.22066C10.6708 7.08066 10.6591 6.99899 10.6241 6.85899C10.5891 6.71899 10.5658 6.60233 10.5424 6.48566C10.5366 6.38463 10.5366 6.28335 10.5424 6.18233C10.5312 6.08933 10.5312 5.99532 10.5424 5.90233L10.6708 5.54066C11.0908 5.12066 13.2724 5.54066 16.1891 7.75733C15.6947 7.98047 15.1661 8.11852 14.6258 8.16566V10.499C15.865 10.4277 17.0674 10.051 18.1258 9.40233L18.6858 9.93899C19.1758 10.429 19.6308 10.9307 20.0624 11.4323C19.3946 12.64 19.1483 14.0357 19.3624 15.399L21.6958 14.944C21.627 14.5112 21.627 14.0702 21.6958 13.6373C22.0518 14.1773 22.3677 14.7427 22.6408 15.329C23.2941 16.869 23.2474 17.7323 23.0374 17.9307Z" fill="black"/>
</svg>
