<svg width="18" height="18" viewBox="0 0 20 21" fill="none" xmlns="http://www.w3.org/2000/svg">
<path d="M10 0.554688C15.5228 0.554688 20 5.03184 20 10.5547C20 16.0775 15.5228 20.5547 10 20.5547C4.47715 20.5547 4.62117e-07 16.0775 0 10.5547C4.82823e-07 5.03184 4.47715 0.554688 10 0.554688ZM10 2.55469C5.58172 2.55469 2 6.13641 2 10.5547C2 14.973 5.58172 18.5547 10 18.5547C14.4183 18.5547 18 14.973 18 10.5547C18 6.13641 14.4183 2.55469 10 2.55469ZM10.7949 16.5557H8.79492V14.5557H10.7949V16.5557ZM10.0195 4.55859C12.072 4.55859 13.7754 6.22079 13.7754 8.29297C13.7753 9.55583 13.1364 10.7328 12.0781 11.4219L10.791 12.2598V13.041H8.79102V11.1758L10.9873 9.74609C11.4787 9.4261 11.7753 8.87935 11.7754 8.29297C11.7754 7.34506 10.9872 6.55859 10.0195 6.55859C9.02889 6.55885 8.22266 7.36401 8.22266 8.33496V8.54395H6.22266V8.33496C6.22266 6.23974 7.94411 4.55885 10.0195 4.55859Z" fill="white"/>
</svg>
