<svg width="24" height="24" viewBox="0 0 24 24" fill="none" xmlns="http://www.w3.org/2000/svg">
<path fill-rule="evenodd" clip-rule="evenodd" d="M4 11.998C4 16.4163 7.58172 19.998 12 19.998C16.4183 19.998 20 16.4163 20 11.998C20 7.57977 16.4183 3.99805 12 3.99805C7.58172 3.99805 4 7.57977 4 11.998ZM12 21.998C6.47715 21.998 2 17.5209 2 11.998C2 6.4752 6.47715 1.99805 12 1.99805C17.5228 1.99805 22 6.4752 22 11.998C22 17.5209 17.5228 21.998 12 21.998ZM12.0201 8.00195C11.0293 8.00195 10.2228 8.80703 10.2228 9.77814V9.98684H8.22278V9.77814C8.22278 7.68276 9.9445 6.00195 12.0201 6.00195C14.0726 6.00195 15.7752 7.66396 15.7752 9.73614C15.7752 10.9991 15.1367 12.1765 14.0783 12.8656L12.7912 13.7035V14.4848H10.7912V12.619L12.9871 11.1895C13.4787 10.8695 13.7752 10.3227 13.7752 9.73614C13.7752 8.78823 12.9878 8.00195 12.0201 8.00195ZM10.7949 17.999V15.999H12.7949V17.999H10.7949Z" fill="black"/>
</svg>
