<svg width="26" height="26" viewBox="0 0 26 26" fill="none" xmlns="http://www.w3.org/2000/svg">
<path fill-rule="evenodd" clip-rule="evenodd" d="M0.718079 14.2158C0.718079 9.42646 4.60059 5.54395 9.38992 5.54395H11.746C16.7473 5.54395 20.8016 9.59831 20.8016 14.5996V23.9284C20.8016 24.3144 20.6107 24.6754 20.2916 24.8927C19.9726 25.11 19.5667 25.1553 19.2075 25.0139L13.8082 22.8876H9.38991C4.60059 22.8876 0.718079 19.0051 0.718079 14.2158ZM9.38992 7.87728C5.88926 7.87728 3.05141 10.7151 3.05141 14.2158C3.05141 17.7164 5.88926 20.5543 9.38991 20.5543H14.0296C14.176 20.5543 14.321 20.5818 14.4571 20.6354L18.4683 22.215V14.5996C18.4683 10.887 15.4586 7.87728 11.746 7.87728H9.38992Z" fill="#B52CA5"/>
<path fill-rule="evenodd" clip-rule="evenodd" d="M5.70398 6.36388C6.669 5.91006 7.73128 5.62892 8.85101 5.56026C10.0133 4.13393 11.7839 3.22298 13.7672 3.22298H16.5071C20.0078 3.22298 22.8456 6.06083 22.8456 9.56149C22.8456 11.4089 22.0553 13.0717 20.7943 14.2302C20.7992 14.3527 20.8017 14.4758 20.8017 14.5994V17.097C23.4165 15.6035 25.179 12.7883 25.179 9.56149C25.179 4.77216 21.2965 0.889648 16.5071 0.889648H13.7672C10.1072 0.889648 6.97676 3.15708 5.70398 6.36388Z" fill="#B52CA5"/>
</svg>
