<svg width="11" height="10" viewBox="0 0 11 10" fill="none" xmlns="http://www.w3.org/2000/svg">
<path fill-rule="evenodd" clip-rule="evenodd" d="M5.45935 0.416016C6.7068 0.416016 7.72343 1.40429 7.76899 2.64061L7.77059 2.72725V3.33269H7.99999C8.69035 3.33269 9.24999 3.89233 9.24999 4.58269L9.24999 7.91278C9.24999 8.60286 8.69077 9.16239 8.00068 9.16278L3.00069 9.16555C2.31006 9.16594 1.74999 8.60617 1.75 7.91554L1.75004 4.58267C1.75004 3.89232 2.30969 3.33268 3.00004 3.33268H3.14811V2.72725C3.14811 1.45079 4.18289 0.416016 5.45935 0.416016ZM6.81553 2.72725V3.33268L4.10317 3.33268V2.72725L4.10518 2.65284C4.14381 1.93845 4.73532 1.37107 5.45935 1.37107C6.20835 1.37107 6.81553 1.97826 6.81553 2.72725Z" fill="white"/>
</svg>
