<svg width="24" height="24" viewBox="0 0 24 24" fill="none" xmlns="http://www.w3.org/2000/svg">
<path d="M7 3C7 1.89543 7.89543 1 9 1H11C12.1046 1 13 1.89543 13 3C13 4.10457 12.1046 5 11 5H9C7.89543 5 7 4.10457 7 3Z" fill="black"/>
<path d="M6 3H14C14.5523 3 15 3.44772 15 4V7H17V4C17 2.34315 15.6569 1 14 1H6C4.34315 1 3 2.34315 3 4V20C3 21.6569 4.34315 23 6 23H14C15.6569 23 17 21.6569 17 20V17H15V20C15 20.5523 14.5523 21 14 21H6C5.44772 21 5 20.5523 5 20V4C5 3.44772 5.44772 3 6 3Z" fill="black"/>
<path d="M12 13C12.5523 13 13 12.5523 13 12C13 11.4477 12.5523 11 12 11C11.4477 11 11 11.4477 11 12C11 12.5523 11.4477 13 12 13Z" fill="black"/>
<path d="M16 12C16 12.5523 15.5523 13 15 13C14.4477 13 14 12.5523 14 12C14 11.4477 14.4477 11 15 11C15.5523 11 16 11.4477 16 12Z" fill="black"/>
<path d="M18 13C18.5523 13 19 12.5523 19 12C19 11.4477 18.5523 11 18 11C17.4477 11 17 11.4477 17 12C17 12.5523 17.4477 13 18 13Z" fill="black"/>
<path fill-rule="evenodd" clip-rule="evenodd" d="M20 7C21.6569 7 23 8.34315 23 10V14C23 15.6569 21.6569 17 20 17H11.75L9 19.75V16.8293C7.83481 16.4175 7 15.3062 7 14V10C7 8.34315 8.34315 7 10 7H20ZM20 9H10C9.44772 9 9 9.44772 9 10V14C9 14.5523 9.44772 15 10 15H20C20.5523 15 21 14.5523 21 14V10C21 9.44772 20.5523 9 20 9Z" fill="black"/>
</svg>
