<svg width="24" height="24" viewBox="0 0 24 24" fill="none" xmlns="http://www.w3.org/2000/svg">
<path fill-rule="evenodd" clip-rule="evenodd" d="M19.2603 8.18475C20.7244 9.33417 22.0288 10.804 23.2033 12.46C23.3547 12.6734 23.4429 12.9067 23.4429 13.1091C23.4429 13.3116 23.3511 13.5501 23.1979 13.7659C20.3921 17.7191 16.846 20.6091 12.151 20.6091C7.68206 20.6091 4.25404 17.9907 1.51461 14.3295C1.21885 13.9342 1 13.5598 1 13.1091C1 12.6585 1.20328 12.3061 1.49061 11.9209C2.52313 10.5366 3.65362 9.30024 4.90102 8.29654L2.86047 5.38234L4.74452 4.06311L6.80592 7.00709C8.0879 6.29609 9.48102 5.82645 11.001 5.66828V2H13.301V5.66828C14.7585 5.81996 16.0994 6.25806 17.3375 6.92074L19.3385 4.06311L21.2225 5.38234L19.2603 8.18475ZM12.151 18.3091C8.76846 18.3091 5.97522 16.3949 3.47506 13.1091C5.97498 9.82356 8.76853 7.90913 12.151 7.90913C15.5329 7.90913 18.3313 9.8271 20.8271 13.1091C18.3312 16.3912 15.5329 18.3091 12.151 18.3091Z" fill="#B1B3B5"/>
<path d="M12.1381 9.60913C10.2051 9.60913 8.63806 11.1761 8.63806 13.1091C8.63806 15.0421 10.2051 16.6091 12.1381 16.6091C14.0711 16.6091 15.6381 15.0421 15.6381 13.1091C15.6381 11.1761 14.0711 9.60913 12.1381 9.60913Z" fill="#B1B3B5"/>
</svg>
