<svg width="25" height="26" viewBox="0 0 25 26" fill="none" xmlns="http://www.w3.org/2000/svg">
<path d="M12.6037 2.48392C12.3085 2.18886 11.8855 2.06061 11.4762 2.14203L3.03349 3.8214L1.36594 12.2764C1.28531 12.6852 1.41367 13.1073 1.70822 13.402L11.5993 23.2984C12.5754 24.2751 14.1584 24.2755 15.135 23.2995L22.5137 15.9254C23.4907 14.9489 23.4908 13.3651 22.5137 12.3886L12.6037 2.48392Z" stroke="black" stroke-width="2.33333" stroke-linecap="round" stroke-linejoin="round"/>
<path d="M11.0488 22.2109L21.3992 11.8678L22.8229 13.2924C23.216 13.6858 23.2257 14.3134 22.8447 14.6943L13.8743 23.6583C13.4932 24.0392 12.8656 24.029 12.4725 23.6356L11.0488 22.2109Z" fill="black" stroke="black" stroke-width="2.50018" stroke-linecap="round"/>
<path d="M7.91138 10.2043C8.82643 10.2043 9.56823 9.46254 9.56823 8.54748C9.56823 7.63243 8.82643 6.89062 7.91138 6.89062C6.99632 6.89062 6.25452 7.63243 6.25452 8.54748C6.25452 9.46254 6.99632 10.2043 7.91138 10.2043Z" fill="black"/>
</svg>
