<svg width="25" height="24" viewBox="0 0 25 24" fill="none" xmlns="http://www.w3.org/2000/svg">
<path fill-rule="evenodd" clip-rule="evenodd" d="M12.5 3C17.4706 3 21.5 7.02944 21.5 12C21.5 16.9706 17.4706 21 12.5 21C7.52944 21 3.5 16.9706 3.5 12C3.5 11.295 3.58088 10.6101 3.73344 9.95364L1.78535 9.5009C1.59854 10.3047 1.5 11.1415 1.5 12C1.5 18.0751 6.42487 23 12.5 23C18.5751 23 23.5 18.0751 23.5 12C23.5 5.92487 18.5751 1 12.5 1V3ZM13.5 12V6H11.5V14H19.5V12H13.5ZM9.83115 2.40313C9.83115 3.06587 9.29389 3.60313 8.63115 3.60313C7.96841 3.60313 7.43115 3.06587 7.43115 2.40313C7.43115 1.74038 7.96841 1.20312 8.63115 1.20312C9.29389 1.20312 9.83115 1.74038 9.83115 2.40313ZM4.63115 7.1168C5.29389 7.1168 5.83115 6.57954 5.83115 5.9168C5.83115 5.25406 5.29389 4.7168 4.63115 4.7168C3.96841 4.7168 3.43115 5.25406 3.43115 5.9168C3.43115 6.57954 3.96841 7.1168 4.63115 7.1168Z" fill="#212121"/>
</svg>
