<svg width="24" height="25" viewBox="0 0 24 25" fill="none" xmlns="http://www.w3.org/2000/svg">
<path d="M8 3.5H16C16.5523 3.5 17 3.94772 17 4.5V13.0907C17.7267 13.2242 18.4034 13.5005 19 13.8895V4.5C19 2.84315 17.6569 1.5 16 1.5H8C6.34315 1.5 5 2.84315 5 4.5V20.5C5 22.1569 6.34315 23.5 8 23.5H13.7055C12.7574 23.0642 11.9546 22.3667 11.3895 21.5H8C7.44772 21.5 7 21.0523 7 20.5V4.5C7 3.94772 7.44772 3.5 8 3.5Z" fill="#00A651"/>
<path fill-rule="evenodd" clip-rule="evenodd" d="M15.688 18.5503L17.8055 16.3747L18.9521 17.4906L16.269 20.2473C16.1197 20.4007 15.9152 20.4879 15.7011 20.4893C15.4871 20.4908 15.2814 20.4064 15.13 20.255L13.3201 18.4451L14.4514 17.3137L15.688 18.5503Z" fill="#00A651"/>
<path fill-rule="evenodd" clip-rule="evenodd" d="M16 22C17.933 22 19.5 20.433 19.5 18.5C19.5 16.567 17.933 15 16 15C14.067 15 12.5 16.567 12.5 18.5C12.5 20.433 14.067 22 16 22ZM16 24C19.0376 24 21.5 21.5376 21.5 18.5C21.5 15.4624 19.0376 13 16 13C12.9624 13 10.5 15.4624 10.5 18.5C10.5 21.5376 12.9624 24 16 24Z" fill="#00A651"/>
<path d="M9 3.5H15C15 4.60457 14.1046 5.5 13 5.5H11C9.89543 5.5 9 4.60457 9 3.5Z" fill="#00A651"/>
</svg>
