<svg width="20" height="20" viewBox="0 0 20 20" fill="none" xmlns="http://www.w3.org/2000/svg">
    <path
        d="M9.77458 1.25C9.4591 1.25 9.14362 1.46216 9.1496 1.88476V3.84033L8.00095 2.69043C7.75534 2.43774 7.34875 2.43766 7.1062 2.68793C6.86378 2.93832 6.87009 3.33375 7.1172 3.57416C7.79469 4.25165 8.47212 4.92912 9.14961 5.60663V8.9184L6.28104 7.26312C6.03301 6.33744 5.78567 5.41171 5.53765 4.48602C5.45299 4.15184 5.114 3.94961 4.77595 4.03437C4.43795 4.1193 4.23439 4.47046 4.33041 4.80951L4.75154 6.37934L3.05725 5.40156C2.7611 5.22511 2.37825 5.32104 2.19913 5.62006C2.02016 5.91916 2.12464 6.31125 2.43227 6.4831L4.12534 7.46088L2.55679 7.8808C2.21515 7.96717 2.01212 8.31953 2.10758 8.65473C2.2032 8.98987 2.54854 9.18185 2.88026 9.08807C3.80544 8.84016 4.73087 8.59258 5.65606 8.34467L8.52463 10.0012L5.65606 11.6564C4.73087 11.4085 3.80544 11.1609 2.88026 10.913C2.54854 10.8193 2.2032 11.0112 2.10758 11.3464C2.01212 11.6816 2.21515 12.0339 2.55679 12.1203L4.12656 12.5402L2.43227 13.518C2.12464 13.6899 2.02016 14.0819 2.19913 14.381C2.37825 14.6801 2.7611 14.776 3.05725 14.5995L4.75154 13.6218L4.33041 15.1916C4.23439 15.5306 4.43794 15.8818 4.77595 15.9667C5.114 16.0515 5.45299 15.8493 5.53765 15.5151C5.78567 14.5894 6.033 13.6637 6.28104 12.738L9.14961 11.0827V14.3945C8.47212 15.072 7.79469 15.7495 7.1172 16.4269C6.8701 16.6674 6.86379 17.0628 7.1062 17.3132C7.34875 17.5635 7.75534 17.5634 8.00095 17.3107L9.1496 16.162V18.1163C9.1446 18.4687 9.43095 18.7553 9.77946 18.7499C10.128 18.7443 10.4043 18.461 10.3996 18.1163V16.1644L11.547 17.3107C11.7926 17.5634 12.1992 17.5634 12.4417 17.3132C12.6842 17.0628 12.6779 16.6674 12.4307 16.4269C11.7537 15.7499 11.0766 15.0728 10.3995 14.3957V11.0839L13.2669 12.7392C13.5148 13.6645 13.7636 14.5898 14.0115 15.5151C14.0962 15.8493 14.4352 16.0515 14.7732 15.9667C15.1112 15.8818 15.3148 15.5306 15.2187 15.1916L14.7988 13.623L16.4907 14.5995C17.2166 15.0325 17.8536 13.9291 17.1157 13.5168L15.4238 12.5402L16.9912 12.1203C17.3328 12.0339 17.5358 11.6816 17.4404 11.3464C17.3447 11.0112 16.9994 10.8193 16.6677 10.913C15.7429 11.1608 14.8179 11.4086 13.8931 11.6564L11.0245 10.0012L13.8931 8.34467C14.8179 8.59248 15.7429 8.84026 16.6677 9.08807C16.9994 9.18184 17.3447 8.98987 17.4404 8.65473C17.5358 8.31953 17.3328 7.96717 16.9912 7.8808L15.4238 7.46088L17.1157 6.48432C17.8536 6.07206 17.2166 4.96859 16.4907 5.40156L14.7976 6.37934L15.2187 4.80951C15.3148 4.47046 15.1112 4.1193 14.7732 4.03437C14.4352 3.94961 14.0962 4.15185 14.0115 4.48602C13.7635 5.41172 13.5149 6.33743 13.2669 7.26312L10.3995 8.9184V5.60541C11.0766 4.92831 11.7537 4.25124 12.4307 3.57416C12.6778 3.33375 12.6841 2.93832 12.4417 2.68793C12.1992 2.43761 11.7926 2.43769 11.547 2.69043L10.3996 3.83789V1.88476C10.4058 1.46216 10.0901 1.25 9.77458 1.25Z"
        fill="#03BBFF" />
</svg>