<svg width="28" height="28" viewBox="0 0 28 28" fill="none" xmlns="http://www.w3.org/2000/svg">
    <path
        d="M26.5169 18.5676L22.8648 15.6785C22.1852 15.1261 21.336 14.8288 20.444 14.8288C19.2973 14.8288 18.1933 15.3386 17.4714 16.1886C17.0043 16.7411 16.7072 17.081 16.5372 17.2933C15.9003 17.2509 14.4562 16.6134 12.9273 15.0838C11.3135 13.4691 10.7616 12.0246 10.719 11.4721C10.8887 11.3023 11.2711 11.0047 11.823 10.5374C13.4369 9.17758 13.649 6.7983 12.3326 5.14125L9.44498 1.48725C8.68073 0.552501 7.57637 0 6.38738 0C5.83522 0 5.32571 0.127443 4.81618 0.339945C3.71213 0.807334 2.39543 1.65701 1.67357 2.42196C0.569514 3.52658 -1.0019 6.11837 0.866629 11.1321C2.0557 14.2763 4.34905 17.7179 7.36403 20.692C11.866 25.1957 17.1746 28 21.1665 28C22.9924 28 24.5212 27.4052 25.5828 26.343C26.3047 25.6207 27.154 24.3036 27.6638 23.1987C28.3857 21.5417 27.9183 19.6722 26.5169 18.5676ZM25.7527 22.3491C25.3279 23.3262 24.606 24.3884 24.1388 24.8558C23.4169 25.5781 22.3976 25.918 21.2086 25.918C17.8962 25.918 13.0974 23.4113 8.85076 19.1624C3.07529 13.3413 0.484824 6.50088 3.1603 3.8666C3.62745 3.39921 4.64679 2.67692 5.66576 2.25196C5.87815 2.1669 6.13291 2.12452 6.38765 2.12452C6.93981 2.12452 7.44932 2.37941 7.78906 2.8044L10.6766 6.45841C11.2712 7.22305 11.1438 8.28526 10.4219 8.92274C9.65764 9.55995 9.14781 10.0274 9.02048 10.1548C7.91643 11.2594 8.97812 14.1487 11.3985 16.6131C13.1821 18.3976 15.2204 19.4598 16.5795 19.4598C17.089 19.4598 17.5137 19.3324 17.8109 19.0348C17.9382 18.9074 18.4054 18.3976 19.0422 17.6327C19.382 17.2077 19.8915 16.9955 20.4013 16.9955C20.7835 16.9955 21.1656 17.1229 21.5054 17.3778L25.1575 20.2669C25.8374 20.7345 26.0498 21.5841 25.7527 22.3491Z"
        fill="#B52CA5" />
</svg>