<svg width="24" height="25" viewBox="0 0 24 25" fill="none" xmlns="http://www.w3.org/2000/svg">
<path d="M4 3.5H15C15.5523 3.5 16 3.94772 16 4.5V7.5H18V4.5C18 2.84315 16.6569 1.5 15 1.5H4C2.34315 1.5 1 2.84315 1 4.5V13.5H3V4.5C3 3.94772 3.44772 3.5 4 3.5Z" fill="#00A651"/>
<path d="M7 15.5H12V17.5H1C0.447715 17.5 0 17.0523 0 16.5V14.5C0 13.9477 0.447715 13.5 1 13.5H5C5 14.6046 5.89543 15.5 7 15.5Z" fill="#00A651"/>
<path fill-rule="evenodd" clip-rule="evenodd" d="M15 7.5C13.3431 7.5 12 8.84315 12 10.5V20.5C12 22.1569 13.3431 23.5 15 23.5H20C21.6569 23.5 23 22.1569 23 20.5V10.5C23 8.84315 21.6569 7.5 20 7.5H15ZM20 9.5H15C14.4477 9.5 14 9.94772 14 10.5V20.5C14 21.0523 14.4477 21.5 15 21.5H20C20.5523 21.5 21 21.0523 21 20.5V10.5C21 9.94771 20.5523 9.5 20 9.5Z" fill="#00A651"/>
<path fill-rule="evenodd" clip-rule="evenodd" d="M8.40651 8.89646L10.524 6.72089L11.6706 7.83685L8.9875 10.5935C8.8382 10.7469 8.63367 10.8341 8.41963 10.8355C8.20558 10.837 7.99988 10.7526 7.84853 10.6012L6.03858 8.79127L7.16995 7.6599L8.40651 8.89646Z" fill="#00A651"/>
<path fill-rule="evenodd" clip-rule="evenodd" d="M17.1641 15.6212L19.2816 13.4457L20.4282 14.5616L17.7451 17.3183C17.5958 17.4717 17.3913 17.5589 17.1773 17.5603C16.9632 17.5618 16.7575 17.4774 16.6062 17.326L14.7962 15.5161L15.9276 14.3847L17.1641 15.6212Z" fill="#00A651"/>
</svg>
