<svg width="18" height="22" viewBox="0 0 18 22" fill="none" xmlns="http://www.w3.org/2000/svg">
<path fill-rule="evenodd" clip-rule="evenodd" d="M14.4456 5.83902C14.3362 2.87186 11.8963 0.5 8.90244 0.5C5.83893 0.5 3.35547 2.98346 3.35547 6.04697V7.5L3.00009 7.5C1.34325 7.5 0.000107825 8.84312 8.93477e-05 10.5L1.91723e-10 18.4989C-1.85367e-05 20.1564 1.34415 21.4998 3.00167 21.4989L15.0016 21.4922C16.6578 21.4913 18 20.1484 18 18.4922L18 10.5C18 8.84316 16.6568 7.50001 15 7.50001L14.4494 7.50001V6.04697L14.4456 5.83902ZM12.1573 7.50001V6.04697C12.1573 4.24938 10.7 2.79214 8.90244 2.79214C7.16476 2.79214 5.74513 4.15385 5.65242 5.86839L5.64761 6.04697V7.5L12.1573 7.50001ZM2.00009 10.5C2.0001 9.94771 2.44781 9.5 3.00009 9.5L15 9.50001C15.5523 9.50001 16 9.94772 16 10.5L16 18.4922C16 19.0443 15.5526 19.4919 15.0005 19.4922L3.00056 19.4989C2.44805 19.4992 1.99999 19.0514 2 18.4989L2.00009 10.5Z" fill="#00A651"/>
<path fill-rule="evenodd" clip-rule="evenodd" d="M8.11135 16.2617V18.1104H9.88895V16.3336L11.354 17.4354L12.5041 16.08L10.5091 14.5797L12.5519 13.1466L11.4473 11.7539L9.88895 12.8471V11H8.11135V12.7764L6.64651 11.6748L5.4964 13.0302L7.49032 14.5297L5.44727 15.9629L6.55192 17.3556L8.11135 16.2617Z" fill="#00A651"/>
</svg>
