<svg width="24" height="24" viewBox="0 0 24 24" fill="none" xmlns="http://www.w3.org/2000/svg">
<path fill-rule="evenodd" clip-rule="evenodd" d="M12 2.25C14.5859 2.25 17.0658 3.27723 18.8943 5.10571C20.7228 6.93419 21.75 9.41414 21.75 12C21.75 14.5859 20.7228 17.0658 18.8943 18.8943C17.0658 20.7228 14.5859 21.75 12 21.75C9.41414 21.75 6.93419 20.7228 5.10571 18.8943C3.27723 17.0658 2.25 14.5859 2.25 12C2.25 9.41414 3.27723 6.93419 5.10571 5.10571C6.93419 3.27723 9.41414 2.25 12 2.25ZM19.341 8.25C18.379 6.37951 16.7419 4.94462 14.7615 4.236C15.4275 5.496 15.909 6.846 16.191 8.25H19.341ZM20.214 12.7425C20.238 12.4957 20.25 12.2479 20.25 12C20.2485 11.2388 20.141 10.4815 19.9305 9.75H16.4175C16.4655 10.2465 16.5 10.746 16.5 11.25C16.4969 12.2578 16.3934 13.2627 16.191 14.25H19.9305C20.073 13.7565 20.1675 13.2525 20.2155 12.7425H20.214ZM14.9115 12.7425L14.9205 12.666C14.9717 12.1957 14.9982 11.7231 15 11.25C14.9899 10.7483 14.9519 10.2475 14.886 9.75H9.114C9.04758 10.2474 9.00952 10.7482 9 11.25C9.00367 12.2599 9.1209 13.2663 9.3495 14.25H14.6505C14.766 13.752 14.853 13.2495 14.9115 12.7425ZM14.6235 8.25C14.2701 6.66353 13.6323 5.15417 12.741 3.795C12.495 3.774 12.249 3.75 12 3.75C11.8437 3.75076 11.6876 3.75827 11.532 3.7725L11.259 3.795L11.25 3.81C10.3634 5.16519 9.72871 6.66931 9.3765 8.25H14.6235ZM7.809 8.25C8.09672 6.84697 8.58472 5.49261 9.258 4.2285C7.26898 4.9347 5.62419 6.37295 4.659 8.25H7.809ZM4.0695 9.75C3.85934 10.4816 3.75181 11.2388 3.75 12C3.75181 12.7612 3.85934 13.5184 4.0695 14.25H7.809C7.60564 13.2629 7.50212 12.2578 7.5 11.25C7.5 10.746 7.5345 10.2465 7.5825 9.75H4.0695ZM8.2005 15.75H4.6605C5.22752 16.8576 6.03708 17.823 7.02891 18.5743C8.02073 19.3256 9.16927 19.8436 10.389 20.0895C9.42898 18.7713 8.68982 17.3056 8.2005 15.75ZM12 19.716C12.9592 18.5297 13.7089 17.1885 14.217 15.75H9.783C10.2911 17.1884 11.0409 18.5297 12 19.716ZM15.7995 15.75C15.3102 17.3056 14.571 18.7712 13.611 20.0895C14.8306 19.8434 15.9791 19.3254 16.9709 18.574C17.9627 17.8227 18.7723 16.8574 19.3395 15.75H15.7995Z" fill="black"/>
<path fill-rule="evenodd" clip-rule="evenodd" d="M19.9474 12.9013L19.9652 12.7183C19.9884 12.4797 20 12.2402 20 12.0005C19.9987 11.3251 19.9112 10.6528 19.74 10H16.6913C16.7264 10.4118 16.75 10.8286 16.75 11.25C16.7472 12.1724 16.6616 13.0933 16.4944 14H19.7401C19.8351 13.6388 19.904 13.2719 19.9474 12.9013ZM20.214 12.7425C20.214 12.7425 20.214 12.7425 20.214 12.7425H20.2155C20.2155 12.7425 20.2155 12.7425 20.2155 12.7425C20.215 12.7477 20.2145 12.7531 20.214 12.7583C20.2065 12.8365 20.1979 12.9146 20.1882 12.9925C20.1353 13.4173 20.0497 13.8373 19.9305 14.25H16.191C16.2081 14.1668 16.2244 14.0835 16.2401 14C16.4101 13.0933 16.4972 12.1728 16.5 11.25C16.5 10.8305 16.4761 10.4141 16.4404 10C16.4332 9.91658 16.4255 9.83325 16.4175 9.75H19.9305C20.141 10.4815 20.2485 11.2388 20.25 12C20.25 12.1643 20.2447 12.3286 20.2342 12.4925C20.2292 12.5707 20.2229 12.6489 20.2155 12.7269C20.215 12.7321 20.2145 12.7374 20.214 12.7425ZM14.6632 12.7133L14.672 12.639C14.672 12.6386 14.672 12.6383 14.6721 12.6379C14.7221 12.1776 14.7481 11.715 14.75 11.252C14.7415 10.8335 14.7132 10.4157 14.6651 10H9.3347C9.28631 10.4157 9.25804 10.8334 9.25001 11.2519C9.25356 12.1761 9.35401 13.0971 9.54959 14H14.4503C14.5424 13.5746 14.6134 13.1453 14.6632 12.7133ZM14.6505 14.25H9.3495C9.1209 13.2663 9.00367 12.2599 9 11.25C9.00952 10.7482 9.04758 10.2474 9.114 9.75H14.886C14.9519 10.2475 14.9899 10.7483 15 11.25C14.9982 11.7231 14.9717 12.1957 14.9205 12.666L14.9115 12.7425C14.853 13.2495 14.766 13.752 14.6505 14.25ZM11.532 3.7725L11.259 3.795L11.25 3.81C10.4103 5.09356 9.79651 6.51072 9.43471 8C9.41452 8.08311 9.39512 8.16645 9.3765 8.25H14.6235C14.6049 8.16645 14.5855 8.08311 14.5653 8C14.2022 6.50496 13.5854 5.08259 12.741 3.795C12.7139 3.79269 12.6869 3.79034 12.6598 3.78799C12.4408 3.76901 12.2216 3.75 12 3.75C11.8437 3.75076 11.6876 3.75827 11.532 3.7725ZM12.0006 4C11.8518 4.00074 11.703 4.00791 11.5548 4.02146L11.5525 4.02167L11.4027 4.03401C10.6184 5.25356 10.0407 6.59355 9.69213 8H14.3079C13.9594 6.59342 13.3818 5.25331 12.5978 4.03358C12.3927 4.01588 12.1975 4.00003 12.0006 4ZM7.25 11.25C7.25 10.8286 7.27359 10.4118 7.30868 10H4.26009C4.08912 10.6527 4.00166 11.3248 4 12C4.00166 12.6752 4.08912 13.3473 4.26009 14H7.50538C7.33745 13.0933 7.25194 12.1725 7.25 11.25ZM7.7597 14C7.58891 13.0934 7.50194 12.1729 7.5 11.25C7.5 10.8305 7.5239 10.4141 7.55959 10C7.56678 9.91658 7.57445 9.83325 7.5825 9.75H4.0695C3.85934 10.4816 3.75181 11.2388 3.75 12C3.75181 12.7612 3.85934 13.5184 4.0695 14.25H7.809C7.79186 14.1668 7.77542 14.0835 7.7597 14ZM12 2C14.6522 2 17.1957 3.05357 19.0711 4.92893C20.9464 6.8043 22 9.34784 22 12C22 14.6522 20.9464 17.1957 19.0711 19.0711C17.1957 20.9464 14.6522 22 12 22C9.34784 22 6.8043 20.9464 4.92893 19.0711C3.05357 17.1957 2 14.6522 2 12C2 9.34784 3.05357 6.8043 4.92893 4.92893C6.8043 3.05357 9.34784 2 12 2ZM15.1124 4.37061C14.9967 4.32319 14.8797 4.2783 14.7615 4.236C14.8195 4.3457 14.8761 4.45608 14.9312 4.56712C15.5098 5.73148 15.9336 6.96824 16.191 8.25H19.341C19.2977 8.16577 19.253 8.08243 19.207 8C18.2919 6.36104 16.8477 5.08172 15.1124 4.37061ZM15.281 4.7154C16.8041 5.40399 18.0771 6.55165 18.9192 8H16.3944C16.1499 6.86274 15.7762 5.76161 15.281 4.7154ZM9.258 4.2285C9.13957 4.27055 9.02236 4.31519 8.90645 4.36237C7.16288 5.07197 5.71143 6.35473 4.793 8C4.74699 8.08243 4.70231 8.16577 4.659 8.25H7.809C8.07177 6.96863 8.50159 5.72786 9.08704 4.55936C9.14263 4.44841 9.19962 4.33812 9.258 4.2285ZM8.73653 4.70697C8.23509 5.75724 7.8558 6.86214 7.60647 8H5.08072C5.92611 6.54575 7.20572 5.39473 8.73653 4.70697ZM4.6605 15.75C4.70359 15.8342 4.74808 15.9175 4.79394 16C5.35161 17.0031 6.11245 17.8801 7.02891 18.5743C7.92088 19.25 8.9396 19.7369 10.0229 20.007C10.1441 20.0372 10.2662 20.0647 10.389 20.0895C10.316 19.9893 10.2444 19.8883 10.174 19.7865C9.31809 18.548 8.65264 17.1874 8.2005 15.75H4.6605ZM5.08137 16C5.61528 16.9221 6.3283 17.7299 7.17987 18.375C7.96859 18.9725 8.85951 19.4178 9.80688 19.6902C9.04801 18.5467 8.44619 17.3055 8.01822 16H5.08137ZM14.217 15.75H9.783C9.81255 15.8337 9.84293 15.917 9.87411 16C10.349 17.264 11.012 18.4491 11.8408 19.5151C11.8932 19.5826 11.9463 19.6495 12 19.716C12.0537 19.6495 12.1068 19.5826 12.1592 19.5151C12.988 18.4491 13.651 17.264 14.1259 16C14.1571 15.917 14.1874 15.8337 14.217 15.75ZM13.8585 16H10.1415C10.5976 17.1881 11.2236 18.3039 12 19.3124C12.7764 18.3039 13.4024 17.1881 13.8585 16ZM13.826 19.7864C13.7556 19.8883 13.684 19.9893 13.611 20.0895C13.7338 20.0647 13.8559 20.0372 13.9772 20.0069C15.0604 19.7367 16.079 19.2497 16.9709 18.574C17.8873 17.8798 18.6482 17.0029 19.206 16C19.2519 15.9175 19.2964 15.8342 19.3395 15.75H15.7995C15.3473 17.1874 14.6819 18.5479 13.826 19.7864ZM14.1932 19.6901C15.1405 19.4175 16.0313 18.9722 16.8199 18.3748C17.6715 17.7297 18.3845 16.922 18.9185 16H15.9818C15.5538 17.3055 14.952 18.5466 14.1932 19.6901ZM18.8943 5.10571C17.0658 3.27723 14.5859 2.25 12 2.25C9.41414 2.25 6.93419 3.27723 5.10571 5.10571C3.27723 6.93419 2.25 9.41414 2.25 12C2.25 14.5859 3.27723 17.0658 5.10571 18.8943C6.93419 20.7228 9.41414 21.75 12 21.75C14.5859 21.75 17.0658 20.7228 18.8943 18.8943C20.7228 17.0658 21.75 14.5859 21.75 12C21.75 9.41414 20.7228 6.93419 18.8943 5.10571Z" fill="black"/>
</svg>
