<svg width="24" height="25" viewBox="0 0 24 25" fill="none" xmlns="http://www.w3.org/2000/svg">
<path fill-rule="evenodd" clip-rule="evenodd" d="M19.3965 18.7958C19.9488 18.7958 20.3965 18.3481 20.3965 17.7958L20.3965 10.5448L3.60645 10.5448L3.60645 17.7958C3.60645 18.3481 4.05416 18.7958 4.60645 18.7958L19.3965 18.7958ZM20.3965 7.20313V8.54485L3.60645 8.54484L3.60645 7.20313C3.60645 6.65084 4.05416 6.20313 4.60645 6.20313L19.3965 6.20313C19.9488 6.20313 20.3965 6.65084 20.3965 7.20313ZM22.3965 17.7958C22.3965 19.4527 21.0534 20.7958 19.3965 20.7958L4.60645 20.7958C2.94959 20.7958 1.60645 19.4527 1.60645 17.7958V7.20313C1.60645 5.54627 2.94959 4.20312 4.60645 4.20312H19.3965C21.0534 4.20312 22.3965 5.54627 22.3965 7.20313L22.3965 17.7958ZM5.50003 12.4999H10.0178L10.0178 14.4999L5.50003 14.4999V12.4999Z" fill="#00A651"/>
</svg>
