<svg width="28" height="28" viewBox="0 0 28 28" fill="none" xmlns="http://www.w3.org/2000/svg">
    <path fill-rule="evenodd" clip-rule="evenodd"
        d="M14.5531 1.534C14.2078 1.34804 13.7922 1.34804 13.4468 1.534L2.07183 7.65943C1.69396 7.86291 1.45831 8.25744 1.45831 8.68663V10.7284C1.45831 11.0379 1.58123 11.3346 1.80002 11.5534C2.01881 11.7722 2.31556 11.8951 2.62498 11.8951H4.03162V20.8131C4.03162 21.4574 4.55395 21.9798 5.19828 21.9798H22.7998C23.4442 21.9798 23.9665 21.4574 23.9665 20.8131V11.8951H25.375C26.0193 11.8951 26.5416 11.3728 26.5416 10.7284V8.68663C26.5416 8.25744 26.306 7.86291 25.9281 7.65943L14.5531 1.534ZM6.36495 19.6464V11.8951H9.89884V19.6464H6.36495ZM12.2322 19.6464V11.8951H15.7661V19.6464H12.2322ZM18.0994 19.6464V11.8951H21.6332V19.6464H18.0994Z"
        fill="#01628C" />
    <path d="M26.5416 24.2724H1.45831V26.6058H26.5416V24.2724Z" fill="#01628C" />
</svg>