<svg width="24" height="20" viewBox="0 0 24 20" fill="none" xmlns="http://www.w3.org/2000/svg">
<path fill-rule="evenodd" clip-rule="evenodd" d="M17.8637 0.467193L10.922 0.460938L3.77284 0.467236C1.98965 0.468807 0.544922 1.91482 0.544922 3.69801V13.3839C0.544922 15.1682 1.99139 16.6147 3.77569 16.6147H17.8608C19.6451 16.6147 21.0916 15.1682 21.0916 13.3839V3.69796C21.0916 1.91479 19.6469 0.4688 17.8637 0.467193ZM2.69877 7.0745V13.3839C2.69877 13.9787 3.18092 14.4608 3.77569 14.4608H17.8608C18.4556 14.4608 18.9378 13.9787 18.9378 13.3839V7.0745H2.69877ZM18.9378 4.92065H2.69877V3.69801C2.69877 3.10361 3.18035 2.62161 3.77474 2.62108L17.8618 2.62104C18.4562 2.62157 18.9378 3.10357 18.9378 3.69796V4.92065Z" fill="black"/>
<path d="M23.4539 7.99756C23.4539 6.3407 22.1108 4.99755 20.4539 4.99756L18.9572 4.99757V14.4936H3.62988V16.5378C3.62988 18.1947 4.97303 19.5378 6.62988 19.5378H19.9539C21.8869 19.5378 23.4539 17.9708 23.4539 16.0378V7.99756Z" fill="black"/>
<path d="M4.4126 8.80005H9.58692V10.95H4.4126V8.80005Z" fill="black"/>
</svg>
