<svg width="20" height="20" viewBox="0 0 20 20" fill="none" xmlns="http://www.w3.org/2000/svg">
<path fill-rule="evenodd" clip-rule="evenodd" d="M16.1351 2.72716C15.6374 2.23046 14.8309 2.23059 14.3334 2.72754L13.9487 3.11231L16.9108 6.07443L17.2959 5.68927C17.7927 5.193 17.7937 4.38574 17.2959 3.88801L16.1351 2.72716ZM15.4966 7.48864L12.5344 4.52652L7.20558 9.85539C7.01136 10.0496 6.89944 10.3108 6.89246 10.5849L6.82828 13.1656H9.37628C9.66018 13.1656 9.93245 13.0528 10.1334 12.8518L15.4966 7.48864ZM12.92 1.31256C14.1985 0.0354502 16.2704 0.0354502 17.5489 1.31256L18.7101 2.4738C19.9885 3.75216 19.989 5.82595 18.7098 7.10387L11.5476 14.2661C10.972 14.8416 10.1912 15.1656 9.37628 15.1656H5.80311C5.53358 15.1656 5.27546 15.0568 5.08726 14.8639C4.89906 14.6709 4.79671 14.4102 4.80341 14.1407L4.89308 10.5351C4.91288 9.74859 5.23401 8.99853 5.79137 8.44117L12.92 1.31256Z" fill="black"/>
<path fill-rule="evenodd" clip-rule="evenodd" d="M0.433594 4.33447C0.433594 2.12533 2.22445 0.334473 4.43359 0.334473H9.36047V2.33447H4.43359C3.32902 2.33447 2.43359 3.2299 2.43359 4.33447V15.7285C2.43359 16.8331 3.32902 17.7285 4.43359 17.7285H15.7082C16.8127 17.7285 17.7082 16.8331 17.7082 15.7285V10.3703H19.7082V15.7285C19.7082 17.9377 17.9173 19.7285 15.7082 19.7285H4.43359C2.22445 19.7285 0.433594 17.9377 0.433594 15.7285V4.33447Z" fill="black"/>
</svg>
