<svg width="30" height="29" viewBox="0 0 30 29" fill="none" xmlns="http://www.w3.org/2000/svg">
<path fill-rule="evenodd" clip-rule="evenodd" d="M22.7084 10.0133L26.6812 12.6065C26.885 13.8602 26.8859 15.1385 26.684 16.3925L22.7016 18.9984L22.4169 23.7818C21.4317 24.5868 20.3233 25.2279 19.1343 25.6806L14.8541 23.5338L10.6015 25.6781C9.41298 25.2277 8.30465 24.5889 7.31907 23.7864L7.04679 19.0222L3.05385 16.396C2.84943 15.1406 2.84848 13.8603 3.05102 12.6046L7.05217 9.96815L7.3197 5.21619C8.30257 4.41346 9.40803 3.77377 10.5937 3.3216L14.8156 5.48401L19.1313 3.32082C20.3213 3.77167 21.431 4.41129 22.4177 5.21507L22.7084 10.0133ZM24.701 25.3315C24.811 25.2316 24.8984 25.1093 24.9574 24.9729C25.0164 24.8365 25.0457 24.689 25.0432 24.5404L25.2839 20.4955L28.6548 18.2897C28.7848 18.2175 28.8979 18.1184 28.9866 17.9991C29.0752 17.8797 29.1374 17.7428 29.1689 17.5975C29.6137 15.5553 29.6123 13.4411 29.1647 11.3994C29.1331 11.2542 29.0709 11.1173 28.9823 10.998C28.8936 10.8787 28.7806 10.7797 28.6506 10.7076L25.2891 8.51334L25.0432 4.45446C25.0457 4.30579 25.0164 4.1583 24.9574 4.02184C24.8983 3.88538 24.8108 3.76309 24.7007 3.66315C23.1545 2.25683 21.3229 1.20099 19.331 0.567789C19.1894 0.522492 19.0398 0.507907 18.8922 0.52501C18.7446 0.542112 18.6023 0.590507 18.4748 0.666966L14.8286 2.49457L11.2557 0.664543C11.1282 0.588052 10.9858 0.539645 10.8381 0.522554C10.6904 0.505462 10.5407 0.520079 10.3991 0.565429C8.40815 1.20141 6.57794 2.25975 5.0336 3.66812C4.92358 3.76807 4.83616 3.89034 4.77715 4.02676C4.71814 4.16319 4.68892 4.31063 4.69142 4.45925L4.4651 8.4793L1.07977 10.71C0.94977 10.7822 0.836668 10.8812 0.748018 11.0006C0.659369 11.12 0.597213 11.2569 0.565703 11.4022C0.12089 13.4444 0.122326 15.5586 0.569913 17.6002C0.601473 17.7455 0.663651 17.8823 0.752298 18.0016C0.840944 18.121 0.95402 18.22 1.08398 18.2921L4.46099 20.5133L4.69142 24.5452C4.68892 24.6939 4.71818 24.8414 4.77723 24.9778C4.83628 25.1143 4.92377 25.2366 5.03386 25.3365C6.58007 26.7428 8.41173 27.7987 10.4036 28.4319C10.5452 28.4772 10.6947 28.4918 10.8424 28.4747C10.99 28.4576 11.1323 28.4092 11.2598 28.3327L14.8573 26.5187L18.4789 28.3351C18.6064 28.4116 18.7488 28.46 18.8965 28.4771C19.0442 28.4942 19.1938 28.4796 19.3354 28.4342C21.3264 27.7983 23.1566 26.7399 24.701 25.3315ZM18.259 14.5025C18.259 16.3765 16.7399 17.8957 14.8659 17.8957C12.9919 17.8957 11.4727 16.3765 11.4727 14.5025C11.4727 12.6285 12.9919 11.1094 14.8659 11.1094C16.7399 11.1094 18.259 12.6285 18.259 14.5025ZM20.9257 14.5025C20.9257 17.8493 18.2126 20.5623 14.8659 20.5623C11.5191 20.5623 8.80607 17.8493 8.80607 14.5025C8.80607 11.1558 11.5191 8.44271 14.8659 8.44271C18.2126 8.44271 20.9257 11.1558 20.9257 14.5025Z" fill="black"/>
</svg>
