<svg width="29" height="28" viewBox="0 0 29 28" fill="none" xmlns="http://www.w3.org/2000/svg">
<path d="M13.3235 4.52968L11.1433 2.51653L12.7262 0.802246L16.9895 4.7388C17.4629 5.17592 17.4923 5.91402 17.0552 6.38741L13.1186 10.6506L11.4043 9.06772L13.4382 6.86508C9.03702 7.39894 5.67181 11.1942 5.76797 15.721C5.87043 20.5439 9.86332 24.3705 14.6859 24.268C19.5088 24.1656 23.3356 20.1729 23.2331 15.3499C23.2195 14.7058 23.7306 14.1725 24.3748 14.1588C25.0189 14.1451 25.5523 14.6562 25.5659 15.3004C25.6958 21.4118 20.8467 26.471 14.7355 26.6008C8.62451 26.7307 3.56499 21.8819 3.43516 15.7705C3.31209 9.97669 7.66393 5.12847 13.3235 4.52968Z" fill="#00A651"/>
<path d="M13.9365 16.9221L20.0583 10.647L21.7285 12.2764L14.7818 19.397C14.564 19.6202 14.2659 19.747 13.954 19.7489C13.642 19.7508 13.3423 19.6278 13.1218 19.4072L8.84398 15.1294L10.4939 13.4795L13.9365 16.9221Z" fill="#00A651"/>
</svg>
