<svg width="21" height="20" viewBox="0 0 21 20" fill="none" xmlns="http://www.w3.org/2000/svg">
    <g clip-path="url(#clip0_59830_5160)">
        <path d="M3.8335 15.8325C3.8335 16.2928 4.20627 16.6655 4.6665 16.6655H7.99951V18.3325H4.6665C3.28579 18.3325 2.1665 17.2132 2.1665 15.8325V12.4995H3.8335V15.8325ZM18.8335 15.8325C18.8335 17.2131 17.714 18.3323 16.3335 18.3325H12.9995V16.6655H16.3335C16.7935 16.6653 17.1665 16.2926 17.1665 15.8325V12.4995H18.8335V15.8325ZM14.6665 10.8335H6.3335V9.1665H14.6665V10.8335ZM7.99951 3.33252H4.6665C4.20627 3.33252 3.8335 3.70627 3.8335 4.1665V7.49951H2.1665V4.1665C2.1665 2.78579 3.28579 1.6665 4.6665 1.6665H7.99951V3.33252ZM16.3335 1.6665C17.714 1.66672 18.8335 2.78593 18.8335 4.1665V7.49951H17.1665V4.1665C17.1665 3.7064 16.7935 3.33274 16.3335 3.33252H12.9995V1.6665H16.3335Z" fill="white"/>
    </g>
    <defs>
        <clipPath id="clip0_59830_5160">
            <rect width="20" height="20" fill="white" transform="translate(0.5)"/>
        </clipPath>
    </defs>
</svg>
