<?xml version="1.0" encoding="UTF-8"?>
<svg fill="none" height="800px" width="800px" viewBox="0 0 512 512" xmlns="http://www.w3.org/2000/svg">
	<!-- Triangle background -->
	<path fill="#FFD700" d="M506.43,421.536L291.573,49.394c-15.814-27.391-55.327-27.401-71.147,0L5.568,421.536c-15.814,27.391,3.934,61.616,35.574,61.616h429.714C502.485,483.153,522.25,448.938,506.43,421.536z"/>

	<!-- Exclamation mark body -->
	<path fill="#000000" d="M256,185c10.4,0,18.8,8.4,18.8,18.8v107.9c0,10.4-8.4,18.8-18.8,18.8s-18.8-8.4-18.8-18.8v-107.9C237.2,193.4,245.6,185,256,185z"/>

	<!-- Exclamation mark dot -->
	<path fill="#000000" d="M256,355c10.4,0,18.8,8.4,18.8,18.8v11.2c0,10.4-8.4,18.8-18.8,18.8s-18.8-8.4-18.8-18.8v-11.2C237.2,363.4,245.6,355,256,355z"/>
</svg>