<svg width="24" height="24" viewBox="0 0 24 24" fill="none" xmlns="http://www.w3.org/2000/svg">
<path fill-rule="evenodd" clip-rule="evenodd" d="M4.73047 19.1482L4.73047 4.8528C4.73047 4.38828 5.10704 4.01172 5.57155 4.01172H12.8535L12.8535 7.36029C12.8535 8.95864 14.1492 10.2544 15.7476 10.2543L19.2678 10.2543V19.1482C19.2678 19.6127 18.8913 19.9893 18.4268 19.9893H5.57155C5.10703 19.9893 4.73047 19.6127 4.73047 19.1482ZM18.5423 8.25433L14.8535 4.64914L14.8535 7.36029C14.8535 7.85407 15.2538 8.25435 15.7476 8.25435L18.5423 8.25433ZM21.2678 9.31743C21.2678 8.55264 20.9595 7.82014 20.4125 7.28559L15.8443 2.82095C15.3135 2.30217 14.6008 2.01172 13.8586 2.01172H5.57155C4.00247 2.01172 2.73047 3.28371 2.73047 4.8528L2.73047 19.1482C2.73047 20.7173 4.00246 21.9893 5.57155 21.9893H18.4268C19.9958 21.9893 21.2678 20.7173 21.2678 19.1482V9.31743ZM16.9984 14.1439L7.00163 14.1439L7.00162 12.1439L16.9984 12.1439L16.9984 14.1439ZM7.00163 18.0282L16.9984 18.0281L16.9984 16.0281L7.00162 16.0282L7.00163 18.0282Z" fill="black"/>
</svg>
