<svg width="20" height="20" viewBox="0 0 20 20" fill="none" xmlns="http://www.w3.org/2000/svg">
<path d="M19.5833 17.5H2.5V0.416667C2.5 0.186667 2.31333 0 2.08333 0C1.85333 0 1.66667 0.186667 1.66667 0.416667V17.5H0.416667C0.186667 17.5 0 17.6867 0 17.9167C0 18.1467 0.186667 18.3333 0.416667 18.3333H1.66667V19.5833C1.66667 19.8133 1.85333 20 2.08333 20C2.31333 20 2.5 19.8133 2.5 19.5833V18.3333H19.5833C19.8133 18.3333 20 18.1467 20 17.9167C20 17.6867 19.8133 17.5 19.5833 17.5ZM9.58333 15.8333H12.0833C12.3133 15.8333 12.5 15.6467 12.5 15.4167V1.25C12.5 1.02 12.3133 0.833333 12.0833 0.833333H9.58333C9.35333 0.833333 9.16667 1.02 9.16667 1.25V15.4167C9.16667 15.6467 9.35333 15.8333 9.58333 15.8333ZM10 1.66667H11.6667V15H10V1.66667ZM14.5833 15.8333H17.0833C17.3133 15.8333 17.5 15.6467 17.5 15.4167V5.41667C17.5 5.18667 17.3133 5 17.0833 5H14.5833C14.3533 5 14.1667 5.18667 14.1667 5.41667V15.4167C14.1667 15.6467 14.3533 15.8333 14.5833 15.8333ZM15 5.83333H16.6667V15H15V5.83333ZM4.58333 15.8333H7.08333C7.31333 15.8333 7.5 15.6467 7.5 15.4167V7.91667C7.5 7.68667 7.31333 7.5 7.08333 7.5H4.58333C4.35333 7.5 4.16667 7.68667 4.16667 7.91667V15.4167C4.16667 15.6467 4.35333 15.8333 4.58333 15.8333ZM5 8.33333H6.66667V15H5V8.33333Z" fill="#00A651"/>
</svg>
