<svg width="264" height="165" viewBox="0 0 264 165" fill="none" xmlns="http://www.w3.org/2000/svg">
<path d="M262.781 46.8846L237.937 50.6234L243.937 56.0808L175.275 117.708L150.881 98.1814L72.7312 164.096H92.8875L151.106 115.103L176.212 135.197L253.669 64.9581L259.744 70.4865L262.781 46.8846Z" fill="white"/>
<path d="M93.075 164.539H71.5125L150.881 97.5962L175.275 117.123L243.281 56.0804L236.962 50.3217L263.344 46.3527L260.119 71.4074L253.687 65.5601L176.25 135.799L151.125 115.687L93.075 164.539ZM73.95 163.653H92.7L151.088 114.518L176.175 134.611L253.669 64.3375L259.387 69.5469L262.237 47.4158L238.931 50.9242L244.594 56.0804L175.275 118.31L150.9 98.7657L73.95 163.653Z" fill="black"/>
<path d="M190.631 46.2822L195.9 51.0841L166.912 79.47L175.519 87.2487L204.488 58.8982L209.831 63.7532L212.494 42.9865L190.631 46.2822Z" fill="white"/>
<path d="M175.519 87.8689L166.237 79.4877L195.244 51.084L189.619 45.9632L213.037 42.4371L210.169 64.6746L204.487 59.5006L175.519 87.8689ZM167.569 79.47L175.5 86.6285L204.469 58.2603L209.475 62.8141L211.969 43.5003L191.644 46.548L196.575 51.0486L167.569 79.47Z" fill="black"/>
<path d="M143.888 65.4009H139.2V157.806H143.888V65.4009Z" fill="white"/>
<path d="M144.356 158.249H138.731V64.958H144.356V158.249ZM139.669 157.363H143.419V65.844H139.669V157.363Z" fill="black"/>
<path d="M145.519 164.451C145.519 164.451 146.456 121.925 102.581 120.685C102.581 120.685 97.7063 167.109 145.519 164.451Z" fill="#A9DD57"/>
<path d="M141.656 165C129.525 165 119.962 161.633 113.194 154.971C106.312 148.202 103.669 139.219 102.656 132.875C101.569 126.018 102.112 120.684 102.112 120.631L102.15 120.224L102.581 120.241C112.687 120.525 121.256 123.041 128.062 127.683C133.519 131.404 137.831 136.508 140.925 142.851C146.156 153.606 145.987 164.362 145.987 164.468V164.876L145.556 164.894C144.225 164.964 142.931 165 141.656 165ZM103.013 121.145C102.919 122.51 102.694 127.116 103.594 132.787C104.587 138.988 107.175 147.777 113.869 154.368C121.069 161.456 131.55 164.699 145.05 164.025C145.031 161.97 144.637 152.579 140.062 143.188C133.237 129.172 120.769 121.765 103.013 121.145Z" fill="black"/>
<path d="M140.888 113.42C140.888 113.42 142.575 97.118 114.45 100.13C114.45 100.13 121.575 106.509 126.169 110.407C132.825 116.077 140.888 113.42 140.888 113.42Z" fill="#A9DD57"/>
<path d="M136.313 114.465C133.331 114.465 129.375 113.739 125.85 110.726C121.313 106.864 114.206 100.503 114.131 100.449L113.4 99.7938L114.394 99.6875C125.231 98.518 133.013 100.06 137.494 104.224C141.844 108.263 141.375 113.243 141.356 113.455L141.319 113.739L141.038 113.827C141 113.845 139.069 114.465 136.313 114.465ZM115.5 100.467C117.45 102.204 122.794 106.952 126.469 110.071C132.15 114.908 138.938 113.473 140.419 113.083C140.438 111.984 140.269 108.051 136.8 104.844C132.694 100.999 125.513 99.5457 115.5 100.467Z" fill="black"/>
<path d="M141.544 95.9663C141.544 95.9663 143.044 81.0822 163.481 83.2085C163.481 83.2085 161.231 99.8645 141.544 95.9663Z" fill="#A9DD57"/>
<path d="M147.169 96.994C145.369 96.994 143.456 96.7991 141.431 96.3916L141.019 96.303L141.056 95.9132C141.075 95.6828 141.694 90.2076 146.756 86.3094C150.788 83.2086 156.413 82.0214 163.5 82.7656L163.969 82.8188L163.913 83.2617C163.875 83.5452 162.9 90.2962 157.013 94.2476C154.331 96.0904 151.013 96.994 147.169 96.994ZM142.069 95.6119C147.975 96.7105 152.831 96.0018 156.506 93.5388C161.213 90.3671 162.619 85.1577 162.938 83.5984C156.338 82.996 151.106 84.13 147.375 87.0005C143.344 90.1013 142.294 94.3184 142.069 95.6119Z" fill="black"/>
<path d="M141.844 78.6199C159.292 78.6199 173.437 65.2526 173.437 48.7633C173.437 32.2739 159.292 18.9066 141.844 18.9066C124.395 18.9066 110.25 32.2739 110.25 48.7633C110.25 65.2526 124.395 78.6199 141.844 78.6199Z" fill="#00A651"/>
<path d="M141.844 79.0623C124.163 79.0623 109.781 65.4718 109.781 48.7627C109.781 32.0537 124.163 18.4631 141.844 18.4631C159.525 18.4631 173.906 32.0537 173.906 48.7627C173.906 65.4718 159.525 79.0623 141.844 79.0623ZM141.844 19.3491C124.688 19.3491 110.719 32.5498 110.719 48.7627C110.719 64.9757 124.688 78.1764 141.844 78.1764C159 78.1764 172.969 64.9757 172.969 48.7627C172.969 32.5498 159 19.3491 141.844 19.3491Z" fill="black"/>
<path d="M141.844 70.8233C154.736 70.8233 165.187 60.9466 165.187 48.7631C165.187 36.5796 154.736 26.7029 141.844 26.7029C128.951 26.7029 118.5 36.5796 118.5 48.7631C118.5 60.9466 128.951 70.8233 141.844 70.8233Z" fill="white"/>
<path d="M141.844 71.2659C128.719 71.2659 118.031 61.1661 118.031 48.7627C118.031 36.3594 128.719 26.2595 141.844 26.2595C154.969 26.2595 165.656 36.3594 165.656 48.7627C165.656 61.1661 154.969 71.2659 141.844 71.2659ZM141.844 27.1455C129.225 27.1455 118.969 36.8378 118.969 48.7627C118.969 60.6877 129.225 70.38 141.844 70.38C154.462 70.38 164.719 60.6877 164.719 48.7627C164.719 36.8378 154.462 27.1455 141.844 27.1455Z" fill="black"/>
<path d="M148.594 57.1794C147.375 58.2779 145.613 58.9335 143.288 59.1639V62.4242H140.775V59.1993C139.256 59.1107 137.831 58.845 136.481 58.4197C135.131 57.9944 134.063 57.4451 133.256 56.7895L134.644 53.8482C135.394 54.4329 136.331 54.9113 137.419 55.3189C138.506 55.7087 139.631 55.9567 140.794 56.0631V50.2512C139.331 49.9145 138.131 49.5602 137.156 49.1703C136.181 48.7805 135.375 48.1958 134.719 47.4339C134.063 46.6719 133.744 45.662 133.744 44.4039C133.744 42.8269 134.344 41.498 135.563 40.3994C136.763 39.3008 138.525 38.6452 140.813 38.4326V35.1545H143.325V38.3794C144.469 38.4326 145.594 38.6275 146.681 38.9287C147.769 39.2299 148.744 39.6375 149.55 40.1513L148.294 43.0927C146.738 42.2422 145.069 41.7106 143.306 41.5157V47.3807C144.788 47.7174 146.006 48.0718 146.981 48.4616C147.956 48.8514 148.781 49.4184 149.438 50.198C150.094 50.96 150.431 51.9699 150.431 53.228C150.431 54.7518 149.813 56.0808 148.594 57.1794ZM138.469 45.7506C138.994 46.1404 139.763 46.4593 140.775 46.7428V41.5689C139.725 41.7283 138.956 42.0295 138.431 42.4902C137.925 42.9509 137.663 43.5179 137.663 44.209C137.681 44.8469 137.944 45.3607 138.469 45.7506ZM145.706 55.1062C146.231 54.6632 146.494 54.114 146.494 53.4584C146.494 52.8027 146.213 52.2712 145.669 51.8814C145.125 51.4915 144.319 51.1549 143.306 50.8714V56.0099C144.394 55.8504 145.2 55.5492 145.706 55.1062Z" fill="black"/>
<path d="M145.275 164.822C133.969 157.93 122.813 146.359 115.463 137.872C107.494 128.675 102.131 121.003 102.075 120.932L102.863 120.436C103.069 120.737 124.331 150.984 145.8 164.078L145.275 164.822Z" fill="black"/>
<path d="M141.75 96.2145L141.15 95.5411C152.512 86.5576 163.106 82.5708 163.219 82.5354L163.556 83.3682C163.444 83.3859 152.981 87.3373 141.75 96.2145Z" fill="black"/>
<path d="M140.475 113.65C140.456 113.632 138.9 111.134 134.925 108.299C131.25 105.676 124.706 102.203 114.375 100.573L114.525 99.7051C125.081 101.371 131.775 104.932 135.544 107.626C139.65 110.567 141.225 113.101 141.3 113.207L140.475 113.65Z" fill="black"/>
<path d="M136.388 164.451C136.388 164.451 135.45 121.925 179.325 120.685C179.325 120.685 184.2 167.109 136.388 164.451Z" fill="#A9DD57"/>
<path d="M140.25 165C138.975 165 137.681 164.964 136.35 164.894L135.919 164.876V164.468C135.919 164.362 135.75 153.606 140.981 142.851C144.056 136.525 148.388 131.422 153.844 127.683C160.65 123.023 169.219 120.525 179.325 120.241L179.756 120.224L179.794 120.631C179.794 120.684 180.338 126.036 179.25 132.875C178.238 139.219 175.594 148.202 168.713 154.971C161.944 161.633 152.381 165 140.25 165ZM136.856 164.025C150.356 164.699 160.838 161.438 168.038 154.368C174.75 147.777 177.319 138.988 178.313 132.787C179.213 127.116 178.988 122.51 178.894 121.145C161.138 121.765 148.65 129.19 141.825 143.223C137.25 152.614 136.875 161.988 136.856 164.025Z" fill="black"/>
<path d="M136.538 164.911L136.031 164.167C151.65 154.687 162.506 143.347 168.844 135.498C175.725 126.992 178.95 120.649 178.988 120.578L179.831 120.95C179.794 121.021 176.55 127.418 169.613 135.994C163.219 143.932 152.288 155.361 136.538 164.911Z" fill="black"/>
<path d="M222.112 105.783H219.337V160.552H222.112V105.783Z" fill="white"/>
<path d="M222.6 160.995H218.887V105.34H222.6V160.995ZM219.806 160.109H221.644V106.226H219.806V160.109Z" fill="black"/>
<path d="M223.087 164.504C223.087 164.504 223.65 139.29 197.644 138.563C197.644 138.546 194.756 166.063 223.087 164.504Z" fill="#A9DD57"/>
<path d="M220.8 165C213.562 165 207.844 162.98 203.794 159.011C199.687 154.971 198.094 149.602 197.494 145.828C196.837 141.735 197.156 138.652 197.175 138.528L197.212 138.12L197.644 138.138C203.662 138.315 208.781 139.803 212.85 142.585C216.112 144.818 218.681 147.866 220.537 151.64C223.65 158.054 223.556 164.273 223.556 164.522V164.929L223.125 164.947C222.337 164.982 221.55 165 220.8 165ZM198.075 139.006C197.944 141.221 197.7 151.728 204.469 158.391C208.669 162.519 214.762 164.433 222.619 164.061C222.581 162.572 222.262 157.257 219.675 151.941C215.681 143.773 208.425 139.414 198.075 139.006Z" fill="black"/>
<path d="M220.35 134.24C220.35 134.24 221.344 124.583 204.675 126.355C204.675 126.355 208.894 130.129 211.612 132.45C215.569 135.817 220.35 134.24 220.35 134.24Z" fill="#A9DD57"/>
<path d="M217.612 135.072C215.812 135.072 213.45 134.629 211.313 132.804C208.613 130.519 204.413 126.745 204.356 126.709L203.625 126.053L204.619 125.947C211.106 125.256 215.775 126.177 218.456 128.694C221.1 131.157 220.819 134.187 220.8 134.311L220.763 134.594L220.481 134.683C220.406 134.7 219.244 135.072 217.612 135.072ZM205.744 126.709C207.075 127.896 209.925 130.43 211.931 132.131C215.081 134.807 218.812 134.169 219.881 133.903C219.881 133.141 219.675 131.015 217.8 129.278C215.437 127.117 211.388 126.248 205.744 126.709Z" fill="black"/>
<path d="M220.725 123.909C220.725 123.909 221.606 115.085 233.719 116.343C233.738 116.343 232.406 126.213 220.725 123.909Z" fill="#A9DD57"/>
<path d="M224.081 124.689C223.012 124.689 221.85 124.565 220.65 124.335L220.237 124.246L220.275 123.856C220.294 123.714 220.65 120.401 223.725 118.044C226.144 116.184 229.537 115.457 233.794 115.9L234.262 115.953L234.206 116.396C234.187 116.574 233.587 120.649 230.044 123.041C228.394 124.14 226.387 124.689 224.081 124.689ZM221.269 123.555C224.625 124.14 227.381 123.732 229.481 122.315C232.05 120.596 232.931 117.814 233.175 116.733C229.425 116.414 226.444 117.087 224.306 118.735C222.131 120.401 221.456 122.651 221.269 123.555Z" fill="black"/>
<path d="M220.913 113.632C231.258 113.632 239.644 105.707 239.644 95.9306C239.644 86.1544 231.258 78.2292 220.913 78.2292C210.568 78.2292 202.181 86.1544 202.181 95.9306C202.181 105.707 210.568 113.632 220.913 113.632Z" fill="#00A651"/>
<path d="M220.913 114.075C210.338 114.075 201.713 105.941 201.713 95.9302C201.713 85.9367 210.319 77.7859 220.913 77.7859C231.487 77.7859 240.113 85.9189 240.113 95.9302C240.113 105.924 231.506 114.075 220.913 114.075ZM220.913 78.6718C210.844 78.6718 202.65 86.4151 202.65 95.9302C202.65 105.445 210.844 113.189 220.913 113.189C230.981 113.189 239.175 105.445 239.175 95.9302C239.175 86.4151 230.981 78.6718 220.913 78.6718Z" fill="black"/>
<path d="M220.913 109.008C228.555 109.008 234.75 103.153 234.75 95.931C234.75 88.709 228.555 82.8544 220.913 82.8544C213.27 82.8544 207.075 88.709 207.075 95.931C207.075 103.153 213.27 109.008 220.913 109.008Z" fill="white"/>
<path d="M220.913 109.451C213.019 109.451 206.606 103.391 206.606 95.9309C206.606 88.4712 213.019 82.4113 220.913 82.4113C228.806 82.4113 235.219 88.4712 235.219 95.9309C235.219 103.391 228.806 109.451 220.913 109.451ZM220.913 83.2972C213.544 83.2972 207.544 88.9673 207.544 95.9309C207.544 102.895 213.544 108.565 220.913 108.565C228.281 108.565 234.281 102.895 234.281 95.9309C234.281 88.9673 228.281 83.2972 220.913 83.2972Z" fill="black"/>
<path d="M224.925 100.91C224.194 101.566 223.163 101.955 221.775 102.097V104.028H220.275V102.115C219.375 102.062 218.531 101.902 217.725 101.654C216.919 101.406 216.281 101.087 215.812 100.697L216.638 98.9608C217.088 99.2975 217.631 99.5987 218.269 99.829C218.906 100.059 219.581 100.219 220.275 100.272V96.8345C219.413 96.6396 218.7 96.427 218.119 96.1966C217.538 95.9663 217.05 95.6119 216.675 95.1689C216.281 94.7082 216.094 94.1235 216.094 93.3616C216.094 92.4402 216.45 91.6428 217.162 90.9872C217.875 90.3316 218.925 89.9418 220.275 89.8178V87.8687H221.775V89.7823C222.45 89.8177 223.125 89.9241 223.763 90.1013C224.419 90.2785 224.981 90.5265 225.469 90.8277L224.719 92.5642C223.8 92.0681 222.806 91.7491 221.775 91.6428V95.0803C222.656 95.2752 223.369 95.4879 223.95 95.7182C224.531 95.9485 225.019 96.2852 225.412 96.7459C225.806 97.2066 226.013 97.7913 226.013 98.5533C226.013 99.4746 225.638 100.272 224.925 100.91ZM218.925 94.1412C219.244 94.3716 219.694 94.5665 220.294 94.7259V91.6605C219.675 91.7491 219.206 91.944 218.906 92.2098C218.606 92.4933 218.456 92.83 218.456 93.2198C218.437 93.6096 218.606 93.9109 218.925 94.1412ZM223.2 99.6873C223.519 99.4215 223.669 99.1025 223.669 98.7127C223.669 98.3229 223.5 98.004 223.181 97.7736C222.863 97.5433 222.394 97.3484 221.775 97.1712V100.219C222.413 100.13 222.9 99.9531 223.2 99.6873Z" fill="black"/>
<path d="M222.844 164.876C209.981 157.044 197.306 138.988 197.175 138.811L197.963 138.315C198.094 138.492 210.675 156.388 223.35 164.132L222.844 164.876Z" fill="black"/>
<path d="M220.987 124.193L220.387 123.519C227.156 118.186 233.456 115.812 233.512 115.776L233.85 116.609C233.794 116.627 227.606 118.948 220.987 124.193Z" fill="black"/>
<path d="M219.937 134.47C219.9 134.417 216.206 128.64 204.6 126.815L204.75 125.947C216.825 127.843 220.594 133.779 220.744 134.045L219.937 134.47Z" fill="black"/>
<path d="M217.669 164.504C217.669 164.504 217.106 139.289 243.113 138.563C243.131 138.545 246.019 166.063 217.669 164.504Z" fill="#A9DD57"/>
<path d="M219.975 164.999C219.225 164.999 218.438 164.982 217.65 164.928L217.219 164.911V164.503C217.219 164.237 217.106 158.018 220.238 151.621C222.075 147.847 224.663 144.8 227.925 142.567C231.994 139.785 237.113 138.297 243.131 138.12L243.563 138.102L243.6 138.509C243.619 138.633 243.919 141.734 243.281 145.81C242.681 149.601 241.106 154.953 236.981 158.993C232.931 162.997 227.213 164.999 219.975 164.999ZM218.156 164.078C226.013 164.432 232.106 162.519 236.306 158.408C243.075 151.745 242.831 141.238 242.7 139.023C232.35 139.431 225.075 143.79 221.081 151.994C218.494 157.292 218.175 162.59 218.156 164.078Z" fill="black"/>
<path d="M217.875 164.929L217.369 164.184C235.05 153.447 242.681 138.58 242.756 138.421L243.6 138.793C243.581 138.828 241.65 142.656 237.525 147.741C233.719 152.454 227.231 159.241 217.875 164.929Z" fill="black"/>
<path d="M204.6 25.9234C212.046 25.9234 218.081 20.2195 218.081 13.1834C218.081 6.14726 212.046 0.443359 204.6 0.443359C197.155 0.443359 191.119 6.14726 191.119 13.1834C191.119 20.2195 197.155 25.9234 204.6 25.9234Z" fill="#00A651"/>
<path d="M204.6 26.366C196.913 26.366 190.65 20.4478 190.65 13.183C190.65 5.91817 196.913 0 204.6 0C212.288 0 218.55 5.91817 218.55 13.183C218.55 20.4478 212.288 26.366 204.6 26.366ZM204.6 0.885954C197.419 0.885954 191.588 6.39659 191.588 13.183C191.588 19.9694 197.419 25.48 204.6 25.48C211.781 25.48 217.613 19.9694 217.613 13.183C217.613 6.39659 211.781 0.885954 204.6 0.885954Z" fill="black"/>
<path d="M204.6 22.5917C210.099 22.5917 214.556 18.3792 214.556 13.1829C214.556 7.98652 210.099 3.77405 204.6 3.77405C199.101 3.77405 194.644 7.98652 194.644 13.1829C194.644 18.3792 199.101 22.5917 204.6 22.5917Z" fill="white"/>
<path d="M204.6 23.0347C198.844 23.0347 194.175 18.6226 194.175 13.1829C194.175 7.7431 198.844 3.33105 204.6 3.33105C210.356 3.33105 215.025 7.7431 215.025 13.1829C215.025 18.6226 210.356 23.0347 204.6 23.0347ZM204.6 4.21701C199.369 4.21701 195.112 8.23924 195.112 13.1829C195.112 18.1265 199.369 22.1487 204.6 22.1487C209.831 22.1487 214.088 18.1265 214.088 13.1829C214.088 8.23924 209.831 4.21701 204.6 4.21701Z" fill="black"/>
<path d="M207.487 16.78C206.962 17.2407 206.212 17.5242 205.219 17.6305V19.0126H204.15V17.6305C203.512 17.5951 202.894 17.4711 202.312 17.2939C201.731 17.1167 201.281 16.8863 200.944 16.6028L201.525 15.3448C201.844 15.5929 202.237 15.8055 202.706 15.965C203.175 16.1421 203.644 16.2307 204.15 16.2839V13.8032C203.531 13.6615 203.006 13.502 202.594 13.3425C202.181 13.1653 201.825 12.9173 201.544 12.5983C201.262 12.2794 201.131 11.8364 201.131 11.3048C201.131 10.6315 201.394 10.0645 201.9 9.60382C202.406 9.1254 203.156 8.85962 204.15 8.7533V7.37122H205.219V8.7533C205.706 8.77102 206.194 8.85962 206.662 8.98365C207.131 9.10768 207.544 9.28487 207.881 9.4975L207.337 10.7556C206.681 10.3835 205.969 10.1708 205.219 10.0822V12.5806C205.856 12.7224 206.362 12.8818 206.794 13.0413C207.206 13.2008 207.562 13.4489 207.844 13.7855C208.125 14.1045 208.275 14.5474 208.275 15.079C208.256 15.7346 208.012 16.3016 207.487 16.78ZM203.156 11.8896C203.381 12.049 203.719 12.1908 204.131 12.3148V10.1177C203.681 10.1885 203.362 10.3126 203.137 10.5075C202.912 10.7024 202.819 10.9505 202.819 11.234C202.819 11.5175 202.931 11.7301 203.156 11.8896ZM206.25 15.8941C206.475 15.6992 206.587 15.4688 206.587 15.1853C206.587 14.9018 206.475 14.6715 206.231 14.512C205.987 14.3348 205.65 14.1931 205.219 14.0867V16.2839C205.687 16.1953 206.025 16.0713 206.25 15.8941Z" fill="black"/>
<path d="M60.6562 30.2821V55.4255L72.6938 42.8449L60.6562 30.2821Z" fill="#00A651"/>
<path d="M70.6875 35.4734C71.2156 35.4734 71.6437 35.0688 71.6437 34.5697C71.6437 34.0706 71.2156 33.666 70.6875 33.666C70.1593 33.666 69.7312 34.0706 69.7312 34.5697C69.7312 35.0688 70.1593 35.4734 70.6875 35.4734Z" fill="black"/>
<path d="M70.6125 39.6374C71.1406 39.6374 71.5687 39.2328 71.5687 38.7338C71.5687 38.2347 71.1406 37.8301 70.6125 37.8301C70.0844 37.8301 69.6562 38.2347 69.6562 38.7338C69.6562 39.2328 70.0844 39.6374 70.6125 39.6374Z" fill="black"/>
<path d="M70.6125 43.89C71.1406 43.89 71.5687 43.4854 71.5687 42.9863C71.5687 42.4872 71.1406 42.0826 70.6125 42.0826C70.0844 42.0826 69.6562 42.4872 69.6562 42.9863C69.6562 43.4854 70.0844 43.89 70.6125 43.89Z" fill="black"/>
<path d="M70.6125 48.1247C71.1406 48.1247 71.5687 47.7201 71.5687 47.2211C71.5687 46.722 71.1406 46.3174 70.6125 46.3174C70.0844 46.3174 69.6562 46.722 69.6562 47.2211C69.6562 47.7201 70.0844 48.1247 70.6125 48.1247Z" fill="black"/>
<path d="M74.625 39.6374C75.1531 39.6374 75.5812 39.2328 75.5812 38.7338C75.5812 38.2347 75.1531 37.8301 74.625 37.8301C74.0968 37.8301 73.6687 38.2347 73.6687 38.7338C73.6687 39.2328 74.0968 39.6374 74.625 39.6374Z" fill="black"/>
<path d="M74.625 43.89C75.1531 43.89 75.5812 43.4854 75.5812 42.9863C75.5812 42.4872 75.1531 42.0826 74.625 42.0826C74.0968 42.0826 73.6687 42.4872 73.6687 42.9863C73.6687 43.4854 74.0968 43.89 74.625 43.89Z" fill="black"/>
<path d="M78.6375 43.89C79.1656 43.89 79.5937 43.4854 79.5937 42.9863C79.5937 42.4872 79.1656 42.0826 78.6375 42.0826C78.1093 42.0826 77.6812 42.4872 77.6812 42.9863C77.6812 43.4854 78.1093 43.89 78.6375 43.89Z" fill="black"/>
<path d="M74.625 48.1247C75.1531 48.1247 75.5812 47.7201 75.5812 47.2211C75.5812 46.722 75.1531 46.3174 74.625 46.3174C74.0968 46.3174 73.6687 46.722 73.6687 47.2211C73.6687 47.7201 74.0968 48.1247 74.625 48.1247Z" fill="black"/>
<path d="M70.6125 52.3769C71.1406 52.3769 71.5687 51.9723 71.5687 51.4733C71.5687 50.9742 71.1406 50.5696 70.6125 50.5696C70.0844 50.5696 69.6562 50.9742 69.6562 51.4733C69.6562 51.9723 70.0844 52.3769 70.6125 52.3769Z" fill="black"/>
<path d="M66.5062 35.4734C67.0344 35.4734 67.4625 35.0688 67.4625 34.5697C67.4625 34.0706 67.0344 33.666 66.5062 33.666C65.9781 33.666 65.55 34.0706 65.55 34.5697C65.55 35.0688 65.9781 35.4734 66.5062 35.4734Z" fill="black"/>
<path d="M66.6 31.2922C67.1281 31.2922 67.5562 30.8876 67.5562 30.3885C67.5562 29.8895 67.1281 29.4849 66.6 29.4849C66.0719 29.4849 65.6437 29.8895 65.6437 30.3885C65.6437 30.8876 66.0719 31.2922 66.6 31.2922Z" fill="black"/>
<path d="M66.4312 39.6374C66.9594 39.6374 67.3875 39.2328 67.3875 38.7338C67.3875 38.2347 66.9594 37.8301 66.4312 37.8301C65.9031 37.8301 65.475 38.2347 65.475 38.7338C65.475 39.2328 65.9031 39.6374 66.4312 39.6374Z" fill="black"/>
<path d="M66.4312 43.89C66.9594 43.89 67.3875 43.4854 67.3875 42.9863C67.3875 42.4872 66.9594 42.0826 66.4312 42.0826C65.9031 42.0826 65.475 42.4872 65.475 42.9863C65.475 43.4854 65.9031 43.89 66.4312 43.89Z" fill="black"/>
<path d="M66.4312 48.1247C66.9594 48.1247 67.3875 47.7201 67.3875 47.2211C67.3875 46.722 66.9594 46.3174 66.4312 46.3174C65.9031 46.3174 65.475 46.722 65.475 47.2211C65.475 47.7201 65.9031 48.1247 66.4312 48.1247Z" fill="black"/>
<path d="M66.4312 52.3769C66.9594 52.3769 67.3875 51.9723 67.3875 51.4733C67.3875 50.9742 66.9594 50.5696 66.4312 50.5696C65.9031 50.5696 65.475 50.9742 65.475 51.4733C65.475 51.9723 65.9031 52.3769 66.4312 52.3769Z" fill="black"/>
<path d="M66.4312 56.63C66.9594 56.63 67.3875 56.2254 67.3875 55.7263C67.3875 55.2272 66.9594 54.8226 66.4312 54.8226C65.9031 54.8226 65.475 55.2272 65.475 55.7263C65.475 56.2254 65.9031 56.63 66.4312 56.63Z" fill="black"/>
<path d="M100.181 107.396L119.287 107.414L118.481 110.514L98.9062 112.393L100.181 107.396Z" fill="#00A651"/>
<path d="M98.2875 112.888L99.825 106.953L119.887 106.988L118.875 110.939L98.2875 112.888ZM100.556 107.838L99.5062 111.878L118.106 110.107L118.687 107.856L100.556 107.838Z" fill="black"/>
<path d="M118.969 106.793C118.406 106.669 117.863 106.988 117.731 107.502L116.981 110.426C116.85 110.957 117.188 111.471 117.731 111.595C118.294 111.719 118.838 111.4 118.969 110.886L119.719 107.963C119.85 107.449 119.513 106.935 118.969 106.793Z" fill="#00A651"/>
<path d="M117.975 112.091C117.863 112.091 117.731 112.073 117.619 112.055C117.225 111.967 116.906 111.737 116.7 111.418C116.494 111.099 116.437 110.709 116.531 110.337L117.281 107.413C117.375 107.041 117.619 106.74 117.956 106.545C118.294 106.35 118.706 106.297 119.1 106.385C119.906 106.563 120.394 107.342 120.206 108.104L119.456 111.028C119.25 111.648 118.65 112.091 117.975 112.091ZM118.725 107.218C118.631 107.218 118.519 107.236 118.425 107.289C118.294 107.36 118.2 107.484 118.163 107.626L117.413 110.549C117.375 110.691 117.394 110.833 117.488 110.957C117.563 111.081 117.694 111.17 117.844 111.205C118.144 111.276 118.444 111.099 118.519 110.815L119.269 107.892C119.344 107.608 119.156 107.325 118.856 107.254C118.819 107.218 118.763 107.218 118.725 107.218Z" fill="black"/>
<path d="M56.625 109.522C56.625 109.522 60.8813 104.968 58.2 96.2501L54.5625 95.3464L52.3125 106.509L56.625 109.522Z" fill="#00A651"/>
<path d="M56.7 110.124L51.8063 106.704L54.2063 94.7971L58.575 95.8957L58.65 96.1438C61.3875 104.986 57.1688 109.628 56.9813 109.823L56.7 110.124ZM52.8375 106.315L56.5313 108.901C57.375 107.75 59.8688 103.55 57.825 96.6222L54.9375 95.8957L52.8375 106.315Z" fill="black"/>
<path d="M53.8125 95.3466L63.5625 99.0676L81.5625 98.3588C81.5625 98.3588 83.775 97.4374 85.4813 98.3056C85.9688 98.5537 86.3063 98.9967 86.4375 99.5105C86.7188 100.645 87.0375 103.001 84.9375 103.675C81.45 104.773 81.5625 102.611 81.5625 102.611L58.9313 105.5L50.625 102.08L53.8125 95.3466Z" fill="white"/>
<path d="M58.8562 105.942L50.0062 102.31L53.5687 94.7794L63.6375 98.6245L81.45 97.9157C81.9 97.7385 84 97.0475 85.6875 97.9157C86.2875 98.2169 86.7187 98.7662 86.8875 99.4041C87.5062 101.814 86.85 103.533 85.0687 104.082C83.5875 104.543 82.4812 104.525 81.7875 104.029C81.4312 103.763 81.225 103.409 81.15 103.107L58.8562 105.942ZM51.2437 101.849L58.9875 105.039L82.05 102.097L82.0125 102.629C82.0125 102.647 81.9937 103.072 82.3687 103.338C82.8 103.639 83.6625 103.604 84.7687 103.249C86.475 102.718 86.25 100.733 85.9687 99.6167C85.875 99.2269 85.5937 98.8902 85.2375 98.6953C83.7562 97.9334 81.75 98.7485 81.7312 98.7662L81.6562 98.8016L63.4687 99.5104L54.0375 95.9134L51.2437 101.849Z" fill="black"/>
<path d="M44.25 91.2711L57.5625 95.8781C57.5625 95.8781 56.8125 96.2325 55.5562 98.0575C54.4312 99.7054 54.5625 101.548 54.5625 101.548L46.875 98.8903L44.25 91.2711Z" fill="white"/>
<path d="M55.0687 102.204L54.3937 101.973L46.5 99.2447L43.5 90.5624L58.7437 95.8427L57.7687 96.3034C57.7687 96.3034 57.075 96.6755 55.95 98.3233C54.9187 99.8117 55.0312 101.53 55.0312 101.548L55.0687 102.204ZM47.25 98.5537L54.1125 100.928C54.1687 100.202 54.375 98.9789 55.1625 97.8272C55.7625 96.9413 56.2687 96.392 56.6437 96.0376L45 92.0153L47.25 98.5537Z" fill="black"/>
<path d="M87.8812 108.76L83.8687 107.839C83.1375 107.679 82.5187 107.236 82.125 106.634C81.7312 106.031 81.6187 105.305 81.7875 104.632L83.3062 98.7843C83.475 98.0933 83.9437 97.5085 84.5812 97.1364C85.2187 96.7643 85.9875 96.658 86.7 96.8175L90.7125 97.7389L90.2625 99.4576L86.25 98.5362C86.0062 98.4831 85.7625 98.5185 85.5375 98.6426C85.3312 98.7666 85.1812 98.9615 85.1062 99.1919L83.5875 105.039C83.5312 105.27 83.5687 105.5 83.7 105.712C83.8312 105.925 84.0375 106.049 84.2812 106.12L88.2937 107.041L87.8812 108.76Z" fill="#00A651"/>
<path d="M88.2187 109.291L83.7562 108.264C82.9125 108.069 82.1812 107.573 81.7312 106.864C81.2812 106.155 81.1312 105.322 81.3562 104.525L82.875 98.6776C83.0812 97.8803 83.6062 97.1892 84.3562 96.764C85.1062 96.3387 85.9875 96.1969 86.8312 96.4096L91.2937 97.4373L90.6187 100.024L86.1562 98.9966C86.0437 98.9611 85.9125 98.9789 85.8 99.0497C85.6875 99.1029 85.6125 99.2092 85.5937 99.3155L84.075 105.163C84.0375 105.287 84.0562 105.393 84.1312 105.5C84.1875 105.606 84.3 105.677 84.4125 105.694L88.875 106.722L88.2187 109.291ZM86.0437 97.1715C85.6125 97.1715 85.2 97.2778 84.825 97.4904C84.2812 97.7917 83.9062 98.2878 83.775 98.8548L82.2562 104.702C82.1062 105.269 82.2 105.872 82.5375 106.385C82.8562 106.899 83.3812 107.254 83.9812 107.378L87.5437 108.193L87.7687 107.325L84.225 106.51C83.8687 106.421 83.55 106.208 83.3625 105.907C83.175 105.606 83.1 105.251 83.1937 104.897L84.7125 99.0497C84.8062 98.7131 85.0312 98.4118 85.35 98.2347C85.6687 98.0575 86.0437 97.9866 86.4187 98.0752L89.9625 98.8903L90.1875 98.022L86.6437 97.2069C86.4187 97.1892 86.2312 97.1715 86.0437 97.1715Z" fill="black"/>
<path d="M102.694 101.406L101.775 101.194L102.056 100.113C102.806 97.2425 100.931 94.3365 97.8937 93.6278C94.8562 92.919 91.7812 94.6909 91.0312 97.5614L90.75 98.6422L89.8312 98.4296L90.1125 97.3488C90.975 93.9999 94.5562 91.9445 98.1 92.7596C101.644 93.5746 103.819 96.959 102.956 100.308L102.694 101.406Z" fill="black"/>
<path d="M103.575 99.1382L90.2813 96.0906C89.5688 95.9311 88.8563 96.3386 88.6875 97.0119L85.1813 110.602C85.0125 111.276 85.4438 111.949 86.1563 112.109L99.45 115.174C100.163 115.333 100.875 114.926 101.044 114.253L104.55 100.662C104.7 99.9887 104.269 99.3154 103.575 99.1382Z" fill="#00A651"/>
<path d="M99.75 115.634C99.6188 115.634 99.4688 115.616 99.3188 115.581L86.025 112.516C85.5563 112.409 85.1625 112.144 84.9188 111.754C84.675 111.364 84.6 110.921 84.7125 110.478L88.2188 96.8874C88.3313 96.4444 88.6125 96.0723 89.025 95.842C89.4375 95.6116 89.9063 95.5408 90.375 95.6471L103.669 98.7125C104.138 98.8188 104.531 99.0846 104.775 99.4744C105.019 99.8642 105.094 100.307 104.981 100.75L101.475 114.341C101.288 115.12 100.556 115.634 99.75 115.634ZM89.9625 96.4976C89.8125 96.4976 89.6625 96.533 89.5313 96.6216C89.3438 96.728 89.1938 96.9051 89.1563 97.1178L85.65 110.708C85.5375 111.134 85.8188 111.577 86.2688 111.683L99.5625 114.748C100.013 114.855 100.481 114.589 100.594 114.164L104.1 100.573C104.156 100.36 104.119 100.148 104.006 99.9705C103.894 99.7933 103.706 99.6516 103.481 99.6162L90.1875 96.5508C90.0938 96.4976 90.0375 96.4976 89.9625 96.4976Z" fill="black"/>
<path d="M29.7188 121.128C29.7188 121.128 30.8438 123.254 42.4688 122.191C42.4688 122.191 50.7188 120.951 55.0312 116.698L52.4062 114.572L30.9375 116.964L29.7188 121.128Z" fill="#00A651"/>
<path d="M36.6375 122.935C30.525 122.935 29.4563 121.642 29.2875 121.323L29.2125 121.163L30.5625 116.556L52.5375 114.111L55.6875 116.663L55.35 116.999C50.9813 121.305 42.8625 122.563 42.525 122.616H42.4875C40.1625 122.846 38.2313 122.935 36.6375 122.935ZM30.225 121.004C30.7313 121.376 33.15 122.598 42.3938 121.748C42.75 121.695 50.175 120.472 54.3188 116.716L52.2375 115.032L31.2938 117.371L30.225 121.004Z" fill="black"/>
<path d="M82.5 156.123C82.5 156.123 79.9687 158.338 75.4687 157.983C75.4687 157.983 72.0937 157.452 70.2188 156.034L71.1562 153.376L82.4062 154.262L82.5 156.123Z" fill="#00A651"/>
<path d="M76.4438 158.462C76.125 158.462 75.7875 158.444 75.4312 158.427H75.3938C75.2438 158.409 71.8687 157.86 69.9187 156.389L69.6562 156.194L70.8188 152.916L82.8375 153.855L82.9688 156.318L82.8 156.46C82.725 156.531 80.4563 158.462 76.4438 158.462ZM75.525 157.541C79.125 157.824 81.4125 156.371 82.0312 155.928L81.9562 154.67L71.475 153.838L70.7625 155.857C72.4875 157.009 75.2625 157.505 75.525 157.541Z" fill="black"/>
<path d="M25.4063 151.25C25.4063 151.25 22.7813 154.971 22.4063 158.869C22.4063 158.869 22.2188 164.185 23.9063 164.185L27.0188 162.892L27.6563 152.491L25.4063 151.25Z" fill="#00A651"/>
<path d="M24 164.628H23.9063C23.5688 164.628 23.25 164.504 23.0063 164.238C21.825 163.086 21.9375 159.277 21.9375 158.852V158.834C22.3125 154.865 24.9 151.161 25.0125 151.002L25.2563 150.648L28.1438 152.242L27.4688 163.193L24 164.628ZM22.875 158.905C22.8188 160.393 23.0063 162.98 23.6813 163.636C23.7375 163.689 23.7938 163.724 23.8313 163.742L26.5688 162.608L27.1688 152.738L25.5563 151.852C24.9188 152.845 23.1563 155.839 22.875 158.905Z" fill="black"/>
<path d="M44.8688 95.4347L43.9313 87.3371C43.9313 87.3371 50.8875 88.6306 46.7813 76.8297L36.6562 78.8851L37.5562 86.9827L37.3687 95.4347H44.8688Z" fill="white"/>
<path d="M45.3938 95.8781H36.9188L37.1063 87.0009L36.15 78.5312L47.1 76.3163L47.2313 76.6884C48.9375 81.5966 48.9938 84.9455 47.3813 86.6465C46.4438 87.6565 45.1875 87.816 44.4563 87.7982L45.3938 95.8781ZM37.875 94.9922H44.3438L43.4063 86.7883L44.025 86.9123C44.0813 86.93 45.6563 87.1958 46.6875 86.0795C47.6063 85.0872 48.2813 82.7837 46.4625 77.3617L37.1625 79.2399L38.025 86.9654L37.875 94.9922Z" fill="black"/>
<path d="M29.4187 158.285C29.4187 158.285 24.1125 157.275 21.0375 155.096C20.3437 154.617 19.4062 154.617 18.7312 155.096L6.09375 164.132H28.4437L29.4187 158.285Z" fill="white"/>
<path d="M28.8375 164.593H4.6875L18.4313 154.759C19.275 154.156 20.4563 154.156 21.3 154.759C24.2625 156.849 29.4375 157.859 29.4938 157.859L29.9438 157.948L28.8375 164.593ZM7.48125 163.707H28.0312L28.875 158.639C27.525 158.338 23.3813 157.328 20.7375 155.467C20.2313 155.095 19.5 155.113 18.9938 155.467L7.48125 163.707Z" fill="black"/>
<path d="M79.6312 100.326L83.2687 99.7232C83.9249 99.6169 84.5999 99.7763 85.0874 100.202C85.6499 100.68 86.2687 101.371 86.3062 102.204C86.3624 103.267 85.7999 104.968 84.9187 105.446C83.0999 106.439 83.0062 104.348 83.0062 104.348L79.2187 104.986L61.3124 108.37C60.3187 108.565 59.2874 108.441 58.3687 108.033L49.8562 104.295L54.7499 96.7109L62.8687 100.786L79.6312 100.326Z" fill="white"/>
<path d="M60.375 108.902C59.625 108.902 58.875 108.742 58.1625 108.441L49.1625 104.49L54.5437 96.1261L62.9437 100.343L79.5562 99.8825L83.175 99.2801C83.9812 99.1384 84.7875 99.351 85.3875 99.8648C86.25 100.591 86.7187 101.389 86.7562 102.186C86.8125 103.285 86.2687 105.216 85.125 105.836C84.45 106.208 83.8687 106.261 83.4 106.013C82.9125 105.765 82.6875 105.251 82.5937 104.862L79.275 105.429L61.4062 108.795C61.0687 108.866 60.7125 108.902 60.375 108.902ZM50.5312 104.1L58.575 107.626C59.4187 107.998 60.3375 108.104 61.2375 107.927L79.1437 104.543L83.475 103.816L83.4937 104.312C83.5125 104.543 83.625 105.074 83.9062 105.216C84.1312 105.322 84.5062 105.163 84.7125 105.039C85.4062 104.667 85.9312 103.161 85.875 102.186C85.8375 101.495 85.275 100.875 84.8062 100.485C84.4312 100.166 83.8875 100.024 83.3812 100.113L79.6687 100.733L62.775 101.194L54.9375 97.2601L50.5312 104.1Z" fill="black"/>
<path d="M79.0312 153.731C79.0312 153.731 80.7937 159.543 84.8625 160.358C89.9063 161.35 91.4625 163.76 91.5938 164.362H71.55L72.9375 153.943L79.0312 153.731Z" fill="white"/>
<path d="M92.1562 164.805H71.0062L72.525 153.518L79.3687 153.288L79.4625 153.625C79.4812 153.678 81.2062 159.206 84.9375 159.932C90.2812 160.996 91.8937 163.636 92.025 164.291L92.1562 164.805ZM72.075 163.919H90.8437C90.225 163.069 88.5 161.527 84.7687 160.783C81 160.039 79.1437 155.467 78.6937 154.174L73.3687 154.351L72.075 163.919Z" fill="black"/>
<path d="M25.2 150.541C25.2 150.541 27.5812 159.436 23.9437 164.203H60.3375C62.5312 164.203 64.6312 163.352 66.075 161.811C68.1375 159.596 69.3375 155.538 64.575 148.344L52.9312 133.62H71.325L69.6375 156.123C69.6375 156.123 73.5937 154.971 76.6687 154.883C80.55 154.776 82.425 155.839 82.9312 156.123L84.9937 127.329C85.2 124.335 83.0062 121.659 79.875 121.128L48.6562 115.812L33.8437 116.521C33.8437 116.521 33.5625 137.341 49.5562 151.268L25.2 150.541Z" fill="black"/>
<path d="M33.4687 97.9159C33.5812 96.0199 34.0312 90.6156 38.9625 89.9246C40.125 89.7651 41.325 89.9068 42.4312 90.2967L56.7562 97.7032C56.7562 97.7032 55.125 99.4397 54.8437 102.239C54.5437 105.198 55.875 109.362 55.875 109.362L54.375 108.831L55.4062 117.159C55.4062 117.159 48.2812 116.344 42.2812 116.716C36.4687 117.07 29.9062 120.437 29.9062 120.437C29.9062 120.437 33.1312 103.852 33.4687 97.9159Z" fill="white"/>
<path d="M29.2688 121.252L29.4375 120.348C29.475 120.189 32.6625 103.728 33 97.8981C33.3563 91.5724 36.3938 89.8359 38.8876 89.4993C40.0876 89.3398 41.3813 89.4638 42.6001 89.8891L42.6563 89.9245L57.4876 97.5969L57.0938 98.0044C57.0751 98.0221 55.5751 99.67 55.2938 102.292C55.0126 105.127 56.3063 109.203 56.3063 109.238L56.5876 110.089L54.9188 109.504L55.9313 117.673L55.3501 117.602C55.2751 117.602 48.1876 116.804 42.3001 117.159C36.6563 117.495 30.1875 120.791 30.1125 120.827L29.2688 121.252ZM33.9375 97.9335C33.6563 103.037 31.2188 116.096 30.5438 119.604C32.5313 118.683 37.575 116.521 42.2626 116.237C47.2313 115.936 53.0438 116.45 54.8813 116.627L53.8313 108.122L55.1813 108.6C54.8063 107.201 54.1501 104.383 54.3751 102.151C54.6001 100.042 55.5188 98.5006 56.0438 97.8095L42.2251 90.6687C41.1563 90.3143 40.0501 90.1903 39.0001 90.3321C35.8876 90.7928 34.1813 93.3443 33.9375 97.9335Z" fill="black"/>
<path d="M54 134.08C48.4125 134.045 45.3938 131.352 43.8563 129.101C42.1875 126.674 41.8313 124.3 41.8313 124.193L42.7688 124.069C42.7688 124.087 43.1063 126.373 44.6813 128.623C46.7625 131.6 49.8938 133.141 54.0375 133.177L54 134.08Z" fill="white"/>
<path d="M41.6062 81.4723C41.6062 81.4723 40.8375 79.665 39.5625 80.6927C39.0187 81.1356 39.075 82.4646 40.575 83.2088C40.575 83.2088 39.4687 85.1047 37.0875 85.5122C37.0875 85.5122 33.4312 81.2951 35.2687 77.0603C35.2687 77.0603 29.5875 77.8754 29.1562 73.0203C29.025 71.5674 30.2812 68.9272 33.6375 68.9804C35.3062 68.9981 38.2312 70.0435 37.9125 73.8C37.9125 73.8 45.45 70.7169 47.8875 77.8399C47.8875 77.8399 45.0562 81.6672 41.6062 81.4723Z" fill="black"/>
<path d="M47.9403 106.44L47.669 107.288L55.7274 109.591L55.9987 108.743L47.9403 106.44Z" fill="black"/>
<path d="M129.919 124.282C129.919 124.282 132.9 126.78 131.194 127.471C129.487 128.18 129.919 124.282 129.919 124.282Z" fill="white"/>
<path d="M130.819 128.02C130.538 128.02 130.331 127.932 130.181 127.826C129.187 127.134 129.412 124.725 129.45 124.264C129.469 124.105 129.581 123.963 129.75 123.892C129.919 123.839 130.106 123.856 130.237 123.98C130.594 124.282 132.375 125.841 132.188 127.028C132.131 127.312 131.963 127.684 131.4 127.914C131.175 127.985 130.988 128.02 130.819 128.02ZM130.331 125.309C130.331 126.142 130.463 126.904 130.725 127.099C130.744 127.117 130.8 127.152 131.006 127.081C131.231 126.993 131.231 126.904 131.25 126.851C131.306 126.514 130.856 125.876 130.331 125.309Z" fill="black"/>
<path d="M121.875 112.711C121.875 112.711 125.062 115.546 123.937 116.964C122.813 118.381 121.5 115.723 121.875 112.711Z" fill="white"/>
<path d="M123.281 117.797C123.112 117.797 122.981 117.761 122.888 117.726C121.763 117.3 121.106 115.032 121.406 112.658C121.425 112.499 121.538 112.357 121.706 112.286C121.875 112.233 122.063 112.268 122.194 112.375C122.55 112.694 125.644 115.529 124.312 117.212C123.956 117.69 123.581 117.797 123.281 117.797ZM122.269 113.757C122.269 115.511 122.831 116.751 123.244 116.911C123.337 116.946 123.487 116.804 123.562 116.698C124.069 116.06 123.15 114.714 122.269 113.757Z" fill="black"/>
<path d="M127.894 113.775C127.894 113.775 131.963 117.389 130.538 119.214C129.113 121.039 127.406 117.62 127.894 113.775Z" fill="white"/>
<path d="M129.694 120.154C129.506 120.154 129.356 120.118 129.244 120.065C127.894 119.551 127.05 116.645 127.425 113.722C127.444 113.562 127.556 113.42 127.725 113.349C127.894 113.296 128.081 113.332 128.213 113.438C128.663 113.828 132.544 117.389 130.894 119.463C130.481 120.012 130.031 120.154 129.694 120.154ZM128.288 114.785C128.213 117.177 128.963 119.002 129.6 119.232C129.656 119.25 129.844 119.321 130.163 118.931C130.931 117.957 129.413 115.972 128.288 114.785Z" fill="black"/>
<path d="M250.781 163.919H0V164.982H250.781V163.919Z" fill="black"/>
</svg>
