<svg width="263" height="165" viewBox="0 0 263 165" fill="none" xmlns="http://www.w3.org/2000/svg">
<path d="M37.8872 88.1546C48.099 88.1546 56.3774 79.8486 56.3774 69.6026C56.3774 59.3566 48.099 51.0505 37.8872 51.0505C27.6753 51.0505 19.397 59.3566 19.397 69.6026C19.397 79.8486 27.6753 88.1546 37.8872 88.1546Z" fill="#00A651"/>
<path d="M37.8873 88.619C27.4483 88.619 18.9343 80.095 18.9343 69.6026C18.9343 59.1288 27.4298 50.5863 37.8873 50.5863C48.3262 50.5863 56.8402 59.1102 56.8402 69.6026C56.8402 80.0765 48.3447 88.619 37.8873 88.619ZM37.8873 51.5148C27.9481 51.5148 19.8598 59.6302 19.8598 69.6026C19.8598 79.5751 27.9481 87.6904 37.8873 87.6904C47.8265 87.6904 55.9148 79.5751 55.9148 69.6026C55.9148 59.6302 47.8265 51.5148 37.8873 51.5148Z" fill="black"/>
<path d="M37.8872 83.3081C45.4311 83.3081 51.5467 77.1721 51.5467 69.6029C51.5467 62.0338 45.4311 55.8978 37.8872 55.8978C30.3433 55.8978 24.2278 62.0338 24.2278 69.6029C24.2278 77.1721 30.3433 83.3081 37.8872 83.3081Z" fill="white"/>
<path d="M37.8873 83.772C30.0951 83.772 23.7651 77.4209 23.7651 69.6026C23.7651 61.7844 30.0951 55.4332 37.8873 55.4332C45.6795 55.4332 52.0094 61.7844 52.0094 69.6026C52.0094 77.4209 45.6795 83.772 37.8873 83.772ZM37.8873 56.3618C30.6134 56.3618 24.6906 62.3044 24.6906 69.6026C24.6906 76.9009 30.6134 82.8435 37.8873 82.8435C45.1612 82.8435 51.084 76.9009 51.084 69.6026C51.084 62.3044 45.1612 56.3618 37.8873 56.3618Z" fill="black"/>
<path d="M41.8481 74.8203C41.1263 75.5075 40.1083 75.916 38.7387 76.0646V78.0888H37.258V76.0831C36.3696 76.0274 35.5367 75.8603 34.7408 75.6003C33.9449 75.3403 33.3156 75.006 32.8529 74.5975L33.6673 72.7776C34.1115 73.1304 34.6483 73.4461 35.2775 73.6875C35.9068 73.9289 36.5732 74.0961 37.258 74.1518V70.5491C36.4066 70.3448 35.7032 70.122 35.1295 69.8805C34.5557 69.6391 34.0745 69.2677 33.7043 68.8034C33.3156 68.3206 33.1305 67.7078 33.1305 66.9092C33.1305 65.9436 33.4822 65.1079 34.1855 64.4208C34.8889 63.7337 35.9253 63.3251 37.258 63.1951V61.1523H38.7387V63.158C39.405 63.1951 40.0713 63.3065 40.7006 63.4922C41.3484 63.678 41.9037 63.9379 42.3849 64.2536L41.6445 66.0736C40.7376 65.5536 39.7567 65.2193 38.7387 65.1079V68.7106C39.6086 68.9149 40.3119 69.1377 40.8857 69.3791C41.4595 69.6206 41.9407 69.9734 42.3294 70.4562C42.7181 70.9391 42.9216 71.5519 42.9216 72.3504C42.9216 73.3161 42.5515 74.1518 41.8481 74.8203ZM35.9254 67.7264C36.24 67.9678 36.6842 68.172 37.2765 68.3392V65.1265C36.6657 65.2193 36.203 65.4236 35.9068 65.7021C35.6107 65.9993 35.4626 66.3521 35.4626 66.7607C35.4441 67.1692 35.6107 67.4849 35.9254 67.7264ZM40.1453 73.539C40.46 73.2604 40.6081 72.9261 40.6081 72.5176C40.6081 72.109 40.4415 71.7748 40.1268 71.5333C39.8122 71.2919 39.3495 71.0876 38.7387 70.9019V74.0961C39.368 74.0032 39.8492 73.8175 40.1453 73.539Z" fill="black"/>
<path d="M29.0587 7.37268V28.5061L38.5907 17.9394L29.0587 7.37268Z" fill="#00A651"/>
<path d="M36.999 11.7367C37.4181 11.7367 37.7578 11.3958 37.7578 10.9753C37.7578 10.5548 37.4181 10.2139 36.999 10.2139C36.5799 10.2139 36.2401 10.5548 36.2401 10.9753C36.2401 11.3958 36.5799 11.7367 36.999 11.7367Z" fill="black"/>
<path d="M36.9433 15.2464C37.3624 15.2464 37.7022 14.9055 37.7022 14.485C37.7022 14.0645 37.3624 13.7236 36.9433 13.7236C36.5242 13.7236 36.1844 14.0645 36.1844 14.485C36.1844 14.9055 36.5242 15.2464 36.9433 15.2464Z" fill="black"/>
<path d="M36.9433 18.8121C37.3624 18.8121 37.7022 18.4712 37.7022 18.0507C37.7022 17.6302 37.3624 17.2893 36.9433 17.2893C36.5242 17.2893 36.1844 17.6302 36.1844 18.0507C36.1844 18.4712 36.5242 18.8121 36.9433 18.8121Z" fill="black"/>
<path d="M36.9433 22.3778C37.3624 22.3778 37.7022 22.0369 37.7022 21.6164C37.7022 21.1959 37.3624 20.855 36.9433 20.855C36.5242 20.855 36.1844 21.1959 36.1844 21.6164C36.1844 22.0369 36.5242 22.3778 36.9433 22.3778Z" fill="black"/>
<path d="M40.1083 15.2464C40.5275 15.2464 40.8672 14.9055 40.8672 14.485C40.8672 14.0645 40.5275 13.7236 40.1083 13.7236C39.6892 13.7236 39.3495 14.0645 39.3495 14.485C39.3495 14.9055 39.6892 15.2464 40.1083 15.2464Z" fill="black"/>
<path d="M40.1083 18.8121C40.5275 18.8121 40.8672 18.4712 40.8672 18.0507C40.8672 17.6302 40.5275 17.2893 40.1083 17.2893C39.6892 17.2893 39.3495 17.6302 39.3495 18.0507C39.3495 18.4712 39.6892 18.8121 40.1083 18.8121Z" fill="black"/>
<path d="M43.2919 18.8121C43.711 18.8121 44.0508 18.4712 44.0508 18.0507C44.0508 17.6302 43.711 17.2893 43.2919 17.2893C42.8728 17.2893 42.5331 17.6302 42.5331 18.0507C42.5331 18.4712 42.8728 18.8121 43.2919 18.8121Z" fill="black"/>
<path d="M40.1083 22.3778C40.5275 22.3778 40.8672 22.0369 40.8672 21.6164C40.8672 21.1959 40.5275 20.855 40.1083 20.855C39.6892 20.855 39.3495 21.1959 39.3495 21.6164C39.3495 22.0369 39.6892 22.3778 40.1083 22.3778Z" fill="black"/>
<path d="M36.9433 25.9617C37.3624 25.9617 37.7022 25.6209 37.7022 25.2004C37.7022 24.7799 37.3624 24.439 36.9433 24.439C36.5242 24.439 36.1844 24.7799 36.1844 25.2004C36.1844 25.6209 36.5242 25.9617 36.9433 25.9617Z" fill="black"/>
<path d="M33.7043 11.7367C34.1234 11.7367 34.4632 11.3958 34.4632 10.9753C34.4632 10.5548 34.1234 10.2139 33.7043 10.2139C33.2852 10.2139 32.9454 10.5548 32.9454 10.9753C32.9454 11.3958 33.2852 11.7367 33.7043 11.7367Z" fill="black"/>
<path d="M33.7585 8.2269C34.1776 8.2269 34.5174 7.886 34.5174 7.4655C34.5174 7.04499 34.1776 6.7041 33.7585 6.7041C33.3394 6.7041 32.9996 7.04499 32.9996 7.4655C32.9996 7.886 33.3394 8.2269 33.7585 8.2269Z" fill="black"/>
<path d="M33.6303 15.2464C34.0494 15.2464 34.3892 14.9055 34.3892 14.485C34.3892 14.0645 34.0494 13.7236 33.6303 13.7236C33.2112 13.7236 32.8715 14.0645 32.8715 14.485C32.8715 14.9055 33.2112 15.2464 33.6303 15.2464Z" fill="black"/>
<path d="M33.6303 18.8121C34.0494 18.8121 34.3892 18.4712 34.3892 18.0507C34.3892 17.6302 34.0494 17.2893 33.6303 17.2893C33.2112 17.2893 32.8715 17.6302 32.8715 18.0507C32.8715 18.4712 33.2112 18.8121 33.6303 18.8121Z" fill="black"/>
<path d="M33.6303 22.3778C34.0494 22.3778 34.3892 22.0369 34.3892 21.6164C34.3892 21.1959 34.0494 20.855 33.6303 20.855C33.2112 20.855 32.8715 21.1959 32.8715 21.6164C32.8715 22.0369 33.2112 22.3778 33.6303 22.3778Z" fill="black"/>
<path d="M33.6303 25.9617C34.0494 25.9617 34.3892 25.6209 34.3892 25.2004C34.3892 24.7799 34.0494 24.439 33.6303 24.439C33.2112 24.439 32.8715 24.7799 32.8715 25.2004C32.8715 25.6209 33.2112 25.9617 33.6303 25.9617Z" fill="black"/>
<path d="M33.6303 29.5274C34.0494 29.5274 34.3892 29.1865 34.3892 28.766C34.3892 28.3455 34.0494 28.0046 33.6303 28.0046C33.2112 28.0046 32.8715 28.3455 32.8715 28.766C32.8715 29.1865 33.2112 29.5274 33.6303 29.5274Z" fill="black"/>
<path d="M182.866 16.5278H69.4077V160.079H182.866V16.5278Z" fill="black"/>
<path d="M191.565 24.1418H78.6621V164.35H191.565V24.1418Z" fill="white"/>
<path d="M192.028 164.814H78.1993V23.6775H192.028V164.814ZM79.1248 163.886H191.103V24.606H79.1248V163.886Z" fill="black"/>
<path d="M103.834 67.5596C110.529 67.5596 115.957 62.1137 115.957 55.3958C115.957 48.678 110.529 43.2321 103.834 43.2321C97.1384 43.2321 91.7107 48.678 91.7107 55.3958C91.7107 62.1137 97.1384 67.5596 103.834 67.5596Z" fill="white"/>
<path d="M103.834 68.0241C96.8932 68.0241 91.248 62.3601 91.248 55.3961C91.248 48.4321 96.8932 42.7681 103.834 42.7681C110.775 42.7681 116.42 48.4321 116.42 55.3961C116.42 62.3601 110.775 68.0241 103.834 68.0241ZM103.834 43.6966C97.4114 43.6966 92.1735 48.9521 92.1735 55.3961C92.1735 61.8401 97.4114 67.0956 103.834 67.0956C110.256 67.0956 115.494 61.8401 115.494 55.3961C115.494 48.9521 110.256 43.6966 103.834 43.6966Z" fill="black"/>
<path d="M101.428 62.2672L95.1349 56.1575L96.4305 54.8204L101.243 59.4816L115.217 41.3752L116.698 42.5081L101.428 62.2672Z" fill="#A9DD57"/>
<path d="M179.035 46.8535H130.172V64.1242H179.035V46.8535Z" fill="white"/>
<path d="M179.498 64.5885H129.709V46.3893H179.498V64.5885ZM130.635 63.66H178.572V47.3178H130.635V63.66Z" fill="black"/>
<path d="M153.678 51.9232H136.65V53.7803H153.678V51.9232Z" fill="#A9DD57"/>
<path d="M172.557 57.2158H136.65V59.0729H172.557V57.2158Z" fill="#A9DD57"/>
<path d="M103.834 104.887C110.529 104.887 115.957 99.4409 115.957 92.7231C115.957 86.0052 110.529 80.5593 103.834 80.5593C97.1386 80.5593 91.7108 86.0052 91.7108 92.7231C91.7108 99.4409 97.1386 104.887 103.834 104.887Z" fill="white"/>
<path d="M103.834 105.351C96.8932 105.351 91.248 99.687 91.248 92.723C91.248 85.759 96.8932 80.095 103.834 80.095C110.775 80.095 116.42 85.759 116.42 92.723C116.42 99.687 110.775 105.351 103.834 105.351ZM103.834 81.0235C97.4114 81.0235 92.1735 86.279 92.1735 92.723C92.1735 99.167 97.4114 104.422 103.834 104.422C110.256 104.422 115.494 99.167 115.494 92.723C115.494 86.279 110.256 81.0235 103.834 81.0235Z" fill="black"/>
<path d="M101.428 99.5942L95.1349 93.4845L96.4305 92.1474L101.243 96.8086L115.217 78.7023L116.698 79.8351L101.428 99.5942Z" fill="#A9DD57"/>
<path d="M179.035 84.1802H130.172V101.451H179.035V84.1802Z" fill="white"/>
<path d="M179.498 101.916H129.709V83.7163H179.498V101.916ZM130.635 100.987H178.572V84.6448H130.635V100.987Z" fill="black"/>
<path d="M153.678 89.2502H136.65V91.1073H153.678V89.2502Z" fill="#A9DD57"/>
<path d="M172.557 94.5424H136.65V96.3994H172.557V94.5424Z" fill="#A9DD57"/>
<path d="M103.834 142.214C110.529 142.214 115.957 136.768 115.957 130.05C115.957 123.332 110.529 117.886 103.834 117.886C97.1386 117.886 91.7108 123.332 91.7108 130.05C91.7108 136.768 97.1386 142.214 103.834 142.214Z" fill="white"/>
<path d="M103.834 142.678C96.8932 142.678 91.248 137.014 91.248 130.05C91.248 123.086 96.8932 117.422 103.834 117.422C110.775 117.422 116.42 123.086 116.42 130.05C116.42 137.014 110.775 142.678 103.834 142.678ZM103.834 118.351C97.4114 118.351 92.1735 123.606 92.1735 130.05C92.1735 136.494 97.4114 141.75 103.834 141.75C110.256 141.75 115.494 136.494 115.494 130.05C115.494 123.606 110.256 118.351 103.834 118.351Z" fill="black"/>
<path d="M101.428 136.922L95.1349 130.812L96.4305 129.475L101.243 134.136L115.217 116.03L116.698 117.163L101.428 136.922Z" fill="#A9DD57"/>
<path d="M179.035 121.508H130.172V138.778H179.035V121.508Z" fill="white"/>
<path d="M179.498 139.243H129.709V121.043H179.498V139.243ZM130.635 138.314H178.572V121.972H130.635V138.314Z" fill="black"/>
<path d="M153.678 126.577H136.65V128.434H153.678V126.577Z" fill="#A9DD57"/>
<path d="M172.557 131.87H136.65V133.727H172.557V131.87Z" fill="#A9DD57"/>
<path d="M152.345 12.7208C151.864 5.86829 146.182 0.464233 139.241 0.464233C132.3 0.464233 126.618 5.86829 126.137 12.7208H110.738V33.52H166.264V12.7208H152.345ZM138.501 14.7636C136.298 14.7636 134.521 12.9808 134.521 10.7709C134.521 8.56103 136.298 6.77825 138.501 6.77825C140.703 6.77825 142.48 8.56103 142.48 10.7709C142.48 12.9808 140.685 14.7636 138.501 14.7636Z" fill="white"/>
<path d="M166.727 33.9842H110.275V12.2566H125.711C126.415 5.34834 132.263 0 139.241 0C146.219 0 152.068 5.34834 152.771 12.2566H166.727V33.9842ZM111.2 33.0557H165.801V13.1851H151.92L151.883 12.758C151.42 6.12831 145.867 0.928531 139.241 0.928531C132.615 0.928531 127.062 6.12831 126.6 12.758L126.563 13.1851H111.2V33.0557ZM138.501 15.2279C136.058 15.2279 134.059 13.2223 134.059 10.771C134.059 8.31964 136.058 6.31401 138.501 6.31401C140.944 6.31401 142.943 8.31964 142.943 10.771C142.943 13.2223 140.944 15.2279 138.501 15.2279ZM138.501 7.24254C136.557 7.24254 134.984 8.82105 134.984 10.771C134.984 12.7209 136.557 14.2994 138.501 14.2994C140.444 14.2994 142.017 12.7209 142.017 10.771C142.017 8.82105 140.426 7.24254 138.501 7.24254Z" fill="black"/>
<path d="M28.9292 106.948H16.9356L9.80969 164.35H28.9292V106.948Z" fill="black"/>
<path d="M29.3918 164.814H9.29138L16.5283 106.484H29.3918V164.814ZM10.3279 163.886H28.4479V107.412H17.3242L10.3279 163.886Z" fill="black"/>
<path d="M21.0076 106.948L21.822 117.942L25.3016 164.35H89.3048L85.8251 117.942L85.0107 106.948H21.0076Z" fill="#A9DD57"/>
<path d="M89.8045 164.814H24.8759L20.5078 106.484H85.4364L89.8045 164.814ZM25.7273 163.886H88.805L84.585 107.412H21.5073L25.7273 163.886Z" fill="black"/>
<path d="M79.0137 124.757H70.8699L71.7768 133.374H79.9206L79.0137 124.757Z" fill="white"/>
<path d="M80.4388 133.838H71.3696L70.3701 124.293H79.4394L80.4388 133.838ZM72.2025 132.909H79.4209L78.6065 125.221H71.3881L72.2025 132.909Z" fill="black"/>
<path d="M64.9841 124.757H56.8588L57.7472 133.374H65.891L64.9841 124.757Z" fill="white"/>
<path d="M66.4092 133.838H57.3399L56.3405 124.293H65.4097L66.4092 133.838ZM58.1728 132.909H65.3912L64.5768 125.221H57.3584L58.1728 132.909Z" fill="black"/>
<path d="M50.9729 124.757H42.8291L43.736 133.374H51.8799L50.9729 124.757Z" fill="white"/>
<path d="M52.3982 133.838H43.3289L42.3295 124.293H51.3987L52.3982 133.838ZM44.1433 132.909H51.3617L50.5473 125.221H43.3289L44.1433 132.909Z" fill="black"/>
<path d="M36.9434 124.757H28.7996L29.7065 133.374H37.8503L36.9434 124.757Z" fill="white"/>
<path d="M38.3685 133.838H29.2993L28.2998 124.293H37.3691L38.3685 133.838ZM30.1322 132.909H37.3506L36.5362 125.221H29.3178L30.1322 132.909Z" fill="black"/>
<path d="M80.6056 137.46H72.4618L73.3687 146.076H81.494L80.6056 137.46Z" fill="white"/>
<path d="M82.0122 146.541H72.943L71.9435 136.996H81.0128L82.0122 146.541ZM73.7758 145.612H80.9942L80.1799 137.924H72.9615L73.7758 145.612Z" fill="black"/>
<path d="M66.5759 137.46H58.432L59.3389 146.076H67.4828L66.5759 137.46Z" fill="white"/>
<path d="M68.001 146.541H58.9317L57.9323 136.996H67.0015L68.001 146.541ZM59.7461 145.612H66.9645L66.1501 137.924H58.9317L59.7461 145.612Z" fill="black"/>
<path d="M52.5464 137.46H44.421L45.3094 146.076H53.4533L52.5464 137.46Z" fill="white"/>
<path d="M53.9714 146.541H44.9022L43.9027 136.996H52.972L53.9714 146.541ZM45.7351 145.612H52.9535L52.1391 137.924H44.9207L45.7351 145.612Z" fill="black"/>
<path d="M38.5352 137.46H30.3914L31.2983 146.076H39.4421L38.5352 137.46Z" fill="white"/>
<path d="M39.9419 146.541H30.8726L29.8732 136.996H38.9424L39.9419 146.541ZM31.7055 145.612H38.9239L38.1095 137.924H30.8911L31.7055 145.612Z" fill="black"/>
<path d="M82.1786 150.162H74.0348L74.9417 158.797H83.0856L82.1786 150.162Z" fill="white"/>
<path d="M83.6039 159.262H74.5346L73.5352 149.716H82.6044L83.6039 159.262ZM75.3675 158.333H82.5859L81.7715 150.645H74.5531L75.3675 158.333Z" fill="black"/>
<path d="M68.1675 150.162H60.0237L60.9306 158.797H69.056L68.1675 150.162Z" fill="white"/>
<path d="M69.5742 159.262H60.505L59.5055 149.716H68.5748L69.5742 159.262ZM61.3379 158.333H68.5562L67.7419 150.645H60.5235L61.3379 158.333Z" fill="black"/>
<path d="M54.138 150.162H45.9941L46.9011 158.797H55.0449L54.138 150.162Z" fill="white"/>
<path d="M55.5633 159.262H46.494L45.4945 149.716H54.5638L55.5633 159.262ZM47.3084 158.333H54.5268L53.7124 150.645H46.494L47.3084 158.333Z" fill="black"/>
<path d="M40.1084 150.162H31.9646L32.8715 158.797H41.0154L40.1084 150.162Z" fill="white"/>
<path d="M41.5336 159.262H32.4643L31.4648 149.716H40.5341L41.5336 159.262ZM33.2972 158.333H40.5156L39.7012 150.645H32.4828L33.2972 158.333Z" fill="black"/>
<path d="M21.0076 106.948L21.822 117.942H85.8251L85.0107 106.948H21.0076Z" fill="#00A651"/>
<path d="M86.3248 118.406H21.3962L20.5078 106.465H85.4364L86.3248 118.406ZM22.2661 117.478H85.3253L84.5665 107.394H21.5073L22.2661 117.478Z" fill="black"/>
<path d="M75.1639 112.631V111.702C77.7181 111.702 79.7911 109.622 79.7911 107.06C79.7911 104.497 77.7181 102.417 75.1639 102.417C72.6097 102.417 70.5368 104.497 70.5368 107.06H69.6113C69.6113 103.995 72.11 101.488 75.1639 101.488C78.2179 101.488 80.7166 103.995 80.7166 107.06C80.7166 110.124 78.2364 112.631 75.1639 112.631Z" fill="black"/>
<path d="M53.4533 112.631V111.702C56.0075 111.702 58.0805 109.622 58.0805 107.06C58.0805 104.497 56.0075 102.417 53.4533 102.417C50.8991 102.417 48.8261 104.497 48.8261 107.06H47.9006C47.9006 103.995 50.3993 101.488 53.4533 101.488C56.5072 101.488 59.0059 103.995 59.0059 107.06C59.0059 110.124 56.5257 112.631 53.4533 112.631Z" fill="black"/>
<path d="M33.3342 112.631V111.702C35.8884 111.702 37.9614 109.622 37.9614 107.06C37.9614 104.497 35.8884 102.417 33.3342 102.417C30.78 102.417 28.7071 104.497 28.7071 107.06H27.7816C27.7816 103.995 30.2803 101.488 33.3342 101.488C36.3882 101.488 38.8869 103.995 38.8869 107.06C38.8869 110.124 36.3882 112.631 33.3342 112.631Z" fill="black"/>
<path d="M94.524 164.479C104.736 164.479 113.014 156.173 113.014 145.927C113.014 135.681 104.736 127.375 94.524 127.375C84.3122 127.375 76.0338 135.681 76.0338 145.927C76.0338 156.173 84.3122 164.479 94.524 164.479Z" fill="black"/>
<path d="M94.5241 164.944C84.0852 164.944 75.5712 156.42 75.5712 145.928C75.5712 135.454 84.0667 126.912 94.5241 126.912C104.963 126.912 113.477 135.436 113.477 145.928C113.477 156.402 104.982 164.944 94.5241 164.944ZM94.5241 127.84C84.5849 127.84 76.4966 135.956 76.4966 145.928C76.4966 155.9 84.5849 164.016 94.5241 164.016C104.463 164.016 112.552 155.9 112.552 145.928C112.552 135.956 104.463 127.84 94.5241 127.84Z" fill="black"/>
<path d="M97.8556 164.479C108.067 164.479 116.346 156.173 116.346 145.927C116.346 135.681 108.067 127.375 97.8556 127.375C87.6437 127.375 79.3654 135.681 79.3654 145.927C79.3654 156.173 87.6437 164.479 97.8556 164.479Z" fill="#00A651"/>
<path d="M97.8556 164.944C87.4167 164.944 78.9027 156.42 78.9027 145.928C78.9027 135.454 87.3982 126.912 97.8556 126.912C108.295 126.912 116.809 135.436 116.809 145.928C116.809 156.402 108.313 164.944 97.8556 164.944ZM97.8556 127.84C87.9165 127.84 79.8281 135.956 79.8281 145.928C79.8281 155.9 87.9165 164.016 97.8556 164.016C107.795 164.016 115.883 155.9 115.883 145.928C115.883 135.956 107.795 127.84 97.8556 127.84Z" fill="black"/>
<path d="M97.8556 159.633C105.4 159.633 111.515 153.497 111.515 145.928C111.515 138.359 105.4 132.223 97.8556 132.223C90.3117 132.223 84.1962 138.359 84.1962 145.928C84.1962 153.497 90.3117 159.633 97.8556 159.633Z" fill="white"/>
<path d="M97.8557 160.097C90.0635 160.097 83.7335 153.746 83.7335 145.928C83.7335 138.11 90.0635 131.759 97.8557 131.759C105.648 131.759 111.978 138.11 111.978 145.928C111.978 153.746 105.648 160.097 97.8557 160.097ZM97.8557 132.687C90.5817 132.687 84.659 138.63 84.659 145.928C84.659 153.226 90.5817 159.169 97.8557 159.169C105.13 159.169 111.052 153.226 111.052 145.928C111.052 138.63 105.13 132.687 97.8557 132.687Z" fill="black"/>
<path d="M101.817 151.146C101.095 151.833 100.077 152.242 98.7071 152.39V154.415H97.2264V152.409C96.3379 152.353 95.5051 152.186 94.7092 151.926C93.9133 151.666 93.284 151.332 92.8213 150.923L93.6357 149.103C94.0799 149.456 94.6166 149.772 95.2459 150.013C95.8752 150.255 96.5415 150.422 97.2264 150.478V146.875C96.375 146.671 95.6716 146.448 95.0979 146.206C94.5241 145.965 94.0429 145.594 93.6727 145.129C93.284 144.647 93.0989 144.034 93.0989 143.235C93.0989 142.269 93.4506 141.434 94.1539 140.747C94.8572 140.06 95.8937 139.651 97.2264 139.521V137.478H98.7071V139.484C99.3734 139.521 100.04 139.632 100.669 139.818C101.317 140.004 101.872 140.264 102.353 140.58L101.613 142.399C100.706 141.88 99.725 141.545 98.7071 141.434V145.037C99.577 145.241 100.28 145.464 100.854 145.705C101.428 145.946 101.909 146.299 102.298 146.782C102.686 147.265 102.89 147.878 102.89 148.676C102.89 149.642 102.52 150.478 101.817 151.146ZM95.8937 144.052C96.2084 144.294 96.6526 144.498 97.2449 144.665V141.452C96.6341 141.545 96.1714 141.75 95.8752 142.028C95.5791 142.325 95.431 142.678 95.431 143.087C95.4125 143.495 95.5791 143.811 95.8937 144.052ZM100.114 149.865C100.428 149.586 100.576 149.252 100.576 148.843C100.576 148.435 100.41 148.101 100.095 147.859C99.7806 147.618 99.3178 147.414 98.7071 147.228V150.422C99.3363 150.329 99.8176 150.143 100.114 149.865Z" fill="black"/>
<path d="M246.869 60.3174C246.869 60.3174 249.535 74.0411 240.817 72.704L206.65 60.8002L209.796 53.9291L238.392 60.9116L246.869 60.3174Z" fill="white"/>
<path d="M241.965 73.2798C241.576 73.2798 241.169 73.2426 240.743 73.1869L240.669 73.1683L206.021 61.0974L209.537 53.4092L238.429 60.466L247.239 59.8346L247.314 60.2432C247.369 60.5774 248.868 68.4328 245.648 71.7941C244.722 72.7784 243.464 73.2798 241.965 73.2798ZM240.928 72.2584C242.668 72.5184 244.037 72.147 245 71.1441C247.499 68.5257 246.74 62.4345 246.499 60.8189L238.374 61.3946L210.074 54.4863L207.298 60.5403L240.928 72.2584Z" fill="black"/>
<path d="M237.411 46.0737L233.543 37.7541L229.971 30.7344L222.789 33.6871C222.789 33.6871 222.345 45.9251 228.62 42.731L230.248 47.5222L237.411 46.0737Z" fill="white"/>
<path d="M229.934 48.0608L228.342 43.381C227.102 43.9009 226.01 43.8638 225.085 43.2695C222.086 41.3382 222.308 34.0028 222.327 33.6871L222.345 33.39L230.193 30.1587L233.95 37.5498L238.078 46.408L229.934 48.0608ZM228.879 42.0996L230.545 47.0022L236.745 45.7394L233.117 37.9583L229.749 31.3472L223.234 34.0214C223.197 36.1941 223.548 41.1896 225.566 42.4896C226.306 42.9724 227.232 42.9167 228.379 42.3224L228.879 42.0996Z" fill="black"/>
<path d="M219.791 34.4114C219.328 32.9444 221.42 32.1273 221.42 32.1273C220.661 32.183 220.328 31.8487 220.254 31.5144C219.865 29.6759 223.807 29.8059 223.807 29.8059C222.882 29.3231 223.881 28.8031 223.881 28.8031C225.14 28.2831 227.75 28.506 229.564 28.766C230.119 28.6174 237.115 27.0203 234.431 38.7755C234.431 38.7755 230.989 40.8555 229.619 37.1599C229.619 37.1599 230.137 34.9686 228.379 35.1543C228.046 35.1914 227.75 35.4328 227.657 35.7485C227.509 36.1942 227.472 36.5471 227.454 36.7699C227.435 36.9556 227.324 37.1042 227.158 37.1599C226.935 37.2342 226.695 37.1042 226.621 36.8813L226.158 35.3957C223.104 36.1757 220.106 35.4328 219.791 34.4114Z" fill="black"/>
<path d="M246.721 83.9388C246.721 83.9388 245.611 87.8387 232.655 87.0959C219.699 86.353 219.143 83.5674 219.143 83.5674L221.92 78.7391L244.593 77.532L246.721 83.9388Z" fill="#00A651"/>
<path d="M235.801 87.6535C234.802 87.6535 233.747 87.6164 232.618 87.5607C219.939 86.8364 218.792 84.1808 218.681 83.6608L218.644 83.4937L221.623 78.2939L244.907 77.0497L247.184 83.9208L247.147 84.0508C247.11 84.1622 246.758 85.2579 244.722 86.205C242.686 87.1707 239.688 87.6535 235.801 87.6535ZM219.68 83.5866C220.087 84.1065 222.234 86.0379 232.692 86.6507C243.686 87.2821 245.888 84.5337 246.24 83.9208L244.278 78.0153L222.216 79.1853L219.68 83.5866Z" fill="black"/>
<path d="M232.284 156.179C232.284 156.179 236.171 158.408 240.798 158.036C240.798 158.036 244.87 157.665 246.351 156.179L245.426 152.837L233.025 153.022L232.284 156.179Z" fill="#00A651"/>
<path d="M239.743 158.538C235.523 158.538 232.21 156.662 232.062 156.569L231.766 156.402L232.673 152.558L245.796 152.354L246.888 156.309L246.703 156.495C245.129 158.073 241.039 158.463 240.872 158.482C240.465 158.538 240.095 158.538 239.743 158.538ZM232.821 155.938C233.802 156.421 237.06 157.869 240.761 157.572C241.779 157.479 244.593 157.015 245.833 156.031L245.074 153.319L233.395 153.486L232.821 155.938Z" fill="black"/>
<path d="M198.414 155.065C198.414 155.065 199.154 157.665 204.892 158.222C204.892 158.222 210.629 158.222 212.11 156.365L212.48 154.136L199.802 152.558L198.414 155.065Z" fill="#00A651"/>
<path d="M204.892 158.686H204.855C198.876 158.11 198.006 155.306 197.969 155.195L197.914 155.009L199.543 152.056L213.017 153.728L212.554 156.55L212.48 156.643C210.888 158.63 205.502 158.686 204.892 158.686ZM198.932 155.083C199.209 155.622 200.468 157.312 204.91 157.758C206.428 157.758 210.481 157.46 211.666 156.16L211.943 154.545L200.061 153.059L198.932 155.083Z" fill="black"/>
<path d="M201.579 153.207C201.579 153.207 197.433 159.298 193.416 160.153C188.437 161.193 186.901 163.718 186.772 164.35H205.632L207.594 153.43L201.579 153.207Z" fill="white"/>
<path d="M206.021 164.814H186.216L186.327 164.257C186.457 163.57 188.049 160.803 193.324 159.689C197.118 158.89 201.171 153.003 201.208 152.948L201.356 152.743L208.149 152.985L206.021 164.814ZM187.512 163.886H205.243L207.039 153.876L201.819 153.691C201.023 154.805 197.285 159.819 193.509 160.617C189.826 161.379 188.123 162.994 187.512 163.886Z" fill="black"/>
<path d="M237.67 153.207C237.67 153.207 235.931 159.299 231.914 160.153C226.935 161.193 225.399 163.718 225.27 164.35H245.055L243.686 153.43L237.67 153.207Z" fill="white"/>
<path d="M245.574 164.814H224.696L224.807 164.257C224.937 163.57 226.528 160.803 231.803 159.689C235.505 158.909 237.189 153.134 237.208 153.078L237.3 152.725L244.056 152.966L245.574 164.814ZM226.01 163.886H244.537L243.279 153.876L238.022 153.691C237.578 155.046 235.727 159.838 232.025 160.617C228.324 161.379 226.621 162.995 226.01 163.886Z" fill="black"/>
<path d="M241.779 73.7069C241.779 73.7069 243.834 89.0091 242.742 99.7058L246.962 156.346C246.962 156.346 242.668 154.471 239.318 154.675C236.356 154.861 231.692 156.346 231.692 156.346L227.713 106.02L212.48 156.532C212.48 156.532 208.575 154.303 204.503 154.118C200.616 153.932 197.84 155.046 197.84 155.046L223.234 73.6884H241.779V73.7069Z" fill="black"/>
<path d="M259.381 56.6777L174.537 66.9101C174.297 66.9287 174.056 66.9472 173.815 66.9472C173.575 66.9472 173.353 66.9101 173.112 66.8729L160.322 64.5702L155.047 63.6231C154.529 63.5302 154.437 62.8431 154.899 62.6017L159.749 60.1504L171.502 54.2264C171.742 54.0964 172.001 54.0035 172.261 53.9292C172.538 53.8549 172.797 53.7807 173.075 53.7621L257.808 43.5482C259.4 43.3625 260.862 44.4953 261.047 46.0924L261.917 53.4278C262.12 55.0249 260.991 56.492 259.381 56.6777Z" fill="#A9DD57"/>
<path d="M173.963 67.4099C173.908 67.4099 173.852 67.4099 173.797 67.4099C173.538 67.4099 173.279 67.3727 173.038 67.3356L154.955 64.0672C154.529 63.9929 154.196 63.6586 154.141 63.2315C154.085 62.8044 154.289 62.3958 154.677 62.1915L171.298 53.8348C171.557 53.7048 171.835 53.5933 172.131 53.5005C172.427 53.4076 172.723 53.3519 173.038 53.3148L257.771 43.1009C259.622 42.8781 261.306 44.2152 261.528 46.0537L262.398 53.3891C262.509 54.2805 262.25 55.1718 261.695 55.8775C261.14 56.5832 260.344 57.0475 259.437 57.1403L174.593 67.3727C174.389 67.3913 174.167 67.4099 173.963 67.4099ZM258.16 43.9923C258.067 43.9923 257.975 43.9923 257.863 44.0109L173.131 54.2247C172.871 54.2619 172.631 54.299 172.39 54.3733C172.15 54.4476 171.927 54.5404 171.705 54.6519L155.085 63.0086C155.066 63.0086 155.029 63.0272 155.048 63.0829C155.048 63.1386 155.085 63.1386 155.103 63.1386L173.186 66.3885C173.39 66.4256 173.612 66.4442 173.815 66.4628C174.037 66.4628 174.241 66.4628 174.463 66.4256L259.307 56.1932C259.955 56.1189 260.529 55.7847 260.936 55.2647C261.343 54.7447 261.528 54.1133 261.436 53.4448L260.566 46.1094C260.436 44.9023 259.381 43.9923 258.16 43.9923Z" fill="black"/>
<path d="M257.808 43.5481L249.183 44.5881L250.756 57.7175L259.381 56.6776C260.973 56.4919 262.12 55.0248 261.917 53.4277L261.047 46.0923C260.862 44.4952 259.418 43.3624 257.808 43.5481Z" fill="white"/>
<path d="M250.367 58.2379L248.683 44.18L257.752 43.0843C258.641 42.9729 259.529 43.2328 260.233 43.79C260.936 44.3471 261.399 45.1456 261.491 46.0556L262.361 53.391C262.472 54.2824 262.213 55.1738 261.658 55.8795C261.102 56.5851 260.307 57.0494 259.4 57.1423L250.367 58.2379ZM249.72 44.9971L251.182 57.198L259.344 56.2137C259.992 56.1395 260.566 55.8052 260.973 55.2852C261.38 54.7652 261.565 54.1338 261.473 53.4653L260.603 46.1299C260.529 45.4799 260.196 44.9042 259.677 44.4957C259.159 44.0871 258.53 43.9014 257.863 43.9942L249.72 44.9971Z" fill="black"/>
<path d="M172.261 53.9474C172.002 54.0217 171.742 54.1331 171.502 54.2445L158.065 61.0042L154.881 62.6013C154.418 62.8427 154.511 63.5298 155.029 63.6227L158.453 64.2355L173.112 66.8725C173.353 66.9097 173.575 66.9468 173.815 66.9468L172.261 53.9474Z" fill="white"/>
<path d="M174.352 67.4298L173.815 67.4112C173.556 67.4112 173.297 67.3741 173.057 67.3369L154.955 64.0685C154.529 63.9942 154.196 63.66 154.141 63.2328C154.085 62.8057 154.289 62.3972 154.677 62.1929L171.298 53.8361C171.557 53.7061 171.853 53.5947 172.131 53.5019L172.668 53.3347L174.352 67.4298ZM171.872 54.5789C171.816 54.5975 171.761 54.6347 171.705 54.6532L155.103 63.01C155.085 63.01 155.048 63.0286 155.066 63.0843C155.066 63.14 155.103 63.14 155.122 63.14L173.205 66.3898C173.242 66.3898 173.26 66.4084 173.297 66.4084L171.872 54.5789Z" fill="black"/>
<path d="M160.322 64.5698L155.047 63.6227C154.529 63.5299 154.437 62.8428 154.899 62.6013L159.749 60.15L160.322 64.5698Z" fill="black"/>
<path d="M160.767 65.0338L154.992 63.9939C154.603 63.9196 154.307 63.6224 154.252 63.2325C154.196 62.8425 154.381 62.4711 154.751 62.2854L160.063 59.6112L160.767 65.0338ZM159.453 60.7254L155.066 62.9353C154.973 62.991 154.973 63.0653 154.973 63.1025C154.973 63.1396 155.01 63.2325 155.103 63.251L159.897 64.1053L159.453 60.7254Z" fill="black"/>
<path d="M237.208 44.0679C237.208 44.0679 245.426 46.612 247.277 61.2828L244.315 61.4685L246.536 83.0105C246.536 83.0105 241.169 78.9249 231.081 79.9463C225.732 80.4849 219.273 83.0476 219.273 83.0476L222.475 69.8253L220.791 57.4016C220.791 57.4016 223.937 51.8675 225.27 50.1219C226.824 48.0791 228.305 46.7235 229.286 45.9249C229.971 45.3678 230.785 45.015 231.655 44.885L237.208 44.0679Z" fill="white"/>
<path d="M247.11 84.0322L246.259 83.3823C246.203 83.3451 240.891 79.4267 231.137 80.411C225.917 80.9309 219.513 83.4565 219.458 83.4751L218.625 83.8094L222.012 69.8071L220.328 57.3277L220.402 57.1977C220.531 56.9748 223.567 51.6265 224.918 49.8623C226.51 47.7824 228.027 46.3896 229.008 45.5911C229.749 44.9782 230.656 44.5882 231.6 44.4397L237.226 43.604L237.319 43.6411C237.411 43.6597 239.521 44.3468 241.872 46.8724C244.001 49.1752 246.758 53.5393 247.721 61.2461L247.776 61.7289L244.796 61.9146L247.11 84.0322ZM221.272 57.4948L222.938 69.8443L219.921 82.2866C221.846 81.5809 226.75 79.9096 231.026 79.4639C239.022 78.6468 244.075 80.9681 245.962 82.0823L243.797 61.0232L246.74 60.8375C244.944 47.8752 238.022 44.8668 237.134 44.5325L231.729 45.3311C230.933 45.4425 230.193 45.7768 229.582 46.2782C228.638 47.0396 227.176 48.3952 225.64 50.4008C224.455 51.9608 221.771 56.6406 221.272 57.4948Z" fill="black"/>
<path d="M228.435 105.685L227.602 105.277C233.987 92.4632 236.801 84.7935 236.838 84.7192L237.708 85.0349C237.689 85.1092 234.857 92.816 228.435 105.685Z" fill="white"/>
<path d="M233.041 56.7098L228.04 62.6569L228.747 63.2556L233.748 57.3085L233.041 56.7098Z" fill="black"/>
<path d="M220.791 57.5875L216.367 65.5543L202.985 65.0344L195.545 61.5616C195.545 61.5616 195.193 62.583 196.007 64.3844L188.326 65.2758C188.326 65.2758 193.213 67.8385 196.97 68.4513L216.682 73.2612C218.162 73.7626 219.791 73.2983 220.791 72.0912L228.305 62.8802L220.791 57.5875Z" fill="white"/>
<path d="M217.885 73.9111C217.44 73.9111 216.996 73.8368 216.552 73.6882L196.877 68.897C193.101 68.2842 188.308 65.7957 188.123 65.6843L186.79 64.9786L195.36 63.9944C194.786 62.4159 195.082 61.5059 195.119 61.3945L195.285 60.9116L203.096 64.5701L216.108 65.0715L220.661 56.9004L228.99 62.7687L221.161 72.3697C220.328 73.3725 219.125 73.9111 217.885 73.9111ZM189.955 65.5543C191.658 66.3528 194.619 67.5971 197.044 67.987H197.081L216.811 72.7968H216.83C218.125 73.2425 219.569 72.8154 220.439 71.7569L227.639 62.9358L220.957 58.2375L216.645 66L202.874 65.48L195.933 62.2302C195.933 62.6573 196.044 63.3073 196.433 64.1801L196.692 64.7558L189.955 65.5543Z" fill="black"/>
<path d="M243.667 56.9191L244.445 62.6574L243.667 56.9191Z" fill="white"/>
<path d="M244.144 56.8647L243.227 56.9884L244 62.7306L244.917 62.607L244.144 56.8647Z" fill="black"/>
<path d="M256.161 163.886H0V165H256.161V163.886Z" fill="black"/>
</svg>
