<svg width="238" height="165" viewBox="0 0 238 165" fill="none" xmlns="http://www.w3.org/2000/svg">
<path d="M23.1086 15.6693V46.5678L37.0857 31.1186L23.1086 15.6693Z" fill="#A9DD57"/>
<path d="M34.7563 22.061C35.3739 22.061 35.8745 21.5604 35.8745 20.9429C35.8745 20.3253 35.3739 19.8247 34.7563 19.8247C34.1388 19.8247 33.6382 20.3253 33.6382 20.9429C33.6382 21.5604 34.1388 22.061 34.7563 22.061Z" fill="black"/>
<path d="M34.6631 27.1858C35.2806 27.1858 35.7812 26.6852 35.7812 26.0676C35.7812 25.4501 35.2806 24.9495 34.6631 24.9495C34.0455 24.9495 33.5449 25.4501 33.5449 26.0676C33.5449 26.6852 34.0455 27.1858 34.6631 27.1858Z" fill="black"/>
<path d="M34.663 32.4039C35.2805 32.4039 35.7811 31.9033 35.7811 31.2858C35.7811 30.6682 35.2805 30.1676 34.663 30.1676C34.0454 30.1676 33.5448 30.6682 33.5448 31.2858C33.5448 31.9033 34.0454 32.4039 34.663 32.4039Z" fill="black"/>
<path d="M34.663 37.6222C35.2805 37.6222 35.7811 37.1216 35.7811 36.504C35.7811 35.8865 35.2805 35.3859 34.663 35.3859C34.0454 35.3859 33.5448 35.8865 33.5448 36.504C33.5448 37.1216 34.0454 37.6222 34.663 37.6222Z" fill="black"/>
<path d="M39.322 27.1858C39.9396 27.1858 40.4402 26.6852 40.4402 26.0676C40.4402 25.4501 39.9396 24.9495 39.322 24.9495C38.7045 24.9495 38.2039 25.4501 38.2039 26.0676C38.2039 26.6852 38.7045 27.1858 39.322 27.1858Z" fill="black"/>
<path d="M39.3221 32.4039C39.9397 32.4039 40.4403 31.9033 40.4403 31.2858C40.4403 30.6682 39.9397 30.1676 39.3221 30.1676C38.7046 30.1676 38.204 30.6682 38.204 31.2858C38.204 31.9033 38.7046 32.4039 39.3221 32.4039Z" fill="black"/>
<path d="M43.9812 32.4039C44.5987 32.4039 45.0993 31.9033 45.0993 31.2858C45.0993 30.6682 44.5987 30.1676 43.9812 30.1676C43.3637 30.1676 42.863 30.6682 42.863 31.2858C42.863 31.9033 43.3637 32.4039 43.9812 32.4039Z" fill="black"/>
<path d="M39.3221 37.6222C39.9397 37.6222 40.4403 37.1216 40.4403 36.504C40.4403 35.8865 39.9397 35.3859 39.3221 35.3859C38.7046 35.3859 38.204 35.8865 38.204 36.504C38.204 37.1216 38.7046 37.6222 39.3221 37.6222Z" fill="black"/>
<path d="M34.663 42.8407C35.2805 42.8407 35.7811 42.3401 35.7811 41.7225C35.7811 41.105 35.2805 40.6044 34.663 40.6044C34.0454 40.6044 33.5448 41.105 33.5448 41.7225C33.5448 42.3401 34.0454 42.8407 34.663 42.8407Z" fill="black"/>
<path d="M29.9108 22.061C30.5283 22.061 31.0289 21.5604 31.0289 20.9429C31.0289 20.3253 30.5283 19.8247 29.9108 19.8247C29.2932 19.8247 28.7926 20.3253 28.7926 20.9429C28.7926 21.5604 29.2932 22.061 29.9108 22.061Z" fill="black"/>
<path d="M30.004 16.9368C30.6216 16.9368 31.1222 16.4361 31.1222 15.8186C31.1222 15.2011 30.6216 14.7004 30.004 14.7004C29.3865 14.7004 28.8859 15.2011 28.8859 15.8186C28.8859 16.4361 29.3865 16.9368 30.004 16.9368Z" fill="black"/>
<path d="M29.8175 27.1858C30.435 27.1858 30.9357 26.6852 30.9357 26.0676C30.9357 25.4501 30.435 24.9495 29.8175 24.9495C29.2 24.9495 28.6993 25.4501 28.6993 26.0676C28.6993 26.6852 29.2 27.1858 29.8175 27.1858Z" fill="black"/>
<path d="M29.8177 32.4039C30.4353 32.4039 30.9359 31.9033 30.9359 31.2858C30.9359 30.6682 30.4353 30.1676 29.8177 30.1676C29.2002 30.1676 28.6996 30.6682 28.6996 31.2858C28.6996 31.9033 29.2002 32.4039 29.8177 32.4039Z" fill="black"/>
<path d="M29.8176 37.6222C30.4352 37.6222 30.9358 37.1216 30.9358 36.504C30.9358 35.8865 30.4352 35.3859 29.8176 35.3859C29.2001 35.3859 28.6995 35.8865 28.6995 36.504C28.6995 37.1216 29.2001 37.6222 29.8176 37.6222Z" fill="black"/>
<path d="M29.8176 42.8407C30.4352 42.8407 30.9358 42.3401 30.9358 41.7225C30.9358 41.105 30.4352 40.6044 29.8176 40.6044C29.2001 40.6044 28.6995 41.105 28.6995 41.7225C28.6995 42.3401 29.2001 42.8407 29.8176 42.8407Z" fill="black"/>
<path d="M29.8176 48.0587C30.4352 48.0587 30.9358 47.5581 30.9358 46.9405C30.9358 46.323 30.4352 45.8224 29.8176 45.8224C29.2001 45.8224 28.6995 46.323 28.6995 46.9405C28.6995 47.5581 29.2001 48.0587 29.8176 48.0587Z" fill="black"/>
<path d="M131.757 134.903L133.042 160.304C133.154 162.466 134.943 164.162 137.105 164.162H151.567C153.728 164.162 155.518 162.466 155.629 160.304L156.915 134.903H131.757Z" fill="black"/>
<path d="M151.567 164.627H137.105C134.682 164.627 132.707 162.745 132.577 160.322L131.253 134.437H157.4L156.077 160.322C155.965 162.745 153.971 164.627 151.567 164.627ZM132.241 135.369L133.508 160.285C133.602 162.205 135.186 163.696 137.105 163.696H151.567C153.486 163.696 155.07 162.205 155.163 160.285L156.431 135.369H132.241Z" fill="black"/>
<path d="M78.6439 134.903L79.9298 160.304C80.0416 162.466 81.8307 164.162 83.9925 164.162H98.454C100.616 164.162 102.405 162.466 102.517 160.304L103.803 134.903H78.6439Z" fill="black"/>
<path d="M98.454 164.627H83.9925C81.5698 164.627 79.5944 162.745 79.4639 160.322L78.1407 134.437H104.287L102.964 160.322C102.852 162.745 100.858 164.627 98.454 164.627ZM79.1285 135.369L80.3957 160.285C80.4889 162.205 82.073 163.696 83.9925 163.696H98.454C100.374 163.696 101.958 162.205 102.051 160.285L103.318 135.369H79.1285Z" fill="black"/>
<path d="M205.108 79.9457C204.474 79.5357 203.636 79.7034 203.188 80.3184C201.083 83.3188 199.144 85.201 197.449 86.3751C197.56 85.5924 197.542 84.7724 197.393 83.9151C196.722 79.8339 194.56 78.4921 193.349 78.0821C191.392 77.4112 189.1 77.9702 187.348 79.5543C185.577 81.157 184.813 83.3561 185.316 85.4619C185.894 87.9219 187.758 89.86 190.162 90.6241C188 91.5745 185.354 92.1709 182.875 92.5436C179.483 63.9746 149.834 41.63 113.736 41.63C105.983 41.63 98.5472 42.655 91.5773 44.5559C86.8065 40.2882 81.5698 36.8405 77.7867 34.5856C75.7367 33.3556 73.1463 35.0142 73.4445 37.3996C74.0781 42.655 74.1154 47.7613 73.9663 51.6748C60.5856 59.092 50.5967 70.199 46.18 83.1511L39.1915 83.8965C38.5578 83.971 37.9615 84.1388 37.4211 84.4183C35.6693 85.2756 34.4766 87.0833 34.4766 89.1332V106.129C34.4766 107.937 35.3897 109.54 36.7874 110.49C37.477 110.956 38.2969 111.273 39.1915 111.366L45.8632 112.074C49.7395 124.355 58.6288 135.015 70.6491 142.563L71.5622 160.323C71.6741 162.485 73.4631 164.18 75.6249 164.18H90.0864C92.2482 164.18 94.0373 162.485 94.1491 160.323L94.5591 152.309C100.56 153.67 106.896 154.397 113.437 154.397C113.512 154.397 113.568 154.397 113.642 154.397C113.68 154.397 113.736 154.397 113.773 154.397C117.444 154.397 121.041 154.173 124.563 153.726L124.899 160.323C125.01 162.485 126.799 164.18 128.961 164.18H143.423C145.584 164.18 147.374 162.485 147.485 160.323L148.156 147.017C151.175 145.619 154.064 144.035 156.785 142.302C172.905 131.977 183.248 115.988 183.248 98.0226C183.248 97.1281 183.229 96.2335 183.173 95.339C187.422 94.724 192.566 93.4009 195.38 90.5309C196.386 90.2141 197.393 89.7482 198.399 89.1332C200.859 87.6051 203.244 85.1824 205.537 81.9397C205.928 81.2688 205.76 80.3743 205.108 79.9457ZM193.796 88.0337C192.845 88.2201 192.1 88.1828 191.597 88.0896C189.808 87.7728 188.447 86.5055 188.037 84.791C187.776 83.6915 188.224 82.4988 189.211 81.6043C189.938 80.9334 190.833 80.5793 191.634 80.5793C191.914 80.5793 192.175 80.6166 192.417 80.7097C193.516 81.1011 194.299 82.387 194.635 84.381C194.877 85.7787 194.597 86.9714 193.796 88.0337Z" fill="white"/>
<path d="M143.367 164.628H128.905C126.501 164.628 124.507 162.746 124.377 160.323L124.06 154.21C120.649 154.62 117.183 154.825 113.717 154.825H113.586H113.4C107.138 154.825 100.951 154.154 94.9689 152.85L94.5962 160.323C94.4657 162.727 92.4903 164.628 90.0676 164.628H75.6061C73.202 164.628 71.208 162.746 71.0775 160.323L70.183 142.805C58.1069 135.164 49.3666 124.411 45.5089 112.484L39.1354 111.813C38.2036 111.72 37.3091 111.385 36.5264 110.863C34.9423 109.801 34.0105 108.011 34.0105 106.111V89.1146C34.0105 86.9528 35.2591 84.9215 37.2159 83.971C37.8122 83.6728 38.4645 83.4865 39.1354 83.4119L45.8257 82.7038C50.2425 70.0499 60.045 58.9428 73.5002 51.4139C73.668 46.4753 73.4816 41.7791 72.9784 37.4555C72.8293 36.1882 73.3884 34.9583 74.4693 34.2687C75.5502 33.5606 76.9106 33.5419 78.0288 34.1942C81.6069 36.3373 86.8809 39.7664 91.7076 44.034C98.7893 42.1331 106.206 41.1641 113.735 41.1641C131.216 41.1641 147.951 46.4381 160.847 55.9983C173.538 65.4095 181.496 78.1752 183.285 92.0031C185.465 91.6491 187.348 91.1832 188.932 90.6054C186.919 89.5991 185.41 87.7541 184.888 85.5551C184.347 83.2815 185.149 80.8961 187.049 79.1816C188.932 77.4857 191.41 76.8893 193.516 77.6161C194.839 78.082 197.15 79.4984 197.877 83.8219C197.97 84.3437 198.007 84.8655 198.007 85.3874C199.61 84.1015 201.232 82.3124 202.834 80.0388C203.412 79.2002 204.53 78.9952 205.387 79.5356C205.816 79.8152 206.096 80.2438 206.189 80.747C206.282 81.2502 206.17 81.7533 205.891 82.1633C203.58 85.4619 201.12 87.9219 198.622 89.4873C197.616 90.1023 196.61 90.5868 195.603 90.9036C192.715 93.7736 187.59 95.0967 183.62 95.7117C183.658 96.4758 183.676 97.2212 183.676 97.9853C183.676 106.856 181.235 115.354 176.427 123.237C171.842 130.747 165.134 137.456 157.008 142.656C154.362 144.352 151.529 145.917 148.585 147.296L147.914 160.323C147.765 162.746 145.771 164.628 143.367 164.628ZM124.954 153.185L125.308 160.286C125.402 162.205 126.986 163.696 128.905 163.696H143.367C145.286 163.696 146.87 162.205 146.963 160.286L147.653 146.7L147.914 146.588C150.914 145.209 153.784 143.625 156.486 141.892C173.166 131.213 182.745 115.205 182.745 98.0039C182.745 97.1281 182.726 96.2335 182.67 95.3576L182.651 94.929L183.08 94.8731C186.994 94.314 192.23 93.0281 195.026 90.1954L195.1 90.1209L195.212 90.0836C196.181 89.7855 197.15 89.3382 198.119 88.7232C200.523 87.2323 202.871 84.8469 205.126 81.6601C205.276 81.4552 205.331 81.1942 205.276 80.952C205.22 80.7097 205.089 80.4861 204.866 80.337C204.437 80.0575 203.878 80.1693 203.598 80.5793C201.679 83.3188 199.703 85.3874 197.747 86.7478L196.871 87.3441L197.02 86.2819C197.132 85.5551 197.113 84.7724 196.982 83.9524C196.349 80.0947 194.355 78.8647 193.237 78.4734C191.448 77.8584 189.323 78.3802 187.702 79.8525C186.062 81.3247 185.354 83.3747 185.82 85.3128C186.36 87.5864 188.093 89.4314 190.348 90.1395L191.522 90.5123L190.385 91.0154C188.447 91.8727 185.95 92.525 182.968 92.9722L182.502 93.0468L182.446 92.5622C178.999 63.8068 149.461 42.0959 113.735 42.0959C106.188 42.0959 98.7893 43.0836 91.7076 45.0031L91.4653 45.0776L91.279 44.9099C86.4523 40.605 81.1596 37.1573 77.5629 34.9955C76.7429 34.511 75.7925 34.5296 74.9911 35.0514C74.2084 35.5546 73.7984 36.4305 73.9102 37.3437C74.4507 41.7791 74.6184 46.6058 74.432 51.6934L74.4134 51.9543L74.1898 52.0848C60.7159 59.5578 50.9134 70.6463 46.6271 83.3188L46.5339 83.5983L39.2472 84.3624C38.6881 84.4183 38.1291 84.586 37.6259 84.8283C36.0046 85.6296 34.9423 87.3255 34.9423 89.1332V106.129C34.9423 107.732 35.725 109.204 37.0482 110.099C37.7004 110.527 38.4459 110.807 39.2286 110.9L46.2171 111.627L46.3103 111.925C50.0747 123.833 58.7964 134.568 70.8912 142.153L71.0962 142.283L72.0093 160.286C72.1025 162.205 73.6866 163.696 75.6061 163.696H90.0676C91.9872 163.696 93.5712 162.205 93.6644 160.286L94.093 151.713L94.6335 151.843C100.709 153.223 107.026 153.912 113.4 153.912H113.605H113.735C117.332 153.912 120.948 153.688 124.47 153.241L124.954 153.185ZM192.491 88.63C192.1 88.63 191.764 88.5928 191.522 88.5555C189.547 88.22 188.037 86.8223 187.59 84.9028C187.292 83.6356 187.776 82.2751 188.913 81.2502C189.714 80.5233 190.721 80.0947 191.653 80.0947C191.969 80.0947 192.286 80.1506 192.584 80.2438C193.852 80.6911 194.746 82.126 195.1 84.2692C195.361 85.816 195.044 87.1205 194.168 88.2946L194.057 88.425L193.889 88.4623C193.367 88.5928 192.901 88.63 192.491 88.63ZM191.653 81.0452C190.944 81.0452 190.162 81.3806 189.528 81.9583C188.652 82.741 188.261 83.766 188.484 84.6978C188.857 86.226 190.069 87.3628 191.671 87.6423C192.063 87.7169 192.696 87.7541 193.516 87.6237C194.168 86.7105 194.373 85.6669 194.168 84.4556C193.87 82.6479 193.181 81.4738 192.268 81.157C192.081 81.0824 191.876 81.0452 191.653 81.0452Z" fill="black"/>
<path d="M134.999 52.1404C122.569 49.0096 108.126 49.6991 103.709 49.9973C102.945 50.0532 102.293 49.4941 102.219 48.73C102.144 47.9473 102.722 47.2578 103.504 47.2019C108.089 46.8664 122.737 46.1583 135.689 49.4196C136.453 49.6059 136.9 50.3887 136.695 51.1527C136.49 51.8795 135.745 52.3082 134.999 52.1404Z" fill="black"/>
<path d="M81.6442 53.6691C81.6069 53.5386 78.2524 39.9902 73.8357 35.2567L74.5066 34.623C79.1097 39.5243 82.4083 52.8863 82.5387 53.4454L81.6442 53.6691Z" fill="black"/>
<path d="M68.4874 74.7077C69.8769 74.7077 71.0033 73.2893 71.0033 71.5396C71.0033 69.7899 69.8769 68.3715 68.4874 68.3715C67.0979 68.3715 65.9716 69.7899 65.9716 71.5396C65.9716 73.2893 67.0979 74.7077 68.4874 74.7077Z" fill="black"/>
<path d="M39.6014 96.7917C39.6014 102.066 38.4646 106.874 36.601 110.489C35.2033 109.539 34.2902 107.936 34.2902 106.128V89.1323C34.2902 87.0823 35.4829 85.2746 37.2347 84.4174C38.7255 87.8464 39.6014 92.1327 39.6014 96.7917Z" fill="white"/>
<path d="M36.7875 111.16L36.3589 110.861C34.7748 109.799 33.843 108.01 33.843 106.109V89.1132C33.843 86.9514 35.0916 84.92 37.0484 83.9696L37.4957 83.746L37.682 84.1932C39.2661 87.8273 40.0861 92.1695 40.0861 96.7539C40.0861 101.916 39.0052 106.855 37.0484 110.656L36.7875 111.16ZM36.9925 85.0691C35.6134 85.945 34.7562 87.4732 34.7562 89.1318V106.128C34.7562 107.544 35.3712 108.867 36.4334 109.781C38.1666 106.165 39.1356 101.581 39.1356 96.7912C39.1356 92.5235 38.3902 88.4982 36.9925 85.0691Z" fill="black"/>
<path d="M37.272 100.538C37.7351 100.538 38.1106 99.22 38.1106 97.5938C38.1106 95.9676 37.7351 94.6493 37.272 94.6493C36.8088 94.6493 36.4333 95.9676 36.4333 97.5938C36.4333 99.22 36.8088 100.538 37.272 100.538Z" fill="black"/>
<path d="M136.919 25.0613L138.857 30.093H173.949L171.656 24.1295L173.054 24.0177L227.248 164.515H225.831L220.949 152.532H185.857L190.74 164.515H189.323L135.651 25.3222L136.919 25.0613ZM185.335 151.227H220.427L213.084 132.088H177.993L185.335 151.227ZM177.471 130.746H212.562L205.35 111.924H170.259L177.471 130.746ZM169.755 110.601H204.847L197.672 91.8901H162.581L169.755 110.601ZM162.059 90.5856H197.169L189.994 71.875H154.884L162.059 90.5856ZM154.381 70.5518H189.472L182.26 51.7295H147.15L154.381 70.5518ZM146.647 50.4063H181.738L174.452 31.4348H139.379L146.647 50.4063Z" fill="black"/>
<path d="M84.0485 134.958H110.437C110.959 134.958 111.369 135.368 111.369 135.89V139.897C111.369 140.419 110.959 140.829 110.437 140.829H84.0485C83.5267 140.829 83.1167 140.419 83.1167 139.897V135.89C83.1167 135.368 83.5267 134.958 84.0485 134.958Z" fill="#00A651"/>
<path d="M110.418 141.295H84.0485C83.2844 141.295 82.6508 140.662 82.6508 139.897V135.891C82.6508 135.127 83.2844 134.493 84.0485 134.493H110.437C111.201 134.493 111.835 135.127 111.835 135.891V139.897C111.816 140.68 111.183 141.295 110.418 141.295ZM84.0485 135.425C83.7876 135.425 83.5826 135.63 83.5826 135.891V139.897C83.5826 140.158 83.7876 140.363 84.0485 140.363H110.437C110.698 140.363 110.903 140.158 110.903 139.897V135.891C110.903 135.63 110.698 135.425 110.437 135.425H84.0485Z" fill="black"/>
<path d="M46.2731 135.014H72.6617C73.1835 135.014 73.5935 135.424 73.5935 135.946V139.953C73.5935 140.474 73.1835 140.884 72.6617 140.884H46.2731C45.7513 140.884 45.3413 140.474 45.3413 139.953V135.946C45.3413 135.443 45.7513 135.014 46.2731 135.014Z" fill="#00A651"/>
<path d="M72.6618 141.369H46.2732C45.5091 141.369 44.8755 140.736 44.8755 139.972V135.965C44.8755 135.201 45.5091 134.567 46.2732 134.567H72.6618C73.4259 134.567 74.0595 135.201 74.0595 135.965V139.972C74.0595 140.736 73.4259 141.369 72.6618 141.369ZM46.2732 135.48C46.0123 135.48 45.8073 135.685 45.8073 135.946V139.953C45.8073 140.214 46.0123 140.419 46.2732 140.419H72.6618C72.9227 140.419 73.1277 140.214 73.1277 139.953V135.946C73.1277 135.685 72.9227 135.48 72.6618 135.48H46.2732Z" fill="black"/>
<path d="M36.4335 129.143H62.8221C63.3439 129.143 63.7539 129.553 63.7539 130.075V134.082C63.7539 134.604 63.3439 135.014 62.8221 135.014H36.4335C35.9117 135.014 35.5017 134.604 35.5017 134.082V130.075C35.5017 129.553 35.9117 129.143 36.4335 129.143Z" fill="#00A651"/>
<path d="M62.8221 135.48H36.4335C35.6694 135.48 35.0358 134.847 35.0358 134.082V130.076C35.0358 129.312 35.6694 128.678 36.4335 128.678H62.8221C63.5862 128.678 64.2198 129.312 64.2198 130.076V134.082C64.2198 134.865 63.5862 135.48 62.8221 135.48ZM36.4335 129.61C36.1726 129.61 35.9676 129.815 35.9676 130.076V134.082C35.9676 134.343 36.1726 134.548 36.4335 134.548H62.8221C63.083 134.548 63.288 134.343 63.288 134.082V130.076C63.288 129.815 63.083 129.61 62.8221 129.61H36.4335Z" fill="black"/>
<path d="M38.1106 123.255H64.4992C65.021 123.255 65.431 123.665 65.431 124.187V128.193C65.431 128.715 65.021 129.125 64.4992 129.125H38.1106C37.5888 129.125 37.1788 128.715 37.1788 128.193V124.187C37.1788 123.683 37.5888 123.255 38.1106 123.255Z" fill="#00A651"/>
<path d="M64.4995 129.609H38.1108C37.3468 129.609 36.7131 128.975 36.7131 128.211V124.205C36.7131 123.441 37.3468 122.807 38.1108 122.807H64.4995C65.2635 122.807 65.8971 123.441 65.8971 124.205V128.211C65.8971 128.975 65.2635 129.609 64.4995 129.609ZM38.1108 123.72C37.8499 123.72 37.6449 123.925 37.6449 124.186V128.193C37.6449 128.454 37.8499 128.659 38.1108 128.659H64.4995C64.7604 128.659 64.9654 128.454 64.9654 128.193V124.186C64.9654 123.925 64.7604 123.72 64.4995 123.72H38.1108Z" fill="black"/>
<path d="M38.1106 117.384H64.4992C65.021 117.384 65.431 117.794 65.431 118.316V122.323C65.431 122.845 65.021 123.255 64.4992 123.255H38.1106C37.5888 123.255 37.1788 122.845 37.1788 122.323V118.316C37.1788 117.794 37.5888 117.384 38.1106 117.384Z" fill="#00A651"/>
<path d="M64.4995 123.72H38.1108C37.3468 123.72 36.7131 123.086 36.7131 122.322V118.316C36.7131 117.552 37.3468 116.918 38.1108 116.918H64.4995C65.2635 116.918 65.8971 117.552 65.8971 118.316V122.322C65.8971 123.105 65.2635 123.72 64.4995 123.72ZM38.1108 117.85C37.8499 117.85 37.6449 118.055 37.6449 118.316V122.322C37.6449 122.583 37.8499 122.788 38.1108 122.788H64.4995C64.7604 122.788 64.9654 122.583 64.9654 122.322V118.316C64.9654 118.055 64.7604 117.85 64.4995 117.85H38.1108Z" fill="black"/>
<path d="M37.8311 140.903H64.2197C64.7415 140.903 65.1515 141.313 65.1515 141.835V145.842C65.1515 146.363 64.7415 146.773 64.2197 146.773H37.8311C37.3093 146.773 36.8993 146.363 36.8993 145.842V141.835C36.8993 141.313 37.3279 140.903 37.8311 140.903Z" fill="#00A651"/>
<path d="M64.2197 147.24H37.8311C37.067 147.24 36.4333 146.606 36.4333 145.842V141.835C36.4333 141.071 37.067 140.438 37.8311 140.438H64.2197C64.9837 140.438 65.6174 141.071 65.6174 141.835V145.842C65.6174 146.625 64.9837 147.24 64.2197 147.24ZM37.8311 141.369C37.5701 141.369 37.3652 141.574 37.3652 141.835V145.842C37.3652 146.103 37.5701 146.308 37.8311 146.308H64.2197C64.4806 146.308 64.6856 146.103 64.6856 145.842V141.835C64.6856 141.574 64.4806 141.369 64.2197 141.369H37.8311Z" fill="black"/>
<path d="M37.8311 146.774H64.2197C64.7415 146.774 65.1515 147.184 65.1515 147.705V151.712C65.1515 152.234 64.7415 152.644 64.2197 152.644H37.8311C37.3093 152.644 36.8993 152.234 36.8993 151.712V147.705C36.8993 147.202 37.3279 146.774 37.8311 146.774Z" fill="#00A651"/>
<path d="M64.2197 153.128H37.8311C37.067 153.128 36.4333 152.495 36.4333 151.731V147.724C36.4333 146.96 37.067 146.326 37.8311 146.326H64.2197C64.9837 146.326 65.6174 146.96 65.6174 147.724V151.731C65.6174 152.495 64.9837 153.128 64.2197 153.128ZM37.8311 147.239C37.5701 147.239 37.3652 147.444 37.3652 147.705V151.712C37.3652 151.973 37.5701 152.178 37.8311 152.178H64.2197C64.4806 152.178 64.6856 151.973 64.6856 151.712V147.705C64.6856 147.444 64.4806 147.239 64.2197 147.239H37.8311Z" fill="black"/>
<path d="M34.663 152.662H61.0516C61.5734 152.662 61.9834 153.072 61.9834 153.594V157.601C61.9834 158.123 61.5734 158.533 61.0516 158.533H34.663C34.1412 158.533 33.7312 158.123 33.7312 157.601V153.594C33.7312 153.072 34.1598 152.662 34.663 152.662Z" fill="#00A651"/>
<path d="M61.0516 158.998H34.663C33.8989 158.998 33.2653 158.365 33.2653 157.6V153.594C33.2653 152.83 33.8989 152.196 34.663 152.196H61.0516C61.8156 152.196 62.4493 152.83 62.4493 153.594V157.6C62.4493 158.383 61.8156 158.998 61.0516 158.998ZM34.663 153.128C34.4021 153.128 34.1971 153.333 34.1971 153.594V157.6C34.1971 157.861 34.4021 158.066 34.663 158.066H61.0516C61.3125 158.066 61.5175 157.861 61.5175 157.6V153.594C61.5175 153.333 61.3125 153.128 61.0516 153.128H34.663Z" fill="black"/>
<path d="M37.8311 158.533H64.2197C64.7415 158.533 65.1515 158.943 65.1515 159.465V163.472C65.1515 163.994 64.7415 164.404 64.2197 164.404H37.8311C37.3093 164.404 36.8993 163.994 36.8993 163.472V159.465C36.8993 158.962 37.3279 158.533 37.8311 158.533Z" fill="#00A651"/>
<path d="M64.2197 164.888H37.8311C37.067 164.888 36.4333 164.254 36.4333 163.49V159.483C36.4333 158.719 37.067 158.086 37.8311 158.086H64.2197C64.9837 158.086 65.6174 158.719 65.6174 159.483V163.49C65.6174 164.254 64.9837 164.888 64.2197 164.888ZM37.8311 158.999C37.5701 158.999 37.3652 159.204 37.3652 159.465V163.471C37.3652 163.732 37.5701 163.937 37.8311 163.937H64.2197C64.4806 163.937 64.6856 163.732 64.6856 163.471V159.465C64.6856 159.204 64.4806 158.999 64.2197 158.999H37.8311Z" fill="black"/>
<path d="M79.5013 140.903H105.89C106.412 140.903 106.822 141.313 106.822 141.835V145.842C106.822 146.363 106.412 146.773 105.89 146.773H79.5013C78.9795 146.773 78.5695 146.363 78.5695 145.842V141.835C78.5695 141.313 78.9795 140.903 79.5013 140.903Z" fill="#00A651"/>
<path d="M105.89 147.24H79.5012C78.7371 147.24 78.1035 146.606 78.1035 145.842V141.835C78.1035 141.071 78.7371 140.438 79.5012 140.438H105.89C106.654 140.438 107.288 141.071 107.288 141.835V145.842C107.288 146.625 106.654 147.24 105.89 147.24ZM79.5012 141.369C79.2403 141.369 79.0353 141.574 79.0353 141.835V145.842C79.0353 146.103 79.2403 146.308 79.5012 146.308H105.89C106.151 146.308 106.356 146.103 106.356 145.842V141.835C106.356 141.574 106.151 141.369 105.89 141.369H79.5012Z" fill="black"/>
<path d="M86.3966 146.774H112.785C113.307 146.774 113.717 147.184 113.717 147.705V151.712C113.717 152.234 113.307 152.644 112.785 152.644H86.3966C85.8748 152.644 85.4648 152.234 85.4648 151.712V147.705C85.4648 147.202 85.8935 146.774 86.3966 146.774Z" fill="#00A651"/>
<path d="M112.785 153.128H86.3966C85.6325 153.128 84.9989 152.495 84.9989 151.731V147.724C84.9989 146.96 85.6325 146.326 86.3966 146.326H112.785C113.549 146.326 114.183 146.96 114.183 147.724V151.731C114.183 152.495 113.549 153.128 112.785 153.128ZM86.3966 147.239C86.1357 147.239 85.9307 147.444 85.9307 147.705V151.712C85.9307 151.973 86.1357 152.178 86.3966 152.178H112.785C113.046 152.178 113.251 151.973 113.251 151.712V147.705C113.251 147.444 113.046 147.239 112.785 147.239H86.3966Z" fill="black"/>
<path d="M78.6067 152.662H104.995C105.517 152.662 105.927 153.072 105.927 153.594V157.601C105.927 158.123 105.517 158.533 104.995 158.533H78.6067C78.0849 158.533 77.6749 158.123 77.6749 157.601V153.594C77.6749 153.072 78.0849 152.662 78.6067 152.662Z" fill="#00A651"/>
<path d="M104.995 158.998H78.6068C77.8427 158.998 77.2091 158.365 77.2091 157.6V153.594C77.2091 152.83 77.8427 152.196 78.6068 152.196H104.995C105.76 152.196 106.393 152.83 106.393 153.594V157.6C106.393 158.383 105.76 158.998 104.995 158.998ZM78.6068 153.128C78.3459 153.128 78.1409 153.333 78.1409 153.594V157.6C78.1409 157.861 78.3459 158.066 78.6068 158.066H104.995C105.256 158.066 105.461 157.861 105.461 157.6V153.594C105.461 153.333 105.256 153.128 104.995 153.128H78.6068Z" fill="black"/>
<path d="M78.6067 158.533H104.995C105.517 158.533 105.927 158.943 105.927 159.465V163.472C105.927 163.994 105.517 164.404 104.995 164.404H78.6067C78.0849 164.404 77.6749 163.994 77.6749 163.472V159.465C77.6749 158.962 78.0849 158.533 78.6067 158.533Z" fill="#00A651"/>
<path d="M104.995 164.888H78.6067C77.8426 164.888 77.209 164.254 77.209 163.49V159.483C77.209 158.719 77.8426 158.086 78.6067 158.086H104.995C105.759 158.086 106.393 158.719 106.393 159.483V163.49C106.393 164.254 105.759 164.888 104.995 164.888ZM78.6067 158.999C78.3458 158.999 78.1408 159.204 78.1408 159.465V163.471C78.1408 163.732 78.3458 163.937 78.6067 163.937H104.995C105.256 163.937 105.461 163.732 105.461 163.471V159.465C105.461 159.204 105.256 158.999 104.995 158.999H78.6067Z" fill="black"/>
<path d="M106.859 158.533H133.247C133.769 158.533 134.179 158.943 134.179 159.465V163.472C134.179 163.994 133.769 164.404 133.247 164.404H106.859C106.337 164.404 105.927 163.994 105.927 163.472V159.465C105.927 158.962 106.337 158.533 106.859 158.533Z" fill="#00A651"/>
<path d="M133.229 164.888H106.859C106.095 164.888 105.461 164.254 105.461 163.49V159.483C105.461 158.719 106.095 158.086 106.859 158.086H133.247C134.012 158.086 134.645 158.719 134.645 159.483V163.49C134.627 164.254 134.012 164.888 133.229 164.888ZM106.859 158.999C106.598 158.999 106.393 159.204 106.393 159.465V163.471C106.393 163.732 106.598 163.937 106.859 163.937H133.247C133.508 163.937 133.713 163.732 133.713 163.471V159.465C133.713 159.204 133.508 158.999 133.247 158.999H106.859Z" fill="black"/>
<path d="M74.134 164.273C82.5017 164.273 89.2851 157.49 89.2851 149.122C89.2851 140.755 82.5017 133.971 74.134 133.971C65.7663 133.971 58.9829 140.755 58.9829 149.122C58.9829 157.49 65.7663 164.273 74.134 164.273Z" fill="black"/>
<path d="M74.1338 164.759C65.524 164.759 58.5168 157.752 58.5168 149.142C58.5168 140.532 65.524 133.525 74.1338 133.525C82.7437 133.525 89.7508 140.532 89.7508 149.142C89.7508 157.752 82.7437 164.759 74.1338 164.759ZM74.1338 134.438C66.0272 134.438 59.4486 141.035 59.4486 149.123C59.4486 157.23 66.0458 163.808 74.1338 163.808C82.2219 163.808 88.819 157.211 88.819 149.123C88.8377 141.035 82.2405 134.438 74.1338 134.438Z" fill="black"/>
<path d="M71.413 164.273C79.7808 164.273 86.5641 157.49 86.5641 149.122C86.5641 140.755 79.7808 133.971 71.413 133.971C63.0453 133.971 56.262 140.755 56.262 149.122C56.262 157.49 63.0453 164.273 71.413 164.273Z" fill="#00A651"/>
<path d="M71.4129 164.759C62.803 164.759 55.7959 157.752 55.7959 149.142C55.7959 140.532 62.803 133.525 71.4129 133.525C80.0227 133.525 87.0299 140.532 87.0299 149.142C87.0299 157.752 80.0227 164.759 71.4129 164.759ZM71.4129 134.438C63.3062 134.438 56.7277 141.035 56.7277 149.123C56.7277 157.23 63.3249 163.808 71.4129 163.808C79.5009 163.808 86.0981 157.211 86.0981 149.123C86.0981 141.035 79.5009 134.438 71.4129 134.438Z" fill="black"/>
<path d="M71.413 160.322C77.5987 160.322 82.6132 155.307 82.6132 149.121C82.6132 142.936 77.5987 137.921 71.413 137.921C65.2273 137.921 60.2128 142.936 60.2128 149.121C60.2128 155.307 65.2273 160.322 71.413 160.322Z" fill="white"/>
<path d="M71.4131 160.788C64.9837 160.788 59.7469 155.552 59.7469 149.122C59.7469 142.693 64.9837 137.456 71.4131 137.456C77.8425 137.456 83.0792 142.693 83.0792 149.122C83.0792 155.552 77.8425 160.788 71.4131 160.788ZM71.4131 138.388C65.4868 138.388 60.6787 143.196 60.6787 149.122C60.6787 155.048 65.4868 159.857 71.4131 159.857C77.3394 159.857 82.1474 155.048 82.1474 149.122C82.1474 143.215 77.3207 138.388 71.4131 138.388Z" fill="black"/>
<path d="M74.6558 153.389C74.0781 153.949 73.2208 154.284 72.1213 154.396V156.054H70.9099V154.414C70.1831 154.359 69.4936 154.228 68.8414 154.023C68.1891 153.799 67.6859 153.539 67.2946 153.203L67.9655 151.712C68.3382 152.01 68.7668 152.253 69.2886 152.458C69.8104 152.663 70.3509 152.793 70.9099 152.83V149.886C70.2204 149.718 69.6241 149.532 69.1582 149.327C68.6923 149.122 68.3009 148.824 67.9841 148.451C67.6673 148.06 67.5182 147.556 67.5182 146.904C67.5182 146.103 67.8164 145.432 68.3941 144.873C68.9718 144.314 69.8104 143.978 70.9099 143.866V142.208H72.1213V143.848C72.6804 143.885 73.2022 143.978 73.7426 144.127C74.2644 144.276 74.7303 144.5 75.1217 144.742L74.5253 146.233C73.7799 145.805 72.9785 145.544 72.1399 145.432V148.414C72.8481 148.581 73.4258 148.768 73.9103 148.954C74.3762 149.159 74.7676 149.439 75.0844 149.83C75.4012 150.221 75.569 150.725 75.569 151.377C75.5317 152.16 75.2335 152.849 74.6558 153.389ZM69.7918 147.594C70.0527 147.799 70.4068 147.966 70.8913 148.097V145.469C70.3881 145.544 70.0154 145.711 69.7732 145.935C69.5309 146.177 69.4004 146.457 69.4004 146.811C69.4004 147.146 69.5309 147.407 69.7918 147.594ZM73.2581 152.346C73.5004 152.122 73.6308 151.843 73.6308 151.507C73.6308 151.172 73.5004 150.911 73.2395 150.706C72.9785 150.501 72.5872 150.333 72.1027 150.203V152.812C72.6245 152.719 73.0158 152.569 73.2581 152.346Z" fill="black"/>
<path d="M64.7973 139.617H8.44202V164.347H64.7973V139.617Z" fill="white"/>
<path d="M65.282 164.814H7.9762V139.152H65.2633V164.814H65.282ZM8.908 163.882H64.3315V140.084H8.908V163.882Z" fill="black"/>
<path d="M63.0644 141.482H10.2126V162.503H63.0644V141.482Z" fill="white"/>
<path d="M63.5116 162.95H9.7467V141.016H63.5303V162.95H63.5116ZM10.6785 162.019H62.5985V141.948H10.6785V162.019Z" fill="black"/>
<path d="M60.567 156.296V147.649C58.5916 147.649 56.9889 146.047 56.9889 144.071H16.2878C16.2878 146.047 14.6851 147.649 12.7097 147.649V156.296C14.6851 156.296 16.2878 157.899 16.2878 159.874H56.9703C56.9703 157.899 58.5729 156.296 60.567 156.296Z" fill="#A9DD57"/>
<path d="M56.9705 160.359H16.288C16.0271 160.359 15.8221 160.154 15.8221 159.893C15.8221 158.179 14.4244 156.781 12.7099 156.781C12.449 156.781 12.244 156.576 12.244 156.315V147.668C12.244 147.407 12.449 147.202 12.7099 147.202C14.4244 147.202 15.8221 145.804 15.8221 144.09C15.8221 143.829 16.0271 143.624 16.288 143.624H56.9705C57.2314 143.624 57.4364 143.829 57.4364 144.09C57.4364 145.804 58.8341 147.202 60.5486 147.202C60.8095 147.202 61.0145 147.407 61.0145 147.668V156.315C61.0145 156.576 60.8095 156.781 60.5486 156.781C58.8341 156.781 57.4364 158.179 57.4364 159.893C57.4364 160.135 57.2314 160.359 56.9705 160.359ZM16.7167 159.427H56.5232C56.7282 157.564 58.2191 156.091 60.0827 155.868V148.097C58.2191 147.892 56.7468 146.401 56.5232 144.537H16.7167C16.5117 146.401 15.0208 147.873 13.1572 148.097V155.868C15.0208 156.073 16.5117 157.564 16.7167 159.427Z" fill="black"/>
<path d="M36.6201 159.037C39.5741 159.037 41.9687 155.875 41.9687 151.974C41.9687 148.073 39.5741 144.911 36.6201 144.911C33.6662 144.911 31.2716 148.073 31.2716 151.974C31.2716 155.875 33.6662 159.037 36.6201 159.037Z" fill="white"/>
<path d="M36.62 159.502C33.4146 159.502 30.8055 156.129 30.8055 151.974C30.8055 147.818 33.4146 144.445 36.62 144.445C39.8254 144.445 42.4344 147.818 42.4344 151.974C42.4344 156.129 39.8254 159.502 36.62 159.502ZM36.62 145.376C33.9364 145.376 31.7373 148.339 31.7373 151.974C31.7373 155.608 33.9178 158.571 36.62 158.571C39.3222 158.571 41.5026 155.608 41.5026 151.974C41.5026 148.339 39.3222 145.376 36.62 145.376Z" fill="black"/>
<path d="M21.3758 154.191C22.6521 154.191 23.6867 153.156 23.6867 151.88C23.6867 150.604 22.6521 149.569 21.3758 149.569C20.0996 149.569 19.0649 150.604 19.0649 151.88C19.0649 153.156 20.0996 154.191 21.3758 154.191Z" fill="white"/>
<path d="M21.3756 154.657C19.8475 154.657 18.5989 153.409 18.5989 151.881C18.5989 150.352 19.8475 149.104 21.3756 149.104C22.9038 149.104 24.1524 150.352 24.1524 151.881C24.171 153.409 22.9224 154.657 21.3756 154.657ZM21.3756 150.017C20.3507 150.017 19.5307 150.856 19.5307 151.862C19.5307 152.868 20.3693 153.707 21.3756 153.707C22.382 153.707 23.2206 152.868 23.2206 151.862C23.2206 150.856 22.4006 150.017 21.3756 150.017Z" fill="black"/>
<path d="M51.8829 154.191C53.1592 154.191 54.1938 153.156 54.1938 151.88C54.1938 150.604 53.1592 149.569 51.8829 149.569C50.6066 149.569 49.572 150.604 49.572 151.88C49.572 153.156 50.6066 154.191 51.8829 154.191Z" fill="white"/>
<path d="M51.8828 154.657C50.3547 154.657 49.1061 153.409 49.1061 151.881C49.1061 150.352 50.3547 149.104 51.8828 149.104C53.411 149.104 54.6596 150.352 54.6596 151.881C54.6596 153.409 53.411 154.657 51.8828 154.657ZM51.8828 150.017C50.8579 150.017 50.0379 150.856 50.0379 151.862C50.0379 152.868 50.8765 153.707 51.8828 153.707C52.8892 153.707 53.7278 152.868 53.7278 151.862C53.7278 150.856 52.9078 150.017 51.8828 150.017Z" fill="black"/>
<path d="M39.1542 155.309C38.707 155.738 38.0361 155.999 37.1788 156.092V157.378H36.247V156.111C35.6879 156.074 35.1475 155.962 34.6443 155.794C34.1412 155.626 33.7312 155.403 33.433 155.16L33.9548 154.005C34.2343 154.229 34.5884 154.434 34.9798 154.583C35.3898 154.732 35.7998 154.844 36.247 154.881V152.589C35.7066 152.458 35.2593 152.309 34.8866 152.16C34.5139 152.011 34.2157 151.769 33.9734 151.47C33.7312 151.172 33.6007 150.762 33.6007 150.278C33.6007 149.663 33.8243 149.122 34.2716 148.694C34.7189 148.265 35.3711 148.004 36.2284 147.911V146.606H37.1602V147.874C37.5888 147.892 37.9988 147.967 38.4088 148.097C38.8188 148.228 39.1729 148.377 39.4897 148.582L39.0238 149.737C38.4461 149.402 37.8311 149.197 37.1602 149.122V151.433C37.7193 151.564 38.1665 151.713 38.5393 151.862C38.8933 152.011 39.2102 152.235 39.4524 152.551C39.6947 152.85 39.8251 153.26 39.8251 153.744C39.8438 154.34 39.6015 154.862 39.1542 155.309ZM35.3711 150.781C35.5761 150.93 35.8557 151.06 36.2284 151.172V149.122C35.837 149.178 35.5389 149.309 35.3525 149.495C35.1661 149.681 35.073 149.905 35.073 150.166C35.073 150.427 35.1661 150.632 35.3711 150.781ZM38.0734 154.489C38.2597 154.322 38.3715 154.098 38.3715 153.837C38.3715 153.576 38.2597 153.371 38.0547 153.204C37.8497 153.055 37.5515 152.924 37.1788 152.812V154.844C37.5702 154.769 37.887 154.657 38.0734 154.489Z" fill="black"/>
<path d="M136.844 50.6121C149.329 50.6121 159.45 40.4913 159.45 28.0066C159.45 15.5219 149.329 5.40112 136.844 5.40112C124.36 5.40112 114.239 15.5219 114.239 28.0066C114.239 40.4913 124.36 50.6121 136.844 50.6121Z" fill="#00A651"/>
<path d="M136.844 51.0786C124.116 51.0786 113.773 40.7356 113.773 28.0072C113.773 15.2788 124.116 4.93579 136.844 4.93579C149.573 4.93579 159.916 15.2788 159.916 28.0072C159.916 40.717 149.554 51.0786 136.844 51.0786ZM136.844 5.86759C124.638 5.86759 114.705 15.8006 114.705 28.0072C114.705 40.2138 124.638 50.1468 136.844 50.1468C149.051 50.1468 158.984 40.2138 158.984 28.0072C158.984 15.8006 149.051 5.86759 136.844 5.86759Z" fill="black"/>
<path d="M136.844 44.7045C146.066 44.7045 153.542 37.2286 153.542 28.0066C153.542 18.7846 146.066 11.3087 136.844 11.3087C127.622 11.3087 120.146 18.7846 120.146 28.0066C120.146 37.2286 127.622 44.7045 136.844 44.7045Z" fill="white"/>
<path d="M136.844 45.1699C127.377 45.1699 119.681 37.4733 119.681 28.0062C119.681 18.5391 127.377 10.8424 136.844 10.8424C146.311 10.8424 154.008 18.5391 154.008 28.0062C154.008 37.4733 146.311 45.1699 136.844 45.1699ZM136.844 11.7742C127.899 11.7742 120.612 19.0609 120.612 28.0062C120.612 36.9515 127.899 44.2381 136.844 44.2381C145.79 44.2381 153.076 36.9515 153.076 28.0062C153.076 19.0609 145.79 11.7742 136.844 11.7742Z" fill="black"/>
<path d="M141.671 34.3614C140.795 35.1814 139.528 35.6845 137.888 35.8709V38.3308H136.08V35.8895C134.999 35.815 133.974 35.61 133.005 35.2932C132.036 34.9764 131.272 34.5664 130.694 34.0632L131.682 31.8455C132.223 32.2928 132.875 32.6469 133.658 32.9637C134.44 33.2618 135.242 33.4482 136.08 33.5228V29.1246C135.037 28.8824 134.179 28.6028 133.471 28.3047C132.782 28.0065 132.185 27.5592 131.719 26.9815C131.254 26.4038 131.011 25.6397 131.011 24.6893C131.011 23.4966 131.44 22.4902 132.316 21.6516C133.173 20.813 134.44 20.3098 136.08 20.1607V17.6821H137.888V20.1048C138.708 20.1421 139.509 20.2912 140.292 20.5148C141.075 20.7571 141.764 21.0553 142.342 21.4466L141.447 23.6643C140.329 23.012 139.155 22.6207 137.888 22.4716V26.907C138.95 27.1492 139.826 27.4288 140.516 27.7269C141.205 28.0251 141.802 28.4538 142.267 29.0315C142.752 29.6092 142.976 30.3733 142.976 31.3237C142.994 32.535 142.547 33.5414 141.671 34.3614ZM134.44 25.7143C134.813 26.0124 135.372 26.2547 136.08 26.4597V22.5461C135.335 22.6579 134.776 22.9002 134.403 23.2543C134.03 23.6084 133.863 24.037 133.863 24.5588C133.863 25.0434 134.049 25.4161 134.44 25.7143ZM139.621 32.7959C139.994 32.4605 140.18 32.0319 140.18 31.5473C140.18 31.0442 139.975 30.6528 139.584 30.3546C139.192 30.0564 138.615 29.7955 137.888 29.5905V33.4855C138.671 33.355 139.23 33.1314 139.621 32.7959Z" fill="black"/>
<path d="M181.44 17.9806L175.458 9.63165L169.886 2.68042L162.599 7.60033C162.599 7.60033 164.91 21.2419 171.135 16.2661L174.042 21.186L181.44 17.9806Z" fill="white"/>
<path d="M173.837 21.7814L170.985 16.9547C169.718 17.8306 168.488 18.0542 167.351 17.607C163.606 16.172 162.189 8.02806 162.133 7.67398L162.077 7.3758L169.979 2.0459L175.831 9.35122L182.148 18.1847L173.837 21.7814ZM171.265 15.5756L174.228 20.6074L180.732 17.7933L175.085 9.9103L169.793 3.31315L163.102 7.82306C163.382 9.27667 164.798 15.6316 167.687 16.7497C168.637 17.1224 169.681 16.8429 170.836 15.9111L171.265 15.5756Z" fill="black"/>
<path d="M159.413 9.07235C158.555 7.5442 160.698 6.18377 160.698 6.18377C159.86 6.4074 159.413 6.12786 159.263 5.77378C158.425 3.83563 162.823 3.05292 162.823 3.05292C161.667 2.7361 162.674 1.93476 162.674 1.93476C163.96 1.05886 166.886 0.723414 168.973 0.574326C169.551 0.294785 176.949 -3.09697 176.688 10.526C176.688 10.526 173.334 13.6195 170.985 9.85506C170.985 9.85506 171.06 7.32057 169.141 7.91692C168.768 8.02874 168.507 8.36418 168.47 8.7369C168.414 9.25871 168.432 9.6687 168.488 9.91097C168.526 10.116 168.432 10.3023 168.246 10.4141C168.004 10.5446 167.724 10.4701 167.575 10.2278L166.718 8.69963C163.512 10.2651 160.009 10.1346 159.413 9.07235Z" fill="black"/>
<path d="M172.588 103.892C174.601 104.73 182.894 107.675 187.199 102.569L184.497 99.1208L171.638 100.425L172.327 103.295C172.234 103.538 172.365 103.78 172.588 103.892Z" fill="#00A651"/>
<path d="M180.099 105.98C176.614 105.98 173.371 104.731 172.402 104.321C171.992 104.153 171.768 103.725 171.843 103.296L171.06 100.016L184.702 98.637L187.795 102.588L187.553 102.886C185.54 105.253 182.763 105.98 180.099 105.98ZM172.775 103.464C173.744 103.874 182.186 107.247 186.603 102.551L184.292 99.606L172.215 100.836L172.812 103.315L172.775 103.445C172.756 103.445 172.756 103.445 172.775 103.464Z" fill="black"/>
<path d="M200.337 31.4722C200.337 31.4722 208.742 50.2945 196.461 49.5118C182.745 48.6546 151.492 49.7727 151.492 49.7727C151.492 49.7727 154.157 47.1078 157.903 46.4555C161.667 45.7846 194.355 38.7775 194.355 38.7775L192.137 32.1431L200.337 31.4722Z" fill="white"/>
<path d="M150.337 50.2767L151.175 49.438C151.287 49.3262 153.971 46.6613 157.847 45.9904C161.295 45.3754 189.603 39.3187 193.777 38.4241L191.541 31.7152L200.654 30.9697L200.784 31.2679C200.989 31.7338 205.835 42.7291 202.406 47.649C201.232 49.3449 199.219 50.1276 196.442 49.9599C182.894 49.1026 151.828 50.2021 151.511 50.2208L150.337 50.2767ZM192.79 32.5538L194.989 39.1323L194.485 39.2441C194.15 39.3187 161.742 46.2699 158.015 46.9222C155.778 47.3135 153.915 48.469 152.853 49.2703C159.002 49.0653 184.552 48.3012 196.517 49.0467C198.939 49.1958 200.673 48.5622 201.642 47.1458C204.474 43.0645 200.803 33.7651 200.058 31.9761L192.79 32.5538Z" fill="black"/>
<path d="M221.396 134.903C221.396 134.903 216.085 141.705 207.046 136.394L207.139 133.133L220.893 132.778L221.396 134.903Z" fill="#00A651"/>
<path d="M213.755 138.872C211.798 138.872 209.469 138.35 206.822 136.785L206.58 136.655L206.692 132.685L221.265 132.312L221.899 135.015L221.769 135.182C221.713 135.257 220.334 136.99 217.799 138.071C216.737 138.518 215.376 138.872 213.755 138.872ZM207.512 136.133C211.034 138.145 214.37 138.499 217.426 137.214C219.309 136.412 220.501 135.22 220.893 134.791L220.539 133.263L207.605 133.598L207.512 136.133Z" fill="black"/>
<path d="M178.999 53.557C178.999 53.557 195.026 63.0613 208.071 50.0161L202.48 41.8163L177.322 45.9162L178.999 53.557Z" fill="#00A651"/>
<path d="M191.895 57.359C190.721 57.359 189.603 57.2659 188.597 57.1354C182.931 56.39 178.943 54.0605 178.775 53.9486L178.608 53.8368L176.781 45.5252L202.723 41.2948L208.705 50.0537L208.425 50.3333C202.853 55.8868 196.778 57.359 191.895 57.359ZM179.409 53.2591C180.229 53.7064 183.9 55.5886 188.746 56.2222C195.939 57.1727 202.238 55.0482 207.475 49.9605L202.275 42.3198L177.9 46.2892L179.409 53.2591Z" fill="black"/>
<path d="M217.426 129.87L222.999 140.773L216.96 151.451H208.369C208.369 151.451 209.525 148.898 212.078 147.277L212.767 135.909L210.904 131.268L217.426 129.87Z" fill="white"/>
<path d="M217.24 151.917H207.661L207.959 151.264C208.015 151.153 209.152 148.693 211.649 147.015L212.32 135.983L210.289 130.933L217.669 129.349L223.52 140.791L217.24 151.917ZM209.171 150.985H216.7L222.477 140.772L217.184 130.411L211.575 131.603L213.271 135.834L212.562 147.537L212.357 147.668C210.717 148.693 209.674 150.146 209.171 150.985Z" fill="black"/>
<path d="M162.04 32.498L154.213 42.3751L135.577 47.4069L128.309 45.7296C128.309 45.7296 128.495 47.6305 130.918 48.525L125.886 47.9659C125.886 47.9659 127.004 51.8795 132.222 52.8113C132.222 52.8113 135.204 53.184 136.881 52.4386L157.959 49.3636C159.17 49.1959 160.288 48.6368 161.146 47.7796L169.681 39.3934L162.04 32.498Z" fill="white"/>
<path d="M133.918 53.3702C132.968 53.3702 132.222 53.277 132.167 53.277H132.148C126.706 52.3079 125.495 48.2639 125.439 48.0962C125.402 47.9471 125.439 47.7794 125.532 47.6676C125.625 47.5557 125.793 47.4812 125.942 47.4998L128.943 47.8353C127.973 46.8848 127.862 45.8412 127.862 45.7667C127.843 45.6176 127.899 45.4685 128.011 45.3753C128.123 45.2822 128.272 45.2449 128.421 45.2635L135.577 46.9221L153.952 41.9649L161.686 32.1997C161.761 32.1065 161.891 32.0319 162.021 32.0319C162.152 32.0133 162.282 32.0692 162.376 32.1437L170.016 39.0391C170.11 39.1323 170.165 39.2441 170.165 39.3745C170.165 39.505 170.11 39.6354 170.035 39.71L161.5 48.0962C160.549 49.028 159.357 49.6243 158.052 49.8107L137.049 52.8857C136.099 53.277 134.887 53.3702 133.918 53.3702ZM132.297 52.3452C132.502 52.3638 135.204 52.662 136.695 52.0098C136.732 51.9911 136.77 51.9725 136.826 51.9725L157.903 48.8975C159.021 48.7298 160.027 48.2266 160.829 47.4439L169.01 39.4118L162.115 33.1874L154.604 42.6731C154.548 42.7477 154.455 42.8036 154.362 42.8408L135.726 47.8726C135.652 47.8912 135.577 47.8912 135.502 47.8726L129.036 46.3817C129.297 46.9221 129.874 47.6489 131.123 48.0962C131.347 48.1707 131.477 48.413 131.421 48.6366C131.365 48.8603 131.142 49.0094 130.918 48.9907L126.669 48.5248C127.191 49.6057 128.7 51.7116 132.297 52.3452Z" fill="black"/>
<path d="M182.614 97.2958L187.683 107.862L179.893 111.161H169.029C169.029 111.161 169.327 107.639 175.328 106.539C177.545 106.129 176.912 101.992 175.924 98.153L182.614 97.2958Z" fill="white"/>
<path d="M180.005 111.626H168.526L168.563 111.123C168.581 110.974 168.954 107.228 175.234 106.091C175.551 106.036 175.775 105.868 175.961 105.607C176.949 104.079 175.831 99.718 175.458 98.283L175.328 97.7799L182.875 96.8108L188.298 108.104L180.005 111.626ZM169.625 110.695H179.819L187.068 107.62L182.353 97.7985L176.502 98.5439C177.471 102.513 177.545 104.843 176.763 106.091C176.446 106.595 175.999 106.893 175.421 107.005C171.19 107.769 169.96 109.763 169.625 110.695Z" fill="black"/>
<path d="M157.046 76.0879L172.029 104.135C172.029 104.135 179.465 97.2584 187.683 102.663L174.62 77.5229L192.752 70.1803L206.506 136.618C206.506 136.618 213.606 131.754 221.806 134.847L212.6 70.6089C211.892 65.2231 210.457 59.9677 208.258 54.9919C207.512 53.296 206.655 51.5815 205.686 49.9975C204.12 47.4257 202.294 45.1707 200.188 43.8662L180.266 44.0898L180.639 47.6866L181.142 52.4947L158.947 67.3476C156.114 69.2857 155.257 73.1248 157.046 76.0879Z" fill="black"/>
<path d="M168.283 43.2127L159.525 35.3856C159.525 35.3856 162.935 29.3848 168.228 22.6944C170.296 20.0668 173.073 18.0913 176.204 16.9732L179.726 15.7059C179.726 15.7059 183.453 16.0787 187.18 17.3832C192.641 19.3027 196.871 22.4149 201.53 30.6147L198.064 32.3479L207.568 49.2508C207.587 49.288 207.55 49.3439 207.512 49.3067C206.618 48.7103 201.977 45.9522 191.839 46.6231C182.503 47.2381 178.794 52.9593 178.794 52.9593C178.794 52.9593 174.322 42.1504 172.737 37.2119L168.283 43.2127Z" fill="white"/>
<path d="M178.719 54.0036L178.384 53.1837C178.347 53.0905 174.359 43.437 172.588 38.2562L168.339 43.9216L158.928 35.4981L159.114 35.1626C159.152 35.1067 162.618 29.05 167.855 22.4156C169.979 19.732 172.812 17.7007 176.036 16.5452L179.67 15.2407L179.782 15.2594C179.931 15.278 183.621 15.6694 187.348 16.9739C192.566 18.8002 197.039 21.782 201.94 30.4104L202.182 30.8391L198.716 32.5722L207.997 49.0651C208.108 49.2701 208.071 49.531 207.903 49.6987C207.736 49.8664 207.475 49.8851 207.27 49.7546C206.45 49.2142 201.903 46.4933 191.876 47.1456C182.875 47.7419 179.223 53.2209 179.185 53.2768L178.719 54.0036ZM172.924 36.2435L173.203 37.1008C174.526 41.2193 177.899 49.531 178.943 52.0655C180.266 50.4814 184.198 46.6983 191.839 46.1952C199.666 45.6733 204.325 47.2015 206.487 48.2265L197.467 32.1809L200.915 30.4477C196.256 22.397 191.988 19.5829 187.068 17.8498C183.77 16.6943 180.434 16.2657 179.819 16.1912L176.39 17.4211C173.315 18.5207 170.631 20.4402 168.619 22.9933C164.109 28.6959 160.941 33.9513 160.139 35.2931L168.227 42.5239L172.924 36.2435Z" fill="black"/>
<path d="M196.931 29.2787L196.117 29.7319L199.516 35.8385L200.331 35.3853L196.931 29.2787Z" fill="black"/>
<path d="M192.957 70.5711L192.603 69.7138C195.361 68.5957 197.244 66.7693 198.231 64.2907C200.486 58.6254 197.262 51.3201 197.225 51.2642L198.082 50.8728C198.231 51.1896 201.511 58.6068 199.107 64.6448C198.026 67.3471 195.958 69.3411 192.957 70.5711Z" fill="white"/>
<path d="M237.982 163.882H0V165H237.982V163.882Z" fill="black"/>
</svg>
