<svg width="21" height="21" viewBox="0 0 21 21" fill="none" xmlns="http://www.w3.org/2000/svg">
<g clip-path="url(#clip0_15276_12210)">
<path fill-rule="evenodd" clip-rule="evenodd" d="M10.9777 2.5319C15.1198 2.5319 18.4777 5.88977 18.4777 10.0319C18.4777 14.174 15.1198 17.5319 10.9777 17.5319C6.83557 17.5319 3.4777 14.174 3.4777 10.0319C3.4777 9.44437 3.5451 8.87364 3.67223 8.3266L2.04883 7.94932C1.89315 8.61918 1.81104 9.31648 1.81104 10.0319C1.81104 15.0945 5.91509 19.1986 10.9777 19.1986C16.0403 19.1986 20.1444 15.0945 20.1444 10.0319C20.1444 4.96929 16.0403 0.865234 10.9777 0.865234V2.5319ZM11.8111 10.0312V5.03125H10.1444V11.6979H16.8111V10.0312H11.8111ZM8.75244 2.03516C8.75244 2.58744 8.30473 3.03516 7.75244 3.03516C7.20016 3.03516 6.75244 2.58744 6.75244 2.03516C6.75244 1.48287 7.20016 1.03516 7.75244 1.03516C8.30473 1.03516 8.75244 1.48287 8.75244 2.03516ZM4.41907 5.96484C4.97135 5.96484 5.41907 5.51713 5.41907 4.96484C5.41907 4.41256 4.97135 3.96484 4.41907 3.96484C3.86678 3.96484 3.41907 4.41256 3.41907 4.96484C3.41907 5.51713 3.86678 5.96484 4.41907 5.96484Z" fill="black"/>
</g>
<defs>
<clipPath id="clip0_15276_12210">
<rect width="20" height="20" fill="white" transform="translate(0.977539 0.03125)"/>
</clipPath>
</defs>
</svg>
