<svg width="24" height="24" viewBox="0 0 24 24" fill="none" xmlns="http://www.w3.org/2000/svg">
<path fill-rule="evenodd" clip-rule="evenodd" d="M4.73047 19.1477L4.73047 4.85231C4.73047 4.3878 5.10704 4.01123 5.57155 4.01123H12.8535L12.8535 7.35981C12.8535 8.95816 14.1492 10.2539 15.7476 10.2539L19.2678 10.2538V19.1477C19.2678 19.6122 18.8913 19.9888 18.4268 19.9888H5.57155C5.10703 19.9888 4.73047 19.6122 4.73047 19.1477ZM18.5423 8.25384L14.8535 4.64865L14.8535 7.35981C14.8535 7.85358 15.2538 8.25386 15.7476 8.25386L18.5423 8.25384ZM21.2678 9.31695C21.2678 8.55215 20.9595 7.81965 20.4125 7.2851L15.8443 2.82046C15.3135 2.30168 14.6008 2.01123 13.8586 2.01123H5.57155C4.00247 2.01123 2.73047 3.28322 2.73047 4.85231L2.73047 19.1477C2.73047 20.7168 4.00246 21.9888 5.57155 21.9888H18.4268C19.9958 21.9888 21.2678 20.7168 21.2678 19.1477V9.31695ZM16.9984 14.1434L7.00163 14.1434L7.00162 12.1434L16.9984 12.1434L16.9984 14.1434ZM7.00163 18.0277L16.9984 18.0277L16.9984 16.0277L7.00162 16.0277L7.00163 18.0277Z" fill="black"/>
</svg>
