<svg width="16" height="16" viewBox="0 0 16 16" fill="none" xmlns="http://www.w3.org/2000/svg">
<path fill-rule="evenodd" clip-rule="evenodd" d="M8.00016 2.66668C10.9457 2.66668 13.3335 5.05449 13.3335 8.00001C13.3335 10.9455 10.9457 13.3333 8.00016 13.3333C5.05464 13.3333 2.66683 10.9455 2.66683 8.00001C2.66683 5.05449 5.05464 2.66668 8.00016 2.66668ZM14.6668 8.00001C14.6668 4.31811 11.6821 1.33334 8.00016 1.33334C4.31826 1.33334 1.3335 4.31811 1.3335 8.00001C1.3335 11.6819 4.31826 14.6667 8.00016 14.6667C11.6821 14.6667 14.6668 11.6819 14.6668 8.00001ZM7.3335 7.0477V11.5544H8.66683V7.0477H7.3335ZM7.3335 5.74676V4.41342H8.66683V5.74676H7.3335Z" fill="#00A651"/>
</svg>
