<svg width="40" height="41" viewBox="0 0 40 41" fill="none" xmlns="http://www.w3.org/2000/svg">
<path d="M18.4617 7.43592C19.03 6.06758 20.97 6.06758 21.5383 7.43592L24.5417 14.6543L32.335 15.2793C33.8133 15.3976 34.4117 17.2426 33.285 18.2076L27.3483 23.2943L29.1617 30.8993C29.5067 32.3409 27.9367 33.4809 26.6717 32.7076L20 28.6326L13.3267 32.7059C12.0617 33.4792 10.4933 32.3393 10.8367 30.8976L12.6517 23.2926L6.71332 18.2059C5.58832 17.2409 6.18665 15.3959 7.66332 15.2776L15.4583 14.6526L18.4617 7.43592ZM20 8.07592L16.9967 15.2959C16.8788 15.5786 16.6853 15.8234 16.4375 16.0033C16.1896 16.1833 15.897 16.2914 15.5917 16.3159L7.79832 16.9409L13.735 22.0276C13.9682 22.2269 14.1419 22.4868 14.2368 22.7785C14.3318 23.0702 14.3445 23.3825 14.2733 23.6809L12.4583 31.2859L19.1317 27.2092C19.3932 27.0496 19.6936 26.9652 20 26.9652C20.3064 26.9652 20.6068 27.0496 20.8683 27.2092L27.5417 31.2859L25.7267 23.6809C25.6553 23.3826 25.6677 23.0705 25.7624 22.7787C25.8571 22.487 26.0304 22.2271 26.2633 22.0276L32.2017 16.9409L24.4083 16.3159C24.103 16.2914 23.8104 16.1833 23.5625 16.0033C23.3147 15.8234 23.1212 15.5786 23.0033 15.2959L20 8.07592Z" fill="#808080"/>
</svg>
