<svg width="20" height="21" viewBox="0 0 20 21" fill="none" xmlns="http://www.w3.org/2000/svg">
<path fill-rule="evenodd" clip-rule="evenodd" d="M0 8.99615C0 4.02771 4.02772 0 8.99616 0H10.5944C15.4024 0 19.3 3.89761 19.3 8.70555V19.15C19.3 19.5368 19.1056 19.8977 18.7825 20.1104C18.4595 20.3232 18.0512 20.3593 17.6958 20.2065L12.5449 17.9923H8.99616C4.02772 17.9923 0 13.9646 0 8.99615ZM8.99616 2.3C5.29797 2.3 2.3 5.29797 2.3 8.99615C2.3 12.6943 5.29797 15.6923 8.99616 15.6923H12.7816C12.9377 15.6923 13.0923 15.7241 13.2357 15.7858L17 17.4039V8.70555C17 5.16786 14.1321 2.3 10.5944 2.3H8.99616Z" fill="black"/>
</svg>
