<svg width="24" height="25" viewBox="0 0 24 25" fill="none" xmlns="http://www.w3.org/2000/svg">
<path fill-rule="evenodd" clip-rule="evenodd" d="M3.11719 18.1385L3.11719 16.0187L7.36638 11.7696C7.53227 11.6043 7.75732 11.5111 7.99152 11.5111C8.22591 11.5111 8.45072 11.6041 8.61665 11.7696L8.6238 11.7768L16.0981 18.9385H3.91719C3.47536 18.9385 3.11719 18.5804 3.11719 18.1385ZM5.95381 10.3538L3.11719 13.1903L3.11719 6.32686C3.11719 5.88503 3.47536 5.52686 3.91719 5.52686H20.0407C20.5052 5.52686 20.8818 5.90342 20.8818 6.36793V14.1633L19.4539 12.7354C18.9435 12.2262 18.2519 11.9402 17.5309 11.9402C16.8098 11.9402 16.1182 12.2262 15.6078 12.7354L14.0945 14.2488L10.0213 10.3459C9.48122 9.81121 8.75182 9.51111 7.99152 9.51111C7.2275 9.51111 6.49468 9.81416 5.95381 10.3538ZM15.5389 15.6328L18.9889 18.9385H20.0818C20.5236 18.9385 20.8818 18.5804 20.8818 18.1385V16.9917L18.0414 14.1513C17.9059 14.0163 17.7221 13.9402 17.5309 13.9402C17.3396 13.9402 17.1559 14.0163 17.0204 14.1513L15.5389 15.6328ZM22.8818 6.36793C22.8818 4.79885 21.6098 3.52686 20.0407 3.52686H3.91719C2.3708 3.52686 1.11719 4.78046 1.11719 6.32685L1.11719 18.1385C1.11719 19.6849 2.37079 20.9385 3.91719 20.9385H20.0818C21.6282 20.9385 22.8818 19.6849 22.8818 18.1385V6.36793ZM15.4229 7.48376C14.5944 7.48376 13.9229 8.15535 13.9229 8.98379C13.9229 9.81223 14.5944 10.4838 15.4229 10.4838C16.2513 10.4838 16.9229 9.81223 16.9229 8.98379C16.9229 8.15535 16.2513 7.48376 15.4229 7.48376Z" fill="black"/>
</svg>