<svg width="24" height="24" viewBox="0 0 24 24" fill="none" xmlns="http://www.w3.org/2000/svg">
<path fill-rule="evenodd" clip-rule="evenodd" d="M11.511 5C9.11778 5 7.17768 6.9401 7.17768 9.33333C7.17768 11.2624 6.69856 13.1552 6.23748 14.5385C6.12751 14.8683 6.01752 15.1723 5.91357 15.4444H17.1085C17.0045 15.1723 16.8945 14.8683 16.7846 14.5385C16.3235 13.1552 15.8443 11.2624 15.8443 9.33333C15.8443 6.9401 13.9042 5 11.511 5ZM19.5167 15.9975C19.6715 16.3075 19.6549 16.6755 19.4728 16.9702C19.2906 17.265 18.9687 17.4444 18.6221 17.4444H15.176C15.1173 19.4181 13.4989 21 11.511 21C9.52314 21 7.90474 19.4181 7.846 17.4444H4.3999C4.05333 17.4444 3.73146 17.265 3.54925 16.9702C3.36718 16.6756 3.35051 16.3078 3.50514 15.9979C3.5052 15.9978 3.50526 15.9977 3.50532 15.9975L3.50536 15.9975L3.50548 15.9972L3.50775 15.9926L3.51971 15.9681C3.53077 15.9452 3.54786 15.9095 3.57011 15.8618C3.61463 15.7664 3.67971 15.6233 3.75854 15.4394C3.9164 15.0711 4.1282 14.5417 4.34011 13.906C4.76792 12.6226 5.17768 10.9599 5.17768 9.33333C5.17768 5.83553 8.01321 3 11.511 3C15.0088 3 17.8443 5.83553 17.8443 9.33333C17.8443 10.9599 18.2541 12.6226 18.6819 13.906C18.8938 14.5417 19.1056 15.0711 19.2635 15.4394C19.3423 15.6233 19.4074 15.7664 19.4519 15.8618C19.4742 15.9095 19.4913 15.9452 19.5023 15.9681L19.5143 15.9926L19.5166 15.9972L19.5167 15.9975L19.5167 15.9975ZM9.84799 17.4444C9.90517 18.3131 10.6279 19 11.511 19C12.3942 19 13.1169 18.3131 13.174 17.4444H9.84799Z" fill="black"/>
</svg>
