<svg width="24" height="24" viewBox="0 0 24 24" fill="none" xmlns="http://www.w3.org/2000/svg">
<path fill-rule="evenodd" clip-rule="evenodd" d="M18.8912 2.38281H18.8513H16.8533H5.10742C3.45057 2.38281 2.10742 3.72596 2.10742 5.38281V18.9211C2.10742 20.578 3.45057 21.9211 5.10742 21.9211H15.8513C17.5082 21.9211 18.8513 20.578 18.8513 18.9211V13.8997H21.8912V5.38281C21.8912 3.72596 20.548 2.38281 18.8912 2.38281ZM16.8513 4.38281L5.10742 4.38281C4.55514 4.38281 4.10742 4.83053 4.10742 5.38281L4.10742 18.9211C4.10742 19.4734 4.55514 19.9211 5.10742 19.9211H15.8513C16.4036 19.9211 16.8513 19.4734 16.8513 18.9211L16.8513 4.38281ZM14.4553 9.3332H6.50367V7.0332H14.4553V9.3332ZM6.50367 13.8054H14.4553V11.5054H6.50367V13.8054Z" fill="black"/>
</svg>
