<svg width="25" height="25" viewBox="0 0 25 25" fill="none" xmlns="http://www.w3.org/2000/svg">
<path fill-rule="evenodd" clip-rule="evenodd" d="M2.41162 13.4955C2.41162 9.39037 5.73949 6.0625 9.84462 6.0625H11.8641C16.1509 6.0625 19.6261 9.53767 19.6261 13.8245V21.8206C19.6261 22.1514 19.4624 22.4609 19.1889 22.6471C18.9155 22.8334 18.5676 22.8723 18.2597 22.751L13.6317 20.9285H9.84462C5.73949 20.9285 2.41162 17.6006 2.41162 13.4955ZM9.84462 8.0625C6.84406 8.0625 4.41162 10.4949 4.41162 13.4955C4.41162 16.4961 6.84406 18.9285 9.84462 18.9285H13.8215C13.9469 18.9285 14.0712 18.9521 14.1879 18.9981L17.6261 20.352V13.8245C17.6261 10.6422 15.0464 8.0625 11.8641 8.0625H9.84462Z" fill="black"/>
<path fill-rule="evenodd" clip-rule="evenodd" d="M6.6853 6.76544C7.51246 6.37645 8.42299 6.13547 9.38276 6.07662C10.379 4.85406 11.8966 4.07324 13.5967 4.07324H15.9452C18.9457 4.07324 21.3782 6.50568 21.3782 9.50624C21.3782 11.0897 20.7007 12.515 19.6199 13.508C19.6241 13.613 19.6262 13.7185 19.6262 13.8245V15.9652C21.8675 14.6851 23.3782 12.2721 23.3782 9.50624C23.3782 5.40111 20.0503 2.07324 15.9452 2.07324H13.5967C10.4595 2.07324 7.77626 4.01676 6.6853 6.76544Z" fill="black"/>
</svg>
