<svg width="24" height="24" viewBox="0 0 24 24" fill="none" xmlns="http://www.w3.org/2000/svg">
<path fill-rule="evenodd" clip-rule="evenodd" d="M1.25 15.094C1.25 14.6272 1.57295 14.2225 2.02811 14.1189L2.09996 14.1026C2.14372 14.0928 2.20395 14.0792 2.26974 14.0646C2.39183 14.0375 2.54854 14.0033 2.64969 13.9834C3.09712 13.8867 3.49818 13.64 3.7864 13.2842C4.0762 12.9264 4.23433 12.4799 4.23433 12.0195C4.23433 11.559 4.0762 11.1126 3.7864 10.7548C3.50016 10.4014 3.10262 10.1556 2.65889 10.0575L2.07937 9.95715C1.60005 9.87415 1.25 9.45827 1.25 8.97182V7.01953C1.25 5.36268 2.59315 4.01953 4.25 4.01953L9.25003 4.00178V4L9.57812 4.00061L9.75003 4L9.75014 4.00093L19.7501 4.01954C21.4069 4.01954 22.7501 5.36268 22.7501 7.01954V8.97182C22.7501 9.45827 22.4 9.87416 21.9207 9.95716L21.3412 10.0575C20.8974 10.1557 20.4999 10.4014 20.2137 10.7548C19.9239 11.1126 19.7657 11.559 19.7657 12.0195C19.7657 12.4799 19.9239 12.9264 20.2137 13.2842C20.5019 13.64 20.9029 13.8867 21.3504 13.9834C21.4515 14.0033 21.6082 14.0375 21.7303 14.0646C21.7961 14.0792 21.8563 14.0928 21.9001 14.1026L21.9719 14.1189C22.4271 14.2225 22.7501 14.6272 22.7501 15.094V17.0195C22.7501 18.6764 21.4069 20.0195 19.7501 20.0195L9.57812 20.0006L4.25 20.0195C2.59315 20.0195 1.25 18.6764 1.25 17.0195V15.094ZM10 18.0195L19.7501 18.0195C20.3023 18.0195 20.7501 17.5718 20.7501 17.0195V15.8956C19.929 15.6785 19.1962 15.2056 18.6595 14.543C18.0812 13.8291 17.7657 12.9382 17.7657 12.0195C17.7657 11.1007 18.0812 10.2099 18.6595 9.49595C19.1962 8.83334 19.929 8.36046 20.7501 8.14334V7.01954C20.7501 6.46725 20.3023 6.01954 19.7501 6.01954L10 6.01953L10 18.0195ZM8.00003 18.0195L8.00003 6.01953L4.25 6.01953C3.69772 6.01953 3.25 6.46725 3.25 7.01953V8.14334C4.07107 8.36045 4.80386 8.83334 5.34055 9.49595C5.91881 10.2099 6.23433 11.1007 6.23433 12.0195C6.23433 12.9382 5.91881 13.8291 5.34055 14.543C4.80386 15.2056 4.07107 15.6785 3.25 15.8956V17.0195C3.25 17.5718 3.69772 18.0195 4.25 18.0195H8.00003Z" fill="black"/>
</svg>
