<svg width="18" height="18" viewBox="0 0 18 18" fill="none" xmlns="http://www.w3.org/2000/svg">
<path fill-rule="evenodd" clip-rule="evenodd" d="M3.74678 14.4121C3.23511 14.4121 2.82031 13.9973 2.82031 13.4856V10.9709H1.32031V13.4856C1.32031 14.8257 2.40668 15.9121 3.74678 15.9121H6.25368V14.4121H3.74678ZM14.2439 14.4121C14.7556 14.4121 15.1704 13.9973 15.1704 13.4856V10.9709H16.6704V13.4856C16.6704 14.8257 15.584 15.9121 14.2439 15.9121H11.737V14.4121H14.2439ZM9.7458 8.9991V2.80352H8.2458L8.2458 9.01608L6.21911 6.98939L5.15845 8.05005L8.45698 11.3486C8.74987 11.6415 9.22474 11.6415 9.51764 11.3486L12.8162 8.05005L11.7555 6.98939L9.7458 8.9991Z" fill="#00A651"/>
</svg>
