<svg width="24" height="24" viewBox="0 0 24 24" fill="none" xmlns="http://www.w3.org/2000/svg">
<path fill-rule="evenodd" clip-rule="evenodd" d="M4.99065 3.74072C2.94958 3.74072 1.29497 5.39533 1.29496 7.4364L1.29492 16.6018C1.29491 18.6429 2.94953 20.2975 4.99061 20.2975H19.0084C21.0495 20.2975 22.7041 18.6429 22.7041 16.6019V7.43642C22.7041 5.39534 21.0495 3.74072 19.0084 3.74072H4.99065ZM3.29496 7.64147L3.29492 16.6018C3.29492 17.5384 4.05411 18.2975 4.99061 18.2975H19.0084C19.9449 18.2975 20.7041 17.5384 20.7041 16.6019V7.65444C20.6478 7.70122 20.5882 7.74618 20.5253 7.78912L12.6441 13.1632C12.2599 13.4252 11.7546 13.4252 11.3704 13.1632L3.48921 7.78912C3.42044 7.74222 3.35572 7.69292 3.29496 7.64147Z" fill="black"/>
</svg>
