<svg width="15" height="18" viewBox="0 0 15 18" fill="none" xmlns="http://www.w3.org/2000/svg">
<path d="M6.7437 3.13058L5.34214 1.83642L6.35973 0.734375L9.10038 3.26502C9.40471 3.54602 9.42361 4.02052 9.14261 4.32484L6.61196 7.06549L5.50992 6.04789L6.8174 4.63191C3.98808 4.97511 1.82474 7.41494 1.88655 10.325C1.95242 13.4255 4.51927 15.8854 7.61951 15.8195C10.72 15.7537 13.18 13.1869 13.1142 10.0865C13.1054 9.67235 13.4339 9.32951 13.8481 9.32071C14.2622 9.31191 14.605 9.64049 14.6138 10.0546C14.6973 13.9834 11.58 17.2357 7.65137 17.3192C3.7229 17.4026 0.470349 14.2856 0.386891 10.3568C0.30777 6.63223 3.10539 3.51552 6.7437 3.13058Z" fill="#00A651"/>
</svg>
