<svg width="25" height="24" viewBox="0 0 25 24" fill="none" xmlns="http://www.w3.org/2000/svg">
<path d="M9.06738 0.663024C11.8463 -0.300946 14.8828 -0.211357 17.5996 0.915953C20.3164 2.04339 22.5247 4.12991 23.8047 6.77826C25.0845 9.42654 25.3474 12.453 24.543 15.2822C23.7383 18.1115 21.9215 20.5474 19.4395 22.1259C16.9576 23.7041 13.9823 24.3155 11.0791 23.8447C8.17558 23.3736 5.54524 21.8524 3.68945 19.5702C2.0741 17.5835 1.14317 15.1403 1.01562 12.6025C0.984107 11.9751 1.52093 11.4877 2.14844 11.5156C2.77577 11.5437 3.25521 12.0767 3.30078 12.7031C3.44433 14.6826 4.19153 16.5817 5.45508 18.1357C6.95902 19.985 9.09044 21.2178 11.4434 21.5995C13.7962 21.9811 16.2074 21.485 18.2188 20.206C20.2302 18.9267 21.7024 16.953 22.3545 14.6601C23.0065 12.3674 22.7939 9.91467 21.7568 7.76849C20.7196 5.62222 18.9292 3.93122 16.7275 3.01752C14.5258 2.10393 12.0646 2.0312 9.8125 2.81244C8.21107 3.36809 6.79532 4.32919 5.69238 5.58588L7.81543 5.3222L8.06055 7.81048L3.36133 8.36713C2.76104 8.42603 2.20456 8.04746 2.03809 7.46771L0.957031 2.99798L3.36035 2.30853L3.81152 4.28412C5.19595 2.63568 7.00741 1.37769 9.06738 0.663024Z" fill="black"/>
<path fill-rule="evenodd" clip-rule="evenodd" d="M9.88415 17.1453C9.88415 17.2755 9.98963 17.3809 10.1197 17.3809H11.8522C11.9823 17.3809 12.0878 17.2755 12.0878 17.1453V14.4206C12.0878 14.2905 12.1932 14.185 12.3234 14.185H14.5395C16.0908 14.185 17.3861 13.2887 17.9096 11.9923H19.3403V9.65948H17.9949C17.5376 8.24086 16.173 7.16553 14.5395 7.16553H10.1197C9.98963 7.16553 9.88415 7.27101 9.88415 7.40113V9.66449H8.34033V11.9873H9.88415V17.1453ZM12.3234 12.2149C12.1932 12.2149 12.0878 12.1094 12.0878 11.9793V9.37124C12.0878 9.24112 12.1932 9.13564 12.3234 9.13564H14.3935C15.3713 9.13564 16.0426 9.77775 16.0426 10.6242C16.0426 11.4706 15.3713 12.2149 14.3935 12.2149H12.3234Z" fill="black" fill-opacity="0.32"/>
</svg>
