<svg width="40" height="40" viewBox="0 0 40 40" fill="none" xmlns="http://www.w3.org/2000/svg">
<rect x="0.3" y="0.3" width="23.4" height="23.4" rx="4.5" fill="white"/>
<rect x="0.3" y="0.3" width="23.4" height="23.4" rx="4.5" stroke="#D8D8D8" stroke-width="0.6"/>
<path d="M15.1483 7.05029C14.0687 7.05231 13.0324 7.47499 12.2594 8.2286L12.6598 9.02622L12.495 9.16135C12.1348 8.52858 11.6154 8.00091 10.9884 7.63063C10.3615 7.26034 9.64864 7.06029 8.92056 7.05029C6.63975 7.05029 4.80061 9.04599 4.80061 11.3828V16.4174C4.79742 16.4615 4.80375 16.5058 4.81919 16.5472C4.83463 16.5886 4.8588 16.6263 4.89007 16.6575C4.92133 16.6888 4.95896 16.713 5.00039 16.7284C5.04183 16.7439 5.0861 16.7502 5.1302 16.747H6.77818C6.81826 16.7477 6.85807 16.7403 6.89525 16.7253C6.93243 16.7103 6.96623 16.688 6.99465 16.6598C7.02307 16.6315 7.04554 16.5978 7.06072 16.5607C7.07591 16.5236 7.08351 16.4839 7.08306 16.4438V11.3515C7.08306 10.1979 7.7851 9.2421 8.98318 9.2421C10.1038 9.2421 10.9014 10.0776 10.9014 11.3136V15.4945C10.898 15.5366 10.9034 15.5789 10.9171 15.6188C10.9309 15.6587 10.9528 15.6953 10.9815 15.7263C11.0101 15.7573 11.0449 15.782 11.0836 15.7988C11.1223 15.8156 11.1641 15.8243 11.2063 15.8241H12.7834C12.8256 15.8243 12.8673 15.8157 12.9059 15.7988C12.9445 15.7819 12.9792 15.7572 13.0077 15.7262C13.0363 15.6952 13.058 15.6586 13.0716 15.6187C13.0852 15.5788 13.0903 15.5365 13.0866 15.4945V11.307C13.0866 10.071 13.9238 9.23551 15.0444 9.23551C16.2409 9.23551 16.9067 10.1847 16.9067 11.3449V16.4372C16.9084 16.4787 16.9182 16.5196 16.9357 16.5573C16.9532 16.5951 16.978 16.629 17.0086 16.6571C17.0392 16.6853 17.0751 16.7072 17.1141 16.7214C17.1532 16.7357 17.1947 16.7422 17.2363 16.7404H18.8694C18.9135 16.7436 18.9578 16.7373 18.9992 16.7218C19.0407 16.7064 19.0783 16.6822 19.1095 16.6509C19.1408 16.6197 19.165 16.5821 19.1804 16.5406C19.1959 16.4992 19.2022 16.4549 19.199 16.4108V11.3828C19.1759 9.04599 17.4093 7.05029 15.1483 7.05029Z" fill="#161617"/>
<rect x="14.325" y="14.325" width="25.35" height="25.35" rx="4.875" fill="white"/>
<rect x="14.325" y="14.325" width="25.35" height="25.35" rx="4.875" stroke="#D8D8D8" stroke-width="0.65"/>
<g clip-path="url(#clip0_16326_6528)">
<path fill-rule="evenodd" clip-rule="evenodd" d="M30.8359 17.5622C32.0053 17.4207 32.9416 18.5155 32.6204 19.6488L32.3969 20.4375L34.1618 22.4351H36V28.4495L33.55 29.3271L32.1055 34.4643H27.3191V32.036H25.2116V34.4643H20.4656L19.3628 30.419L18.1654 25.7108C17.3172 22.3753 19.8376 19.1337 23.2793 19.1337H27.7499L27.7725 19.1057C28.4465 18.272 29.4187 17.7337 30.483 17.6049L30.8359 17.5622ZM31.034 19.1992L30.6811 19.2419C30.0425 19.3192 29.4592 19.6422 29.0548 20.1424L28.5372 20.7826H23.2793C20.9131 20.7826 19.1803 23.0112 19.7635 25.3044L20.9574 29.9989L21.7252 32.8154H23.5626V30.3871H28.968V32.8154H30.8563L32.1929 28.0617L34.3511 27.2886V24.084H33.4183L30.5649 20.8544L31.034 19.1992Z" fill="#161617"/>
<path fill-rule="evenodd" clip-rule="evenodd" d="M27.965 23.9702H23.4423V22.3213L27.965 22.3213V23.9702Z" fill="black" fill-opacity="0.32"/>
<path d="M31.6856 24.5152C31.6856 25.0408 31.2595 25.4669 30.7339 25.4669C30.2083 25.4669 29.7822 25.0408 29.7822 24.5152C29.7822 23.9896 30.2083 23.5635 30.7339 23.5635C31.2595 23.5635 31.6856 23.9896 31.6856 24.5152Z" fill="black" fill-opacity="0.32"/>
</g>
<defs>
<clipPath id="clip0_16326_6528">
<rect width="18" height="18" fill="white" transform="translate(18 16.7998)"/>
</clipPath>
</defs>
</svg>
