<svg width="21" height="20" viewBox="0 0 21 20" fill="none" xmlns="http://www.w3.org/2000/svg">
<path fill-rule="evenodd" clip-rule="evenodd" d="M20.0403 4.01123C20.0403 1.80209 18.2495 0.0112305 16.0403 0.0112305H4.1543C1.94517 0.0112305 0.154301 1.80209 0.1543 4.01123L0.154297 15.9888C0.154297 18.198 1.94516 19.9888 4.1543 19.9888H16.0403C18.2494 19.9888 20.0403 18.1979 20.0403 15.9888V4.01123ZM2.1543 15.9888L2.1543 4.01123C2.1543 2.90666 3.04973 2.01123 4.1543 2.01123H16.0403C17.1449 2.01123 18.0403 2.90666 18.0403 4.01123V15.9888C18.0403 16.6255 17.7428 17.1927 17.2793 17.5589C16.9048 15.3766 15.3627 13.6022 13.3072 12.6852C14.2438 11.8204 14.8304 10.5822 14.8304 9.20692C14.8304 6.59293 12.7113 4.47388 10.0973 4.47388C7.48332 4.47388 5.36426 6.59293 5.36426 9.20692C5.36426 10.5822 5.95078 11.8204 6.88733 12.6851C4.83188 13.6021 3.28976 15.3765 2.91522 17.5588C2.45173 17.1926 2.1543 16.6254 2.1543 15.9888ZM4.87422 17.9888H15.3203C14.9843 15.8186 12.8657 14.007 10.0972 14.007C7.32874 14.007 5.21018 15.8186 4.87422 17.9888ZM10.0973 11.94C11.6067 11.94 12.8304 10.7163 12.8304 9.20692C12.8304 7.6975 11.6067 6.47388 10.0973 6.47388C8.58788 6.47388 7.36426 7.6975 7.36426 9.20692C7.36426 10.7163 8.58788 11.94 10.0973 11.94Z" fill="black"/>
</svg>
