<svg width="17" height="17" viewBox="0 0 17 17" fill="none" xmlns="http://www.w3.org/2000/svg">
<path fill-rule="evenodd" clip-rule="evenodd" d="M3.55609 13.1647C3.10127 13.1647 2.73256 12.796 2.73256 12.3412V10.1059H1.39923V12.3412C1.39923 13.5324 2.36489 14.498 3.55609 14.498H5.78444V13.1647H3.55609ZM12.8869 13.1647C13.3417 13.1647 13.7104 12.796 13.7104 12.3412V10.1059H15.0438V12.3412C15.0438 13.5324 14.0781 14.498 12.8869 14.498H10.6585V13.1647H12.8869ZM8.88855 8.35315L8.88855 2.84596H7.55522V8.36825L5.75371 6.56674L4.8109 7.50955L7.74293 10.4416C8.00328 10.7019 8.42539 10.7019 8.68574 10.4416L11.6178 7.50955L10.675 6.56674L8.88855 8.35315Z" fill="black"/>
</svg>
