<svg width="24" height="25" viewBox="0 0 24 25" fill="none" xmlns="http://www.w3.org/2000/svg">
<path fill-rule="evenodd" clip-rule="evenodd" d="M4 12.5C4 16.9183 7.58172 20.5 12 20.5C16.4183 20.5 20 16.9183 20 12.5C20 8.08172 16.4183 4.5 12 4.5C7.58172 4.5 4 8.08172 4 12.5ZM12 22.5C6.47715 22.5 2 18.0228 2 12.5C2 6.97715 6.47715 2.5 12 2.5C17.5228 2.5 22 6.97715 22 12.5C22 18.0228 17.5228 22.5 12 22.5ZM12.02 8.50391C11.0291 8.50391 10.2227 9.30898 10.2227 10.2801V10.4888H8.22266V10.2801C8.22266 8.18471 9.94438 6.50391 12.02 6.50391C14.0724 6.50391 15.775 8.16591 15.775 10.2381C15.775 11.5011 15.1366 12.6785 14.0782 13.3676L12.7911 14.2054V14.9868H10.7911V13.121L12.987 11.6914C13.4785 11.3714 13.775 10.8246 13.775 10.2381C13.775 9.29018 12.9877 8.50391 12.02 8.50391ZM12.7949 16.501H10.7949V18.501H12.7949V16.501Z" fill="black"/>
</svg>
