<svg width="24" height="16" viewBox="0 0 24 16" fill="none" xmlns="http://www.w3.org/2000/svg">
<g clip-path="url(#clip0_25798_70299)">
<path d="M6.08587 0.655273C5.55569 0.655763 5.0467 0.859359 4.6675 1.22262L4.8638 1.60642L4.78097 1.67205C4.60398 1.36742 4.34894 1.11336 4.04106 0.935031C3.73318 0.756698 3.38315 0.660265 3.02559 0.655273C1.90564 0.655273 1.00016 1.61532 1.00016 2.74111V5.16513C0.999191 5.18584 1.00264 5.20651 1.01028 5.22584C1.01792 5.24516 1.02958 5.26272 1.04453 5.27737C1.05948 5.29203 1.07739 5.30347 1.0971 5.31096C1.11681 5.31845 1.13789 5.32183 1.15901 5.32088H1.97032C1.98998 5.32117 2.0095 5.31761 2.02774 5.31041C2.04597 5.30321 2.06255 5.2925 2.07651 5.27892C2.09046 5.26535 2.1015 5.24917 2.10899 5.23135C2.11648 5.21353 2.12026 5.19442 2.1201 5.17515V2.72776C2.1201 2.17154 2.46051 1.7121 3.05282 1.7121C3.60315 1.7121 3.99575 2.1148 3.99575 2.7133V4.72572C3.99435 4.74568 3.99716 4.76571 4.004 4.78456C4.01084 4.80342 4.02157 4.82069 4.03551 4.8353C4.04946 4.84991 4.06632 4.86155 4.08505 4.86949C4.10379 4.87743 4.12399 4.88151 4.1444 4.88146H4.9194C4.93985 4.8815 4.9601 4.87742 4.97889 4.86949C4.99768 4.86157 5.01461 4.84994 5.02865 4.83535C5.04268 4.82076 5.05352 4.8035 5.06049 4.78465C5.06746 4.76579 5.07042 4.74574 5.06918 4.72572V2.7044C5.06918 2.11035 5.4788 1.7032 6.03026 1.7032C6.61803 1.7032 6.94483 2.16041 6.94483 2.71886V5.16625C6.9466 5.20589 6.96406 5.24329 6.99351 5.2705C7.02297 5.29771 7.06208 5.31259 7.10255 5.31198H7.90592C7.92704 5.31293 7.94813 5.30955 7.96784 5.30206C7.98755 5.29457 8.00545 5.28313 8.0204 5.26847C8.03535 5.25382 8.04702 5.23626 8.05466 5.21694C8.0623 5.19761 8.06575 5.17694 8.06478 5.15623V2.74111C8.06478 1.61532 7.19673 0.655273 6.08587 0.655273Z" fill="black"/>
<path d="M13.3481 0.746494H12.6105C12.5901 0.745279 12.5697 0.748177 12.5504 0.75501C12.5312 0.761844 12.5136 0.772467 12.4987 0.786226C12.4838 0.799984 12.472 0.816586 12.4639 0.835008C12.4558 0.85343 12.4517 0.873281 12.4517 0.893337V0.993457L12.7127 1.39616L12.6423 1.46513C12.4266 1.21576 12.1589 1.01448 11.8574 0.874804C11.5558 0.735127 11.2272 0.660278 10.8938 0.655273C10.2503 0.655273 9.63328 0.905855 9.17832 1.35189C8.72336 1.79793 8.46777 2.40289 8.46777 3.03368C8.46777 3.66448 8.72336 4.26944 9.17832 4.71548C9.63328 5.16151 10.2503 5.4121 10.8938 5.4121C11.2287 5.40836 11.559 5.33435 11.8624 5.19504C12.1657 5.05573 12.4352 4.85436 12.6525 4.60446L12.7127 4.65341L12.4517 5.07391V5.16513C12.4514 5.18567 12.4553 5.20606 12.4632 5.22509C12.471 5.24412 12.4827 5.26141 12.4975 5.27593C12.5123 5.29045 12.53 5.30191 12.5494 5.30963C12.5688 5.31735 12.5896 5.32118 12.6105 5.32088H13.3481C13.3692 5.32184 13.3902 5.31846 13.4099 5.31096C13.4295 5.30346 13.4474 5.292 13.4622 5.27733C13.4771 5.26265 13.4886 5.24509 13.4962 5.22576C13.5037 5.20644 13.507 5.18578 13.5058 5.16513V0.893337C13.5067 0.873143 13.5032 0.852994 13.4955 0.834249C13.4878 0.815505 13.476 0.798602 13.4611 0.784683C13.4461 0.770763 13.4283 0.760151 13.4088 0.753563C13.3893 0.746975 13.3686 0.744565 13.3481 0.746494ZM10.8938 4.38753C10.0904 4.38753 9.53212 3.83131 9.53212 3.04258C9.53212 2.25386 10.0915 1.67984 10.8938 1.67984C11.0783 1.67263 11.2623 1.70295 11.4343 1.76888C11.6062 1.83482 11.7624 1.93494 11.893 2.06295C12.0235 2.19096 12.1257 2.34408 12.1929 2.51268C12.2602 2.68128 12.2911 2.8617 12.2838 3.04258C12.2838 3.8302 11.7051 4.38753 10.8938 4.38753Z" fill="black"/>
<path d="M23.8764 0.746494H23.1389C23.1185 0.745279 23.098 0.748177 23.0788 0.75501C23.0595 0.761844 23.0419 0.772467 23.027 0.786226C23.0122 0.799984 23.0003 0.816586 22.9922 0.835008C22.9841 0.85343 22.98 0.873281 22.98 0.893337V0.993457L23.2421 1.39616L23.1706 1.46513C22.9551 1.21559 22.6874 1.0142 22.3858 0.874507C22.0842 0.734815 21.7556 0.660062 21.4221 0.655273C20.7787 0.655273 20.1616 0.905855 19.7066 1.35189C19.2517 1.79793 18.9961 2.40289 18.9961 3.03368C18.9961 3.66448 19.2517 4.26944 19.7066 4.71548C20.1616 5.16151 20.7787 5.4121 21.4221 5.4121C21.757 5.40836 22.0873 5.33435 22.3907 5.19504C22.6941 5.05573 22.9635 4.85436 23.1809 4.60446L23.2421 4.65341L22.98 5.07391V5.16513C22.9797 5.18567 22.9836 5.20606 22.9915 5.22509C22.9994 5.24412 23.011 5.26141 23.0259 5.27593C23.0407 5.29045 23.0583 5.30191 23.0777 5.30963C23.0971 5.31735 23.1179 5.32118 23.1389 5.32088H23.8764C23.8975 5.32183 23.9186 5.31845 23.9383 5.31096C23.9581 5.30347 23.976 5.29203 23.9909 5.27737C24.0059 5.26272 24.0175 5.24516 24.0252 5.22584C24.0328 5.20651 24.0363 5.18584 24.0353 5.16513V0.893337C24.036 0.873089 24.0323 0.852919 24.0245 0.834175C24.0166 0.815432 24.0048 0.798547 23.9898 0.784648C23.9747 0.770748 23.9568 0.760155 23.9373 0.753575C23.9178 0.746995 23.897 0.744582 23.8764 0.746494ZM21.4221 4.38753C20.6198 4.38753 20.0604 3.83131 20.0604 3.04258C20.0604 2.25386 20.621 1.67984 21.4221 1.67984C21.6066 1.67246 21.7907 1.70266 21.9628 1.76854C22.1348 1.83441 22.2911 1.93453 22.4217 2.06258C22.5523 2.19062 22.6544 2.34381 22.7216 2.51248C22.7888 2.68116 22.8196 2.86165 22.8121 3.04258C22.8166 3.8302 22.2391 4.38753 21.4266 4.38753H21.4221Z" fill="black"/>
<path d="M18.3962 0.746213H17.636C17.5146 0.746213 17.4499 0.810735 17.4499 0.874145V3.10683C17.4499 3.80211 16.9835 4.28713 16.2642 4.28713C15.6015 4.28713 15.1726 3.80211 15.1726 3.10683V0.874145C15.1726 0.810735 15.0705 0.746213 15.0046 0.746213H14.1979C14.1641 0.748544 14.1322 0.762771 14.1083 0.786276C14.0843 0.809781 14.0698 0.840985 14.0674 0.874145V3.09904C14.0674 4.28824 15.0183 5.32393 16.2687 5.32393C16.8337 5.3239 17.3795 5.12223 17.8039 4.75658L17.8459 4.79329L17.5055 5.23827V5.41182C17.5055 5.87014 16.8054 6.12601 16.3958 6.12601H16.1382C16.1174 6.12465 16.0965 6.12736 16.0768 6.13397C16.057 6.14057 16.0388 6.15096 16.0232 6.16451C16.0076 6.17806 15.9949 6.19452 15.9858 6.21292C15.9767 6.23133 15.9714 6.25132 15.9703 6.27174V7.00373C15.974 7.04454 15.9934 7.08242 16.0246 7.1097C16.0558 7.13697 16.0964 7.15158 16.1382 7.15057H16.4003C17.6485 7.15057 18.5653 6.43638 18.5653 5.09254V0.874145C18.5599 0.835315 18.5392 0.80012 18.5076 0.776178C18.4759 0.752235 18.4359 0.741471 18.3962 0.746213Z" fill="black"/>
<path d="M19.9197 8.30176H1.81254C1.60533 8.30176 1.40661 8.38246 1.26009 8.5261C1.11357 8.66975 1.03125 8.86457 1.03125 9.06772V12.1255C1.03125 13.1412 1.44282 14.1153 2.17541 14.8336C2.908 15.5518 3.9016 15.9553 4.93763 15.9553H19.9279C20.4598 15.987 20.9928 15.9116 21.494 15.7339C21.9951 15.5561 22.4539 15.2796 22.842 14.9216C23.2301 14.5635 23.5394 14.1313 23.7508 13.6517C23.9622 13.172 24.0713 12.6551 24.0713 12.1326C24.0713 11.61 23.9622 11.0931 23.7508 10.6134C23.5394 10.1338 23.2301 9.70163 22.842 9.34355C22.4539 8.98546 21.9951 8.70903 21.494 8.53125C20.9928 8.35348 20.4598 8.27812 19.9279 8.30982L19.9197 8.30176Z" fill="black"/>
<path d="M5.5874 10.375H6.76342C7.54881 10.375 7.96001 10.6814 7.96001 11.276C7.97387 11.4337 7.93662 11.5917 7.85356 11.7274C7.7705 11.8631 7.64586 11.9697 7.49741 12.0319C7.70379 12.0731 7.88771 12.1868 8.01456 12.3516C8.14141 12.5164 8.20244 12.721 8.18618 12.9268C8.18618 13.7896 7.38434 13.9105 6.93819 13.9105H5.5874V10.375ZM6.75315 11.8606C7.13967 11.8606 7.32882 11.7053 7.32882 11.3768C7.32882 11.0482 7.1335 10.893 6.75315 10.893H6.22475V11.8606H6.75315ZM6.94435 13.3763C7.35555 13.3763 7.54881 13.209 7.54881 12.8583C7.54881 12.5076 7.34321 12.3383 6.94435 12.3383H6.22475V13.3763H6.94435Z" fill="white"/>
<path d="M9.81731 10.375H10.613L11.9699 13.9105H11.2976L11.0036 13.1284H9.42666L9.13472 13.9105H8.4624L9.81731 10.375ZM10.8145 12.6104L10.2141 10.9978L9.61787 12.6104H10.8145Z" fill="white"/>
<path d="M12.3912 10.375H13.1581L14.8975 13.0579V10.375H15.5307V13.9105H14.7597L13.0265 11.2256V13.9105H12.3892L12.3912 10.375Z" fill="white"/>
<path d="M17.2067 12.3544H16.8942V13.9105H16.2568V10.375H16.8942V11.8102H17.1964L18.43 10.375H19.1743L17.7351 12.046L19.2606 13.9105H18.4588L17.2067 12.3544Z" fill="white"/>
</g>
<defs>
<clipPath id="clip0_25798_70299">
<rect width="24" height="16" fill="white"/>
</clipPath>
</defs>
</svg>
