<svg width="21" height="21" viewBox="0 0 21 21" fill="none" xmlns="http://www.w3.org/2000/svg">
<path d="M13.8939 5.95312L5.95271 13.8943L7.01154 14.9531L14.9527 7.01195M7.80565 6.21783C7.38443 6.21783 6.98045 6.38516 6.6826 6.68301C6.38475 6.98087 6.21742 7.38484 6.21742 7.80607C6.21742 8.22729 6.38475 8.63127 6.6826 8.92912C6.98045 9.22697 7.38443 9.3943 7.80565 9.3943C8.22688 9.3943 8.63085 9.22697 8.92871 8.92912C9.22656 8.63127 9.39389 8.22729 9.39389 7.80607C9.39389 7.38484 9.22656 6.98087 8.92871 6.68301C8.63085 6.38516 8.22688 6.21783 7.80565 6.21783ZM13.0998 11.5119C12.6785 11.5119 12.2746 11.6793 11.9767 11.9771C11.6789 12.275 11.5115 12.679 11.5115 13.1002C11.5115 13.5214 11.6789 13.9254 11.9767 14.2232C12.2746 14.5211 12.6785 14.6884 13.0998 14.6884C13.521 14.6884 13.925 14.5211 14.2228 14.2232C14.5207 13.9254 14.688 13.5214 14.688 13.1002C14.688 12.679 14.5207 12.275 14.2228 11.9771C13.925 11.6793 13.521 11.5119 13.0998 11.5119Z" fill="white" fill-opacity="0.8"/>
<path d="M10.452 20.4035C15.9403 20.4035 20.4054 15.9388 20.4054 10.451C20.4054 4.96465 15.9403 0.5 10.452 0.5C4.96366 0.5 0.5 4.96465 0.5 10.451C0.5 15.9388 4.96509 20.4035 10.4534 20.4035H10.452ZM10.452 2.73555C14.7064 2.73555 18.1693 6.19701 18.1693 10.4521C18.1693 14.7072 14.7075 18.1687 10.452 18.1687C6.19621 18.1687 2.73469 14.7072 2.73469 10.4521C2.73469 6.19701 6.1965 2.73555 10.452 2.73555Z" fill="white" fill-opacity="0.8"/>
</svg>
