<svg width="18" height="18" viewBox="0 0 18 18" fill="none" xmlns="http://www.w3.org/2000/svg">
<rect width="18" height="18" rx="9" fill="#B1B3B5"/>
<path d="M8.95898 4.41699C10.2064 4.41699 11.223 5.40529 11.2686 6.6416L11.2705 6.72754V7.33301H11.5C12.1902 7.33301 12.7498 7.8928 12.75 8.58301V11.9131C12.75 12.6031 12.1909 13.1625 11.501 13.1631L6.50098 13.166C5.81034 13.1664 5.24999 12.6066 5.25 11.916V8.58301C5.25018 7.89281 5.80977 7.33303 6.5 7.33301H6.64844V6.72754C6.64863 5.45137 7.68282 4.41719 8.95898 4.41699ZM8.95898 5.37207C8.23519 5.37226 7.64419 5.93914 7.60547 6.65332L7.60352 6.72754V7.33301H10.3154V6.72754C10.3152 5.97871 9.70786 5.37207 8.95898 5.37207Z" fill="#F9F9FA"/>
</svg>
