<svg width="33" height="33" viewBox="0 0 33 33" fill="none" xmlns="http://www.w3.org/2000/svg">
<g clip-path="url(#clip0_47199_139406)">
<path fill-rule="evenodd" clip-rule="evenodd" d="M24.5634 3.39337L15.0185 3.38477L5.18839 3.39343C2.7365 3.39559 0.75 5.38385 0.75 7.83574V21.1539C0.75 23.6073 2.73889 25.5962 5.19231 25.5962H24.5594C27.0128 25.5962 29.0017 23.6073 29.0017 21.1539V7.83567C29.0017 5.38382 27.0152 3.39558 24.5634 3.39337ZM3.71154 12.4784V21.1539C3.71154 21.9717 4.3745 22.6346 5.19231 22.6346H24.5594C25.3772 22.6346 26.0401 21.9717 26.0401 21.1539V12.4784H14.8758H3.71154ZM26.0401 9.51688H3.71154V7.83574C3.71154 7.01844 4.37371 6.35568 5.191 6.35496L24.5607 6.35491C25.378 6.35564 26.0401 7.01839 26.0401 7.83567V9.51688Z" fill="black"/>
<path d="M6.06805 14.851H13.1827V17.8073H6.06805V14.851Z" fill="black"/>
<rect x="3.71191" y="9.48828" width="22.3713" height="3.3" fill="black"/>
<rect x="6.0498" y="14.8516" width="7.5625" height="3.3" fill="black"/>
<path d="M29.975 15.9112C30.0187 15.7933 30.0411 15.6685 30.0411 15.5427C30.0411 15.2964 30.0167 14.9521 29.8861 14.5956C29.7274 14.1621 29.3674 13.9978 29.2887 13.9625C29.1606 13.9049 29.0422 13.8788 28.9747 13.8659C28.8308 13.8383 28.6781 13.8281 28.5551 13.8232C28.2967 13.8128 27.9797 13.8201 27.6857 13.8318C27.3857 13.8438 27.0816 13.8615 26.8422 13.8759C26.8203 13.8772 26.799 13.8785 26.7783 13.8797C26.6844 13.8853 26.6039 13.8902 26.5375 13.8938C26.5321 13.8941 26.5268 13.8944 26.5218 13.8947C25.7747 13.746 25.2435 14.0772 25.0028 14.2519C24.6966 14.4741 24.4842 14.7451 24.3463 14.9495L19.3805 22.3049L20.2596 22.8984L19.3805 22.3049C19.0491 22.7958 18.6445 23.7614 19.1807 24.7686C19.7163 25.7746 20.7418 25.9788 21.3331 25.9788H23.0651V29.1534C23.0651 29.3997 23.0896 29.744 23.2201 30.1006L24.2095 29.7383L23.2201 30.1006C23.3381 30.4227 23.6836 31.1063 24.5285 31.3623C25.3711 31.6176 26.0366 31.2431 26.3124 31.0429C26.6186 30.8207 26.831 30.5497 26.969 30.3453L31.9348 22.9899C32.2662 22.499 32.6708 21.5334 32.1346 20.5262L31.1983 21.0247L32.1346 20.5262C31.599 19.5202 30.5735 19.316 29.9821 19.316H28.7136L29.975 15.9112ZM27.511 22.9851L26.7343 24.1356C26.7322 23.6982 26.5771 23.2969 26.3198 22.9827C26.3515 22.9843 26.3834 22.9851 26.4155 22.9851H27.511ZM24.581 21.1592C24.583 21.5966 24.7381 21.9979 24.9955 22.3121C24.9638 22.3105 24.9318 22.3097 24.8997 22.3097H23.8043L24.581 21.1592Z" fill="white" stroke="white" stroke-width="2.12143" stroke-linecap="round" stroke-linejoin="round"/>
<path fill-rule="evenodd" clip-rule="evenodd" d="M27.1432 15.9579C27.2082 16.1355 27.2257 16.3241 27.2257 16.4901V20.3599H29.7774C30.1531 20.3599 30.6424 20.4894 30.8886 20.952C31.1352 21.4151 30.9689 21.8935 30.7583 22.2054L26.221 28.9261C26.1279 29.064 26.0079 29.2105 25.8551 29.3214C25.7114 29.4257 25.4243 29.5758 25.0754 29.4701C24.7257 29.3641 24.5703 29.0789 24.509 28.9115C24.444 28.7339 24.4265 28.5453 24.4265 28.3793V24.5095H21.8748C21.4991 24.5095 21.0099 24.38 20.7636 23.9174C20.5171 23.4544 20.6834 22.9759 20.8939 22.664L25.4312 15.9434C25.5243 15.8054 25.6443 15.6589 25.7971 15.548C25.9408 15.4438 26.2279 15.2936 26.5768 15.3994C26.9265 15.5053 27.0819 15.7905 27.1432 15.9579Z" fill="#00A651"/>
</g>
<defs>
<clipPath id="clip0_47199_139406">
<rect width="33" height="33" fill="white"/>
</clipPath>
</defs>
</svg>
