<svg width="25" height="24" viewBox="0 0 25 24" fill="none" xmlns="http://www.w3.org/2000/svg">
    <path fill-rule="evenodd" clip-rule="evenodd" d="M19.4291 13C19.4758 12.6734 19.5 12.3395 19.5 12C19.5 8.13401 16.366 5 12.5 5C10.1213 5 8.01964 6.18652 6.75469 8H4.43552C5.90822 5.03656 8.96628 3 12.5 3C17.4706 3 21.5 7.02944 21.5 12C21.5 12.338 21.4814 12.6717 21.4451 13H19.4291ZM17.399 17C16.1364 18.2372 14.4073 19 12.5 19C8.63401 19 5.5 15.866 5.5 12C5.5 11.6605 5.52417 11.3266 5.57089 11H3.55493C3.51863 11.3283 3.5 11.662 3.5 12C3.5 16.9706 7.52944 21 12.5 21C15.6204 21 18.3699 19.412 19.9845 17H17.399Z" fill="white"/>
    <rect x="4.74219" y="9" width="2" height="6" transform="rotate(45 4.74219 9)" fill="white"/>
    <rect x="20.25" y="15.6562" width="2" height="6" transform="rotate(-135 20.25 15.6562)" fill="white"/>
    <rect x="4.74219" y="9" width="6" height="2" transform="rotate(45 4.74219 9)" fill="white"/>
    <rect x="20.25" y="15.6562" width="6" height="2" transform="rotate(-135 20.25 15.6562)" fill="white"/>
</svg>

