<svg width="24" height="24" viewBox="0 0 24 24" fill="none" xmlns="http://www.w3.org/2000/svg">
<path fill-rule="evenodd" clip-rule="evenodd" d="M15.3368 5L16.8368 7.65217H19.6906C19.7614 7.65242 19.8363 7.68084 19.897 7.74259C19.9588 7.80551 19.9997 7.89877 20 8.00225L20.0001 18.6508C19.9997 18.7543 19.9589 18.8467 19.897 18.9096C19.8364 18.9713 19.7608 18.9997 19.69 19L4.30933 19C4.23857 18.9997 4.16374 18.9713 4.10308 18.9096C4.04119 18.8466 4.00033 18.7535 4.00005 18.6499L4 8.00158C4.00029 7.89803 4.04115 7.80555 4.10303 7.74259C4.16373 7.68084 4.23861 7.65242 4.3094 7.65217H7.16655L8.6666 5L15.3368 5ZM21.3233 6.34062C20.8907 5.90047 20.3041 5.65289 19.6923 5.65217H18.0033L17.0777 4.01544C16.7228 3.38795 16.0577 3 15.3368 3H8.6666C7.94573 3 7.28064 3.38793 6.92576 4.01539L6 5.65217H4.30769C3.69587 5.65289 3.10931 5.90047 2.67668 6.34062C2.24406 6.78077 2.0007 7.37754 2 8L2.00005 18.6522C2.00075 19.2746 2.24411 19.8714 2.67673 20.3116C3.10936 20.7517 3.69592 20.9993 4.30774 21H19.6924C20.3042 20.9993 20.8907 20.7517 21.3234 20.3116C21.756 19.8714 21.9994 19.2746 22.0001 18.6522L22 8C21.9993 7.37754 21.7559 6.78077 21.3233 6.34062ZM10.6397 10.8766C11.0439 10.6018 11.5173 10.4562 12 10.4561C12.6471 10.4569 13.271 10.7187 13.734 11.1897C14.1975 11.6613 14.4613 12.3042 14.4621 12.9784C14.462 13.4808 14.3155 13.9704 14.0429 14.3854C13.7704 14.8004 13.3848 15.1212 12.9369 15.3099C12.4893 15.4986 11.9977 15.5477 11.5236 15.4517C11.0495 15.3558 10.6115 15.1185 10.2661 14.7671C9.92052 14.4155 9.68328 13.9654 9.587 13.473C9.4907 12.9804 9.54027 12.4701 9.72874 12.0072C9.91715 11.5444 10.2351 11.1516 10.6397 10.8766ZM12.0006 8.45605C11.1143 8.45605 10.2494 8.72353 9.51528 9.22257C8.78138 9.72147 8.21196 10.4287 7.87638 11.253C7.54086 12.0771 7.45333 12.983 7.62416 13.8567C7.79501 14.7306 8.21712 15.5356 8.83975 16.169C9.46256 16.8027 10.2582 17.2362 11.1269 17.412C11.9958 17.5878 12.8963 17.4974 13.7136 17.153C14.5308 16.8086 15.2264 16.2266 15.7146 15.4833C16.2027 14.7402 16.4621 13.8683 16.4621 12.9778L16.4621 12.9767C16.4608 11.7837 15.9946 10.6365 15.1603 9.78772C14.3255 8.93838 13.1899 8.45741 12.0017 8.45605H12.0006Z" fill="black"/>
</svg>
