<svg width="24" height="24" viewBox="0 0 24 24" fill="none" xmlns="http://www.w3.org/2000/svg">
<path fill-rule="evenodd" clip-rule="evenodd" d="M7.35931 14.774H5.78133L4.59803 10.2597C4.54187 10.052 4.42262 9.86846 4.2472 9.78194C3.80943 9.5645 3.32703 9.39145 2.80078 9.30417V9.13037H5.34278C5.69362 9.13037 5.95674 9.39145 6.0006 9.69466L6.61456 12.951L8.19177 9.13037H9.72589L7.35931 14.774ZM10.6034 14.774H9.11316L10.3403 9.13037H11.8306L10.6034 14.774ZM13.7576 10.6936C13.8014 10.3897 14.0646 10.2159 14.3715 10.2159C14.8539 10.1722 15.3794 10.2595 15.818 10.4762L16.0811 9.26108C15.6425 9.08728 15.1601 9 14.7224 9C13.2759 9 12.2234 9.78173 12.2234 10.8667C12.2234 11.692 12.969 12.1254 13.4952 12.3865C14.0646 12.6468 14.2838 12.8206 14.24 13.081C14.24 13.4714 13.8014 13.6452 13.3637 13.6452C12.8374 13.6452 12.3112 13.5151 11.8295 13.2976L11.5664 14.5135C12.0927 14.7302 12.662 14.8175 13.1882 14.8175C14.8101 14.8604 15.818 14.0794 15.818 12.9072C15.818 11.431 13.7576 11.3444 13.7576 10.6936V10.6936ZM21.0347 14.774L19.8514 9.13037H18.5804C18.3173 9.13037 18.0541 9.30417 17.9664 9.5645L15.7753 14.774H17.3094L17.6156 13.9494H19.5006L19.676 14.774H21.0347ZM18.7993 10.6509L19.237 12.7779H18.0099L18.7993 10.6509Z" fill="#172B85"/>
</svg>
