<svg width="41" height="40" viewBox="0 0 41 40" fill="none" xmlns="http://www.w3.org/2000/svg">
<path fill-rule="evenodd" clip-rule="evenodd" d="M5.69527 29.843L5.69527 26.3118L12.7789 19.2284C13.0554 18.9529 13.4304 18.7975 13.8208 18.7975C14.2114 18.7975 14.5861 18.9525 14.8627 19.2284L14.8746 19.2403L27.3316 31.1764H7.02861C6.29223 31.1764 5.69527 30.5794 5.69527 29.843ZM10.4246 16.8686L5.69528 21.5978L5.69528 10.1569C5.69528 9.42052 6.29223 8.82357 7.02861 8.82357H33.9011C34.6753 8.82357 35.3029 9.45117 35.3029 10.2254V23.2172L32.924 20.8383C32.0733 19.9895 30.9206 19.5129 29.7189 19.5129C28.5172 19.5129 27.3645 19.9895 26.5138 20.8383L23.9922 23.36L17.2038 16.8555C16.3036 15.9644 15.0879 15.4642 13.8208 15.4642C12.5474 15.4642 11.326 15.9693 10.4246 16.8686ZM26.3995 25.6667L32.1496 31.1764H33.9696C34.706 31.1764 35.3029 30.5794 35.3029 29.843V27.9312L30.5697 23.198C30.3439 22.973 30.0377 22.8462 29.7189 22.8462C29.4002 22.8462 29.0939 22.9731 28.8681 23.198L26.3995 25.6667ZM38.6363 10.2254C38.6363 7.61022 36.5163 5.49023 33.9011 5.49023H7.02861C4.45129 5.49023 2.36195 7.57957 2.36195 10.1569L2.36194 29.843C2.36194 32.4204 4.45128 34.5097 7.02861 34.5097H33.9696C36.5469 34.5097 38.6363 32.4204 38.6363 29.843V10.2254ZM26.2064 12.0853C24.8256 12.0853 23.7063 13.2046 23.7063 14.5853C23.7063 15.9661 24.8256 17.0854 26.2064 17.0854C27.5871 17.0854 28.7064 15.9661 28.7064 14.5853C28.7064 13.2046 27.5871 12.0853 26.2064 12.0853Z" fill="white"/>
</svg>
