<svg width="18" height="18" viewBox="0 0 18 18" fill="none" xmlns="http://www.w3.org/2000/svg">
<g clip-path="url(#clip0_18655_10029)">
<circle cx="9" cy="9" r="8.25" fill="#00A651" stroke="white" stroke-width="1.5"/>
<g clip-path="url(#clip1_18655_10029)">
<path fill-rule="evenodd" clip-rule="evenodd" d="M7.03803 7.236L6.96021 10.347L9.83016 7.47708L10.5308 8.17771L7.67199 11.0365L10.7612 10.9592L10.7358 11.9755L6.40897 12.0837C6.12834 12.0907 5.90653 11.8689 5.91355 11.5883L6.02178 7.26142L7.03803 7.236ZM11.943 7.23283C11.6176 7.55827 11.0899 7.55827 10.7645 7.23283C10.439 6.90739 10.439 6.37976 10.7645 6.05432C11.0899 5.72888 11.6176 5.72888 11.943 6.05432C12.2684 6.37976 12.2684 6.90739 11.943 7.23283Z" fill="white"/>
</g>
</g>
<defs>
<clipPath id="clip0_18655_10029">
<rect width="18" height="18" fill="white"/>
</clipPath>
<clipPath id="clip1_18655_10029">
<rect width="10" height="10" fill="white" transform="translate(4 4)"/>
</clipPath>
</defs>
</svg>
