<svg width="32" height="24" viewBox="0 0 32 24" fill="none" xmlns="http://www.w3.org/2000/svg">
<rect x="0.32641" y="1.2362" width="31.3471" height="21.5511" rx="2.28572" fill="white" stroke="#B1B3B5" stroke-width="0.653064"/>
<rect x="0.653198" y="10.7065" width="30.694" height="4.57144" fill="#ECEDEF"/>
<rect x="0.653198" y="4.83154" width="30.694" height="4.57144" fill="#B1B3B5"/>
<path d="M31.021 12.9905C31.021 14.0235 30.4093 14.9951 29.346 15.7226C28.2843 16.4491 26.7994 16.9089 25.1434 16.9089C23.4874 16.9089 22.0026 16.4491 20.9409 15.7226C19.8776 14.9951 19.2659 14.0235 19.2659 12.9905C19.2659 11.9575 19.8776 10.9859 20.9409 10.2584C22.0026 9.53196 23.4874 9.07214 25.1434 9.07214C26.7994 9.07214 28.2843 9.53196 29.346 10.2584C30.4093 10.9859 31.021 11.9575 31.021 12.9905Z" fill="#F9F9FA" stroke="#FC737A" stroke-width="0.653064"/>
<path d="M22.4969 15.0972V12.3954H21.6924V11.8972H23.0227V15.0972H22.4969ZM23.5662 15.0972V14.7315L24.8737 13.3463C24.9971 13.2092 25.1251 13.0629 25.1342 12.8617C25.1434 12.56 24.9148 12.3314 24.5994 12.3314C24.2702 12.3314 24.0462 12.5783 24.0325 12.8846H23.5068C23.5251 12.2126 24.0371 11.856 24.5994 11.856C25.1388 11.856 25.66 12.1852 25.66 12.848C25.66 13.1497 25.5137 13.392 25.2531 13.6663L24.38 14.5897H25.6828L25.6782 15.0972H23.5662ZM27.1979 15.1337C26.5808 15.1337 26.0734 14.6812 26.0551 14.1052H26.5899C26.6082 14.4297 26.8596 14.6583 27.1979 14.6583C27.5636 14.6583 27.7922 14.4252 27.7922 14.1235C27.7922 13.6983 27.3808 13.4423 26.7911 13.5657L26.6036 13.3234L27.6002 12.3954H26.1374V11.8972H28.2356L28.2402 12.4777L27.4494 13.1954C27.9294 13.2457 28.3179 13.5474 28.3179 14.1052C28.3179 14.7955 27.7511 15.1337 27.1979 15.1337Z" fill="#808080"/>
</svg>
