<svg width="24" height="24" viewBox="0 0 24 24" fill="none" xmlns="http://www.w3.org/2000/svg">
<path fill-rule="evenodd" clip-rule="evenodd" d="M19.3965 18.2958C19.9488 18.2958 20.3965 17.8481 20.3965 17.2958L20.3965 10.0448L3.60645 10.0448L3.60645 17.2958C3.60645 17.8481 4.05416 18.2958 4.60645 18.2958L19.3965 18.2958ZM20.3965 6.70313V8.04485L3.60645 8.04484L3.60645 6.70313C3.60645 6.15084 4.05416 5.70313 4.60645 5.70313L19.3965 5.70313C19.9488 5.70313 20.3965 6.15084 20.3965 6.70313ZM22.3965 17.2958C22.3965 18.9527 21.0534 20.2958 19.3965 20.2958L4.60645 20.2958C2.94959 20.2958 1.60645 18.9527 1.60645 17.2958V6.70313C1.60645 5.04627 2.94959 3.70312 4.60645 3.70312H19.3965C21.0534 3.70312 22.3965 5.04627 22.3965 6.70313L22.3965 17.2958ZM5.50003 11.9999H10.0178L10.0178 13.9999L5.50003 13.9999V11.9999Z" fill="black"/>
</svg>
