<svg width="20" height="20" viewBox="0 0 20 20" fill="none" xmlns="http://www.w3.org/2000/svg">
<path fill-rule="evenodd" clip-rule="evenodd" d="M16.8912 0.382812H16.8513H14.8533H3.10742C1.45057 0.382812 0.107422 1.72596 0.107422 3.38281V16.9211C0.107422 18.578 1.45057 19.9211 3.10742 19.9211H13.8513C15.5082 19.9211 16.8513 18.578 16.8513 16.9211V11.8997H19.8912V3.38281C19.8912 1.72596 18.548 0.382812 16.8912 0.382812ZM14.8513 2.38281L3.10742 2.38281C2.55514 2.38281 2.10742 2.83053 2.10742 3.38281L2.10742 16.9211C2.10742 17.4734 2.55514 17.9211 3.10742 17.9211H13.8513C14.4036 17.9211 14.8513 17.4734 14.8513 16.9211L14.8513 2.38281ZM12.4553 7.3332H4.50367V5.0332H12.4553V7.3332ZM4.50367 11.8054H12.4553V9.50537H4.50367V11.8054Z" fill="black"/>
</svg>
