<svg width="22" height="15" viewBox="0 0 22 15" fill="none" xmlns="http://www.w3.org/2000/svg">
<path d="M15.9848 2.26028e-07C14.3886 -0.000437498 12.8557 0.634911 11.714 1.77011L12.333 2.96698L12.0792 3.17486C11.5428 2.22918 10.7741 1.44165 9.84855 0.889476C8.92296 0.337307 7.87226 0.0394697 6.79947 0.0251933C3.43233 0.0251933 0.708889 3.02368 0.708889 6.5387V14.0979C0.706266 14.1623 0.716806 14.2266 0.739829 14.2866C0.762852 14.3467 0.797871 14.4012 0.842661 14.4468C0.887452 14.4924 0.941035 14.528 1.00005 14.5515C1.05906 14.5749 1.12221 14.5856 1.1855 14.5829H3.6304C3.68944 14.5829 3.74789 14.571 3.80236 14.5478C3.85684 14.5246 3.90623 14.4907 3.9477 14.4479C3.98916 14.4051 4.02189 14.3543 4.04392 14.2986C4.06595 14.2428 4.07685 14.1832 4.07603 14.1231V6.45681C4.07603 4.7119 5.11587 3.30715 6.88609 3.30715C8.53871 3.30715 9.72094 4.56701 9.72094 6.42531V12.7246C9.71672 12.7871 9.72507 12.8498 9.74549 12.9088C9.76591 12.9679 9.79799 13.0221 9.83971 13.0681C9.88143 13.1141 9.93193 13.1509 9.98814 13.1764C10.0444 13.2018 10.1051 13.2153 10.1666 13.216H12.5001C12.5616 13.2153 12.6223 13.2018 12.6785 13.1764C12.7347 13.1509 12.7852 13.1141 12.827 13.0681C12.8687 13.0221 12.9007 12.9679 12.9212 12.9088C12.9416 12.8498 12.9499 12.7871 12.9457 12.7246V6.42531C12.9183 6.02302 12.9732 5.61931 13.1068 5.23969C13.2405 4.86006 13.45 4.51277 13.7222 4.21975C13.9944 3.92672 14.3234 3.69434 14.6883 3.53726C15.0533 3.38018 15.4463 3.30182 15.8425 3.30715C17.6065 3.30715 18.5906 4.73709 18.5906 6.45681V14.1105C18.5955 14.2352 18.648 14.3532 18.737 14.4391C18.8261 14.525 18.9446 14.5721 19.0672 14.5703H21.4812C21.5447 14.574 21.6083 14.5639 21.6677 14.5409C21.7272 14.5178 21.7812 14.4822 21.8262 14.4364C21.8711 14.3906 21.9061 14.3357 21.9288 14.2751C21.9515 14.2146 21.9614 14.1499 21.9578 14.0853V6.5261C21.933 2.99848 19.3581 2.26028e-07 15.9848 2.26028e-07Z" fill="#00A651"/>
</svg>
