<svg width="24" height="20" viewBox="0 0 24 20" fill="none" xmlns="http://www.w3.org/2000/svg">
<path fill-rule="evenodd" clip-rule="evenodd" d="M0.977609 6.14537C0.308133 6.52086 0.293826 7.47942 0.951798 7.87473L4.38563 9.93779L4.38578 17.4348C4.3858 18.6292 5.35413 19.5976 6.54862 19.5976L17.4057 19.5977C18.6002 19.5977 19.5686 18.6293 19.5686 17.4348L19.5685 9.96621L21.5365 8.78387V13.4612H23.5365V6.98778H23.5342C23.5245 6.65684 23.3537 6.33035 23.0239 6.14537L13.4683 0.785812C12.5567 0.274521 11.4447 0.274521 10.5332 0.785812L0.977609 6.14537ZM3.45801 7.04726L11.4857 11.8703C11.8027 12.0608 12.1988 12.0608 12.5157 11.8703L20.5435 7.04726L12.4899 2.53017C12.1861 2.35974 11.8154 2.35974 11.5115 2.53017L3.45801 7.04726ZM17.4057 11.2657L13.5457 13.5847C12.5949 14.156 11.4065 14.156 10.4557 13.5847L6.54852 11.2373L6.54864 17.4347L17.4057 17.4348L17.4057 11.2657Z" fill="black"/>
</svg>
