<svg width="16" height="16" viewBox="0 0 16 16" fill="none" xmlns="http://www.w3.org/2000/svg">
<path d="M7.51685 10.0879C7.77716 10.3482 8.19887 10.3481 8.45923 10.0879L11.3918 7.15625L10.4485 6.21289L8.66235 8V2.49219H7.32935V8.01465L5.52759 6.21289L4.58521 7.15625L7.51685 10.0879ZM5.55786 12.8115H3.33032C2.8755 12.8115 2.5061 12.4421 2.5061 11.9873V9.75195H1.1731V11.9873C1.1731 13.1785 2.13912 14.1445 3.33032 14.1445H5.55786V12.8115ZM12.6604 14.1445C13.8516 14.1445 14.8176 13.1785 14.8176 11.9873V9.75195H13.4846V11.9873C13.4846 12.4421 13.1152 12.8115 12.6604 12.8115H10.4329V14.1445H12.6604Z" fill="#00A651"/>
</svg>
