<svg width="17" height="17" viewBox="0 0 17 17" fill="none" xmlns="http://www.w3.org/2000/svg">
<path fill-rule="evenodd" clip-rule="evenodd" d="M13.2348 2.48438H13.2083H11.8762L4.04565 2.48438C2.94109 2.48437 2.04565 3.37981 2.04565 4.48437L2.04565 13.5099C2.04565 14.6145 2.94109 15.5099 4.04565 15.5099H11.2083C12.3128 15.5099 13.2083 14.6145 13.2083 13.5099V10.1623H15.2348V4.48438C15.2348 3.37981 14.3394 2.48438 13.2348 2.48438ZM11.8749 3.81771L4.04565 3.81771C3.67746 3.81771 3.37899 4.11619 3.37899 4.48437L3.37899 13.5099C3.37899 13.8781 3.67746 14.1766 4.04565 14.1766L11.2083 14.1766C11.5765 14.1766 11.8749 13.8781 11.8749 13.5099L11.8749 3.81771ZM10.2776 7.11667H4.97649V5.58333H10.2776V7.11667ZM4.97649 10.101H10.2776V8.56771H4.97649V10.101Z" fill="white"/>
</svg>
