<svg width="12" height="13" viewBox="0 0 12 13" fill="none" xmlns="http://www.w3.org/2000/svg">
<path d="M2.66667 2C2.66667 0.895431 3.5621 0 4.66667 0H10C11.1046 0 12 0.895431 12 2V8C12 9.10469 11.1043 10 9.99981 10H8.82051V8.66667H9.99981C10.3681 8.66667 10.6667 8.36807 10.6667 8V2C10.6667 1.63181 10.3682 1.33333 10 1.33333H4.66667C4.29848 1.33333 4 1.63181 4 2L4.00001 3.80952L2.66667 3.80953L2.66667 2Z" fill="#00A651"/>
<path d="M1.42828 4.06258C1.37851 4.1214 1.33333 4.22194 1.33333 4.35294V10.9804C1.33333 11.1114 1.37851 11.2119 1.42828 11.2708C1.47684 11.3281 1.51502 11.3333 1.52935 11.3333H7.80398C7.81831 11.3333 7.85649 11.3281 7.90505 11.2708C7.95482 11.2119 8 11.1114 8 10.9804V4.35294C8 4.22194 7.95482 4.1214 7.90505 4.06258C7.85649 4.00519 7.81831 4 7.80398 4H1.52935C1.51502 4 1.47684 4.00519 1.42828 4.06258ZM0 4.35294C0 3.53042 0.584624 2.66667 1.52935 2.66667H7.80398C8.74871 2.66667 9.33333 3.53042 9.33333 4.35294V10.9804C9.33333 11.8029 8.74871 12.6667 7.80398 12.6667H1.52935C0.584625 12.6667 0 11.8029 0 10.9804V4.35294Z" fill="#00A651"/>
</svg>
