<svg width="41" height="41" viewBox="0 0 41 41" fill="none" xmlns="http://www.w3.org/2000/svg">
<g clip-path="url(#clip0_46370_24438)">
<rect x="0.327515" y="0.359375" width="40" height="40" rx="20" fill="#F4F5F5"/>
<path fill-rule="evenodd" clip-rule="evenodd" d="M14.0431 12.1367H26.6182C26.9442 12.1394 27.2606 12.2467 27.5209 12.4428C27.7813 12.6389 27.9718 12.9135 28.0643 13.226L28.0667 13.2343L29.275 17.4759C29.2997 17.5548 29.313 17.6386 29.313 17.7256V19.0843C29.313 20.0261 28.9389 20.9292 28.273 21.5951C28.172 21.6961 28.0655 21.7904 27.9543 21.8777V27.2368C27.9543 27.638 27.7949 28.0227 27.5112 28.3064C27.2275 28.5901 26.8428 28.7495 26.4416 28.7495H14.213C13.8119 28.7495 13.4271 28.5901 13.1434 28.3064C12.8597 28.0227 12.7003 27.638 12.7003 27.2368V21.8777C12.5891 21.7904 12.4826 21.6961 12.3816 21.5951C11.7157 20.9292 11.3416 20.0261 11.3416 19.0843V17.7348C11.3413 17.7064 11.3424 17.6779 11.345 17.6494C11.3503 17.5913 11.3615 17.5349 11.3781 17.4808L12.5902 13.226C12.6827 12.9135 12.8732 12.6389 13.1336 12.4428C13.3934 12.2471 13.7091 12.1399 14.0343 12.1368L14.0431 12.1367ZM26.6213 20.7612C26.6736 20.722 26.7306 20.6888 26.7913 20.6626C26.8998 20.5919 27.0015 20.5096 27.0945 20.4166C27.4479 20.0633 27.6464 19.584 27.6464 19.0843V18.5589H23.8781V19.0843C23.8781 19.584 24.0766 20.0633 24.43 20.4166C24.7833 20.7699 25.2625 20.9685 25.7622 20.9685C26.0638 20.9685 26.3578 20.8962 26.6213 20.7612ZM23.2515 21.5951C23.1791 21.5227 23.1101 21.4475 23.0448 21.3698C22.9794 21.4475 22.9104 21.5227 22.8381 21.5951C22.1722 22.261 21.269 22.6351 20.3273 22.6351C19.3855 22.6351 18.4824 22.261 17.8165 21.5951C17.7441 21.5228 17.6752 21.4476 17.6098 21.3699C17.5445 21.4476 17.4755 21.5228 17.4032 21.5951C16.7373 22.261 15.8341 22.6351 14.8924 22.6351C14.7155 22.6351 14.5399 22.6219 14.367 22.5961V27.0828H26.2876V22.5961C26.1147 22.6219 25.9392 22.6351 25.7622 22.6351C24.8205 22.6351 23.9174 22.261 23.2515 21.5951ZM22.2114 18.5589H18.4432V19.0843L18.4432 19.0933C18.4455 19.5898 18.6438 20.0654 18.995 20.4166C19.3483 20.7699 19.8276 20.9685 20.3273 20.9685C20.827 20.9685 21.3062 20.7699 21.6595 20.4166C22.0129 20.0633 22.2114 19.584 22.2114 19.0843V18.5589ZM16.7765 18.5589H13.0083V19.0843C13.0083 19.584 13.2068 20.0633 13.5601 20.4166C13.6531 20.5096 13.7548 20.5919 13.8633 20.6626C13.9241 20.6888 13.9811 20.722 14.0333 20.7612C14.2968 20.8962 14.5909 20.9685 14.8924 20.9685C15.3921 20.9685 15.8713 20.7699 16.2247 20.4166C16.5759 20.0654 16.7741 19.5898 16.7765 19.0933L16.7765 19.0843V18.5589Z" fill="#B1B3B5"/>
</g>
<defs>
<clipPath id="clip0_46370_24438">
<rect x="0.327515" y="0.359375" width="40" height="40" rx="20" fill="white"/>
</clipPath>
</defs>
</svg>
