<svg width="21" height="21" viewBox="0 0 21 21" fill="none" xmlns="http://www.w3.org/2000/svg">
<path fill-rule="evenodd" clip-rule="evenodd" d="M3.50844 15.2437L3.74754 15.619L4.00596 15.9813L4.28298 16.3296L4.57785 16.6629L4.88976 16.9803L5.21786 17.2809L5.56124 17.564L5.91896 17.8287L6.29005 18.0743L6.67348 18.3002L7.0682 18.5056L7.47314 18.6902L7.88719 18.8533L8.3092 18.9945L8.73802 19.1134L9.17248 19.2097L9.61139 19.2832L10.0535 19.3335L10.4977 19.3607L10.9427 19.3646L11.3873 19.3452L11.8302 19.3025L12.2704 19.2368L12.7064 19.148L13.1373 19.0366L13.5617 18.9028L13.9785 18.747L14.3866 18.5695L14.7849 18.3709L15.1722 18.1518L15.5475 17.9127L15.9098 17.6543L16.258 17.3773L16.5913 17.0824L16.9087 16.7705L17.2094 16.4424L17.4924 16.099L17.7571 15.7413L18.0028 15.3702L18.2286 14.9868L18.4341 14.592L18.6186 14.1871L18.7817 13.7731L18.9229 13.351L19.0419 12.9222L19.1382 12.4878L19.2116 12.0489L19.262 11.6067L19.2892 11.1625L19.2931 10.7175L19.2736 10.273L19.255 10.0793C19.0821 9.01048 18.3641 8.20528 17.1994 8.20528C15.9379 8.20528 14.9954 9.15303 14.9954 10.555V15.305C14.9996 15.3526 14.9938 15.4005 14.9785 15.4458C14.9632 15.491 14.9387 15.5326 14.9066 15.5678C14.8745 15.6029 14.8354 15.631 14.792 15.6501C14.7485 15.6692 14.7015 15.679 14.6541 15.6788H12.8787C12.8312 15.679 12.7841 15.6692 12.7406 15.6501C12.697 15.631 12.6579 15.603 12.6256 15.5678C12.5933 15.5327 12.5687 15.4912 12.5532 15.4459C12.5376 15.4007 12.5316 15.3527 12.5355 15.305V10.5625C12.5355 9.16051 11.6376 8.21276 10.376 8.21276C9.02732 8.21276 8.23701 9.29696 8.23701 10.6055V16.3817C8.23752 16.4272 8.22896 16.4723 8.21187 16.5144C8.19478 16.5564 8.16948 16.5946 8.13749 16.6267C8.10549 16.6588 8.06744 16.684 8.02559 16.701C7.98373 16.718 7.93892 16.7264 7.8938 16.7257H6.03862C5.98898 16.7293 5.93914 16.7221 5.89249 16.7046C5.84585 16.6871 5.80349 16.6596 5.76829 16.6242C5.7331 16.5887 5.70588 16.546 5.68851 16.499C5.67113 16.452 5.664 16.4018 5.66759 16.3518V10.641C5.66759 7.99031 7.73797 5.72656 10.3055 5.72656C11.1252 5.73791 11.9276 5.96482 12.6334 6.38484C13.3392 6.80486 13.9239 7.4034 14.3294 8.12116L14.5149 7.96788L14.0641 7.06313C14.9344 6.2083 16.101 5.72885 17.3163 5.72656C17.4014 5.72656 17.4859 5.72909 17.5697 5.73409L17.3057 5.4022L17.0109 5.06891L16.699 4.7515L16.3709 4.45086L16.0275 4.1678L15.6698 3.9031L15.2987 3.65748L14.9152 3.43163L14.5205 3.22614L14.1156 3.0416L13.7015 2.87851L13.2795 2.7373L12.8507 2.61838L12.4162 2.52206L11.9773 2.44861L11.5352 2.39824L11.091 2.37107L10.646 2.36719L10.2014 2.3866L9.75847 2.42925L9.31835 2.49503L8.88227 2.58375L8.45144 2.69517L8.02703 2.82899L7.6102 2.98483L7.2021 3.16228L6.80385 3.36084L6.41654 3.57997L6.04122 3.81907L5.67893 4.07749L5.33066 4.35452L4.99737 4.64939L4.67997 4.9613L4.37933 5.28939L4.09627 5.63277L3.83157 5.99049L3.58595 6.36158L3.36009 6.74501L3.15461 7.13974L2.97007 7.54468L2.80697 7.95872L2.66577 8.38073L2.54685 8.80956L2.45053 9.24401L2.37708 9.68292L2.32671 10.1251L2.29954 10.5692L2.29565 11.0142L2.31507 11.4588L2.35772 11.9018L2.42349 12.3419L2.51221 12.778L2.62364 13.2088L2.75745 13.6332L2.9133 14.05L3.09074 14.4581L3.28931 14.8564L3.50844 15.2437Z" fill="url(#paint0_linear_47780_118394)"/>
<defs>
<linearGradient id="paint0_linear_47780_118394" x1="-2.31232" y1="11.9039" x2="20.464" y2="13.1692" gradientUnits="userSpaceOnUse">
<stop stop-color="white"/>
<stop offset="1" stop-color="#999999"/>
</linearGradient>
</defs>
</svg>
