<svg width="21" height="21" viewBox="0 0 21 21" fill="none" xmlns="http://www.w3.org/2000/svg">
<path fill-rule="evenodd" clip-rule="evenodd" d="M2.75844 15.0757L2.99754 15.4511L3.25596 15.8133L3.53298 16.1616L3.82785 16.4949L4.13976 16.8123L4.46786 17.113L4.81124 17.396L5.16896 17.6607L5.54005 17.9063L5.92348 18.1322L6.3182 18.3377L6.72314 18.5222L7.13719 18.6853L7.5592 18.8265L7.98802 18.9454L8.42248 19.0417L8.86139 19.1152L9.30353 19.1656L9.74771 19.1927L10.1927 19.1966L10.6373 19.1772L11.0802 19.1346L11.5204 19.0688L11.9564 18.9801L12.3873 18.8686L12.8117 18.7348L13.2285 18.579L13.6366 18.4015L14.0349 18.203L14.4222 17.9838L14.7975 17.7447L15.1598 17.4863L15.508 17.2093L15.8413 16.9144L16.1587 16.6025L16.4594 16.2744L16.7424 15.931L17.0071 15.5733L17.2528 15.2022L17.4786 14.8188L17.6841 14.4241L17.8686 14.0191L18.0317 13.6051L18.1729 13.1831L18.2919 12.7543L18.3882 12.3198L18.4616 11.8809L18.512 11.4387L18.5392 10.9946L18.5431 10.5496L18.5236 10.105L18.505 9.91133C18.3321 8.84251 17.6141 8.03731 16.4494 8.03731C15.1879 8.03731 14.2454 8.98506 14.2454 10.387V15.137C14.2496 15.1846 14.2438 15.2326 14.2285 15.2778C14.2132 15.3231 14.1887 15.3646 14.1566 15.3998C14.1245 15.435 14.0854 15.463 14.042 15.4821C13.9985 15.5013 13.9515 15.511 13.9041 15.5109H12.1287C12.0812 15.511 12.0341 15.5012 11.9906 15.4821C11.947 15.463 11.9079 15.435 11.8756 15.3999C11.8433 15.3647 11.8187 15.3232 11.8032 15.278C11.7876 15.2327 11.7816 15.1847 11.7855 15.137V10.3945C11.7855 8.99254 10.8876 8.04479 9.62604 8.04479C8.27732 8.04479 7.48701 9.12899 7.48701 10.4375V16.2137C7.48752 16.2592 7.47896 16.3043 7.46187 16.3464C7.44478 16.3885 7.41948 16.4267 7.38749 16.4587C7.35549 16.4908 7.31744 16.5161 7.27559 16.5331C7.23373 16.5501 7.18892 16.5584 7.1438 16.5577H5.28862C5.23898 16.5613 5.18914 16.5541 5.14249 16.5366C5.09585 16.5191 5.05349 16.4917 5.01829 16.4562C4.9831 16.4207 4.95588 16.3781 4.93851 16.3311C4.92113 16.2841 4.914 16.2338 4.91759 16.1838V10.473C4.91759 7.82234 6.98797 5.55859 9.55554 5.55859C10.3752 5.56994 11.1776 5.79685 11.8834 6.21687C12.5892 6.63689 13.1739 7.23543 13.5794 7.95319L13.7649 7.79991L13.3141 6.89516C14.1844 6.04033 15.351 5.56088 16.5663 5.55859C16.6514 5.55859 16.7359 5.56113 16.8197 5.56612L16.5557 5.23423L16.2609 4.90094L15.949 4.58354L15.6209 4.28289L15.2775 3.99983L14.9198 3.73513L14.5487 3.48951L14.1652 3.26366L13.7705 3.05818L13.3656 2.87363L12.9515 2.71054L12.5295 2.56933L12.1007 2.45041L11.6662 2.35409L11.2273 2.28065L10.7852 2.23027L10.341 2.2031L9.89601 2.19922L9.45143 2.21863L9.00847 2.26128L8.56835 2.32706L8.13227 2.41578L7.70144 2.5272L7.27703 2.66102L6.8602 2.81686L6.4521 2.99431L6.05385 3.19287L5.66654 3.412L5.29122 3.6511L4.92893 3.90952L4.58066 4.18655L4.24737 4.48142L3.92997 4.79333L3.62933 5.12142L3.34627 5.4648L3.08157 5.82252L2.83595 6.19361L2.61009 6.57704L2.40461 6.97177L2.22007 7.37671L2.05697 7.79075L1.91577 8.21276L1.79685 8.64159L1.70053 9.07605L1.62708 9.51495L1.57671 9.9571L1.54954 10.4013L1.54565 10.8463L1.56507 11.2909L1.60772 11.7338L1.67349 12.1739L1.76221 12.61L1.87364 13.0408L2.00745 13.4653L2.1633 13.8821L2.34074 14.2902L2.53931 14.6884L2.75844 15.0757Z" fill="url(#paint0_linear_47780_118408)"/>
<defs>
<linearGradient id="paint0_linear_47780_118408" x1="-6.84538" y1="0.970377" x2="20.9965" y2="13.304" gradientUnits="userSpaceOnUse">
<stop stop-color="#28C480"/>
<stop offset="1" stop-color="#135E3D"/>
</linearGradient>
</defs>
</svg>
