<svg width="21" height="21" viewBox="0 0 21 21" fill="none" xmlns="http://www.w3.org/2000/svg">
<path fill-rule="evenodd" clip-rule="evenodd" d="M2.73866 14.5132L2.97776 14.8886L3.23618 15.2508L3.51321 15.5991L3.80808 15.9324L4.11999 16.2498L4.44808 16.5505L4.79146 16.8335L5.14918 17.0982L5.52027 17.3438L5.9037 17.5697L6.29843 17.7752L6.70337 17.9597L7.11741 18.1228L7.53942 18.264L7.96825 18.3829L8.40271 18.4792L8.84161 18.5527L9.28376 18.6031L9.72794 18.6302L10.1729 18.6341L10.6175 18.6147L11.0605 18.5721L11.5006 18.5063L11.9367 18.4176L12.3675 18.3061L12.7919 18.1723L13.2087 18.0165L13.6168 17.839L14.0151 17.6405L14.4024 17.4213L14.7777 17.1822L15.14 16.9238L15.4883 16.6468L15.8216 16.3519L16.139 16.04L16.4396 15.7119L16.7227 15.3685L16.9874 15.0108L17.233 14.6397L17.4588 14.2563L17.6643 13.8616L17.8489 13.4566L18.012 13.0426L18.1532 12.6206L18.2721 12.1918L18.3684 11.7573L18.4419 11.3184L18.4922 10.8762L18.5194 10.4321L18.5233 9.98708L18.5039 9.54249L18.4852 9.34883C18.3123 8.28001 17.5943 7.47481 16.4296 7.47481C15.1681 7.47481 14.2257 8.42256 14.2257 9.82455V14.5745C14.2298 14.6221 14.224 14.6701 14.2087 14.7153C14.1934 14.7606 14.1689 14.8021 14.1368 14.8373C14.1047 14.8725 14.0657 14.9005 14.0222 14.9196C13.9787 14.9388 13.9317 14.9485 13.8843 14.9484H12.1089C12.0614 14.9485 12.0144 14.9387 11.9708 14.9196C11.9272 14.9005 11.8881 14.8725 11.8558 14.8374C11.8236 14.8022 11.7989 14.7607 11.7834 14.7155C11.7679 14.6702 11.7618 14.6222 11.7657 14.5745V9.83203C11.7657 8.43004 10.8678 7.48229 9.60626 7.48229C8.25755 7.48229 7.46724 8.56649 7.46724 9.87502V15.6512C7.46774 15.6967 7.45919 15.7418 7.4421 15.7839C7.425 15.826 7.39971 15.8642 7.36771 15.8962C7.33572 15.9283 7.29767 15.9536 7.25581 15.9706C7.21396 15.9876 7.16915 15.9959 7.12403 15.9952H5.26885C5.2192 15.9988 5.16936 15.9916 5.12272 15.9741C5.07607 15.9566 5.03372 15.9292 4.99852 15.8937C4.96332 15.8582 4.93611 15.8156 4.91873 15.7686C4.90135 15.7216 4.89422 15.6713 4.89781 15.6213V9.91054C4.89781 7.25984 6.96819 4.99609 9.53576 4.99609C10.3554 5.00744 11.1578 5.23435 11.8636 5.65437C12.5694 6.07439 13.1541 6.67293 13.5597 7.39069L13.7452 7.23741L13.2944 6.33266C14.1646 5.47783 15.3312 4.99838 16.5465 4.99609C16.6316 4.99609 16.7161 4.99863 16.8 5.00362L16.536 4.67173L16.2411 4.33844L15.9292 4.02104L15.6011 3.72039L15.2577 3.43733L14.9 3.17263L14.5289 2.92701L14.1455 2.70116L13.7507 2.49568L13.3458 2.31113L12.9318 2.14804L12.5097 2.00683L12.0809 1.88791L11.6465 1.79159L11.2076 1.71815L10.7654 1.66777L10.3212 1.6406L9.87624 1.63672L9.43165 1.65613L8.98869 1.69878L8.54857 1.76456L8.1125 1.85328L7.68166 1.9647L7.25725 2.09852L6.84043 2.25436L6.43233 2.43181L6.03407 2.63037L5.64676 2.8495L5.27144 3.0886L4.90916 3.34702L4.56089 3.62405L4.2276 3.91892L3.9102 4.23083L3.60955 4.55892L3.32649 4.9023L3.06179 5.26002L2.81617 5.63111L2.59032 6.01454L2.38484 6.40927L2.20029 6.81421L2.0372 7.22825L1.89599 7.65026L1.77707 8.07909L1.68075 8.51355L1.60731 8.95245L1.55693 9.3946L1.52976 9.83878L1.52588 10.2838L1.54529 10.7284L1.58794 11.1713L1.65372 11.6114L1.74244 12.0475L1.85386 12.4783L1.98768 12.9028L2.14352 13.3196L2.32097 13.7277L2.51953 14.1259L2.73866 14.5132Z" fill="url(#paint0_linear_47780_119238)"/>
<defs>
<linearGradient id="paint0_linear_47780_119238" x1="18.5233" y1="17.348" x2="2.80023" y2="2.18782" gradientUnits="userSpaceOnUse">
<stop/>
<stop offset="1" stop-opacity="0.56"/>
</linearGradient>
</defs>
</svg>
