<svg width="24" height="24" viewBox="0 0 24 24" fill="none" xmlns="http://www.w3.org/2000/svg">
<g opacity="0.5">
<path d="M12.2949 1.73438L12.8281 1.7666L13.3584 1.82715L13.8848 1.91504L14.4062 2.03125L14.9209 2.17383L15.4277 2.34277L15.9238 2.53906L16.4102 2.75977L16.8838 3.00684L17.3438 3.27832L17.7891 3.57227L18.2188 3.89062L18.6309 4.22949L19.0244 4.59082L19.3984 4.97168L19.752 5.37109L20.0703 5.77051C19.9696 5.7645 19.8679 5.76172 19.7656 5.76172C18.3074 5.76453 16.9075 6.3396 15.8633 7.36523L16.4043 8.45117L16.1816 8.63477C15.695 7.77364 14.9933 7.05571 14.1465 6.55176C13.2995 6.04774 12.3361 5.77533 11.3525 5.76172C8.27166 5.76198 5.78711 8.4785 5.78711 11.6592V18.5117C5.78281 18.5717 5.7917 18.6321 5.8125 18.6885C5.83335 18.7449 5.86598 18.7963 5.9082 18.8389C5.95044 18.8814 6.00164 18.9145 6.05762 18.9355C6.11341 18.9564 6.17306 18.9652 6.23242 18.9609H8.45898C8.5131 18.9618 8.56699 18.951 8.61719 18.9307C8.66725 18.9103 8.71268 18.8801 8.75098 18.8418C8.78937 18.8033 8.82031 18.7575 8.84082 18.707C8.8613 18.6566 8.8717 18.6024 8.87109 18.5479V11.6162C8.87118 10.0461 9.81917 8.74516 11.4375 8.74512C12.9512 8.74512 14.0291 9.88227 14.0293 11.5645V17.2559C14.0247 17.313 14.0313 17.3706 14.0498 17.4248C14.0684 17.479 14.0981 17.5291 14.1367 17.5713C14.1754 17.6135 14.2231 17.647 14.2754 17.6699C14.3275 17.6927 14.3836 17.7042 14.4404 17.7041H16.5713C16.6281 17.7043 16.6842 17.6928 16.7363 17.6699C16.7884 17.647 16.8355 17.6134 16.874 17.5713C16.9126 17.5291 16.9426 17.4791 16.9609 17.4248C16.9793 17.3705 16.9854 17.313 16.9805 17.2559V11.5557C16.9806 9.87338 18.1122 8.73633 19.626 8.73633C21.0256 8.73649 21.8861 9.70576 22.0918 10.9912L22.1143 11.2168L22.1367 11.75L22.1328 12.2842L22.0996 12.8174L22.0391 13.3477L21.9512 13.874L21.8359 14.3955L21.6934 14.9102L21.5234 15.417L21.3281 15.9131L21.1064 16.3994L20.8594 16.873L20.5889 17.333L20.2939 17.7783L19.9766 18.208L19.6367 18.6201L19.2764 19.0137L18.8955 19.3877L18.4951 19.7412L18.0771 20.0742L17.6426 20.3838L17.1924 20.6709L16.7275 20.9336L16.249 21.1719L15.7598 21.3848L15.2598 21.5723L14.75 21.7324L14.2334 21.8662L13.71 21.9727L13.1816 22.0518L12.6504 22.1035L12.1162 22.126L11.583 22.1221L11.0498 22.0889L10.5195 22.0283L9.99219 21.9404L9.4707 21.8252L8.95605 21.6826L8.4502 21.5127L7.95312 21.3174L7.46777 21.0957L6.99316 20.8486L6.5332 20.5781L6.08789 20.2832L5.65918 19.9658L5.24707 19.626L4.85352 19.2656L4.47852 18.8848L4.125 18.4844L3.79297 18.0664L3.48242 17.6318L3.19531 17.1816L2.93262 16.7168L2.69434 16.2383L2.48145 15.749L2.29395 15.249L2.13379 14.7393L2 14.2227L1.89355 13.6992L1.81445 13.1709L1.76367 12.6396L1.74023 12.1055L1.74512 11.5723L1.77734 11.0391L1.83789 10.5088L1.92578 9.98145L2.04199 9.45996L2.18457 8.94531L2.35352 8.43945L2.5498 7.94238L2.77051 7.45703L3.01758 6.98242L3.28906 6.52246L3.58301 6.07715L3.90137 5.64844L4.24023 5.23633L4.60156 4.84277L4.98242 4.46777L5.38184 4.11426L5.7998 3.78223L6.23535 3.47168L6.68555 3.18457L7.15039 2.92188L7.62793 2.68359L8.11816 2.4707L8.61816 2.2832L9.12695 2.12305L9.64453 1.98926L10.167 1.88281L10.6953 1.80371L11.2275 1.75293L11.7607 1.72949L12.2949 1.73438Z" fill="url(#paint0_linear_75087_161461)"/>
</g>
<defs>
<linearGradient id="paint0_linear_75087_161461" x1="-8.3288" y1="0.254912" x2="25.0808" y2="15.055" gradientUnits="userSpaceOnUse">
<stop stop-color="#28C480"/>
<stop offset="1" stop-color="#135E3D"/>
</linearGradient>
</defs>
</svg>
