<svg width="35" height="36" viewBox="0 0 35 36" fill="none" xmlns="http://www.w3.org/2000/svg">
<path fill-rule="evenodd" clip-rule="evenodd" d="M12.9148 8.09753C8.84045 9.15942 5.83319 12.864 5.83319 17.2708C5.83319 17.7171 5.86402 18.1561 5.92369 18.586C5.86261 19.1176 5.83202 19.6523 5.83209 20.1875C5.83209 22.6575 6.4785 24.9767 7.61135 26.9849C4.75092 24.7141 2.91656 21.2067 2.91656 17.2708C2.91656 10.4248 8.46632 4.875 15.3124 4.875C17.4939 4.875 19.5438 5.43855 21.3244 6.42799C20.7811 6.36416 20.2345 6.3322 19.6874 6.33229C17.2275 6.33229 14.9173 6.97329 12.9148 8.09753ZM19.6874 29.6667C24.9225 29.6667 29.1666 25.4227 29.1666 20.1875C29.1666 14.9523 24.9225 10.7083 19.6874 10.7083C14.4522 10.7083 10.2082 14.9523 10.2082 20.1875C10.2082 25.4227 14.4522 29.6667 19.6874 29.6667ZM19.6874 32.5833C26.5334 32.5833 32.0832 27.0336 32.0832 20.1875C32.0832 13.3414 26.5334 7.79169 19.6874 7.79169C12.8413 7.79169 7.29156 13.3414 7.29156 20.1875C7.29156 27.0336 12.8413 32.5833 19.6874 32.5833Z" fill="white"/>
<path d="M15.625 20.5L24.375 20.5" stroke="white" stroke-width="3.15126" stroke-linecap="round"/>
<path d="M20 16.125V24.875" stroke="white" stroke-width="3.15126" stroke-linecap="round"/>
</svg>
