<svg width="25" height="25" viewBox="0 0 25 25" fill="none" xmlns="http://www.w3.org/2000/svg">
<path fill-rule="evenodd" clip-rule="evenodd" d="M12.3496 2.07422C7.37905 2.07422 3.34961 6.10366 3.34961 11.0742C3.34961 16.0448 7.37905 20.0742 12.3496 20.0742C14.1804 20.0742 15.8836 19.5276 17.3047 18.5885L20.7354 22.5309L22.4705 21.021L19.0467 17.0867C20.4785 15.493 21.3496 13.3853 21.3496 11.0742C21.3496 6.10366 17.3202 2.07422 12.3496 2.07422ZM5.64961 11.0742C5.64961 7.37391 8.6493 4.37422 12.3496 4.37422C16.0499 4.37422 19.0496 7.37391 19.0496 11.0742C19.0496 14.7745 16.0499 17.7742 12.3496 17.7742C8.6493 17.7742 5.64961 14.7745 5.64961 11.0742Z" fill="black"/>
</svg>
