<svg width="16" height="16" viewBox="0 0 16 16" fill="none" xmlns="http://www.w3.org/2000/svg">
<path fill-rule="evenodd" clip-rule="evenodd" d="M15.4209 9.57453C15.7597 9.65221 16 9.95573 16 10.3058V11.75C16 12.9926 15.0005 14 13.7674 14H2.23255C0.999535 14 -1.78749e-05 12.9926 2.39743e-10 11.75L2.10261e-05 10.2851C2.63046e-05 9.91765 0.264243 9.6043 0.624104 9.54499L0.674811 9.53657L0.796525 9.51611C0.889851 9.50026 0.988083 9.48319 1.04257 9.47274C1.37517 9.40003 1.67328 9.21513 1.88757 8.94849C2.10324 8.68015 2.22092 8.34529 2.22092 7.99996C2.22092 7.65463 2.10324 7.31977 1.88757 7.05143C1.67311 6.78458 1.37469 6.5996 1.04177 6.52701C0.969703 6.51282 0.855874 6.48858 0.764597 6.46892L0.638944 6.44169L0.586167 6.43016C0.244179 6.35511 1.15337e-05 6.04998 2.14253e-05 5.69724L6.21893e-05 4.24994C9.71425e-05 3.00732 0.999637 2 2.23262 2L13.7674 2C15.0004 2 16 3.00736 16 4.25001V5.71422C16 6.07906 15.7395 6.39097 15.3828 6.45322L14.9515 6.52849C14.6213 6.60209 14.3255 6.78638 14.1124 7.05143C13.8968 7.31977 13.7791 7.65463 13.7791 7.99996C13.7791 8.34529 13.8968 8.68015 14.1124 8.94849C14.3269 9.21537 14.6254 9.40037 14.9584 9.47294C15.0336 9.48781 15.1503 9.51352 15.2411 9.53384C15.2901 9.54479 15.3349 9.55493 15.3675 9.56233L15.4209 9.57453ZM6.51162 12.5H13.7674C14.1784 12.5 14.5116 12.1642 14.5116 11.75V10.9071C13.9006 10.7442 13.3553 10.3896 12.9559 9.8926C12.5255 9.35716 12.2907 8.68901 12.2907 7.99996C12.2907 7.31091 12.5255 6.64276 12.9559 6.10732C13.3553 5.61036 13.9006 5.2557 14.5116 5.09286V4.25001C14.5116 3.83579 14.1784 3.5 13.7674 3.5L6.51162 3.5V12.5Z" fill="black"/>
<rect x="4" y="3.5" width="3" height="9" fill="#00A651"/>
</svg>
