<svg width="25" height="26" viewBox="0 0 25 26" fill="none" xmlns="http://www.w3.org/2000/svg">
<path d="M3.3125 4.96094C3.3125 3.84413 3.75615 2.77306 4.54586 1.98336C5.33556 1.19365 6.40663 0.75 7.52344 0.75C9.02866 0.75 10.3915 1.39312 11.4588 2.6365C11.8712 3.12548 12.2183 3.65733 12.5 4.23206C12.7807 3.65631 13.1278 3.12344 13.5413 2.63344C14.607 1.39312 15.9698 0.75 17.4766 0.75C18.1973 0.749866 18.9061 0.934748 19.535 1.28695C20.1638 1.63914 20.6918 2.14687 21.0682 2.76151C21.4447 3.37616 21.6571 4.07715 21.6851 4.79739C21.7131 5.51762 21.5558 6.23299 21.2281 6.875H22.0703C23.5495 6.875 24.75 8.0755 24.75 9.55469V12.6172C24.75 13.686 24.1237 14.6093 23.2188 15.0396V22.5703C23.2188 23.281 22.9364 23.9626 22.4339 24.4651C21.9313 24.9677 21.2498 25.25 20.5391 25.25H4.46094C3.75024 25.25 3.06865 24.9677 2.56611 24.4651C2.06357 23.9626 1.78125 23.281 1.78125 22.5703V15.0396C0.876281 14.6078 0.25 13.686 0.25 12.6172V9.55469C0.25 8.0755 1.4505 6.875 2.92969 6.875H3.77187C3.47787 6.30078 3.3125 5.65 3.3125 4.96094ZM11.3516 15.2969H4.07812V22.5703C4.07812 22.7816 4.24962 22.9531 4.46094 22.9531H11.3516V15.2969ZM13.6484 15.2969V22.9531H20.5391C20.6406 22.9531 20.738 22.9128 20.8098 22.841C20.8815 22.7692 20.9219 22.6718 20.9219 22.5703V15.2969H13.6484ZM13.6484 9.17188V13H22.0703C22.1718 13 22.2692 12.9597 22.341 12.8879C22.4128 12.8161 22.4531 12.7187 22.4531 12.6172V9.55469C22.4531 9.45316 22.4128 9.35579 22.341 9.284C22.2692 9.21221 22.1718 9.17188 22.0703 9.17188H13.6484ZM2.92969 9.17188C2.82816 9.17188 2.73079 9.21221 2.659 9.284C2.58721 9.35579 2.54688 9.45316 2.54688 9.55469V12.6172C2.54688 12.8285 2.71837 13 2.92969 13H11.3516V9.17188H2.92969ZM7.52344 3.04688C7.0158 3.04688 6.52895 3.24853 6.16999 3.60749C5.81103 3.96645 5.60938 4.4533 5.60938 4.96094C5.60938 5.46858 5.81103 5.95543 6.16999 6.31438C6.52895 6.67334 7.0158 6.875 7.52344 6.875H11.0591C10.7023 5.62244 10.2292 4.72972 9.71466 4.12947C9.05622 3.36078 8.31356 3.04688 7.52344 3.04688ZM13.9409 6.875H17.4766C17.9842 6.875 18.4711 6.67334 18.83 6.31438C19.189 5.95543 19.3906 5.46858 19.3906 4.96094C19.3906 4.4533 19.189 3.96645 18.83 3.60749C18.4711 3.24853 17.9842 3.04688 17.4766 3.04688C16.6864 3.04688 15.9453 3.36078 15.2869 4.12947C14.7708 4.72972 14.2977 5.62244 13.9409 6.875Z" fill="white"/>
</svg>
