<svg width="41" height="40" viewBox="0 0 41 40" fill="none" xmlns="http://www.w3.org/2000/svg">
<path fill-rule="evenodd" clip-rule="evenodd" d="M38.5 20C38.5 29.9411 30.4411 38 20.5 38C10.5589 38 2.5 29.9411 2.5 20C2.5 10.0589 10.5589 2 20.5 2C30.4411 2 38.5 10.0589 38.5 20ZM40.5 20C40.5 31.0457 31.5457 40 20.5 40C9.4543 40 0.5 31.0457 0.5 20C0.5 8.9543 9.4543 0 20.5 0C31.5457 0 40.5 8.9543 40.5 20ZM19.5 13C19.5 12.4477 19.9477 12 20.5 12C21.0523 12 21.5 12.4477 21.5 13V23C21.5 23.5523 21.0523 24 20.5 24C19.9477 24 19.5 23.5523 19.5 23V13ZM19.5 27C19.5 26.4477 19.9477 26 20.5 26C21.0523 26 21.5 26.4477 21.5 27C21.5 27.5523 21.0523 28 20.5 28C19.9477 28 19.5 27.5523 19.5 27Z" fill="#EC6C6C"/>
</svg>
