<svg width="24" height="24" viewBox="0 0 24 24" fill="none" xmlns="http://www.w3.org/2000/svg">
<path fill-rule="evenodd" clip-rule="evenodd" d="M4 2H20C21.1046 2 22 2.89543 22 4V20C22 21.1046 21.1046 22 20 22H4C2.89543 22 2 21.1046 2 20V4C2 2.89543 2.89543 2 4 2ZM0 4C0 1.79086 1.79086 0 4 0H20C22.2091 0 24 1.79086 24 4V20C24 22.2091 22.2091 24 20 24H4C1.79086 24 0 22.2091 0 20V4ZM6 7C6 6.44772 6.44772 6 7 6H17C17.5523 6 18 6.44772 18 7C18 7.55228 17.5523 8 17 8H7C6.44771 8 6 7.55228 6 7ZM6.62404 13.584C6.32717 13.7819 6.32717 14.2181 6.62404 14.416L11.2227 17.4818C11.5549 17.7033 12 17.4651 12 17.0658V15H17C17.5523 15 18 14.5523 18 14C18 13.4477 17.5523 13 17 13H12V10.9343C12 10.5349 11.5549 10.2967 11.2227 10.5182L6.62404 13.584Z" fill="#A3A5AB"/>
</svg>
