<svg width="24" height="24" viewBox="0 0 24 24" fill="none" xmlns="http://www.w3.org/2000/svg">
<rect x="1" y="1" width="22" height="22" rx="3" stroke="#A3A5AB" stroke-width="2"/>
<rect x="6" y="6" width="12" height="2" rx="1" fill="#A3A5AB"/>
<path d="M9.94559 18.1C9.28559 18.1 8.72225 17.9633 8.25559 17.69C7.79559 17.41 7.47892 17.01 7.30559 16.49L8.60559 15.92C8.73892 16.6333 9.17892 16.99 9.92559 16.99C10.2589 16.99 10.5189 16.9033 10.7056 16.73C10.8989 16.55 10.9956 16.3133 10.9956 16.02C10.9956 15.46 10.6489 15.18 9.95559 15.18C9.79559 15.18 9.62892 15.19 9.45559 15.21V14.2C9.55559 14.2133 9.66892 14.22 9.79559 14.22C10.1689 14.22 10.4356 14.1433 10.5956 13.99C10.7623 13.8367 10.8456 13.5967 10.8456 13.27C10.8456 12.9967 10.7623 12.7867 10.5956 12.64C10.4289 12.4867 10.1989 12.41 9.90559 12.41C9.58559 12.41 9.33225 12.49 9.14559 12.65C8.95892 12.81 8.82892 13.0467 8.75559 13.36L7.52559 12.9C7.64559 12.4 7.92892 12.0067 8.37559 11.72C8.82225 11.4333 9.35559 11.29 9.97559 11.29C10.7089 11.29 11.2656 11.4567 11.6456 11.79C12.0256 12.1233 12.2156 12.55 12.2156 13.07C12.2156 13.43 12.1456 13.7233 12.0056 13.95C11.8656 14.1767 11.6989 14.3467 11.5056 14.46C11.3123 14.5733 11.1356 14.64 10.9756 14.66V14.69C11.1756 14.6967 11.3823 14.75 11.5956 14.85C11.8089 14.95 11.9889 15.1033 12.1356 15.31C12.2823 15.5167 12.3556 15.78 12.3556 16.1C12.3556 16.5067 12.2489 16.86 12.0356 17.16C11.8289 17.46 11.5456 17.6933 11.1856 17.86C10.8256 18.02 10.4123 18.1 9.94559 18.1ZM14.8343 18V13.82C14.8343 13.6667 14.8343 13.51 14.8343 13.35C14.8409 13.1833 14.8476 13.0133 14.8543 12.84C14.6276 13.0533 14.3743 13.2367 14.0943 13.39C13.8143 13.5367 13.5276 13.64 13.2343 13.7L13.0543 12.54C13.2009 12.52 13.3709 12.4733 13.5643 12.4C13.7576 12.3267 13.9509 12.2367 14.1443 12.13C14.3443 12.0233 14.5243 11.9067 14.6843 11.78C14.8509 11.6533 14.9776 11.5267 15.0643 11.4H16.1843V18H14.8343Z" fill="#A3A5AB"/>
</svg>
