<svg width="24" height="24" viewBox="0 0 24 24" fill="none" xmlns="http://www.w3.org/2000/svg">
<rect x="1" y="1" width="22" height="22" rx="3" stroke="#A3A5AB" stroke-width="2"/>
<rect x="6" y="6" width="12" height="2" rx="1" fill="#A3A5AB"/>
<path d="M9.92121 18.1C9.07454 18.1 8.42121 17.8133 7.96121 17.24C7.50788 16.66 7.28121 15.8133 7.28121 14.7C7.28121 13.5867 7.50788 12.7433 7.96121 12.17C8.42121 11.59 9.07454 11.3 9.92121 11.3C10.7679 11.3 11.4179 11.59 11.8712 12.17C12.3312 12.7433 12.5612 13.5867 12.5612 14.7C12.5612 15.8133 12.3312 16.66 11.8712 17.24C11.4179 17.8133 10.7679 18.1 9.92121 18.1ZM9.92121 16.99C10.3479 16.99 10.6645 16.8067 10.8712 16.44C11.0779 16.0667 11.1812 15.4867 11.1812 14.7C11.1812 13.9133 11.0779 13.3367 10.8712 12.97C10.6645 12.5967 10.3479 12.41 9.92121 12.41C9.49454 12.41 9.17788 12.5967 8.97121 12.97C8.76454 13.3367 8.66121 13.9133 8.66121 14.7C8.66121 15.4867 8.76454 16.0667 8.97121 16.44C9.17788 16.8067 9.49454 16.99 9.92121 16.99ZM15.0686 18V13.82C15.0686 13.6667 15.0686 13.51 15.0686 13.35C15.0753 13.1833 15.082 13.0133 15.0886 12.84C14.862 13.0533 14.6086 13.2367 14.3286 13.39C14.0486 13.5367 13.762 13.64 13.4686 13.7L13.2886 12.54C13.4353 12.52 13.6053 12.4733 13.7986 12.4C13.992 12.3267 14.1853 12.2367 14.3786 12.13C14.5786 12.0233 14.7586 11.9067 14.9186 11.78C15.0853 11.6533 15.212 11.5267 15.2986 11.4H16.4186V18H15.0686Z" fill="#A3A5AB"/>
</svg>
