<svg width="20" height="21" viewBox="0 0 20 21" fill="none" xmlns="http://www.w3.org/2000/svg">
    <path fill-rule="evenodd" clip-rule="evenodd" d="M2.04492 6.2614L2.04492 2.81123C2.04492 2.3694 2.4031 2.01123 2.84492 2.01123H6.25401C6.71853 2.01123 7.09509 2.38779 7.09509 2.85231V6.2614C7.09509 6.70323 6.73692 7.0614 6.29509 7.0614H2.84492C2.40309 7.0614 2.04492 6.70323 2.04492 6.2614ZM9.09509 2.85231C9.09509 1.28322 7.82309 0.0112305 6.25401 0.0112305L2.84492 0.0112305C1.29852 0.0112305 0.0449219 1.26483 0.0449219 2.81123L0.0449219 6.2614C0.0449219 7.8078 1.29852 9.0614 2.84492 9.0614H6.29509C7.84149 9.0614 9.09509 7.8078 9.09509 6.2614V2.85231ZM2.04492 17.1022L2.04492 13.6521C2.04492 13.2102 2.4031 12.8521 2.84492 12.8521H6.25401C6.71853 12.8521 7.09509 13.2286 7.09509 13.6931V17.1022C7.09509 17.544 6.73692 17.9022 6.29509 17.9022H2.84492C2.40309 17.9022 2.04492 17.544 2.04492 17.1022ZM9.09509 13.6931C9.09509 12.124 7.82309 10.8521 6.25401 10.8521H2.84492C1.29852 10.8521 0.0449219 12.1057 0.0449219 13.6521L0.0449219 17.1022C0.0449219 18.6486 1.29852 19.9022 2.84492 19.9022H6.29509C7.84149 19.9022 9.09509 18.6486 9.09509 17.1022V13.6931ZM12.9043 2.81123L12.9043 6.2614C12.9043 6.70323 13.2625 7.0614 13.7043 7.0614H17.1545C17.5963 7.0614 17.9545 6.70323 17.9545 6.2614V2.85231C17.9545 2.38779 17.5779 2.01123 17.1134 2.01123H13.7043C13.2625 2.01123 12.9043 2.3694 12.9043 2.81123ZM17.1134 0.0112305C18.6825 0.0112305 19.9545 1.28322 19.9545 2.85231V6.2614C19.9545 7.8078 18.7009 9.0614 17.1545 9.0614H13.7043C12.1579 9.0614 10.9043 7.8078 10.9043 6.2614V2.81123C10.9043 1.26483 12.1579 0.0112305 13.7043 0.0112305L17.1134 0.0112305ZM12.9043 17.2614L12.9043 13.8112C12.9043 13.3694 13.2625 13.0112 13.7043 13.0112H17.1134C17.5779 13.0112 17.9545 13.3878 17.9545 13.8523V17.2614C17.9545 17.7032 17.5963 18.0614 17.1545 18.0614H13.7043C13.2625 18.0614 12.9043 17.7032 12.9043 17.2614ZM19.9545 13.8523C19.9545 12.2832 18.6825 11.0112 17.1134 11.0112H13.7043C12.1579 11.0112 10.9043 12.2648 10.9043 13.8112V17.2614C10.9043 18.8078 12.1579 20.0614 13.7043 20.0614H17.1545C18.7009 20.0614 19.9545 18.8078 19.9545 17.2614V13.8523Z" fill="white"/>
</svg>
