<svg width="24" height="24" viewBox="0 0 24 24" fill="none" xmlns="http://www.w3.org/2000/svg">
<g clip-path="url(#clip0_22019_50552)">
<path d="M3.00024 16.999C3.55238 16.9991 4.00017 17.4469 4.00024 17.999C4.00024 18.5512 3.55242 18.9989 3.00024 18.999C2.44796 18.999 2.00024 18.5513 2.00024 17.999C2.00032 17.4468 2.448 16.999 3.00024 16.999ZM21.0002 16.999C21.5524 16.9991 22.0002 17.4469 22.0002 17.999C22.0002 18.5512 21.5524 18.9989 21.0002 18.999H7.00024C6.44796 18.999 6.00024 18.5513 6.00024 17.999C6.00032 17.4468 6.448 16.999 7.00024 16.999H21.0002ZM3.00024 11C3.55226 11.0001 3.99998 11.448 4.00024 12C4.00024 12.5522 3.55242 12.9999 3.00024 13C2.44796 13 2.00024 12.5523 2.00024 12C2.0005 11.4479 2.44812 11 3.00024 11ZM21.0002 11C21.5523 11.0001 22 11.448 22.0002 12C22.0002 12.5522 21.5524 12.9999 21.0002 13H7.00024C6.44796 13 6.00024 12.5523 6.00024 12C6.0005 11.4479 6.44812 11 7.00024 11H21.0002ZM3.00024 5C3.55242 5.00012 4.00024 5.44779 4.00024 6C4.00004 6.55204 3.5523 6.99988 3.00024 7C2.44808 7 2.00045 6.55211 2.00024 6C2.00024 5.44772 2.44796 5 3.00024 5ZM21.0002 5C21.5524 5.00011 22.0002 5.44778 22.0002 6C22 6.55204 21.5523 6.99989 21.0002 7H7.00024C6.44808 7 6.00045 6.55211 6.00024 6C6.00024 5.44772 6.44796 5 7.00024 5H21.0002Z" fill="white"/>
</g>
<defs>
<clipPath id="clip0_22019_50552">
<rect width="24" height="24" fill="white"/>
</clipPath>
</defs>
</svg>
