<svg width="25" height="24" viewBox="0 0 25 24" fill="none" xmlns="http://www.w3.org/2000/svg">
<path d="M21.25 8C19.8 8 18.99 9.44 19.32 10.51L15.77 14.07C15.47 13.98 15.03 13.98 14.73 14.07L12.18 11.52C12.52 10.45 11.71 9 10.25 9C8.8 9 7.98 10.44 8.32 11.52L3.76 16.07C2.69 15.74 1.25 16.55 1.25 18C1.25 19.1 2.15 20 3.25 20C4.7 20 5.51 18.56 5.18 17.49L9.73 12.93C10.03 13.02 10.47 13.02 10.77 12.93L13.32 15.48C12.98 16.55 13.79 18 15.25 18C16.7 18 17.52 16.56 17.18 15.48L20.74 11.93C21.81 12.26 23.25 11.45 23.25 10C23.25 8.9 22.35 8 21.25 8Z" fill="white"/>
<path d="M15.25 9L16.19 6.93L18.25 6L16.19 5.07L15.25 3L14.33 5.07L12.25 6L14.33 6.93L15.25 9ZM3.75 11L4.25 9L6.25 8.5L4.25 8L3.75 6L3.25 8L1.25 8.5L3.25 9L3.75 11Z" fill="white"/>
</svg>
