<svg width="95" height="28" viewBox="0 0 95 28" fill="none" xmlns="http://www.w3.org/2000/svg">
<path d="M21.1367 3.05341e-07C18.9805 -0.000591016 16.9097 0.8577 15.3673 2.39124L16.2035 4.00808L15.8606 4.28891C15.1361 3.0114 14.0977 1.94752 12.8473 1.20159C11.5969 0.455667 10.1775 0.0533195 8.72828 0.0340336C4.17962 0.0340336 0.50053 4.08468 0.50053 8.83312V19.0448C0.496988 19.1318 0.511225 19.2186 0.542328 19.2998C0.57343 19.3809 0.620737 19.4546 0.681244 19.5162C0.741751 19.5777 0.814137 19.6259 0.893854 19.6575C0.973571 19.6892 1.05889 19.7037 1.14438 19.7001H4.44719C4.52696 19.7001 4.60591 19.6839 4.6795 19.6526C4.75309 19.6213 4.81982 19.5754 4.87583 19.5176C4.93185 19.4598 4.97606 19.3913 5.00582 19.3159C5.03557 19.2406 5.0503 19.16 5.0492 19.0788V8.72249C5.0492 6.36529 6.45391 4.46762 8.8453 4.46762C11.0778 4.46762 12.6749 6.16956 12.6749 8.67994V17.1897C12.6692 17.2741 12.6805 17.3587 12.7081 17.4385C12.7357 17.5183 12.779 17.5915 12.8353 17.6536C12.8917 17.7158 12.9599 17.7656 13.0359 17.7999C13.1118 17.8343 13.1939 17.8525 13.2769 17.8534H16.4292C16.5123 17.8525 16.5944 17.8343 16.6703 17.7999C16.7462 17.7656 16.8144 17.7158 16.8708 17.6536C16.9272 17.5915 16.9705 17.5183 16.9981 17.4385C17.0257 17.3587 17.037 17.2741 17.0313 17.1897V8.67994C16.9942 8.13649 17.0683 7.59112 17.2489 7.07828C17.4294 6.56545 17.7125 6.0963 18.0802 5.70045C18.448 5.3046 18.8923 4.99067 19.3853 4.77847C19.8783 4.56628 20.4092 4.46043 20.9444 4.46762C23.3275 4.46762 24.657 6.39933 24.657 8.72249V19.0618C24.6635 19.2304 24.7344 19.3897 24.8547 19.5057C24.975 19.6218 25.1351 19.6854 25.3008 19.683H28.5618C28.6476 19.688 28.7335 19.6744 28.8138 19.6432C28.8941 19.612 28.967 19.5639 29.0278 19.5021C29.0886 19.4402 29.1358 19.366 29.1665 19.2843C29.1971 19.2025 29.2105 19.1151 29.2056 19.0278V8.8161C29.1722 4.05064 25.6938 3.05341e-07 21.1367 3.05341e-07Z" fill="#00A651"/>
<path d="M51.0656 0.367613H48.0213C47.9367 0.361814 47.8518 0.373358 47.7719 0.401511C47.6921 0.429664 47.619 0.473818 47.5575 0.531162C47.4959 0.588506 47.4471 0.657789 47.4143 0.734627C47.3814 0.811465 47.3651 0.894172 47.3665 0.977509V1.3869L48.4465 3.05786L48.1574 3.34192C47.2635 2.31001 46.1554 1.47793 44.9072 0.901529C43.6591 0.325123 42.2998 0.0177299 40.9208 0C38.2618 0 35.7117 1.0378 33.8315 2.88509C31.9513 4.73238 30.895 7.23784 30.895 9.85031C30.895 12.4628 31.9513 14.9682 33.8315 16.8155C35.7117 18.6628 38.2618 19.7006 40.9208 19.7006C42.3053 19.686 43.6706 19.3802 44.9247 18.8037C46.1788 18.2273 47.2927 17.3935 48.1914 16.3587L48.4465 16.5592L47.3665 18.297V18.6813C47.3654 18.7661 47.3816 18.8503 47.4141 18.9288C47.4466 19.0074 47.4947 19.0788 47.5558 19.1387C47.6168 19.1987 47.6894 19.246 47.7694 19.278C47.8493 19.3099 47.935 19.3258 48.0213 19.3246H51.0656C51.1529 19.3295 51.2402 19.3162 51.3219 19.2855C51.4035 19.2549 51.4777 19.2077 51.5396 19.147C51.6014 19.0862 51.6495 19.0134 51.6806 18.9331C51.7118 18.8529 51.7253 18.7671 51.7204 18.6813V0.977509C51.7245 0.893449 51.7101 0.809517 51.6782 0.731427C51.6462 0.653336 51.5975 0.582931 51.5353 0.52503C51.4732 0.46713 51.3991 0.423095 51.318 0.395927C51.2369 0.36876 51.1509 0.3591 51.0656 0.367613ZM40.9208 15.448C39.4075 15.448 37.9561 14.8574 36.8861 13.806C35.816 12.7547 35.2149 11.3288 35.2149 9.84194C35.2149 8.35512 35.816 6.92921 36.8861 5.87787C37.9561 4.82653 39.4075 4.23589 40.9208 4.23589C42.4341 4.23589 43.8854 4.82653 44.9555 5.87787C46.0255 6.92921 46.6267 8.35512 46.6267 9.84194C46.6267 11.3288 46.0255 12.7547 44.9555 13.806C43.8854 14.8574 42.4341 15.448 40.9208 15.448Z" fill="#00A651"/>
<path d="M93.8444 0.367613H90.8001C90.7155 0.361814 90.6305 0.373358 90.5507 0.401511C90.4708 0.429664 90.3978 0.473818 90.3362 0.531162C90.2747 0.588506 90.2259 0.657789 90.193 0.734627C90.1602 0.811465 90.144 0.894172 90.1453 0.977509V1.3869L91.2253 3.05786L90.9362 3.34192C90.0423 2.31001 88.9341 1.47793 87.686 0.901529C86.4378 0.325123 85.0786 0.0177299 83.6996 0C81.0406 0 78.4905 1.0378 76.6103 2.88509C74.7301 4.73238 73.6738 7.23784 73.6738 9.85031C73.6738 12.4628 74.7301 14.9682 76.6103 16.8155C78.4905 18.6628 81.0406 19.7006 83.6996 19.7006C85.0841 19.686 86.4493 19.3802 87.7035 18.8037C88.9576 18.2273 90.0715 17.3935 90.9702 16.3587L91.2253 16.5592L90.1453 18.297V18.6813C90.1442 18.7661 90.1603 18.8503 90.1928 18.9288C90.2253 19.0074 90.2735 19.0788 90.3346 19.1387C90.3956 19.1987 90.4682 19.246 90.5482 19.278C90.6282 19.3099 90.7138 19.3258 90.8001 19.3246H93.8444C93.9317 19.3295 94.019 19.3162 94.1007 19.2855C94.1824 19.2549 94.2565 19.2077 94.3184 19.147C94.3802 19.0862 94.4282 19.0134 94.4594 18.9331C94.4905 18.8529 94.5041 18.7671 94.4992 18.6813V0.977509C94.5033 0.893449 94.4889 0.809517 94.4569 0.731427C94.425 0.653336 94.3763 0.582931 94.3142 0.52503C94.252 0.46713 94.1778 0.423095 94.0967 0.395927C94.0157 0.36876 93.9296 0.3591 93.8444 0.367613ZM83.6996 15.448C82.1863 15.448 80.7349 14.8574 79.6649 13.806C78.5948 12.7547 77.9936 11.3288 77.9936 9.84194C77.9936 8.35512 78.5948 6.92921 79.6649 5.87787C80.7349 4.82653 82.1863 4.23589 83.6996 4.23589C85.2129 4.23589 86.6642 4.82653 87.7343 5.87787C88.8044 6.92921 89.4055 8.35512 89.4055 9.84194C89.4055 11.3288 88.8044 12.7547 87.7343 13.806C86.6642 14.8574 85.2129 15.448 83.6996 15.448Z" fill="#00A651"/>
<path d="M71.293 0.569359H68.2609C67.7748 0.569359 67.5111 0.836097 67.5111 1.09449V10.3218C67.5539 10.9669 67.461 11.6139 67.2386 12.2201C67.0163 12.8262 66.6695 13.3779 66.2211 13.8386C65.7727 14.2993 65.2328 14.6587 64.6372 14.893C64.0415 15.1273 63.4035 15.2313 62.7652 15.198C60.1121 15.198 58.3983 13.1975 58.3983 10.3218V1.09449C58.3983 0.836097 57.9863 0.569359 57.7226 0.569359H54.4928C54.3589 0.580706 54.2333 0.639679 54.1383 0.73581C54.0432 0.831942 53.9849 0.959019 53.9737 1.09449V10.2635C53.9473 12.6602 54.8598 14.9701 56.5118 16.6882C58.1638 18.4063 60.421 19.3929 62.7899 19.4324C65.0559 19.4327 67.2443 18.597 68.9448 17.0818L69.1096 17.2402L67.7665 19.0907V19.8325C67.7665 21.7247 64.9569 22.7833 63.3173 22.7833H62.2708C62.1017 22.7742 61.9358 22.833 61.8093 22.9469C61.6828 23.0609 61.6058 23.2207 61.5952 23.3918V26.4092C61.6098 26.5787 61.688 26.7361 61.8135 26.8492C61.9391 26.9623 62.1027 27.0226 62.2708 27.0177H63.3173C68.3268 27.0177 71.9851 24.0669 71.9851 18.5072V1.09449C71.974 1.01393 71.9473 0.936373 71.9064 0.866306C71.8656 0.796239 71.8114 0.735041 71.7471 0.686232C71.6828 0.637423 71.6095 0.60197 71.5316 0.581912C71.4537 0.561855 71.3726 0.557586 71.293 0.569359Z" fill="#00A651"/>
</svg>
