<svg width="20" height="20" viewBox="0 0 20 20" fill="none" xmlns="http://www.w3.org/2000/svg">
<path d="M14.3729 3.125C12.8734 3.1278 11.4341 3.71485 10.3605 4.76153L10.9167 5.86934L10.6878 6.05703C10.1874 5.17818 9.46611 4.4453 8.59532 3.93102C7.72453 3.41673 6.73449 3.13889 5.72327 3.125C2.55548 3.125 0.00111497 5.8968 0.00111497 9.14241V16.1349C-0.00331426 16.1961 0.00548598 16.2576 0.0269247 16.3152C0.0483634 16.3727 0.08194 16.425 0.125365 16.4684C0.16879 16.5118 0.221047 16.5454 0.278596 16.5668C0.336144 16.5883 0.397635 16.5971 0.458887 16.5927H2.74775C2.80341 16.5936 2.8587 16.5833 2.91034 16.5625C2.96198 16.5417 3.00892 16.5108 3.0484 16.4715C3.08787 16.4322 3.11908 16.3855 3.14017 16.3339C3.16126 16.2824 3.17181 16.2272 3.17119 16.1715V9.09892C3.17119 7.49672 4.14624 6.16918 5.81024 6.16918C7.36667 6.16918 8.47447 7.32963 8.47447 9.04628V14.8531C8.46972 14.9115 8.47715 14.9703 8.49629 15.0257C8.51544 15.0811 8.54587 15.132 8.58567 15.175C8.62548 15.218 8.67378 15.2523 8.72753 15.2757C8.78127 15.2991 8.8393 15.3111 8.89791 15.3109H11.0884C11.1469 15.3111 11.2048 15.2991 11.2584 15.2757C11.3121 15.2523 11.3603 15.218 11.3999 15.1749C11.4395 15.1318 11.4697 15.0809 11.4886 15.0255C11.5075 14.9701 11.5146 14.9114 11.5095 14.8531V9.03712C11.5095 7.32048 12.6722 6.16002 14.2287 6.16002C15.8904 6.16002 16.8151 7.47841 16.8151 9.08977V16.1623C16.8174 16.2201 16.8311 16.2768 16.8554 16.3292C16.8797 16.3816 16.9141 16.4287 16.9566 16.4678C16.9992 16.507 17.049 16.5373 17.1032 16.5572C17.1575 16.577 17.2151 16.5859 17.2729 16.5835H19.5411C19.6024 16.5879 19.6639 16.5791 19.7214 16.5577C19.779 16.5362 19.8312 16.5027 19.8746 16.4592C19.9181 16.4158 19.9516 16.3636 19.9731 16.306C19.9945 16.2485 20.0033 16.187 19.9989 16.1257V9.14241C19.9668 5.8968 17.5132 3.125 14.3729 3.125Z" fill="#28C480"/>
</svg>
