<svg width="48" height="48" viewBox="0 0 48 48" fill="none" xmlns="http://www.w3.org/2000/svg">
<rect width="48" height="48" rx="8" fill="#4929AA"/>
<path d="M24.9189 19.4551L23.5817 19.4551L23.5817 35.5973L24.9189 35.5973L24.9189 19.4551Z" fill="white"/>
<path fill-rule="evenodd" clip-rule="evenodd" d="M17.0964 15.1552C17.0963 16.3671 18.0788 17.3495 19.2907 17.3495L22.6621 17.3495V15.1552C22.6621 13.9433 21.6797 12.9609 20.4678 12.9609H19.2907C18.0788 12.9609 17.0964 13.9433 17.0964 15.1552ZM14.9521 17.3497C14.618 16.6905 14.4297 15.9448 14.4297 15.1552C14.4297 12.4705 16.6061 10.2942 19.2907 10.2942H20.4678C21.8599 10.2942 23.1153 10.8794 24.0015 11.8172C24.8876 10.8794 26.1431 10.2942 27.5352 10.2942H28.7122C31.3969 10.2942 33.5732 12.4705 33.5732 15.1552C33.5732 15.9448 33.385 16.6905 33.0509 17.3497L33.3697 17.3497H33.37H33.3708C35.58 17.3497 37.3709 19.1405 37.3709 21.3497V33.7031C37.3709 35.8438 35.6893 37.5917 33.575 37.698C33.5411 37.6997 33.5071 37.701 33.473 37.7018C33.4387 37.7027 33.4043 37.7031 33.3697 37.7031H14.6299C12.4208 37.7031 10.6299 35.9123 10.6299 33.7031L10.6299 21.3497C10.6299 19.1406 12.4207 17.3497 14.6299 17.3497L14.9521 17.3497ZM30.9066 15.1552C30.9066 16.3671 29.9242 17.3495 28.7123 17.3495L25.3408 17.3495V15.1552C25.3408 13.9433 26.3233 12.9609 27.5352 12.9609H28.7122C29.9241 12.9609 30.9066 13.9433 30.9066 15.1552ZM29.9482 20.0164V35.0365H25.3232L25.3232 20.0164L29.9482 20.0164ZM14.6299 20.0164L22.6207 20.0164L22.6207 35.0365H14.6299C13.8935 35.0365 13.2966 34.4395 13.2966 33.7031L13.2965 21.3497C13.2965 20.6133 13.8935 20.0164 14.6299 20.0164Z" fill="white"/>
</svg>
