<svg width="20" height="20" viewBox="0 0 20 20" fill="none" xmlns="http://www.w3.org/2000/svg">
    <path fill-rule="evenodd" clip-rule="evenodd" d="M10 0C9.44771 0 9 0.447715 9 1V3C9 3.55228 9.44771 4 10 4C10.5523 4 11 3.55228 11 3V1C11 0.447715 10.5523 0 10 0ZM5.75774 5.7574C6.14826 5.36688 6.14826 4.73371 5.75774 4.34319L4.34352 2.92897C3.953 2.53845 3.31983 2.53845 2.92931 2.92897C2.53879 3.3195 2.53879 3.95266 2.92931 4.34319L4.34352 5.7574C4.73405 6.14792 5.36721 6.14792 5.75774 5.7574ZM3 9C3.55228 9 4 9.44771 4 10C4 10.5523 3.55228 11 3 11H1C0.447715 11 0 10.5523 0 10C0 9.44771 0.447715 9 1 9H3ZM9 17C9 16.4477 9.44771 16 10 16C10.5523 16 11 16.4477 11 17V19C11 19.5523 10.5523 20 10 20C9.44771 20 9 19.5523 9 19V17ZM4.34367 14.2423C4.7342 13.8517 5.36736 13.8517 5.75789 14.2423C6.14841 14.6328 6.14841 15.266 5.75789 15.6565L4.34367 17.0707C3.95315 17.4612 3.31999 17.4612 2.92946 17.0707C2.53894 16.6802 2.53894 16.047 2.92946 15.6565L4.34367 14.2423ZM19 9C19.5523 9 20 9.44771 20 10C20 10.5523 19.5523 11 19 11H17C16.4477 11 16 10.5523 16 10C16 9.44771 16.4477 9 17 9H19ZM17.0702 17.0709C17.4608 16.6804 17.4608 16.0472 17.0702 15.6567L15.656 14.2424C15.2655 13.8519 14.6323 13.8519 14.2418 14.2424C13.8513 14.633 13.8513 15.2661 14.2418 15.6567L15.656 17.0709C16.0465 17.4614 16.6797 17.4614 17.0702 17.0709ZM15.6562 2.92927C16.0467 2.53875 16.6799 2.53875 17.0704 2.92927C17.4609 3.3198 17.4609 3.95296 17.0704 4.34349L15.6562 5.7577C15.2656 6.14823 14.6325 6.14823 14.242 5.7577C13.8514 5.36718 13.8514 4.73401 14.242 4.34349L15.6562 2.92927ZM10 14C12.2091 14 14 12.2091 14 10C14 7.79086 12.2091 6 10 6C7.79086 6 6 7.79086 6 10C6 12.2091 7.79086 14 10 14Z" fill="white"/>
</svg>
