<svg width="16" height="16" viewBox="0 0 16 16" fill="none" xmlns="http://www.w3.org/2000/svg">
<g clip-path="url(#clip0_24540_35657)">
<path fill-rule="evenodd" clip-rule="evenodd" d="M9.08903 9.79723L14.5207 4.22954L15.7137 5.39339L9.69285 11.565C9.53727 11.7245 9.3243 11.815 9.10151 11.8164C8.87871 11.8178 8.66464 11.7299 8.5071 11.5723L4.79942 7.86464L5.97793 6.68613L9.08903 9.79723Z" fill="#28C480"/>
<path d="M12.1277 5.11275C12.2585 5.30526 12.2399 5.56947 12.0711 5.74252L6.05104 11.9145C5.80221 12.1696 5.46132 12.3141 5.10501 12.3164C4.74854 12.3186 4.40552 12.1776 4.15346 11.9256L0.445978 8.21808C0.250716 8.02282 0.250716 7.70624 0.445978 7.51098L1.62472 6.33224C1.82001 6.13732 2.13668 6.13709 2.33183 6.33224L5.08499 9.08539L10.1632 3.88015C10.2556 3.78555 10.3817 3.7314 10.514 3.72961C10.6466 3.72797 10.7754 3.77926 10.8703 3.87186L12.0628 5.03541L12.1277 5.11275Z" fill="#28C480" stroke="#202122" stroke-linejoin="round"/>
<rect x="6" y="6" width="1.55938" height="2.76645" transform="rotate(45 6 6)" fill="#202122"/>
</g>
<defs>
<clipPath id="clip0_24540_35657">
<rect width="16" height="16" fill="white"/>
</clipPath>
</defs>
</svg>
