<svg width="17" height="18" viewBox="0 0 17 18" fill="none" xmlns="http://www.w3.org/2000/svg">
    <path fill-rule="evenodd" clip-rule="evenodd"
        d="M13.1126 2.93928C12.6979 2.52536 12.0258 2.52547 11.6113 2.93959L11.2906 3.26024L13.7591 5.72867L14.08 5.40771C14.494 4.99415 14.4948 4.32143 14.08 3.90665L13.1126 2.93928ZM12.5805 6.90718L10.1121 4.43875L5.6714 8.87947C5.50955 9.04132 5.41628 9.259 5.41046 9.48736L5.35698 11.638H7.48032C7.71689 11.638 7.94379 11.5439 8.11121 11.3765L12.5805 6.90718ZM10.4334 1.76045C11.4988 0.696188 13.2254 0.696188 14.2908 1.76045L15.2585 2.72814C16.3238 3.79344 16.3243 5.52161 15.2582 6.58654L9.28972 12.555C8.81011 13.0346 8.15945 13.3047 7.48032 13.3047H4.50267C4.27806 13.3047 4.06297 13.214 3.90613 13.0532C3.7493 12.8924 3.66401 12.6751 3.66959 12.4506L3.74431 9.44593C3.76082 8.79047 4.02842 8.16542 4.49289 7.70096L10.4334 1.76045Z"
        fill="#B1B3B5" />
    <path fill-rule="evenodd" clip-rule="evenodd"
        d="M0.0280762 4.27871C0.0280762 2.43776 1.52046 0.945374 3.36141 0.945374H7.46714V2.61204H3.36141C2.44093 2.61204 1.69474 3.35823 1.69474 4.27871V13.7737C1.69474 14.6942 2.44094 15.4404 3.36141 15.4404H12.7569C13.6774 15.4404 14.4236 14.6942 14.4236 13.7738V9.3086H16.0902V13.7738C16.0902 15.6147 14.5978 17.1071 12.7569 17.1071H3.36141C1.52046 17.1071 0.0280762 15.6147 0.0280762 13.7737V4.27871Z"
        fill="#B1B3B5" />
</svg>
