<svg width="20" height="20" viewBox="0 0 20 20" fill="none" xmlns="http://www.w3.org/2000/svg">
    <path
        d="M18.5697 13.6042L12.9503 3.48913C12.1951 2.12817 11.1503 1.38184 10 1.38184C8.84981 1.38184 7.80494 2.12817 7.04983 3.48913L1.43037 13.6042C0.719158 14.8949 0.640134 16.1329 1.21086 17.1075C1.78159 18.0822 2.90548 18.6178 4.38058 18.6178H15.6195C17.0946 18.6178 18.2185 18.0822 18.7892 17.1075C19.3599 16.1329 19.2809 14.8861 18.5697 13.6042ZM9.34151 7.52812C9.34151 7.16812 9.64004 6.86959 10 6.86959C10.36 6.86959 10.6586 7.16812 10.6586 7.52812V11.9183C10.6586 12.2783 10.36 12.5768 10 12.5768C9.64004 12.5768 9.34151 12.2783 9.34151 11.9183V7.52812ZM10.6234 15.1758C10.5795 15.211 10.5356 15.2461 10.4917 15.2812C10.4391 15.3163 10.3864 15.3427 10.3337 15.3602C10.281 15.3866 10.2283 15.4041 10.1669 15.4129C10.1142 15.4217 10.0527 15.4305 10 15.4305C9.94736 15.4305 9.88589 15.4217 9.82443 15.4129C9.77175 15.4041 9.71907 15.3866 9.66638 15.3602C9.6137 15.3427 9.56102 15.3163 9.50834 15.2812C9.46443 15.2461 9.42053 15.211 9.37663 15.1758C9.21858 15.009 9.122 14.7807 9.122 14.5524C9.122 14.3241 9.21858 14.0959 9.37663 13.929C9.42053 13.8939 9.46443 13.8588 9.50834 13.8237C9.56102 13.7885 9.6137 13.7622 9.66638 13.7446C9.71907 13.7183 9.77175 13.7007 9.82443 13.692C9.93858 13.6656 10.0615 13.6656 10.1669 13.692C10.2283 13.7007 10.281 13.7183 10.3337 13.7446C10.3864 13.7622 10.4391 13.7885 10.4917 13.8237C10.5356 13.8588 10.5795 13.8939 10.6234 13.929C10.7815 14.0959 10.8781 14.3241 10.8781 14.5524C10.8781 14.7807 10.7815 15.009 10.6234 15.1758Z"
        fill="#FF9155" />
</svg>
