<svg width="24" height="24" viewBox="0 0 24 24" fill="none" xmlns="http://www.w3.org/2000/svg">
    <path fill-rule="evenodd" clip-rule="evenodd"
        d="M0.977609 8.14537C0.308133 8.52086 0.293826 9.47942 0.951798 9.87473L4.38563 11.9378L4.38578 19.4348C4.3858 20.6292 5.35413 21.5976 6.54862 21.5976L17.4057 21.5977C18.6002 21.5977 19.5686 20.6293 19.5686 19.4348L19.5685 11.9662L21.5365 10.7839V15.4612H23.5365V8.98778H23.5342C23.5245 8.65684 23.3537 8.33035 23.0239 8.14537L13.4683 2.78581C12.5567 2.27452 11.4447 2.27452 10.5332 2.78581L0.977609 8.14537ZM3.45801 9.04726L11.4857 13.8703C11.8027 14.0608 12.1988 14.0608 12.5157 13.8703L20.5435 9.04726L12.4899 4.53017C12.1861 4.35974 11.8154 4.35974 11.5115 4.53017L3.45801 9.04726ZM17.4057 13.2657L13.5457 15.5847C12.5949 16.156 11.4065 16.156 10.4557 15.5847L6.54852 13.2373L6.54864 19.4347L17.4057 19.4348L17.4057 13.2657Z"
        fill="black" />
</svg>
