<svg width="14" height="14" viewBox="0 0 14 14" fill="none" xmlns="http://www.w3.org/2000/svg">
    <path fill-rule="evenodd" clip-rule="evenodd"
        d="M2.60095 1.24463H11.4035C11.6317 1.24651 11.8532 1.32163 12.0354 1.45891C12.2177 1.59618 12.351 1.78836 12.4158 2.00712L12.4175 2.01292L13.2632 4.98208C13.2805 5.03726 13.2899 5.09597 13.2899 5.15685V6.10796C13.2899 6.76717 13.028 7.39938 12.5619 7.86551C12.4912 7.93622 12.4166 8.00223 12.3388 8.06334V11.8147C12.3388 12.0955 12.2272 12.3648 12.0286 12.5634C11.83 12.762 11.5607 12.8735 11.2799 12.8735H2.71988C2.43905 12.8735 2.16972 12.762 1.97114 12.5634C1.77256 12.3648 1.661 12.0955 1.661 11.8147V8.06334C1.58312 8.00223 1.50859 7.93622 1.43788 7.86551C0.971744 7.39938 0.709874 6.76717 0.709874 6.10796V5.16325C0.709655 5.14337 0.710451 5.12344 0.712279 5.10353C0.715967 5.06283 0.723836 5.02333 0.735454 4.98548L1.58387 2.00711C1.64865 1.78835 1.78201 1.59618 1.96425 1.45891C2.14613 1.32191 2.36712 1.24683 2.59478 1.24466L2.60095 1.24463ZM11.4057 7.28177C11.4422 7.25433 11.4821 7.23109 11.5247 7.21275C11.6006 7.16323 11.6718 7.10564 11.7369 7.04055C11.9843 6.79321 12.1232 6.45775 12.1232 6.10796V5.74018H9.48544V6.10796C9.48544 6.45775 9.62439 6.79321 9.87173 7.04055C10.1191 7.28789 10.4545 7.42684 10.8043 7.42684C11.0154 7.42684 11.2212 7.37625 11.4057 7.28177ZM9.04677 7.86551C8.9961 7.81484 8.94785 7.76221 8.90208 7.70779C8.85631 7.76221 8.80806 7.81484 8.75739 7.86551C8.29126 8.33164 7.65905 8.59351 6.99984 8.59351C6.34063 8.59351 5.70842 8.33164 5.24229 7.86551C5.19163 7.81485 5.14339 7.76224 5.09763 7.70783C5.05188 7.76224 5.00363 7.81485 4.95298 7.86551C4.48685 8.33164 3.85464 8.59351 3.19543 8.59351C3.07158 8.59351 2.94868 8.58427 2.82766 8.56616V11.7069H11.1721V8.56616C11.0511 8.58427 10.9282 8.59351 10.8043 8.59351C10.1451 8.59351 9.5129 8.33164 9.04677 7.86551ZM8.31872 5.74018H5.68098V6.10796L5.68097 6.11423C5.68262 6.46176 5.82139 6.79469 6.06725 7.04055C6.31459 7.28789 6.65005 7.42684 6.99984 7.42684C7.34963 7.42684 7.68509 7.28789 7.93243 7.04055C8.17977 6.79321 8.31872 6.45775 8.31872 6.10796V5.74018ZM4.51429 5.74018H1.87654V6.10796C1.87654 6.45775 2.01549 6.79321 2.26283 7.04055C2.32793 7.10564 2.39912 7.16323 2.47508 7.21275C2.5176 7.23109 2.55751 7.25433 2.59409 7.28178C2.77851 7.37625 2.98436 7.42684 3.19543 7.42684C3.54522 7.42684 3.88068 7.28789 4.12802 7.04055C4.37388 6.79469 4.51264 6.46176 4.5143 6.11423L4.51429 6.10796V5.74018Z"
        fill="black" />
</svg>
