<svg width="24" height="24" viewBox="0 0 24 24" fill="none" xmlns="http://www.w3.org/2000/svg">
    <path fill-rule="evenodd" clip-rule="evenodd"
        d="M17.9991 8C17.9991 11.3137 15.3129 14 11.9991 14C8.68544 14 5.99915 11.3137 5.99915 8C5.99915 4.68629 8.68544 2 11.9991 2C15.3129 2 17.9991 4.68629 17.9991 8ZM15.9991 8C15.9991 10.2091 14.2083 12 11.9991 12C9.79001 12 7.99915 10.2091 7.99915 8C7.99915 5.79086 9.79001 4 11.9991 4C14.2083 4 15.9991 5.79086 15.9991 8Z"
        fill="black" />
    <path fill-rule="evenodd" clip-rule="evenodd"
        d="M21.2678 18.8411C21.2678 17.272 19.9958 16 18.4268 16H5.53047C3.98407 16 2.73047 17.2536 2.73047 18.8V19.1887C2.73047 20.7351 3.98407 21.9887 5.53047 21.9887H18.4678C20.0142 21.9887 21.2678 20.7351 21.2678 19.1887V18.8411ZM4.73047 19.1887L4.73047 18.8C4.73047 18.3582 5.08864 18 5.53047 18H18.4268C18.8913 18 19.2678 18.3766 19.2678 18.8411V19.1887C19.2678 19.6305 18.9097 19.9887 18.4678 19.9887H5.53047C5.08864 19.9887 4.73047 19.6305 4.73047 19.1887Z"
        fill="black" />
</svg>
