<svg width="18" height="18" viewBox="0 0 18 18" fill="none" xmlns="http://www.w3.org/2000/svg">
<g clip-path="url(#clip0_8650_74143)">
<circle cx="9" cy="9" r="8.25" fill="#00A651" stroke="white" stroke-width="1.5"/>
<path d="M10.9678 5.90625C10.2931 5.90751 9.64537 6.17168 9.16222 6.64269L9.41251 7.1412L9.30951 7.22566C9.08434 6.83018 8.75975 6.50039 8.36789 6.26896C7.97604 6.03753 7.53052 5.9125 7.07547 5.90625C5.64997 5.90625 4.5005 7.15356 4.5005 8.61408V11.7607C4.49851 11.7883 4.50247 11.8159 4.51212 11.8418C4.52176 11.8677 4.53687 11.8912 4.55641 11.9108C4.57596 11.9303 4.59947 11.9454 4.62537 11.9551C4.65126 11.9647 4.67894 11.9687 4.7065 11.9667H5.73649C5.76154 11.9671 5.78641 11.9625 5.80965 11.9531C5.83289 11.9438 5.85402 11.9298 5.87178 11.9122C5.88954 11.8945 5.90358 11.8735 5.91308 11.8503C5.92257 11.8271 5.92731 11.8022 5.92703 11.7772V8.59451C5.92703 7.87352 6.36581 7.27613 7.11461 7.27613C7.815 7.27613 8.31351 7.79834 8.31351 8.57083V11.1839C8.31137 11.2102 8.31472 11.2366 8.32333 11.2616C8.33195 11.2865 8.34564 11.3094 8.36355 11.3287C8.38147 11.3481 8.4032 11.3635 8.42739 11.3741C8.45157 11.3846 8.47768 11.39 8.50406 11.3899H9.48976C9.5161 11.39 9.54216 11.3846 9.5663 11.3741C9.59044 11.3635 9.61212 11.3481 9.62995 11.3287C9.64778 11.3093 9.66138 11.2864 9.66987 11.2615C9.67836 11.2366 9.68157 11.2101 9.67928 11.1839V8.56671C9.67928 7.79421 10.2025 7.27201 10.9029 7.27201C11.6507 7.27201 12.0668 7.86529 12.0668 8.5904V11.7731C12.0678 11.799 12.074 11.8245 12.0849 11.8481C12.0959 11.8717 12.1114 11.8929 12.1305 11.9105C12.1496 11.9281 12.172 11.9418 12.1965 11.9507C12.2209 11.9596 12.2468 11.9637 12.2728 11.9626H13.2935C13.3211 11.9646 13.3487 11.9606 13.3746 11.951C13.4005 11.9413 13.424 11.9262 13.4436 11.9067C13.4631 11.8871 13.4782 11.8636 13.4879 11.8377C13.4975 11.8118 13.5015 11.7841 13.4995 11.7566V8.61408C13.4851 7.15356 12.3809 5.90625 10.9678 5.90625Z" fill="white"/>
</g>
<defs>
<clipPath id="clip0_8650_74143">
<rect width="18" height="18" fill="white"/>
</clipPath>
</defs>
</svg>
