<svg width="64" height="64" viewBox="0 0 64 64" fill="none" xmlns="http://www.w3.org/2000/svg">
<path d="M45.9932 10C41.195 10.009 36.5893 11.8875 33.1536 15.2369L34.9334 18.7819L34.201 19.3825C32.5998 16.5702 30.2916 14.225 27.505 12.5793C24.7185 10.9336 21.5504 10.0444 18.3144 10C8.17754 10 0.00356789 18.8698 0.00356789 29.2557V51.6316C-0.0106056 51.8276 0.0175551 52.0244 0.0861591 52.2085C0.154763 52.3927 0.262208 52.5599 0.401168 52.6989C0.540128 52.8378 0.707352 52.9453 0.891507 53.0139C1.07566 53.0825 1.27243 53.1107 1.46844 53.0965H8.79279C8.97093 53.0994 9.14783 53.0666 9.31308 53C9.47833 52.9334 9.62855 52.8344 9.75487 52.7088C9.88119 52.5832 9.98105 52.4335 10.0485 52.2686C10.116 52.1037 10.1498 51.927 10.1478 51.7488V29.1165C10.1478 23.9895 13.268 19.7414 18.5928 19.7414C23.5733 19.7414 27.1183 23.4548 27.1183 28.9481V47.53C27.1031 47.7169 27.1269 47.905 27.1881 48.0823C27.2494 48.2596 27.3468 48.4223 27.4742 48.56C27.6015 48.6977 27.7561 48.8074 27.9281 48.8823C28.1001 48.9571 28.2857 48.9955 28.4733 48.9948H35.4827C35.67 48.9956 35.8554 48.9572 36.027 48.8823C36.1987 48.8073 36.3528 48.6975 36.4796 48.5596C36.6064 48.4218 36.7031 48.259 36.7635 48.0818C36.8239 47.9045 36.8467 47.7166 36.8304 47.53V28.9188C36.8304 23.4255 40.5512 19.7121 45.5317 19.7121C50.8492 19.7121 53.8083 23.9309 53.8083 29.0873V51.7195C53.8158 51.9042 53.8597 52.0857 53.9374 52.2534C54.0151 52.4212 54.1252 52.5719 54.2612 52.6971C54.3973 52.8223 54.5567 52.9194 54.7303 52.9829C54.904 53.0464 55.0884 53.075 55.2731 53.0672H62.5316C62.7276 53.0814 62.9243 53.0532 63.1085 52.9846C63.2926 52.916 63.4599 52.8085 63.5988 52.6696C63.7378 52.5306 63.8452 52.3634 63.9138 52.1792C63.9824 51.9951 64.0106 51.7983 63.9964 51.6023V29.2557C63.8939 18.8698 56.0422 10 45.9932 10Z" fill="#00A651"/>
</svg>
