<svg width="251" height="102" viewBox="0 0 251 102" fill="none" xmlns="http://www.w3.org/2000/svg">
<g clip-path="url(#clip0_1672_63483)">
<path d="M3.66211 0.850689H6.5085V14.8239H3.66211V0.850689Z" fill="#4929AA"/>
<path d="M10.1815 11.6799V6.95749H8.22461V4.86151H8.99767C9.90657 4.86151 10.5179 4.50572 10.5179 3.08575V1.66255H12.9373V4.86151H15.0915V6.95749H12.9373V11.2853C12.9373 12.233 13.429 12.6503 14.202 12.6503H15.0915V14.8239H13.2608C11.291 14.8239 10.1815 13.6756 10.1815 11.6799Z" fill="#4929AA"/>
<path d="M18.0497 0.850689H20.8346L18.8001 7.1742H16.8594L18.0497 0.850689Z" fill="#4929AA"/>
<path d="M21.584 12.2136L23.8482 11.5829C24.1716 12.5112 25.0126 12.9834 25.983 12.9834C26.8919 12.9834 27.4256 12.5888 27.4256 11.9581C27.4256 11.2077 26.7334 10.9877 25.349 10.7128C23.3339 10.3182 21.8136 9.58717 21.8136 7.68849C21.8136 5.78982 23.4115 4.6642 25.8245 4.6642C27.7393 4.6642 29.4989 5.41462 29.9744 7.23566L27.5841 7.76613C27.4386 7.39644 27.1809 7.0816 26.8474 6.86579C26.5138 6.64999 26.121 6.54406 25.7242 6.56288C24.9544 6.56288 24.4789 6.91868 24.4789 7.47178C24.4789 8.14457 25.1258 8.36128 26.4552 8.65563C28.7194 9.15051 30.1717 9.80388 30.1717 11.6605C30.1717 14.0508 28.1954 15.0212 25.9215 15.0212C23.6476 15.0212 21.9204 14.0282 21.584 12.2136Z" fill="#4929AA"/>
<path d="M36.873 9.84269C36.873 6.60816 39.024 4.66744 42.1486 4.66744C45.0144 4.66744 47.1686 6.30734 47.188 9.7683L47.1492 10.399H39.5804C39.7162 12.0163 40.803 12.8702 42.2262 12.8702C43.2742 12.8702 44.0634 12.4142 44.4613 11.5053L46.9713 11.8287C46.3244 13.8632 44.5195 15.0115 42.2456 15.0115C38.9723 15.0212 36.873 13.0578 36.873 9.84269ZM44.4419 8.50036C44.3484 7.97437 44.0676 7.50005 43.6513 7.16523C43.235 6.83041 42.7115 6.65779 42.1777 6.67932C40.8839 6.67932 40.0041 7.29388 39.7065 8.50036H44.4419Z" fill="#4929AA"/>
<path d="M47.8262 4.86151H50.7825L53.2925 11.5829L55.7831 4.86151H58.7686L54.5184 14.8239H52.0764L47.8262 4.86151Z" fill="#4929AA"/>
<path d="M59.3477 9.84269C59.3477 6.60816 61.5019 4.66744 64.6232 4.66744C67.489 4.66744 69.6432 6.30734 69.6626 9.7683L69.6238 10.399H62.055C62.1908 12.0163 63.2776 12.8702 64.7008 12.8702C65.7488 12.8702 66.538 12.4142 66.9359 11.5053L69.4459 11.8287C68.799 13.8632 66.9941 15.0115 64.7202 15.0115C61.4566 15.0212 59.3477 13.0578 59.3477 9.84269ZM66.9165 8.50036C66.8231 7.97437 66.5422 7.50005 66.1259 7.16523C65.7096 6.83041 65.1861 6.65779 64.6523 6.67932C63.3585 6.67932 62.4787 7.29388 62.1811 8.50036H66.9165Z" fill="#4929AA"/>
<path d="M71.6348 4.86151H74.3938V6.2847C75.0052 5.31434 76.2116 4.66744 77.7707 4.66744V7.21625C75.4192 7.21625 74.3938 7.9699 74.3938 10.26V14.8271H71.6445L71.6348 4.86151Z" fill="#4929AA"/>
<path d="M82.5028 14.329L78.4531 4.86151H81.416L83.926 11.5635L86.4166 4.86151H89.402L83.127 19.6239H80.1513L82.5028 14.329Z" fill="#4929AA"/>
<path d="M92.0096 11.6799V6.95749H90.0527V4.86151H90.8226C91.7315 4.86151 92.346 4.50572 92.346 3.08575V1.66255H94.7719V4.86151H96.9261V6.95749H94.7719V11.2853C94.7719 12.233 95.2668 12.6503 96.0366 12.6503H96.9261V14.8239H95.0889C93.1158 14.8239 92.0096 13.6756 92.0096 11.6799Z" fill="#4929AA"/>
<path d="M103.865 6.83781C102.759 6.83781 101.601 7.43296 101.601 9.42544V14.8401H98.8516V3.8147e-06H101.601V6.10681C102.008 5.63044 102.519 5.25301 103.094 5.00308C103.669 4.75315 104.293 4.63726 104.92 4.6642C107.252 4.6642 108.555 5.95802 108.555 8.45831V14.8239H105.803V8.87557C105.803 7.41356 105.013 6.83781 103.865 6.83781Z" fill="#4929AA"/>
<path d="M112.238 0.177896C112.548 0.186813 112.847 0.286782 113.1 0.465271C113.353 0.64376 113.547 0.892835 113.659 1.1813C113.771 1.46977 113.795 1.78481 113.728 2.08695C113.662 2.38909 113.508 2.6649 113.285 2.87984C113.063 3.09478 112.782 3.23929 112.478 3.29526C112.173 3.35124 111.859 3.3162 111.575 3.19453C111.29 3.07285 111.048 2.86995 110.879 2.61125C110.709 2.35255 110.619 2.04954 110.621 1.74018C110.621 1.53044 110.664 1.3229 110.746 1.12989C110.828 0.936873 110.948 0.762317 111.099 0.616594C111.25 0.47087 111.428 0.356942 111.624 0.281581C111.82 0.20622 112.029 0.170962 112.238 0.177896ZM110.835 4.86151H113.584V14.8239H110.835V4.86151Z" fill="#4929AA"/>
<path d="M121.018 6.83781C119.87 6.83781 118.883 7.41356 118.725 9.01142V14.8336H115.979V4.87122H118.566L118.666 6.05829C119.066 5.59837 119.565 5.23492 120.125 4.99517C120.685 4.75541 121.292 4.64558 121.901 4.67391C124.408 4.67391 125.672 5.96772 125.672 8.17368V14.8336H122.946V8.73649C122.933 7.41357 122.105 6.83781 121.018 6.83781Z" fill="#4929AA"/>
<path d="M127.635 16.6611L129.929 15.7134C130.501 17.0072 131.333 17.6541 132.655 17.6541C134.473 17.6541 135.224 16.5285 135.224 14.7883V13.1484C134.671 13.9797 133.483 14.5716 132.102 14.5716C129.592 14.5716 127.535 12.6147 127.535 9.59364C127.535 6.57258 129.592 4.67068 132.141 4.67068C133.584 4.67068 134.729 5.31758 135.262 6.21355L135.363 4.86798H137.95V14.5716C137.95 18.2266 135.935 19.7695 132.775 19.7695C129.909 19.763 128.347 18.5177 127.635 16.6611ZM132.775 12.3721C134.276 12.3721 135.382 11.2077 135.382 9.58716C135.382 7.96666 134.295 6.8184 132.775 6.8184C131.255 6.8184 130.165 7.98607 130.165 9.58716C130.165 11.1883 131.271 12.3721 132.775 12.3721Z" fill="#4929AA"/>
<path d="M145.023 12.3139C145.023 10.0982 147 9.40279 148.779 9.03082L150.597 8.6168C151.111 8.50036 151.505 8.36128 151.505 7.90521C151.505 7.01571 150.859 6.6114 149.963 6.6114C148.837 6.6114 148.006 7.08687 147.698 8.13162L145.069 7.73701C145.641 5.68308 147.501 4.6739 149.853 4.6739C152.046 4.6739 153.411 5.42432 153.964 6.84751C154.179 7.43617 154.272 8.06221 154.239 8.68796V13.0255C154.199 13.5453 154.259 14.068 154.417 14.5651V14.8239H151.709L151.59 13.4589C150.92 14.5069 149.555 15.0212 148.251 15.0212C146.663 15.0212 145.023 14.3096 145.023 12.3139ZM149.073 13.1225C150.338 13.1225 151.544 12.3721 151.661 10.1597L149.209 10.8066C148.439 10.9457 147.747 11.3015 147.747 12.0131C147.747 12.7247 148.303 13.1225 149.073 13.1225Z" fill="#4929AA"/>
<path d="M161.643 6.83781C160.495 6.83781 159.508 7.41356 159.35 9.01142V14.8336H156.604V4.87122H159.191L159.291 6.05829C159.691 5.59837 160.19 5.23492 160.75 4.99517C161.31 4.75541 161.917 4.64558 162.526 4.67391C165.033 4.67391 166.297 5.96772 166.297 8.17368V14.8336H163.571V8.73649C163.558 7.41357 162.73 6.83781 161.643 6.83781Z" fill="#4929AA"/>
<path d="M168.16 9.8621C168.16 6.62756 170.337 4.6642 173.012 4.6642C174.377 4.6642 175.561 5.1785 176.156 6.0874V3.8147e-06H178.87V14.8239H176.282L176.185 13.5592C175.613 14.5069 174.406 15.0212 173.002 15.0212C170.337 15.0212 168.16 13.1031 168.16 9.8621ZM173.597 12.7344C175.118 12.7344 176.263 11.667 176.263 9.84916C176.263 8.03135 175.118 6.90574 173.597 6.90574C172.077 6.90574 170.91 8.03135 170.91 9.84916C170.91 11.667 172.055 12.7344 173.597 12.7344Z" fill="#4929AA"/>
<path d="M185.967 12.3139C185.967 10.0982 187.943 9.40279 189.719 9.03082L191.537 8.6168C192.051 8.50036 192.449 8.36128 192.449 7.90521C192.449 7.01571 191.802 6.6114 190.906 6.6114C189.78 6.6114 188.965 7.08687 188.642 8.13162L186.015 7.73701C186.588 5.68308 188.444 4.6739 190.796 4.6739C192.992 4.6739 194.354 5.42432 194.907 6.84751C195.125 7.43546 195.22 8.0619 195.185 8.68796V13.0255C195.145 13.5453 195.206 14.068 195.363 14.5651V14.8239H192.656L192.536 13.4589C191.863 14.5069 190.502 15.0212 189.198 15.0212C187.604 15.0212 185.967 14.3096 185.967 12.3139ZM190.016 13.1225C191.281 13.1225 192.488 12.3721 192.604 10.1597L190.156 10.8066C189.386 10.9457 188.694 11.3015 188.694 12.0131C188.694 12.7247 189.247 13.1225 190.016 13.1225Z" fill="#4929AA"/>
<path d="M205.393 13.5592L205.293 14.8239H202.705V3.8147e-06H205.432V6.0874C206.024 5.1785 207.211 4.6642 208.573 4.6642C211.241 4.6642 213.424 6.6211 213.424 9.8621C213.424 13.1031 211.251 15.0212 208.573 15.0212C207.169 15.0212 205.962 14.5069 205.393 13.5592ZM207.981 12.7473C209.523 12.7473 210.669 11.6799 210.669 9.8621C210.669 8.04429 209.523 6.91867 207.981 6.91867C206.438 6.91867 205.312 8.04429 205.312 9.8621C205.312 11.6799 206.457 12.7344 207.981 12.7344V12.7473Z" fill="#4929AA"/>
<path d="M214.893 12.3139C214.893 10.0982 216.869 9.40279 218.648 9.03082L220.466 8.6168C220.98 8.50036 221.375 8.36128 221.375 7.90521C221.375 7.01571 220.728 6.6114 219.835 6.6114C218.706 6.6114 217.878 7.08687 217.571 8.13162L214.941 7.73701C215.517 5.68308 217.373 4.6739 219.725 4.6739C221.918 4.6739 223.283 5.42432 223.836 6.84751C224.053 7.43576 224.146 8.06214 224.111 8.68796V13.0255C224.071 13.5453 224.132 14.068 224.289 14.5651V14.8239H221.582L221.465 13.4589C220.792 14.5069 219.427 15.0212 218.124 15.0212C216.532 15.0212 214.893 14.3096 214.893 12.3139ZM218.945 13.1225C220.21 13.1225 221.413 12.3721 221.533 10.1597L219.081 10.8066C218.311 10.9457 217.619 11.3015 217.619 12.0131C217.619 12.7247 218.172 13.1225 218.945 13.1225Z" fill="#4929AA"/>
<path d="M231.512 6.83781C230.367 6.83781 229.377 7.41356 229.219 9.01142V14.8336H226.473V4.87122H229.06L229.161 6.05829C229.56 5.59837 230.059 5.23492 230.619 4.99517C231.179 4.75541 231.786 4.64558 232.395 4.67391C234.905 4.67391 236.17 5.96772 236.17 8.17368V14.8336H233.443V8.73649C233.43 7.41357 232.599 6.83781 231.512 6.83781Z" fill="#4929AA"/>
<path d="M241.786 10.6319H241.232V14.8368H238.486V3.8147e-06H241.232V8.7559H241.747L245.088 4.87445H248.268L244.179 9.61951L248.507 14.8368H245.204L241.786 10.6319Z" fill="#4929AA"/>
<path d="M55.4074 28.975C49.6111 28.975 43.7146 31.4138 39.9528 35.2791L42.0876 39.5487L41.1851 40.27C37.197 33.3934 29.8643 28.975 22.0593 28.975C9.8619 28.975 -0.000208562 39.6489 -0.000208562 52.1537V79.0941C-0.0107645 79.3239 0.0266715 79.5533 0.109695 79.7679C0.192719 79.9824 0.319514 80.1772 0.482011 80.34C0.644507 80.5028 0.839125 80.63 1.05348 80.7134C1.26784 80.7969 1.49725 80.8347 1.72704 80.8246H10.5735C11.0024 80.8246 11.4138 80.6542 11.7171 80.3509C12.0204 80.0476 12.1908 79.6363 12.1908 79.2073V51.9499C12.1908 45.7493 15.9525 40.6678 22.3569 40.6678C28.3537 40.6678 32.6233 45.138 32.6233 51.7461V74.1129C32.6082 74.3344 32.6389 74.5566 32.7134 74.7657C32.7878 74.9748 32.9046 75.1663 33.0563 75.3283C33.208 75.4903 33.3915 75.6194 33.5952 75.7074C33.7989 75.7955 34.0186 75.8407 34.2406 75.8402H42.6957C42.9176 75.8407 43.1373 75.7955 43.3411 75.7074C43.5448 75.6194 43.7282 75.4903 43.88 75.3283C44.0317 75.1663 44.1484 74.9748 44.2229 74.7657C44.2974 74.5566 44.328 74.3344 44.3129 74.1129V51.7461C44.3129 45.138 48.7863 40.6678 54.7831 40.6678C61.1875 40.6678 64.7455 45.7493 64.7455 51.9499V79.1976C64.7656 79.6392 64.9575 80.0554 65.2802 80.3575C65.6029 80.6597 66.0308 80.8238 66.4727 80.8149H75.206C75.4361 80.8255 75.6658 80.788 75.8805 80.7047C76.0953 80.6215 76.2903 80.4944 76.4532 80.3316C76.616 80.1687 76.7431 79.9737 76.8263 79.759C76.9095 79.5442 76.9471 79.3145 76.9365 79.0844V52.1537C76.9365 39.6489 67.4819 28.975 55.3847 28.975" fill="#00A651"/>
<path d="M107.776 70.4547C99.0424 70.4547 92.9356 64.2508 92.9356 55.5079C92.9356 46.6647 99.0327 40.3605 107.776 40.3605C116.622 40.3605 122.926 46.6647 122.926 55.5079C122.926 64.2411 116.622 70.4547 107.776 70.4547ZM134.516 29.9906H126.471C126.25 29.9751 126.027 30.0054 125.818 30.0797C125.608 30.1539 125.416 30.2706 125.254 30.4223C125.091 30.5741 124.962 30.7577 124.874 30.9617C124.786 31.1657 124.74 31.3856 124.741 31.6079V32.727L127.587 37.2004L126.821 37.9702C122.124 32.6365 115.412 28.9653 107.763 28.9653C93.327 28.9653 81.4336 40.7584 81.4336 55.4885C81.4515 62.4662 84.2311 69.153 89.1648 74.0873C94.0985 79.0216 100.785 81.8021 107.763 81.8208C115.471 81.8208 122.231 78.1755 126.927 72.8418L127.574 73.3819L124.754 78.072V79.0877C124.752 79.3155 124.795 79.5415 124.881 79.7524C124.967 79.9633 125.095 80.155 125.256 80.3161C125.417 80.4772 125.609 80.6046 125.819 80.6908C126.03 80.777 126.256 80.8203 126.484 80.8181H134.516C134.745 80.8282 134.975 80.7904 135.189 80.707C135.403 80.6235 135.598 80.4964 135.761 80.3336C135.923 80.1708 136.05 79.9759 136.133 79.7614C136.216 79.5469 136.253 79.3174 136.243 79.0877V31.6176C136.243 30.602 135.531 30.0003 134.516 30.0003" fill="#00A651"/>
<path d="M222.536 70.4547C213.803 70.4547 207.696 64.2508 207.696 55.5079C207.696 46.6647 213.793 40.3605 222.536 40.3605C231.383 40.3605 237.687 46.6647 237.687 55.5079C237.687 64.2411 231.383 70.4547 222.536 70.4547ZM249.276 29.9906H241.245C241.023 29.9751 240.8 30.0054 240.591 30.0797C240.382 30.1539 240.19 30.2706 240.027 30.4223C239.865 30.5741 239.735 30.7577 239.647 30.9617C239.559 31.1657 239.514 31.3856 239.514 31.6079V32.727L242.361 37.2004L241.594 37.9702C236.898 32.6365 230.186 28.9653 222.536 28.9653C208.1 28.9653 196.207 40.7584 196.207 55.4885C196.225 62.4662 199.005 69.153 203.938 74.0873C208.872 79.0216 215.558 81.8021 222.536 81.8208C230.244 81.8208 237.004 78.1755 241.701 72.8418L242.348 73.3819L239.501 78.0591V79.0747C239.499 79.3025 239.542 79.5285 239.629 79.7395C239.715 79.9504 239.842 80.142 240.003 80.3031C240.164 80.4643 240.356 80.5917 240.567 80.6778C240.778 80.764 241.004 80.8073 241.232 80.8052H249.263C249.493 80.8153 249.722 80.7774 249.937 80.694C250.151 80.6106 250.346 80.4834 250.508 80.3206C250.671 80.1578 250.797 79.963 250.88 79.7485C250.964 79.5339 251.001 79.3045 250.99 79.0747V31.6176C250.99 30.602 250.279 30.0003 249.263 30.0003" fill="#00A651"/>
<path d="M189.521 29.9906H181.289C179.966 29.9906 179.254 30.7022 179.254 31.4138V56.2195C179.254 63.9468 174.17 69.3355 166.342 69.3355C159.126 69.3355 154.449 63.9468 154.449 56.2195V31.4138C154.449 30.7022 153.33 29.9906 152.618 29.9906H143.775C143.406 30.0156 143.058 30.1736 142.796 30.4352C142.535 30.6969 142.377 31.0446 142.352 31.4138V56.1192C142.352 69.3355 152.721 80.8246 166.342 80.8246C172.501 80.8242 178.449 78.5809 183.074 74.514L183.53 74.928L179.869 79.9092V81.8499C179.869 86.9314 172.245 89.7778 167.772 89.7778H164.925C163.91 89.7778 163.095 90.4894 163.095 91.3951V99.5299C163.095 100.342 163.91 101.147 164.925 101.147H167.772C181.396 101.147 191.358 93.2161 191.358 78.2725V31.4138C191.358 30.7022 190.646 29.9906 189.527 29.9906" fill="#00A651"/>
</g>
<defs>
<clipPath id="clip0_1672_63483">
<rect width="251" height="101.154" fill="white"/>
</clipPath>
</defs>
</svg>
