<svg width="108" height="108" viewBox="0 0 108 108" fill="none" xmlns="http://www.w3.org/2000/svg">
<path d="M0 24C0 10.7452 10.7452 0 24 0H84C97.2548 0 108 10.7452 108 24V84C108 97.2548 97.2548 108 84 108H24C10.7452 108 0 97.2548 0 84V24Z" fill="black"/>
<path d="M30.3365 44.174C28.4285 44.1772 26.5969 44.9492 25.2309 46.326L25.9423 47.7843L25.6435 48.0294C25.0065 46.8731 24.0883 45.9088 22.9798 45.2322C21.8713 44.5555 20.6109 44.1899 19.3236 44.1716C15.2922 44.1716 12.0339 47.8162 12.0339 52.0882V61.2892C12.0301 61.3676 12.0423 61.4459 12.0696 61.5191C12.0968 61.5924 12.1386 61.6589 12.1922 61.7145C12.2457 61.7701 12.3099 61.8136 12.3807 61.842C12.4514 61.8705 12.5272 61.8834 12.603 61.8799H15.5222C15.5932 61.8809 15.6636 61.8672 15.7294 61.8396C15.7951 61.812 15.8548 61.771 15.905 61.7192C15.9552 61.6673 15.9948 61.6056 16.0215 61.5376C16.0482 61.4697 16.0615 61.3969 16.0605 61.3235V52.0098C16.0605 49.8897 17.3032 48.1544 19.4185 48.1544C21.401 48.1544 22.812 49.6814 22.812 51.9387V59.5784C22.8075 59.6543 22.818 59.7304 22.843 59.8019C22.8681 59.8734 22.907 59.9389 22.9574 59.9942C23.0079 60.0496 23.0688 60.0937 23.1363 60.1237C23.2039 60.1538 23.2767 60.1693 23.3503 60.1691H26.1391C26.2125 60.1689 26.2851 60.1532 26.3523 60.123C26.4196 60.0928 26.4802 60.0486 26.5304 59.9933C26.5806 59.938 26.6193 59.8727 26.6442 59.8013C26.6691 59.73 26.6796 59.6541 26.6751 59.5784V51.951C26.6751 49.6936 28.1548 48.1667 30.135 48.1667C32.2527 48.1667 33.4289 49.902 33.4289 52.0221V61.3358C33.4344 61.4875 33.4975 61.6308 33.6044 61.7349C33.7113 61.839 33.8536 61.8955 34.0004 61.8922H36.9007C36.9767 61.896 37.0527 61.8834 37.1237 61.8551C37.1947 61.8267 37.2592 61.7834 37.3131 61.7277C37.3669 61.6721 37.4089 61.6054 37.4363 61.532C37.4637 61.4586 37.4759 61.3801 37.4722 61.3015V52.0882C37.4603 47.8186 34.3348 44.174 30.3365 44.174Z" fill="#2FF29E"/>
<path d="M56.4798 44.5221H53.8262C53.7529 44.5174 53.6796 44.5282 53.6105 44.5539C53.5415 44.5796 53.4783 44.6197 53.4248 44.6715C53.3712 44.7234 53.3285 44.7861 53.2993 44.8556C53.27 44.9252 53.2549 45.0001 53.2547 45.076V45.4706L54.2032 46.9976L53.9495 47.2623C52.3962 45.4387 50.1789 44.1863 47.651 44.1863C45.3592 44.2253 43.1741 45.1937 41.5667 46.8825C39.9594 48.5714 39.0586 50.8455 39.0586 53.2145C39.0586 55.5835 39.9594 57.8575 41.5667 59.5464C43.1741 61.2353 45.3592 62.2036 47.651 62.2427C48.8568 62.225 50.045 61.941 51.1359 61.4096C52.2267 60.8783 53.195 60.1118 53.9756 59.1618L54.1938 59.348L53.2452 60.9436V61.2917C53.2446 61.3694 53.2589 61.4465 53.2874 61.5185C53.3159 61.5904 53.358 61.6558 53.4112 61.7108C53.4644 61.7658 53.5276 61.8093 53.5972 61.8387C53.6669 61.8682 53.7415 61.883 53.8167 61.8824H56.4703C56.5464 61.8862 56.6223 61.8736 56.6934 61.8453C56.7644 61.8169 56.8289 61.7736 56.8827 61.7179C56.9366 61.6623 56.9785 61.5956 57.0059 61.5222C57.0333 61.4488 57.0456 61.3703 57.0418 61.2917V45.076C57.0444 45.0002 57.0315 44.9247 57.0038 44.8545C56.9761 44.7842 56.9343 44.7209 56.8812 44.6685C56.8281 44.6162 56.7649 44.5761 56.6957 44.5508C56.6265 44.5256 56.5529 44.5158 56.4798 44.5221ZM47.6439 58.3407C44.7555 58.3407 42.7398 56.223 42.7398 53.2353C42.7398 50.2476 44.7555 48.0637 47.6439 48.0637C50.5323 48.0637 52.65 50.2157 52.65 53.2353C52.65 56.2549 50.5678 58.3407 47.6439 58.3407Z" fill="#2FF29E"/>
<path d="M94.4033 44.5221H91.7473C91.6742 44.5177 91.6011 44.5288 91.5324 44.5547C91.4636 44.5806 91.4007 44.6206 91.3474 44.6725C91.2941 44.7243 91.2517 44.7868 91.2226 44.8562C91.1935 44.9256 91.1783 45.0004 91.1781 45.076V45.4706L92.1267 46.9976L91.873 47.2623C90.322 45.4387 88.1048 44.1863 85.5768 44.1863C83.285 44.2253 81.0999 45.1937 79.4925 46.8825C77.8852 48.5714 76.9844 50.8455 76.9844 53.2145C76.9844 55.5835 77.8852 57.8575 79.4925 59.5464C81.0999 61.2353 83.285 62.2036 85.5768 62.2427C86.783 62.2279 87.9721 61.9465 89.0643 61.4172C90.1564 60.8879 91.1262 60.123 91.9085 59.174L92.1267 59.3603L91.1781 60.9559V61.3039C91.1772 61.3816 91.1912 61.4586 91.2195 61.5306C91.2477 61.6025 91.2896 61.6679 91.3426 61.7229C91.3956 61.7779 91.4587 61.8215 91.5282 61.8509C91.5977 61.8804 91.6722 61.8953 91.7473 61.8946H94.4033C94.4791 61.8981 94.5549 61.8852 94.6256 61.8567C94.6963 61.8283 94.7606 61.7848 94.8141 61.7292C94.8677 61.6736 94.9095 61.6071 94.9367 61.5339C94.964 61.4606 94.9761 61.3823 94.9724 61.3039V45.076C94.9751 44.9995 94.962 44.9233 94.9339 44.8525C94.9058 44.7818 94.8634 44.718 94.8095 44.6655C94.7556 44.6131 94.6914 44.5731 94.6214 44.5484C94.5513 44.5237 94.477 44.5147 94.4033 44.5221ZM85.5673 58.3407C82.6765 58.3407 80.6608 56.223 80.6608 53.2353C80.6608 50.2476 82.6765 48.0637 85.5673 48.0637C88.4581 48.0637 90.5734 50.2157 90.5734 53.2353C90.5734 56.2549 88.4889 58.3407 85.5673 58.3407Z" fill="#2FF29E"/>
<path d="M74.6586 44.5221H71.9361C71.4998 44.5221 71.265 44.7672 71.265 45.0122V53.4853C71.265 56.1225 69.5837 57.9632 66.9965 57.9632C64.6108 57.9632 63.0646 56.1225 63.0646 53.4853V45.0073C63.0646 44.7622 62.6947 44.5172 62.4599 44.5172H59.5407C59.4173 44.5247 59.3009 44.5788 59.2135 44.6691C59.1261 44.7595 59.0737 44.8798 59.0664 45.0073V53.4436C59.0664 57.9583 62.4931 61.8823 66.9965 61.8823C69.0303 61.8818 70.9945 61.116 72.5219 59.7279L72.6737 59.8676L71.4642 61.5686V62.2304C71.4642 63.9657 68.9434 64.9387 67.466 64.9387H66.5174C66.4425 64.9337 66.3673 64.9442 66.2963 64.9693C66.2252 64.9945 66.1597 65.034 66.1035 65.0855C66.0473 65.137 66.0015 65.1995 65.9687 65.2694C65.936 65.3393 65.9169 65.4151 65.9127 65.4926V68.2647C65.9271 68.4189 65.9974 68.5618 66.1096 68.6646C66.2218 68.7674 66.3676 68.8224 66.5174 68.8186H67.466C71.9717 68.8186 75.2609 66.1103 75.2609 61.0074V45.0073C75.2419 44.8611 75.1682 44.7283 75.0556 44.6376C74.943 44.5468 74.8004 44.5053 74.6586 44.5221Z" fill="#2FF29E"/>
</svg>
