<svg width="108" height="108" viewBox="0 0 108 108" fill="none" xmlns="http://www.w3.org/2000/svg">
<path d="M0 24C0 10.7452 10.7452 0 24 0H84C97.2548 0 108 10.7452 108 24V84C108 97.2548 97.2548 108 84 108H24C10.7452 108 0 97.2548 0 84V24Z" fill="black"/>
<path d="M30.5424 42C28.6103 42.0023 26.7554 42.7592 25.3731 44.1092L26.0877 45.5499L25.7996 45.7919C25.154 44.6548 24.2219 43.7065 23.0962 43.0413C21.9704 42.3761 20.6902 42.0171 19.3827 42C15.2997 42 12.0005 45.573 12.0005 49.7568V58.7727C11.9972 58.8493 12.0099 58.9257 12.0377 58.997C12.0655 59.0684 12.1079 59.1333 12.162 59.1875C12.2162 59.2416 12.2811 59.284 12.3524 59.3118C12.4238 59.3396 12.5002 59.3523 12.5768 59.349H15.5389C15.6107 59.3502 15.6821 59.3369 15.7487 59.3099C15.8153 59.283 15.8758 59.2429 15.9266 59.1921C15.9774 59.1413 16.0174 59.0808 16.0444 59.0142C16.0713 58.9476 16.0846 58.8762 16.0835 58.8044V49.6905C16.0835 47.613 17.3426 45.913 19.4864 45.913C21.5034 45.913 22.9211 47.4084 22.9211 49.6213V57.113C22.9172 57.1871 22.9283 57.2611 22.9539 57.3307C22.9795 57.4003 23.0189 57.464 23.0699 57.5179C23.1208 57.5717 23.1821 57.6147 23.2502 57.6442C23.3182 57.6737 23.3915 57.689 23.4657 57.6893H26.2894C26.3637 57.6894 26.4372 57.6744 26.5054 57.645C26.5737 57.6157 26.6352 57.5727 26.6862 57.5188C26.7372 57.4648 26.7766 57.4009 26.802 57.3312C26.8275 57.2614 26.8383 57.1872 26.834 57.113V49.6213C26.834 47.4084 28.3324 45.913 30.3407 45.913C32.4845 45.913 33.6745 47.613 33.6745 49.6905V58.8073C33.6826 58.9546 33.7469 59.0931 33.8541 59.1944C33.9613 59.2958 34.1033 59.3521 34.2508 59.3519H37.1783C37.2549 59.3551 37.3312 59.3425 37.4026 59.3147C37.474 59.2869 37.5389 59.2445 37.5931 59.1903C37.6472 59.1362 37.6896 59.0713 37.7174 58.9999C37.7452 58.9285 37.7578 58.8521 37.7546 58.7756V49.7568C37.7575 45.573 34.5937 42 30.5424 42Z" fill="#2FF29E"/>
<path d="M57.0202 42.34H54.3319C54.2578 42.3361 54.1838 42.3473 54.1142 42.3729C54.0446 42.3984 53.9809 42.4379 53.927 42.4888C53.8731 42.5397 53.8302 42.6011 53.8007 42.6691C53.7712 42.7371 53.7559 42.8105 53.7556 42.8846V43.2592L54.7093 44.7546L54.4529 45.014C53.6659 44.085 52.6891 43.3354 51.5882 42.8155C50.4874 42.2957 49.2879 42.0176 48.0706 42C45.7245 42 43.4745 42.932 41.8155 44.5909C40.1566 46.2499 39.2246 48.4999 39.2246 50.8459C39.2246 53.192 40.1566 55.442 41.8155 57.101C43.4745 58.7599 45.7245 59.6919 48.0706 59.6919C49.2915 59.6787 50.4956 59.4045 51.6019 58.8876C52.7081 58.3708 53.691 57.6233 54.4846 56.6952L54.7065 56.8767L53.7527 58.4241V58.7641C53.7527 58.9169 53.8134 59.0635 53.9215 59.1716C54.0296 59.2796 54.1761 59.3404 54.329 59.3404H57.0173C57.0939 59.3436 57.1703 59.3309 57.2417 59.3031C57.3131 59.2753 57.3779 59.233 57.4321 59.1788C57.4863 59.1246 57.5286 59.0598 57.5564 58.9884C57.5842 58.917 57.5969 58.8406 57.5936 58.7641V42.8846C57.5964 42.8099 57.5832 42.7354 57.5549 42.6661C57.5267 42.5969 57.484 42.5344 57.4298 42.4829C57.3756 42.4314 57.311 42.392 57.2404 42.3674C57.1698 42.3428 57.0947 42.3334 57.0202 42.34ZM48.0706 55.8827C45.1459 55.8827 43.103 53.8052 43.103 50.8805C43.103 47.9559 45.1373 45.8121 48.0706 45.8121C51.0038 45.8121 53.1418 47.9213 53.1418 50.8805C53.1418 53.8397 51.0326 55.8827 48.0706 55.8827Z" fill="#2FF29E"/>
<path d="M95.4255 42.34H92.7372C92.6632 42.3361 92.5891 42.3473 92.5195 42.3729C92.4499 42.3984 92.3862 42.4379 92.3323 42.4888C92.2785 42.5397 92.2355 42.6011 92.206 42.6691C92.1765 42.7371 92.1612 42.8105 92.1609 42.8846V43.2592L93.1147 44.7546L92.8582 45.014C92.0719 44.085 91.0957 43.3353 89.9952 42.8154C88.8948 42.2955 87.6957 42.0174 86.4788 42C84.1327 42 81.8827 42.932 80.2237 44.5909C78.5648 46.2499 77.6328 48.4999 77.6328 50.8459C77.6328 53.192 78.5648 55.442 80.2237 57.101C81.8827 58.7599 84.1327 59.6919 86.4788 59.6919C87.6994 59.6789 88.903 59.4047 90.0088 58.8878C91.1147 58.3709 92.097 57.6233 92.8899 56.6952L93.1118 56.8767L92.158 58.4241V58.7641C92.158 58.9169 92.2187 59.0635 92.3268 59.1716C92.4349 59.2796 92.5815 59.3404 92.7343 59.3404H95.4227C95.4992 59.3436 95.5756 59.3309 95.647 59.3031C95.7184 59.2753 95.7832 59.233 95.8374 59.1788C95.8916 59.1246 95.9339 59.0598 95.9617 58.9884C95.9895 58.917 96.0022 58.8406 95.9989 58.7641V42.8846C96.0017 42.8099 95.9885 42.7354 95.9603 42.6661C95.932 42.5969 95.8894 42.5344 95.8351 42.4829C95.7809 42.4314 95.7163 42.392 95.6457 42.3674C95.5751 42.3428 95.5 42.3334 95.4255 42.34ZM86.4932 55.8827C83.5656 55.8827 81.5256 53.8052 81.5256 50.8805C81.5256 47.9559 83.5656 45.8121 86.4932 45.8121C89.4207 45.8121 91.5616 47.9213 91.5616 50.8805C91.5616 53.8397 89.438 55.8827 86.4788 55.8827H86.4932Z" fill="#2FF29E"/>
<path d="M75.4289 42.34H72.6743C72.2306 42.34 71.9943 42.5792 71.9943 42.8155V51.1197C71.9943 53.713 70.2914 55.5081 67.6722 55.5081C65.2575 55.5081 63.69 53.7043 63.69 51.1197V42.8155C63.69 42.5792 63.3155 42.34 63.0792 42.34H60.12C59.9967 42.3488 59.8808 42.4016 59.7935 42.489C59.7061 42.5763 59.6532 42.6923 59.6445 42.8155V51.0851C59.6445 55.5081 63.1022 59.3519 67.675 59.3519C69.735 59.3514 71.7242 58.6006 73.2707 57.2398L73.4235 57.3781L72.1989 59.0465V59.6919C72.1989 61.3948 69.6488 62.3457 68.1649 62.3457H67.214C67.1378 62.3406 67.0614 62.3508 66.9892 62.3755C66.917 62.4002 66.8504 62.439 66.7933 62.4897C66.7362 62.5403 66.6897 62.6018 66.6566 62.6706C66.6234 62.7394 66.6043 62.8141 66.6003 62.8903V65.6276C66.6141 65.7794 66.6853 65.9203 66.7993 66.0214C66.9133 66.1226 67.0616 66.1765 67.214 66.1722H68.1649C72.7233 66.1722 76.06 63.5184 76.06 58.5163V42.8155C76.0504 42.7425 76.0264 42.6722 75.9894 42.6086C75.9524 42.5451 75.903 42.4895 75.8443 42.4452C75.7855 42.401 75.7185 42.3689 75.6472 42.3508C75.5759 42.3327 75.5017 42.3291 75.4289 42.34Z" fill="#2FF29E"/>
<path d="M50.0087 63.4349H13.5733C13.156 63.4349 12.7558 63.6006 12.4608 63.8957C12.1658 64.1907 12 64.5909 12 65.0081V71.281C12 72.3113 12.2029 73.3316 12.5972 74.2835C12.9916 75.2355 13.5695 76.1004 14.2981 76.829C15.7695 78.3004 17.7652 79.1271 19.8461 79.1271H50.0087C52.0897 79.1271 54.0853 78.3004 55.5568 76.829C57.0282 75.3576 57.8548 73.3619 57.8548 71.281C57.8548 69.2001 57.0282 67.2044 55.5568 65.7329C54.0853 64.2615 52.0897 63.4349 50.0087 63.4349Z" fill="#4929AA"/>
<path d="M26.0711 75.6431C27.888 75.6431 29.0718 74.6819 29.0718 73.1932C29.0718 71.4467 27.5246 71.0365 26.2352 70.72C25.2389 70.4738 24.3598 70.2628 24.3598 69.4423C24.3598 68.7039 24.981 68.2467 25.9187 68.2467C26.9151 68.2467 27.4894 68.6453 27.7942 69.5478L28.9898 69.2665C28.6147 67.7544 27.3253 67.1449 25.8484 67.1449C24.1605 67.1449 23.0118 68.0826 23.0118 69.5127C23.0118 71.142 24.4653 71.5522 25.7195 71.8921C26.7627 72.1617 27.6887 72.3962 27.6887 73.287C27.6887 74.0724 27.1026 74.5412 26.0828 74.5412C25.0396 74.5412 24.3129 74.0489 24.055 73.0291L22.7422 73.3105C23.0118 74.7991 24.3363 75.6431 26.0711 75.6431Z" fill="white"/>
<path d="M31.6201 75.4907H34.6912C35.7461 75.4907 37.4692 75.1625 37.4692 73.2284C37.4692 72.068 36.8948 71.4233 35.8985 71.142C36.5901 70.8489 36.9652 70.2511 36.9652 69.3837C36.9652 68.0123 36.0391 67.2973 34.2809 67.2973H31.6201V75.4907ZM32.9564 74.3537V71.8101H34.7029C35.6758 71.8101 36.1329 72.2321 36.1329 73.076C36.1329 73.9317 35.6758 74.3537 34.7029 74.3537H32.9564ZM32.9564 70.7903V68.3991H34.2575C35.1717 68.3991 35.6406 68.7976 35.6406 69.5947C35.6406 70.3918 35.1835 70.7903 34.2575 70.7903H32.9564Z" fill="white"/>
<path d="M39.1405 75.4907H40.7347L43.1727 72.3141L45.5991 75.4907H47.1933L43.9815 71.2709L46.9588 67.2973H45.4116L43.1727 70.2863L40.9222 67.2973H39.3749L42.3522 71.2709L39.1405 75.4907Z" fill="white"/>
</svg>
