<svg width="324" height="65" viewBox="0 0 324 65" fill="none" xmlns="http://www.w3.org/2000/svg">
<g clip-path="url(#clip0_1737_73045)">
<path d="M44.8295 6.52002C40.1589 6.53392 35.6767 8.36266 32.3295 11.62L34.0494 15.08L33.3195 15.66C31.7597 12.9216 29.512 10.6379 26.7987 9.03479C24.0854 7.43172 21.0006 6.56489 17.8494 6.52002C7.99943 6.52002 -0.000545466 15.16 -0.000545466 25.25V47.04C-0.00908366 47.2261 0.0212912 47.412 0.0886269 47.5857C0.155963 47.7594 0.258762 47.9172 0.390507 48.049C0.522251 48.1807 0.680042 48.2835 0.853764 48.3508C1.02749 48.4182 1.21336 48.4485 1.39948 48.44H8.55945C8.73271 48.4414 8.9045 48.4081 9.0647 48.3421C9.22491 48.2761 9.37027 48.1788 9.49231 48.0558C9.61436 47.9328 9.71063 47.7867 9.77539 47.626C9.84016 47.4653 9.87212 47.2932 9.86945 47.12V25.12C9.86945 20.12 12.8694 15.99 18.0994 15.99C22.9494 15.99 26.3995 19.61 26.3995 24.99V43.08C26.39 43.2596 26.4171 43.4393 26.479 43.6082C26.541 43.777 26.6365 43.9316 26.7599 44.0624C26.8833 44.1933 27.032 44.2978 27.1969 44.3696C27.3618 44.4413 27.5396 44.4789 27.7194 44.48H34.5494C34.7289 44.479 34.9063 44.4414 35.0707 44.3695C35.2351 44.2976 35.3831 44.1929 35.5057 44.0619C35.6283 43.9309 35.7229 43.7762 35.7838 43.6074C35.8446 43.4386 35.8703 43.2591 35.8594 43.08V24.95C35.8594 19.6 39.4795 15.95 44.3295 15.95C49.5095 15.95 52.3895 20.06 52.3895 25.08V47.08C52.405 47.439 52.56 47.7777 52.8215 48.0242C53.0829 48.2707 53.4302 48.4056 53.7894 48.4H60.8594C61.0456 48.4086 61.2314 48.3782 61.4052 48.3109C61.5789 48.2435 61.7367 48.1407 61.8684 48.0089C62.0002 47.8772 62.103 47.7194 62.1703 47.5457C62.2376 47.372 62.268 47.1861 62.2595 47V25.25C62.2595 15.16 54.6095 6.52002 44.8295 6.52002Z" fill="#00A651"/>
<path d="M108.819 7.34998H102.319C102.141 7.33905 101.962 7.36486 101.793 7.42578C101.625 7.4867 101.471 7.58147 101.341 7.70422C101.211 7.82697 101.107 7.97508 101.036 8.13947C100.965 8.30385 100.929 8.481 100.929 8.65997V9.57001L103.229 13.19L102.609 13.81C100.709 11.5642 98.349 9.75161 95.6892 8.49414C93.0294 7.23667 90.131 6.56353 87.1893 6.52002C81.5977 6.64094 76.2759 8.9471 72.3641 12.9444C68.4523 16.9417 66.2617 22.3121 66.2617 27.905C66.2617 33.4979 68.4523 38.8683 72.3641 42.8656C76.2759 46.8629 81.5977 49.1691 87.1893 49.29C90.1411 49.2551 93.0514 48.5892 95.7248 47.337C98.3982 46.0849 100.773 44.2754 102.689 42.03L103.229 42.46L100.929 46.25V47.07C100.927 47.2538 100.961 47.4362 101.029 47.6066C101.098 47.777 101.2 47.9319 101.33 48.0623C101.459 48.1927 101.614 48.296 101.783 48.366C101.953 48.436 102.136 48.4713 102.319 48.47H108.819C109.005 48.4785 109.191 48.4482 109.365 48.3809C109.539 48.3135 109.696 48.2107 109.828 48.0789C109.96 47.9472 110.063 47.7894 110.13 47.6157C110.197 47.442 110.228 47.2561 110.219 47.07V8.65997C110.226 8.47834 110.194 8.29738 110.124 8.12933C110.055 7.96129 109.951 7.8101 109.818 7.68591C109.685 7.56173 109.527 7.46749 109.355 7.40955C109.183 7.3516 109 7.33125 108.819 7.34998ZM87.1893 40.08C80.1193 40.08 75.1893 35.08 75.1893 27.99C75.1893 20.9 80.1293 15.74 87.1893 15.74C88.8157 15.6737 90.4382 15.9452 91.9545 16.5374C93.4707 17.1295 94.8478 18.0295 95.9988 19.1805C97.1498 20.3315 98.0497 21.7086 98.6419 23.2248C99.2341 24.741 99.5056 26.3636 99.4393 27.99C99.4393 35.06 94.3493 40.08 87.1893 40.08Z" fill="#00A651"/>
<path d="M201.651 7.34998H195.161C194.982 7.3391 194.802 7.3649 194.633 7.42572C194.464 7.48654 194.31 7.58113 194.179 7.70374C194.048 7.82634 193.943 7.97437 193.871 8.13879C193.799 8.30321 193.762 8.48053 193.761 8.65997V9.57001L196.061 13.19L195.441 13.81C193.538 11.5617 191.175 9.74756 188.512 8.48999C185.848 7.23242 182.946 6.56068 180.001 6.52002C174.513 6.78557 169.338 9.15245 165.548 13.1301C161.758 17.1077 159.645 22.391 159.645 27.885C159.645 33.379 161.758 38.6623 165.548 42.64C169.338 46.6176 174.513 48.9845 180.001 49.25C182.952 49.2145 185.862 48.5483 188.536 47.2961C191.209 46.044 193.584 44.2349 195.501 41.99L196.031 42.42L193.731 46.21V47.03C193.729 47.2143 193.765 47.3969 193.835 47.5673C193.904 47.7378 194.007 47.8926 194.138 48.0229C194.268 48.1532 194.423 48.2562 194.593 48.3261C194.764 48.396 194.946 48.4313 195.131 48.43H201.621C201.807 48.4385 201.993 48.4082 202.166 48.3408C202.34 48.2735 202.498 48.1707 202.63 48.0389C202.761 47.9072 202.864 47.7494 202.932 47.5757C202.999 47.402 203.029 47.2161 203.021 47.03V8.65997C203.027 8.4811 202.995 8.30298 202.928 8.13721C202.86 7.97144 202.759 7.82181 202.629 7.69812C202.5 7.57443 202.346 7.47942 202.177 7.41943C202.008 7.35944 201.829 7.33578 201.651 7.34998ZM180.001 40.08C172.921 40.08 168.001 35.08 168.001 27.99C168.001 20.9 172.931 15.74 180.001 15.74C181.627 15.6737 183.25 15.9452 184.766 16.5374C186.282 17.1295 187.659 18.0295 188.81 19.1805C189.961 20.3315 190.861 21.7086 191.453 23.2248C192.045 24.741 192.317 26.3636 192.251 27.99C192.281 35.06 187.181 40.08 180.001 40.08Z" fill="#00A651"/>
<path d="M153.32 7.34998H146.66C145.59 7.34998 145.01 7.92001 145.01 8.50001V28.57C145.01 34.82 140.9 39.17 134.57 39.17C128.73 39.17 124.95 34.82 124.95 28.57V8.50001C124.95 7.92001 124.04 7.34998 123.47 7.34998H116.31C116.012 7.37094 115.732 7.49886 115.52 7.71015C115.309 7.92145 115.181 8.20193 115.16 8.50001V28.5C115.16 39.19 123.55 48.5 134.57 48.5C139.551 48.4961 144.36 46.6797 148.1 43.39L148.47 43.73L145.47 47.73V49.25C145.47 53.36 139.3 55.66 135.68 55.66H133.38C133.196 55.6492 133.012 55.6748 132.838 55.7354C132.664 55.7959 132.504 55.8901 132.366 56.0128C132.229 56.1354 132.117 56.284 132.037 56.45C131.957 56.6159 131.91 56.796 131.9 56.98V63.56C131.933 63.9268 132.104 64.2674 132.379 64.5126C132.654 64.7577 133.012 64.8891 133.38 64.88H135.68C146.68 64.88 154.76 58.46 154.76 46.37V8.50001C154.715 8.15946 154.54 7.84957 154.272 7.6352C154.003 7.42084 153.662 7.31861 153.32 7.34998Z" fill="#00A651"/>
<path d="M295.919 0H218.629C217.146 0.00264907 215.724 0.593821 214.676 1.64374C213.628 2.69365 213.039 4.11649 213.039 5.59998V27.91C213.039 35.3095 215.979 42.406 221.211 47.6383C226.443 52.8706 233.54 55.81 240.939 55.81H295.939C303.248 55.6716 310.212 52.6708 315.332 47.4527C320.452 42.2346 323.321 35.2157 323.321 27.905C323.321 20.5943 320.452 13.5754 315.332 8.3573C310.212 3.13916 303.248 0.138376 295.939 0H295.919Z" fill="#00A651"/>
<path d="M229.891 17.75H236.521C240.951 17.75 243.271 19.51 243.271 22.93C243.348 23.836 243.137 24.7433 242.668 25.5226C242.2 26.3018 241.497 26.9134 240.661 27.27C241.824 27.5078 242.86 28.1625 243.575 29.1109C244.29 30.0593 244.633 31.2361 244.541 32.42C244.541 37.42 240.021 38.07 237.541 38.07H229.921L229.891 17.75ZM236.461 26.29C238.641 26.29 239.711 25.39 239.711 23.51C239.711 21.63 238.611 20.73 236.461 20.73H233.461V26.25L236.461 26.29ZM237.541 35C239.851 35 240.951 34 240.951 32C240.951 30 239.851 29 237.541 29H233.481V35H237.541Z" fill="white"/>
<path d="M253.74 17.75H258.23L265.87 38.07H262.08L260.43 33.58H251.54L249.89 38.07H246.1L253.74 17.75ZM259.36 30.6L256 21.37L252.64 30.6H259.36Z" fill="white"/>
<path d="M268.24 17.75H272.55L282.37 33.17V17.75H285.93V38.07H281.59L271.83 22.64V38.07H268.24V17.75Z" fill="white"/>
<path d="M295.39 29.12H293.62V38.12H290V17.75H293.59V26H295.3L302.3 17.75H306.49L298.36 27.36L306.96 38.07H302.44L295.39 29.12Z" fill="white"/>
</g>
<defs>
<clipPath id="clip0_1737_73045">
<rect width="323.82" height="64.91" fill="white"/>
</clipPath>
</defs>
</svg>
