<svg width="204" height="90" viewBox="0 0 204 90" fill="none" xmlns="http://www.w3.org/2000/svg">
<g clip-path="url(#clip0_15973_375503)">
<path d="M44.8195 0C40.1471 0.00440285 35.6614 1.83457 32.3195 5.1L34.0494 8.55L33.3195 9.14C31.7597 6.40158 29.512 4.11786 26.7987 2.51479C24.0854 0.911727 21.0006 0.0448733 17.8494 0C7.97943 0 -0.000545466 8.63 -0.000545466 18.75V40.54C-0.00908366 40.7261 0.0212912 40.912 0.0886269 41.0857C0.155963 41.2594 0.258762 41.4172 0.390507 41.5489C0.522251 41.6807 0.680042 41.7835 0.853764 41.8508C1.02749 41.9182 1.2133 41.9485 1.39942 41.94H8.54944C8.72268 41.9427 8.89472 41.9107 9.05542 41.8459C9.21612 41.7812 9.36226 41.6849 9.48523 41.5629C9.60821 41.4408 9.70551 41.2954 9.77149 41.1352C9.83747 40.975 9.8708 40.8033 9.86945 40.63V18.63C9.86945 13.63 12.8694 9.5 18.0894 9.5C22.9394 9.5 26.3994 13.12 26.3994 18.5V36.59C26.3871 36.7694 26.4118 36.9495 26.4721 37.119C26.5324 37.2885 26.6269 37.4437 26.7498 37.5751C26.8727 37.7064 27.0213 37.811 27.1864 37.8824C27.3515 37.9538 27.5295 37.9904 27.7094 37.99H34.5394C34.7197 37.9903 34.8982 37.9537 35.0638 37.8824C35.2294 37.8112 35.3786 37.7067 35.5023 37.5755C35.6259 37.4444 35.7215 37.2892 35.7829 37.1197C35.8443 36.9502 35.8704 36.77 35.8594 36.59V18.42C35.8594 13.08 39.4694 9.42 44.3294 9.42C49.5094 9.42 52.3895 13.53 52.3895 18.55V40.55C52.405 40.9063 52.5589 41.2425 52.8185 41.4872C53.078 41.7318 53.4228 41.8655 53.7794 41.86H60.8594C61.0456 41.8685 61.2314 41.8382 61.4052 41.7708C61.5789 41.7035 61.7366 41.6007 61.8684 41.4689C62.0001 41.3372 62.103 41.1794 62.1703 41.0057C62.2376 40.832 62.268 40.6461 62.2595 40.46V18.75C62.2595 8.63 54.6095 0 44.8195 0Z" fill="#00A651"/>
<path d="M108.821 0.82H102.321C102.141 0.809073 101.96 0.835127 101.791 0.896553C101.621 0.957979 101.466 1.05348 101.335 1.17715C101.204 1.30083 101.099 1.45007 101.028 1.61567C100.957 1.78127 100.92 1.95971 100.921 2.14V3.04L103.221 6.66L102.601 7.28C100.699 5.03829 98.3406 3.22899 95.6829 1.9734C93.0251 0.717822 90.1296 0.0449836 87.1906 0C81.5202 0 76.0821 2.25253 72.0726 6.26205C68.063 10.2716 65.8105 15.7097 65.8105 21.38C65.8105 27.0503 68.063 32.4884 72.0726 36.4979C76.0821 40.5075 81.5202 42.76 87.1906 42.76C90.1427 42.7264 93.0533 42.0611 95.7269 40.8088C98.4004 39.5566 100.775 37.7464 102.691 35.5L103.221 35.94L100.921 39.72V40.54C100.918 40.7246 100.952 40.9079 101.022 41.0789C101.091 41.25 101.194 41.4054 101.325 41.5359C101.455 41.6665 101.611 41.7695 101.782 41.8389C101.953 41.9083 102.136 41.9427 102.321 41.94H108.821C109.006 41.9487 109.192 41.9183 109.365 41.8509C109.538 41.7834 109.695 41.6804 109.826 41.5485C109.957 41.4166 110.059 41.2587 110.125 41.085C110.191 40.9113 110.22 40.7256 110.211 40.54V2.14C110.218 1.95847 110.187 1.77734 110.119 1.60885C110.051 1.44035 109.948 1.28841 109.816 1.16328C109.685 1.03816 109.527 0.942766 109.356 0.883545C109.184 0.824323 109.001 0.802655 108.821 0.82ZM87.1906 33.55C80.1106 33.55 75.1906 28.55 75.1906 21.46C75.1906 14.37 80.1206 9.21 87.1906 9.21C88.8166 9.14522 90.4384 9.41775 91.954 10.0104C93.4695 10.6031 94.8459 11.5032 95.9966 12.6539C97.1473 13.8046 98.0474 15.181 98.6401 16.6966C99.2328 18.2121 99.5053 19.834 99.4406 21.46C99.4406 28.54 94.3406 33.55 87.1906 33.55Z" fill="#00A651"/>
<path d="M201.61 0.82H195.11C194.93 0.809073 194.749 0.835127 194.58 0.896553C194.41 0.957979 194.255 1.05348 194.124 1.17715C193.993 1.30083 193.888 1.45007 193.817 1.61567C193.746 1.78127 193.709 1.95971 193.71 2.14V3.04L196.02 6.66L195.39 7.28C193.49 5.03679 191.131 3.22645 188.473 1.97073C185.815 0.715017 182.919 0.0430445 179.98 0C174.309 0 168.871 2.25253 164.862 6.26205C160.852 10.2716 158.6 15.7097 158.6 21.38C158.6 27.0503 160.852 32.4884 164.862 36.4979C168.871 40.5075 174.309 42.76 179.98 42.76C182.932 42.7264 185.842 42.0611 188.516 40.8088C191.19 39.5566 193.564 37.7464 195.48 35.5L196.02 35.94L193.71 39.72V40.54C193.707 40.7246 193.741 40.9079 193.811 41.0789C193.88 41.25 193.983 41.4054 194.114 41.5359C194.244 41.6665 194.4 41.7695 194.571 41.8389C194.742 41.9083 194.925 41.9427 195.11 41.94H201.61C201.796 41.9485 201.982 41.9182 202.155 41.8508C202.329 41.7835 202.487 41.6807 202.619 41.5489C202.75 41.4172 202.853 41.2594 202.92 41.0857C202.988 40.912 203.018 40.7261 203.01 40.54V2.14C203.016 1.95798 202.984 1.77667 202.915 1.60818C202.845 1.4397 202.741 1.28792 202.609 1.16297C202.476 1.03803 202.318 0.942797 202.146 0.883652C201.974 0.824507 201.791 0.802809 201.61 0.82ZM179.98 33.55C172.91 33.55 167.98 28.55 167.98 21.46C167.98 14.37 172.92 9.21 179.98 9.21C181.606 9.1437 183.229 9.4152 184.745 10.0074C186.261 10.5995 187.638 11.4995 188.789 12.6505C189.94 13.8015 190.84 15.1786 191.432 16.6948C192.024 18.2111 192.296 19.8336 192.23 21.46C192.27 28.54 187.18 33.55 180.02 33.55H179.98Z" fill="#00A651"/>
<path d="M153.31 0.820004H146.61C145.54 0.820004 144.97 1.40001 144.97 1.97001V22.04C144.97 28.29 140.86 32.65 134.52 32.65C128.68 32.65 124.9 28.29 124.9 22.04V1.97001C124.9 1.40001 124 0.820004 123.42 0.820004H116.31C116.012 0.840957 115.732 0.968839 115.52 1.18013C115.309 1.39143 115.181 1.67192 115.16 1.97001V21.97C115.16 32.66 123.54 41.97 134.56 41.97C139.54 41.9697 144.349 40.1569 148.09 36.87L148.46 37.2L145.46 41.2V42.76C145.46 46.88 139.29 49.18 135.68 49.18H133.41C133.227 49.1678 133.043 49.1921 132.869 49.2515C132.695 49.311 132.534 49.4043 132.397 49.5261C132.259 49.6479 132.147 49.7959 132.067 49.9613C131.987 50.1268 131.94 50.3065 131.93 50.49V57.07C131.963 57.4368 132.134 57.7774 132.409 58.0226C132.684 58.2677 133.042 58.3991 133.41 58.39H135.72C146.72 58.39 154.8 51.97 154.8 39.89V1.97001C154.753 1.62095 154.57 1.30458 154.291 1.08936C154.012 0.874138 153.66 0.777375 153.31 0.820004Z" fill="#00A651"/>
<path d="M92.1396 51.81H4.06958C3.06176 51.81 2.09521 52.2104 1.38257 52.923C0.66993 53.6356 0.269531 54.6022 0.269531 55.61V70.78C0.269531 75.8191 2.27134 80.6518 5.83453 84.215C9.39773 87.7782 14.2304 89.78 19.2695 89.78H92.1796C94.767 89.9373 97.3593 89.5634 99.7968 88.6815C102.234 87.7995 104.466 86.4281 106.353 84.6516C108.241 82.8751 109.745 80.7311 110.774 78.3515C111.802 75.972 112.332 73.4072 112.332 70.815C112.332 68.2228 111.802 65.658 110.774 63.2785C109.745 60.8989 108.241 58.7549 106.353 56.9784C104.466 55.2019 102.234 53.8305 99.7968 52.9485C97.3593 52.0666 94.767 51.6927 92.1796 51.85L92.1396 51.81Z" fill="#00A651"/>
<path d="M22.4297 62.1H28.1497C31.9697 62.1 33.9697 63.62 33.9697 66.57C34.0371 67.3523 33.8559 68.136 33.4519 68.8093C33.0479 69.4826 32.4417 70.0113 31.7197 70.32C32.7234 70.5242 33.618 71.0883 34.235 71.906C34.852 72.7237 35.1488 73.7387 35.0697 74.76C35.0697 79.04 31.1697 79.64 28.9997 79.64H22.4297V62.1ZM28.0997 69.47C29.9797 69.47 30.8997 68.7 30.8997 67.07C30.8997 65.44 29.9497 64.67 28.0997 64.67H25.5297V69.47H28.0997ZM29.0297 76.99C31.0297 76.99 31.9697 76.16 31.9697 74.42C31.9697 72.68 30.9697 71.84 29.0297 71.84H25.5297V76.99H29.0297Z" fill="white"/>
<path d="M43.0099 62.1H46.8799L53.4799 79.64H50.2099L48.7799 75.76H41.1099L39.6899 79.64H36.4199L43.0099 62.1ZM47.8599 73.19L44.9399 65.19L42.0399 73.19H47.8599Z" fill="white"/>
<path d="M55.5197 62.1H59.2498L67.7097 75.41V62.1H70.7897V79.64H67.0397L58.6097 66.32V79.64H55.5098L55.5197 62.1Z" fill="white"/>
<path d="M78.9501 71.92H77.4301V79.64H74.3301V62.1H77.4301V69.22H78.9001L84.9001 62.1H88.5201L81.5201 70.39L88.9401 79.64H85.0401L78.9501 71.92Z" fill="white"/>
</g>
<defs>
<clipPath id="clip0_15973_375503">
<rect width="203.05" height="89.74" fill="white"/>
</clipPath>
</defs>
</svg>
