<svg width="167" height="48" viewBox="0 0 167 48" fill="none" xmlns="http://www.w3.org/2000/svg">
<path d="M36.6631 5.42468e-07C32.8324 -0.00105 29.1534 1.52379 26.4132 4.24826L27.8987 7.12074L27.2896 7.61965C26.0024 5.35004 24.1576 3.45995 21.9361 2.13474C19.7147 0.809536 17.193 0.0947272 14.6183 0.0604639C6.53719 0.0604639 0.000942025 7.25683 0.000942025 15.6929V33.8349C-0.00535138 33.9895 0.0199427 34.1437 0.075199 34.2879C0.130455 34.432 0.214501 34.5629 0.321997 34.6723C0.429493 34.7817 0.558094 34.8673 0.699719 34.9235C0.841345 34.9797 0.992916 35.0054 1.14481 34.999H7.01256C7.15428 34.9991 7.29454 34.9704 7.42528 34.9148C7.55603 34.8591 7.67457 34.7776 7.77408 34.6749C7.8736 34.5722 7.95214 34.4504 8.00501 34.3166C8.05788 34.1828 8.08405 34.0396 8.08208 33.8954V15.4963C8.08208 11.3085 10.5777 7.93715 14.8262 7.93715C18.7925 7.93715 21.6299 10.9608 21.6299 15.4207V30.5391C21.6197 30.689 21.6398 30.8394 21.6888 30.9812C21.7378 31.1229 21.8148 31.253 21.9149 31.3634C22.0151 31.4738 22.1363 31.5622 22.2712 31.6232C22.4061 31.6843 22.5518 31.7167 22.6995 31.7184H28.2998C28.4474 31.7167 28.5932 31.6843 28.7281 31.6232C28.863 31.5622 28.9842 31.4738 29.0843 31.3634C29.1844 31.253 29.2614 31.1229 29.3104 30.9812C29.3594 30.8394 29.3795 30.689 29.3694 30.5391V15.4207C29.3036 14.4552 29.4352 13.4863 29.756 12.5753C30.0767 11.6642 30.5796 10.8307 31.2329 10.1274C31.8863 9.42414 32.6758 8.86641 33.5516 8.48942C34.4274 8.11243 35.3706 7.92438 36.3215 7.93715C40.5552 7.93715 42.9171 11.369 42.9171 15.4963V33.8652C42.9287 34.1646 43.0548 34.4476 43.2685 34.6537C43.4822 34.8599 43.7666 34.973 44.061 34.9688H49.8544C50.0069 34.9776 50.1595 34.9535 50.3021 34.8981C50.4448 34.8427 50.5744 34.7572 50.6824 34.6473C50.7904 34.5374 50.8743 34.4056 50.9287 34.2604C50.9832 34.1151 51.0069 33.9599 50.9983 33.8047V15.6626C50.9389 7.19635 44.7591 5.42468e-07 36.6631 5.42468e-07Z" fill="#00A651"/>
<path d="M89.835 0.653099H84.4265C84.2762 0.642797 84.1253 0.663306 83.9835 0.713322C83.8416 0.763339 83.7118 0.841783 83.6024 0.94366C83.4931 1.04554 83.4064 1.16862 83.348 1.30513C83.2896 1.44164 83.2608 1.58858 83.2632 1.73664V2.46396L85.1819 5.43257L84.6682 5.93723C83.0802 4.10396 81.1114 2.62569 78.894 1.60165C76.6765 0.577612 74.2617 0.0314989 71.8117 0C67.0877 0 62.5572 1.84375 59.2169 5.12564C55.8766 8.40753 54 12.8587 54 17.5C54 22.1413 55.8766 26.5925 59.2169 29.8744C62.5572 33.1562 67.0877 35 71.8117 35C74.2714 34.9741 76.697 34.4307 78.9251 33.4066C81.1531 32.3825 83.1321 30.9013 84.7287 29.0628L85.1819 29.419L83.2632 32.5064V33.1891C83.2612 33.3398 83.2899 33.4893 83.3477 33.6289C83.4054 33.7684 83.491 33.8952 83.5994 34.0018C83.7078 34.1083 83.8369 34.1924 83.9789 34.2491C84.121 34.3059 84.2732 34.3341 84.4265 34.3321H89.835C89.9901 34.3407 90.1452 34.317 90.2903 34.2626C90.4354 34.2082 90.5672 34.1243 90.677 34.0164C90.7868 33.9085 90.8722 33.7791 90.9276 33.6365C90.983 33.4939 91.007 33.3415 90.9982 33.1891V1.73664C91.0055 1.5873 90.98 1.43818 90.9233 1.29945C90.8665 1.16071 90.78 1.03563 90.6695 0.932766C90.5591 0.8299 90.4274 0.751668 90.2833 0.703402C90.1393 0.655137 89.9864 0.637976 89.835 0.653099ZM71.8117 27.4449C69.1232 27.4449 66.5447 26.3955 64.6437 24.5277C62.7426 22.6599 61.6746 20.1266 61.6746 17.4852C61.6746 14.8437 62.7426 12.3104 64.6437 10.4426C66.5447 8.57478 69.1232 7.52546 71.8117 7.52546C74.5002 7.52546 77.0787 8.57478 78.9797 10.4426C80.8808 12.3104 81.9489 14.8437 81.9489 17.4852C81.9489 20.1266 80.8808 22.6599 78.9797 24.5277C77.0787 26.3955 74.5002 27.4449 71.8117 27.4449Z" fill="#00A651"/>
<path d="M165.835 0.653099H160.426C160.276 0.642797 160.125 0.663306 159.983 0.713322C159.842 0.763339 159.712 0.841783 159.602 0.94366C159.493 1.04554 159.406 1.16862 159.348 1.30513C159.29 1.44164 159.261 1.58858 159.263 1.73664V2.46396L161.182 5.43257L160.668 5.93723C159.08 4.10396 157.111 2.62569 154.894 1.60165C152.676 0.577612 150.262 0.0314989 147.812 0C143.088 0 138.557 1.84375 135.217 5.12564C131.877 8.40753 130 12.8587 130 17.5C130 22.1413 131.877 26.5925 135.217 29.8744C138.557 33.1562 143.088 35 147.812 35C150.271 34.9741 152.697 34.4307 154.925 33.4066C157.153 32.3825 159.132 30.9013 160.729 29.0628L161.182 29.419L159.263 32.5064V33.1891C159.261 33.3398 159.29 33.4893 159.348 33.6289C159.405 33.7684 159.491 33.8952 159.599 34.0018C159.708 34.1083 159.837 34.1924 159.979 34.2491C160.121 34.3059 160.273 34.3341 160.426 34.3321H165.835C165.99 34.3407 166.145 34.317 166.29 34.2626C166.435 34.2082 166.567 34.1243 166.677 34.0164C166.787 33.9085 166.872 33.7791 166.928 33.6365C166.983 33.4939 167.007 33.3415 166.998 33.1891V1.73664C167.006 1.5873 166.98 1.43818 166.923 1.29945C166.866 1.16071 166.78 1.03563 166.67 0.932766C166.559 0.8299 166.427 0.751668 166.283 0.703402C166.139 0.655137 165.986 0.637976 165.835 0.653099ZM147.812 27.4449C145.123 27.4449 142.545 26.3955 140.644 24.5277C138.743 22.6599 137.675 20.1266 137.675 17.4852C137.675 14.8437 138.743 12.3104 140.644 10.4426C142.545 8.57478 145.123 7.52546 147.812 7.52546C150.5 7.52546 153.079 8.57478 154.98 10.4426C156.881 12.3104 157.949 14.8437 157.949 17.4852C157.949 20.1266 156.881 22.6599 154.98 24.5277C153.079 26.3955 150.5 27.4449 147.812 27.4449Z" fill="#00A651"/>
<path d="M125.77 1.01153H120.384C119.52 1.01153 119.051 1.48542 119.051 1.94449V18.3377C119.127 19.4838 118.962 20.6332 118.567 21.7101C118.172 22.7871 117.556 23.7671 116.76 24.5856C115.963 25.4041 115.004 26.0426 113.946 26.4589C112.887 26.8752 111.754 27.0599 110.62 27.0008C105.906 27.0008 102.862 23.4467 102.862 18.3377V1.94449C102.862 1.48542 102.13 1.01153 101.661 1.01153H95.9232C95.6853 1.03169 95.4621 1.13647 95.2933 1.30725C95.1245 1.47804 95.0209 1.7038 95.001 1.94449V18.234C94.954 22.4921 96.5751 26.5958 99.5101 29.6482C102.445 32.7006 106.455 34.4534 110.664 34.5236C114.69 34.5241 118.577 33.0393 121.599 30.3475L121.891 30.6289L119.505 33.9165V35.2344C119.505 38.596 114.514 40.4767 111.601 40.4767H109.742C109.441 40.4605 109.146 40.565 108.922 40.7674C108.697 40.9699 108.56 41.2539 108.541 41.5577V46.9185C108.567 47.2196 108.706 47.4992 108.929 47.7002C109.152 47.9011 109.443 48.0082 109.742 47.9995H111.601C120.501 47.9995 127 42.7572 127 32.8798V1.94449C126.98 1.80135 126.933 1.66357 126.86 1.53909C126.788 1.41461 126.691 1.30589 126.577 1.21917C126.463 1.13246 126.333 1.06947 126.194 1.03384C126.056 0.998203 125.912 0.990619 125.77 1.01153Z" fill="#00A651"/>
</svg>
