<svg width="108" height="108" viewBox="0 0 108 108" fill="none" xmlns="http://www.w3.org/2000/svg">
<path d="M0 24C0 10.7452 10.7452 0 24 0H84C97.2548 0 108 10.7452 108 24V84C108 97.2548 97.2548 108 84 108H24C10.7452 108 0 97.2548 0 84V24Z" fill="black"/>
<path d="M67.9932 32C63.195 32.009 58.5893 33.8875 55.1536 37.2369L56.9334 40.7819L56.201 41.3825C54.5998 38.5702 52.2916 36.225 49.505 34.5793C46.7185 32.9336 43.5504 32.0444 40.3144 32C30.1775 32 22.0036 40.8698 22.0036 51.2557V73.6316C21.9894 73.8276 22.0176 74.0244 22.0862 74.2085C22.1548 74.3927 22.2622 74.5599 22.4012 74.6989C22.5401 74.8378 22.7074 74.9453 22.8915 75.0139C23.0757 75.0825 23.2724 75.1107 23.4684 75.0965H30.7928C30.9709 75.0994 31.1478 75.0666 31.3131 75C31.4783 74.9334 31.6286 74.8344 31.7549 74.7088C31.8812 74.5832 31.981 74.4335 32.0485 74.2686C32.116 74.1037 32.1498 73.927 32.1478 73.7488V51.1165C32.1478 45.9895 35.268 41.7414 40.5928 41.7414C45.5733 41.7414 49.1183 45.4548 49.1183 50.9481V69.53C49.1031 69.7169 49.1269 69.905 49.1881 70.0823C49.2494 70.2596 49.3468 70.4223 49.4742 70.56C49.6015 70.6977 49.7561 70.8074 49.9281 70.8823C50.1001 70.9571 50.2857 70.9955 50.4733 70.9948H57.4827C57.67 70.9956 57.8554 70.9572 58.027 70.8823C58.1987 70.8073 58.3528 70.6975 58.4796 70.5596C58.6064 70.4218 58.7031 70.259 58.7635 70.0818C58.8239 69.9045 58.8467 69.7166 58.8304 69.53V50.9188C58.8304 45.4255 62.5512 41.7121 67.5317 41.7121C72.8492 41.7121 75.8083 45.9309 75.8083 51.0873V73.7195C75.8158 73.9042 75.8597 74.0857 75.9374 74.2534C76.0151 74.4212 76.1252 74.5719 76.2612 74.6971C76.3973 74.8223 76.5567 74.9194 76.7303 74.9829C76.904 75.0464 77.0884 75.075 77.2731 75.0672H84.5316C84.7276 75.0814 84.9243 75.0532 85.1085 74.9846C85.2926 74.916 85.4599 74.8085 85.5988 74.6696C85.7378 74.5306 85.8452 74.3634 85.9138 74.1792C85.9824 73.9951 86.0106 73.7983 85.9964 73.6023V51.2557C85.8939 40.8698 78.0422 32 67.9932 32Z" fill="#2FF29E"/>
</svg>
