<svg width="101" height="100" viewBox="0 0 101 100" fill="none" xmlns="http://www.w3.org/2000/svg">
<path d="M46.0918 18.1663C47.2133 13.5444 53.7867 13.5444 54.9082 18.1663C55.7544 21.6534 60.1228 22.8239 62.5992 20.2271C65.8815 16.7852 71.5742 20.0718 70.2345 24.6353C69.2237 28.0783 72.4217 31.2763 75.8647 30.2655C80.4282 28.9258 83.7149 34.6185 80.2729 37.9008C77.6761 40.3772 78.8466 44.7456 82.3337 45.5918C86.9556 46.7133 86.9557 53.2867 82.3337 54.4082C78.8466 55.2544 77.6761 59.6228 80.2729 62.0992C83.7149 65.3815 80.4282 71.0742 75.8647 69.7345C72.4217 68.7237 69.2237 71.9217 70.2345 75.3647C71.5742 79.9282 65.8815 83.2149 62.5992 79.7729C60.1228 77.1761 55.7544 78.3466 54.9082 81.8337C53.7867 86.4556 47.2133 86.4557 46.0918 81.8337C45.2456 78.3466 40.8772 77.1761 38.4008 79.7729C35.1185 83.2149 29.4258 79.9282 30.7655 75.3647C31.7763 71.9217 28.5783 68.7237 25.1353 69.7345C20.5718 71.0742 17.2852 65.3815 20.7271 62.0992C23.3239 59.6228 22.1534 55.2544 18.6663 54.4082C14.0444 53.2867 14.0444 46.7133 18.6663 45.5918C22.1534 44.7456 23.3239 40.3772 20.7271 37.9008C17.2852 34.6185 20.5718 28.9258 25.1353 30.2655C28.5783 31.2763 31.7763 28.0783 30.7655 24.6353C29.4258 20.0718 35.1185 16.7852 38.4008 20.2271C40.8772 22.8239 45.2456 21.6534 46.0918 18.1663Z" fill="#00A651"/>
<path fill-rule="evenodd" clip-rule="evenodd" d="M48.4649 53.97L60.715 41.4131L63.4056 44.0379L49.8267 57.9568C49.4758 58.3165 48.9955 58.5207 48.493 58.5238C47.9906 58.5269 47.5078 58.3287 47.1525 57.9734L38.7905 49.6114L41.4484 46.9535L48.4649 53.97Z" fill="white"/>
</svg>
