<svg width="16" height="17" viewBox="0 0 16 17" fill="none" xmlns="http://www.w3.org/2000/svg">
<g clip-path="url(#clip0_5206_57128)">
<path fill-rule="evenodd" clip-rule="evenodd" d="M9.08903 10.2972L14.5207 4.72954L15.7137 5.89339L9.69285 12.065C9.53727 12.2245 9.3243 12.315 9.10151 12.3164C8.87871 12.3178 8.66464 12.2299 8.5071 12.0723L4.79942 8.36464L5.97793 7.18613L9.08903 10.2972Z" fill="#00A651"/>
<path d="M10.1628 4.38039L5.08463 9.58572L2.33148 6.83258C2.13622 6.63732 1.81964 6.63732 1.62438 6.83258L0.445865 8.01109C0.250603 8.20635 0.250603 8.52293 0.445865 8.7182L4.15355 12.4259C4.40562 12.6779 4.74813 12.8186 5.1046 12.8164C5.46107 12.8142 5.80182 12.6693 6.05075 12.4142L12.0716 6.24255C12.2644 6.04489 12.2605 5.72833 12.0629 5.53549L10.8699 4.37164C10.7749 4.27904 10.6471 4.22794 10.5145 4.22958C10.3819 4.23122 10.2554 4.28547 10.1628 4.38039Z" fill="#00A651" stroke="white" stroke-linejoin="round"/>
<rect x="6" y="6.5" width="1.55938" height="2.76645" transform="rotate(45 6 6.5)" fill="white"/>
</g>
<defs>
<clipPath id="clip0_5206_57128">
<rect width="16" height="16" fill="white" transform="translate(0 0.5)"/>
</clipPath>
</defs>
</svg>
