<svg width="22" height="19" viewBox="0 0 22 19" fill="none" xmlns="http://www.w3.org/2000/svg">
<path fill-rule="evenodd" clip-rule="evenodd" d="M3.99506 16.2188C3.31283 16.2188 2.75977 15.6657 2.75977 14.9835V11.6305H0.759766V14.9835C0.759766 16.7703 2.20826 18.2188 3.99506 18.2188H7.33759V16.2188H3.99506ZM17.9913 16.2188C18.6735 16.2188 19.2266 15.6657 19.2266 14.9835V11.6305H21.2266V14.9835C21.2266 16.7703 19.7781 18.2188 17.9913 18.2188H14.6487V16.2188H17.9913ZM11.9937 9.0014L11.9937 0.740627H9.99375V9.02405L7.29149 6.32179L5.87728 7.73601L10.2753 12.134C10.6658 12.5246 11.299 12.5246 11.6895 12.134L16.0876 7.73601L14.6734 6.32179L11.9937 9.0014Z" fill="black"/>
</svg>
