<svg width="14" height="16" viewBox="0 0 14 16" fill="none" xmlns="http://www.w3.org/2000/svg">
<path d="M6.32774 3.087L5.0819 1.93662L5.98643 0.957031L8.42256 3.20649C8.69307 3.45627 8.70988 3.87805 8.4601 4.14855L6.21064 6.58469L5.23104 5.68016L6.39325 4.42151C3.8783 4.72657 1.95532 6.89531 2.01027 9.48201C2.06881 12.238 4.35047 14.4246 7.10623 14.3661C9.86219 14.3075 12.0489 12.026 11.9904 9.27C11.9825 8.9019 12.2746 8.59715 12.6427 8.58933C13.0108 8.58151 13.3156 8.87358 13.3234 9.24169C13.3976 12.7339 10.6267 15.6249 7.13455 15.6991C3.64258 15.7733 0.751422 13.0025 0.677237 9.51033C0.606906 6.19957 3.09368 3.42916 6.32774 3.087Z" fill="#00A651"/>
</svg>
