<svg width="19" height="19" viewBox="0 0 19 19" fill="none" xmlns="http://www.w3.org/2000/svg">
<path d="M9.02478 17C12.0068 17 15.0248 15.9695 15.0248 14V5C15.0248 3.0305 12.0068 2 9.02478 2C6.04278 2 3.02478 3.0305 3.02478 5V14C3.02478 15.9695 6.04278 17 9.02478 17ZM9.02478 15.5C6.23328 15.5 4.52478 14.5287 4.52478 14V13.049C5.68053 13.6775 7.35753 14 9.02478 14C10.692 14 12.369 13.6775 13.5248 13.049V14C13.5248 14.5287 11.8163 15.5 9.02478 15.5ZM9.02478 3.5C11.8163 3.5 13.5248 4.47125 13.5248 5C13.5248 5.52875 11.8163 6.5 9.02478 6.5C6.23328 6.5 4.52478 5.52875 4.52478 5C4.52478 4.47125 6.23328 3.5 9.02478 3.5ZM4.52478 7.049C5.68053 7.6775 7.35753 8 9.02478 8C10.692 8 12.369 7.6775 13.5248 7.049V8C13.5248 8.52875 11.8163 9.5 9.02478 9.5C6.23328 9.5 4.52478 8.52875 4.52478 8V7.049ZM4.52478 10.049C5.68053 10.6775 7.35753 11 9.02478 11C10.692 11 12.369 10.6775 13.5248 10.049V11C13.5248 11.5287 11.8163 12.5 9.02478 12.5C6.23328 12.5 4.52478 11.5287 4.52478 11V10.049Z" fill="black"/>
</svg>
