<svg width="71" height="20" viewBox="0 0 71 20" fill="none" xmlns="http://www.w3.org/2000/svg">
<path d="M15.9848 2.26028e-07C14.3886 -0.000437498 12.8557 0.634911 11.714 1.77011L12.333 2.96698L12.0792 3.17486C11.5428 2.22918 10.7741 1.44165 9.84855 0.889476C8.92296 0.337307 7.87226 0.0394697 6.79947 0.0251933C3.43233 0.0251933 0.708889 3.02368 0.708889 6.5387V14.0979C0.706266 14.1623 0.716806 14.2266 0.739829 14.2866C0.762852 14.3467 0.797871 14.4012 0.842661 14.4468C0.887452 14.4924 0.941035 14.528 1.00005 14.5515C1.05906 14.5749 1.12221 14.5856 1.1855 14.5829H3.6304C3.68944 14.5829 3.74789 14.571 3.80236 14.5478C3.85684 14.5246 3.90623 14.4907 3.9477 14.4479C3.98916 14.4051 4.02189 14.3543 4.04392 14.2986C4.06595 14.2428 4.07685 14.1832 4.07603 14.1231V6.45681C4.07603 4.71189 5.11587 3.30715 6.88609 3.30715C8.53871 3.30715 9.72094 4.56701 9.72094 6.42531V12.7246C9.71672 12.7871 9.72507 12.8498 9.74549 12.9088C9.76591 12.9679 9.79799 13.0221 9.83971 13.0681C9.88143 13.1141 9.93193 13.1509 9.98814 13.1763C10.0444 13.2018 10.1051 13.2153 10.1666 13.216H12.5001C12.5616 13.2153 12.6223 13.2018 12.6785 13.1763C12.7347 13.1509 12.7852 13.1141 12.827 13.0681C12.8687 13.0221 12.9007 12.9679 12.9212 12.9088C12.9416 12.8498 12.9499 12.7871 12.9457 12.7246V6.42531C12.9183 6.02302 12.9732 5.61931 13.1068 5.23969C13.2405 4.86006 13.45 4.51277 13.7222 4.21975C13.9944 3.92672 14.3234 3.69434 14.6883 3.53726C15.0533 3.38018 15.4463 3.30182 15.8425 3.30715C17.6065 3.30715 18.5906 4.73709 18.5906 6.45681V14.1105C18.5955 14.2352 18.648 14.3532 18.737 14.4391C18.8261 14.525 18.9446 14.5721 19.0672 14.5703H21.4812C21.5447 14.574 21.6083 14.5639 21.6677 14.5409C21.7272 14.5178 21.7812 14.4822 21.8262 14.4364C21.8711 14.3906 21.9061 14.3356 21.9288 14.2751C21.9515 14.2146 21.9614 14.1499 21.9578 14.0853V6.5261C21.933 2.99848 19.3581 2.26028e-07 15.9848 2.26028e-07Z" fill="#00A651"/>
<path d="M38.1398 0.272125H35.8862C35.8236 0.267832 35.7607 0.276377 35.7016 0.297218C35.6425 0.318058 35.5884 0.350743 35.5428 0.393192C35.4973 0.435641 35.4612 0.486927 35.4368 0.543806C35.4125 0.600685 35.4005 0.661909 35.4015 0.723599V1.02665L36.2009 2.26357L35.9869 2.47385C35.3252 1.70998 34.5049 1.09404 33.581 0.667355C32.6571 0.240672 31.6509 0.0131245 30.63 0C28.6617 0 26.774 0.76823 25.3822 2.13568C23.9904 3.50314 23.2085 5.3578 23.2085 7.29167C23.2085 9.22554 23.9904 11.0802 25.3822 12.4476C26.774 13.8151 28.6617 14.5833 30.63 14.5833C31.6549 14.5725 32.6656 14.3461 33.5939 13.9194C34.5223 13.4927 35.3469 12.8755 36.0121 12.1095L36.2009 12.2579L35.4015 13.5443V13.8288C35.4007 13.8916 35.4126 13.9539 35.4367 14.012C35.4608 14.0702 35.4964 14.123 35.5416 14.1674C35.5868 14.2118 35.6405 14.2468 35.6997 14.2705C35.7589 14.2941 35.8223 14.3059 35.8862 14.305H38.1398C38.2044 14.3086 38.269 14.2987 38.3294 14.2761C38.3899 14.2534 38.4448 14.2185 38.4906 14.1735C38.5363 14.1286 38.5719 14.0746 38.595 14.0152C38.6181 13.9558 38.6281 13.8923 38.6244 13.8288V0.723599C38.6275 0.661374 38.6168 0.599243 38.5932 0.541437C38.5696 0.483631 38.5335 0.431513 38.4875 0.388653C38.4414 0.345792 38.3866 0.313195 38.3266 0.293084C38.2665 0.272974 38.2028 0.265823 38.1398 0.272125ZM30.63 11.4354C29.5098 11.4354 28.4355 10.9981 27.6434 10.2199C26.8512 9.44164 26.4063 8.3861 26.4063 7.28548C26.4063 6.18486 26.8512 5.12933 27.6434 4.35108C28.4355 3.57283 29.5098 3.13561 30.63 3.13561C31.7503 3.13561 32.8246 3.57283 33.6167 4.35108C34.4088 5.12933 34.8539 6.18486 34.8539 7.28548C34.8539 8.3861 34.4088 9.44164 33.6167 10.2199C32.8246 10.9981 31.7503 11.4354 30.63 11.4354Z" fill="#00A651"/>
<path d="M69.8062 0.272125H67.5527C67.49 0.267832 67.4272 0.276377 67.3681 0.297218C67.309 0.318058 67.2549 0.350743 67.2093 0.393192C67.1637 0.435641 67.1276 0.486927 67.1033 0.543806C67.079 0.600685 67.067 0.661909 67.068 0.723599V1.02665L67.8674 2.26357L67.6534 2.47385C66.9917 1.70998 66.1714 1.09404 65.2475 0.667355C64.3235 0.240672 63.3174 0.0131245 62.2965 0C60.3282 0 58.4405 0.76823 57.0487 2.13568C55.6569 3.50314 54.875 5.3578 54.875 7.29167C54.875 9.22554 55.6569 11.0802 57.0487 12.4476C58.4405 13.8151 60.3282 14.5833 62.2965 14.5833C63.3214 14.5725 64.332 14.3461 65.2604 13.9194C66.1888 13.4927 67.0133 12.8755 67.6786 12.1095L67.8674 12.2579L67.068 13.5443V13.8288C67.0672 13.8916 67.0791 13.9539 67.1032 14.012C67.1272 14.0702 67.1629 14.123 67.2081 14.1674C67.2533 14.2118 67.307 14.2468 67.3662 14.2705C67.4254 14.2941 67.4888 14.3059 67.5527 14.305H69.8062C69.8708 14.3086 69.9355 14.2987 69.9959 14.2761C70.0564 14.2534 70.1113 14.2185 70.1571 14.1735C70.2028 14.1286 70.2384 14.0746 70.2615 14.0152C70.2845 13.9558 70.2946 13.8923 70.2909 13.8288V0.723599C70.294 0.661374 70.2833 0.599243 70.2597 0.541437C70.236 0.483631 70.2 0.431513 70.154 0.388653C70.108 0.345792 70.053 0.313195 69.993 0.293084C69.933 0.272974 69.8693 0.265823 69.8062 0.272125ZM62.2965 11.4354C61.1763 11.4354 60.102 10.9981 59.3099 10.2199C58.5177 9.44164 58.0727 8.3861 58.0727 7.28548C58.0727 6.18486 58.5177 5.12933 59.3099 4.35108C60.102 3.57283 61.1763 3.13561 62.2965 3.13561C63.4168 3.13561 64.4911 3.57283 65.2832 4.35108C66.0753 5.12933 66.5204 6.18486 66.5204 7.28548C66.5204 8.3861 66.0753 9.44164 65.2832 10.2199C64.4911 10.9981 63.4168 11.4354 62.2965 11.4354Z" fill="#00A651"/>
<path d="M53.113 0.42131H50.8685C50.5086 0.42131 50.3134 0.618762 50.3134 0.810041V7.64055C50.3451 8.11809 50.2764 8.59701 50.1117 9.04573C49.9471 9.49445 49.6904 9.90278 49.3585 10.2438C49.0266 10.5849 48.627 10.8509 48.186 11.0244C47.7451 11.1978 47.2728 11.2748 46.8003 11.2502C44.8363 11.2502 43.5677 9.76929 43.5677 7.64055V0.810041C43.5677 0.618762 43.2627 0.42131 43.0676 0.42131H40.6767C40.5775 0.42971 40.4846 0.473365 40.4142 0.544526C40.3439 0.615687 40.3007 0.709756 40.2924 0.810041V7.59736C40.2728 9.37153 40.9483 11.0814 42.1712 12.3532C43.3941 13.6251 45.065 14.3554 46.8186 14.3847C48.496 14.3849 50.1159 13.7662 51.3747 12.6447L51.4967 12.7619L50.5025 14.1317V14.6808C50.5025 16.0815 48.4227 16.8651 47.209 16.8651H46.4343C46.3091 16.8584 46.1863 16.9019 46.0927 16.9863C45.999 17.0706 45.9421 17.189 45.9342 17.3156V19.5492C45.945 19.6747 46.0029 19.7912 46.0958 19.8749C46.1888 19.9586 46.3099 20.0033 46.4343 19.9996H47.209C50.9173 19.9996 53.6253 17.8154 53.6253 13.6998V0.810041C53.6171 0.750401 53.5973 0.692992 53.5671 0.641125C53.5368 0.589258 53.4967 0.543956 53.4491 0.507825C53.4015 0.471695 53.3473 0.44545 53.2896 0.430603C53.2319 0.415755 53.1719 0.412595 53.113 0.42131Z" fill="#00A651"/>
</svg>
