<svg width="8" height="9" viewBox="0 0 8 9" fill="none" xmlns="http://www.w3.org/2000/svg">
<path fill-rule="evenodd" clip-rule="evenodd" d="M1.06519 6.32249L1.16083 6.47261L1.2642 6.61753L1.37501 6.75683L1.49296 6.89015L1.61772 7.01711L1.74896 7.13737L1.88631 7.25059L2.0294 7.35647L2.17783 7.45472L2.33121 7.54506L2.4891 7.62726L2.65107 7.70107L2.81669 7.76631L2.9855 7.82279L3.15703 7.87036L3.33081 7.90889L3.50637 7.93827L3.68323 7.95842L3.8609 7.96928L4.0389 7.97084L4.21673 7.96307L4.39392 7.94601L4.56996 7.9197L4.74439 7.88421L4.91673 7.83965L5.08649 7.78612L5.25322 7.72378L5.41646 7.6528L5.57576 7.57338L5.73069 7.48572L5.88082 7.39008L6.02573 7.28672L6.16504 7.17591L6.29835 7.05796L6.42531 6.93319L6.54557 6.80196L6.6588 6.66461L6.76468 6.52152L6.86292 6.37308L6.95327 6.21971L7.03546 6.06182L7.10928 5.89984L7.17451 5.73422L7.231 5.56542L7.27856 5.39389L7.31709 5.22011L7.34647 5.04454L7.36662 4.86769L7.37749 4.69001L7.37904 4.51202L7.37128 4.33418L7.36403 4.25888C7.29558 3.83011 7.00817 3.50678 6.54138 3.50678C6.03677 3.50678 5.6598 3.88588 5.6598 4.44668V6.34666C5.66145 6.36571 5.65914 6.38489 5.65302 6.40299C5.6469 6.42109 5.63711 6.4377 5.62426 6.45177C5.61141 6.46584 5.5958 6.47706 5.57841 6.48471C5.56102 6.49236 5.54224 6.49628 5.52326 6.4962H4.8131C4.79409 6.49627 4.77528 6.49235 4.75785 6.48471C4.74043 6.47707 4.72477 6.46587 4.71186 6.45181C4.69896 6.43775 4.68909 6.42115 4.68289 6.40305C4.67668 6.38495 4.67427 6.36575 4.67581 6.34666V4.44967C4.67581 3.88887 4.31665 3.50978 3.81204 3.50978C3.27255 3.50978 2.95643 3.94346 2.95643 4.46687V6.77735C2.95663 6.79554 2.95321 6.81358 2.94637 6.83041C2.93954 6.84725 2.92942 6.86253 2.91662 6.87535C2.90382 6.88818 2.8886 6.89829 2.87186 6.90509C2.85512 6.91188 2.8372 6.91523 2.81915 6.91493H2.07707C2.05722 6.91638 2.03728 6.9135 2.01862 6.9065C1.99996 6.8995 1.98302 6.88853 1.96894 6.87434C1.95486 6.86016 1.94398 6.84308 1.93703 6.82428C1.93008 6.80548 1.92722 6.7854 1.92866 6.76539V4.48107C1.92866 3.42079 2.75681 2.5153 3.78384 2.5153C4.11169 2.51983 4.43267 2.6106 4.71499 2.77861C4.9808 2.93679 5.20365 3.15827 5.3642 3.42325C5.37982 3.44903 5.41472 3.45552 5.43796 3.43632C5.45532 3.42198 5.4605 3.39756 5.45045 3.3774L5.37342 3.22281C5.32206 3.11972 5.34177 2.99372 5.43181 2.92189C5.75949 2.66048 6.16648 2.51609 6.58813 2.5153C6.62726 2.5153 6.6507 2.46959 6.62634 2.43897L6.58411 2.38588L6.46616 2.25256L6.3414 2.1256L6.21016 2.00534L6.07281 1.89212L5.92972 1.78624L5.78128 1.68799L5.62791 1.59765L5.47002 1.51546L5.30805 1.44164L5.14243 1.3764L4.97362 1.31992L4.80209 1.27235L4.62831 1.23382L4.45275 1.20445L4.27589 1.1843L4.09822 1.17343L3.92022 1.17188L3.74239 1.17964L3.5652 1.1967L3.38916 1.22301L3.21473 1.2585L3.04239 1.30307L2.87263 1.35659L2.7059 1.41893L2.54266 1.48991L2.38336 1.56934L2.22843 1.65699L2.0783 1.75263L1.93339 1.856L1.79408 1.96681L1.66077 2.08475L1.53381 2.20952L1.41355 2.34076L1.30032 2.47811L1.19444 2.6212L1.0962 2.76963L1.00585 2.923L0.923661 3.08089L0.849844 3.24287L0.784605 3.40849L0.728124 3.57729L0.680555 3.74882L0.642028 3.92261L0.612649 4.09817L0.592498 4.27503L0.581632 4.4527L0.580078 4.63069L0.587843 4.80853L0.604903 4.98571L0.631214 5.16176L0.666702 5.33619L0.711271 5.50852L0.764797 5.67829L0.827135 5.84502L0.898114 6.00826L0.977539 6.16756L1.06519 6.32249Z" fill="url(#paint0_linear_48453_88172)"/>
<defs>
<linearGradient id="paint0_linear_48453_88172" x1="-0.0339039" y1="1.17188" x2="6.04942" y2="7.97084" gradientUnits="userSpaceOnUse">
<stop stop-color="white"/>
<stop offset="1" stop-color="#999999"/>
</linearGradient>
</defs>
</svg>
