<svg width="18" height="18" viewBox="0 0 18 18" fill="none" xmlns="http://www.w3.org/2000/svg">
<path fill-rule="evenodd" clip-rule="evenodd" d="M1.66347 12.9234L1.90257 13.2987L2.16099 13.661L2.43801 14.0093L2.73288 14.3426L3.04479 14.66L3.37289 14.9606L3.71627 15.2437L4.07399 15.5084L4.44507 15.754L4.82851 15.9798L5.22323 16.1853L5.62817 16.3699L6.04222 16.533L6.46423 16.6742L6.89305 16.7931L7.32751 16.8894L7.76642 16.9629L8.20856 17.0132L8.65274 17.0404L9.09773 17.0443L9.54232 17.0249L9.98528 16.9822L10.4254 16.9164L10.8615 16.8277L11.2923 16.7163L11.7167 16.5825L12.1335 16.4266L12.5416 16.2492L12.9399 16.0506L13.3272 15.8315L13.7025 15.5924L14.0648 15.334L14.4131 15.057L14.7464 14.7621L15.0638 14.4502L15.3644 14.1221L15.6475 13.7787L15.9122 13.421L16.1578 13.0499L16.3837 12.6665L16.5891 12.2717L16.7737 11.8668L16.9368 11.4527L17.078 11.0307L17.1969 10.6019L17.2932 10.1675L17.3667 9.72855L17.417 9.2864L17.4442 8.84222L17.4481 8.39723L17.4287 7.95265L17.4089 7.74706C17.2337 6.68215 16.5164 5.88089 15.3546 5.88089C14.093 5.88089 13.1506 6.82864 13.1506 8.23063V12.9806C13.1547 13.0282 13.149 13.0762 13.1337 13.1214C13.1184 13.1667 13.0939 13.2082 13.0618 13.2434C13.0296 13.2785 12.9906 13.3066 12.9471 13.3257C12.9036 13.3448 12.8567 13.3546 12.8092 13.3544H11.0338C10.9863 13.3546 10.9393 13.3448 10.8957 13.3257C10.8522 13.3066 10.813 13.2786 10.7808 13.2435C10.7485 13.2083 10.7238 13.1668 10.7083 13.1215C10.6928 13.0763 10.6868 13.0283 10.6906 12.9806V8.23811C10.6906 6.83612 9.79272 5.88837 8.5312 5.88837C7.18248 5.88837 6.39218 6.97257 6.39218 8.2811V14.0573C6.39268 14.1028 6.38413 14.1479 6.36703 14.19C6.34994 14.232 6.32465 14.2703 6.29265 14.3023C6.26066 14.3344 6.22261 14.3597 6.18075 14.3766C6.1389 14.3936 6.09409 14.402 6.04897 14.4013H4.19378C4.14414 14.4049 4.0943 14.3977 4.04765 14.3802C4.00101 14.3627 3.95865 14.3353 3.92346 14.2998C3.88826 14.2643 3.86104 14.2216 3.84367 14.1746C3.82629 14.1276 3.81916 14.0774 3.82275 14.0274V8.31662C3.82275 5.66592 5.89313 3.40217 8.4607 3.40217C9.28032 3.41352 10.0828 3.64043 10.7886 4.06045C11.4944 4.48047 12.079 5.07901 12.4846 5.79677L12.6701 5.64349L12.2193 4.73874C13.0895 3.88391 14.2561 3.40446 15.4714 3.40217C15.5554 3.40217 15.6387 3.40463 15.7213 3.40949L15.4608 3.08189L15.1659 2.74859L14.854 2.43119L14.5259 2.13055L14.1825 1.84749L13.8248 1.58279L13.4537 1.33717L13.0703 1.11131L12.6755 0.905831L12.2706 0.721289L11.8566 0.558194L11.4345 0.416991L11.0057 0.298067L10.5713 0.20175L10.1324 0.128302L9.69021 0.0779262L9.24603 0.050759L8.80104 0.046875L8.35646 0.0662867L7.9135 0.108939L7.47338 0.174714L7.0373 0.263436L6.60647 0.374856L6.18206 0.508673L5.76523 0.664518L5.35713 0.841964L4.95888 1.04053L4.57156 1.25966L4.19625 1.49876L3.83396 1.75718L3.48569 2.0342L3.1524 2.32907L2.835 2.64098L2.53436 2.96908L2.2513 3.31246L1.9866 3.67018L1.74098 4.04127L1.51512 4.4247L1.30964 4.81942L1.1251 5.22436L0.962002 5.63841L0.820799 6.06042L0.701876 6.48924L0.605558 6.9237L0.53211 7.36261L0.481734 7.80475L0.454567 8.24893L0.450684 8.69392L0.470095 9.13851L0.512747 9.58147L0.578523 10.0216L0.667244 10.4577L0.778665 10.8885L0.912482 11.3129L1.06833 11.7297L1.24577 12.1378L1.44433 12.5361L1.66347 12.9234Z" fill="url(#paint0_linear_48453_88167)"/>
<defs>
<linearGradient id="paint0_linear_48453_88167" x1="-7.94035" y1="-1.18197" x2="19.9015" y2="11.1517" gradientUnits="userSpaceOnUse">
<stop stop-color="#28C480"/>
<stop offset="1" stop-color="#135E3D"/>
</linearGradient>
</defs>
</svg>
