<svg width="20" height="21" viewBox="0 0 20 21" fill="none" xmlns="http://www.w3.org/2000/svg">
    <path fill-rule="evenodd" clip-rule="evenodd" d="M9.67336 0.351562C4.70279 0.351562 0.673355 4.381 0.673355 9.35156C0.673355 14.3221 4.70279 18.3516 9.67336 18.3516C11.5042 18.3516 13.2073 17.8049 14.6284 16.8659L18.0592 20.8083L19.7942 19.2984L16.3705 15.3641C17.8022 13.7703 18.6734 11.6627 18.6734 9.35156C18.6734 4.381 14.6439 0.351562 9.67336 0.351562ZM2.97336 9.35156C2.97336 5.65125 5.97305 2.65156 9.67336 2.65156C13.3737 2.65156 16.3734 5.65125 16.3734 9.35156C16.3734 13.0519 13.3737 16.0516 9.67336 16.0516C5.97305 16.0516 2.97336 13.0519 2.97336 9.35156Z" fill="#00A651"/>
    </svg>
    