<svg width="17" height="16" viewBox="0 0 17 16" fill="none" xmlns="http://www.w3.org/2000/svg">
<path d="M9.20555 13.8111C9.01805 13.9983 8.76388 14.1035 8.49888 14.1035C8.23388 14.1035 7.97972 13.9983 7.79222 13.8111L4.01955 10.0404C3.83195 9.8528 3.72656 9.59836 3.72656 9.33306C3.72656 9.06776 3.83195 8.81332 4.01955 8.62573C4.20715 8.43813 4.46158 8.33274 4.72688 8.33274C4.99218 8.33274 5.24662 8.43813 5.43422 8.62573L7.49888 10.6897V2.99973C7.49888 2.73451 7.60424 2.48016 7.79178 2.29262C7.97931 2.10509 8.23367 1.99973 8.49888 1.99973C8.7641 1.99973 9.01845 2.10509 9.20599 2.29262C9.39353 2.48016 9.49888 2.73451 9.49888 2.99973V10.6897L11.5629 8.62573C11.6558 8.53284 11.766 8.45916 11.8874 8.40889C12.0088 8.35862 12.1389 8.33274 12.2702 8.33274C12.4016 8.33274 12.5317 8.35862 12.653 8.40889C12.7744 8.45916 12.8847 8.53284 12.9775 8.62573C13.0704 8.71862 13.1441 8.82889 13.1944 8.95026C13.2447 9.07162 13.2705 9.2017 13.2705 9.33306C13.2705 9.46443 13.2447 9.5945 13.1944 9.71587C13.1441 9.83723 13.0704 9.94751 12.9775 10.0404L9.20555 13.8111Z" fill="white"/>
</svg>
