<svg width="17" height="16" viewBox="0 0 17 16" fill="none" xmlns="http://www.w3.org/2000/svg">
<path d="M9.20555 2.18894C9.01805 2.00167 8.76388 1.89648 8.49888 1.89648C8.23388 1.89648 7.97972 2.00167 7.79222 2.18894L4.01955 5.95961C3.83195 6.1472 3.72656 6.40164 3.72656 6.66694C3.72656 6.93224 3.83195 7.18668 4.01955 7.37427C4.20715 7.56187 4.46158 7.66726 4.72688 7.66726C4.99218 7.66726 5.24662 7.56187 5.43422 7.37427L7.49888 5.31027V13.0003C7.49888 13.2655 7.60424 13.5198 7.79178 13.7074C7.97931 13.8949 8.23367 14.0003 8.49888 14.0003C8.7641 14.0003 9.01845 13.8949 9.20599 13.7074C9.39353 13.5198 9.49888 13.2655 9.49888 13.0003V5.31027L11.5629 7.37427C11.6558 7.46716 11.766 7.54084 11.8874 7.59111C12.0088 7.64138 12.1389 7.66726 12.2702 7.66726C12.4016 7.66726 12.5317 7.64138 12.653 7.59111C12.7744 7.54084 12.8847 7.46716 12.9775 7.37427C13.0704 7.28138 13.1441 7.17111 13.1944 7.04974C13.2447 6.92838 13.2705 6.7983 13.2705 6.66694C13.2705 6.53557 13.2447 6.4055 13.1944 6.28413C13.1441 6.16277 13.0704 6.05249 12.9775 5.95961L9.20555 2.18894Z" fill="#00FF91"/>
</svg>
