<svg width="20" height="21" viewBox="0 0 20 21" fill="none" xmlns="http://www.w3.org/2000/svg">
<path d="M11.5488 2.17603C12.1673 2.17603 12.7618 2.41852 13.2041 2.85083L17.0107 6.57056C17.4665 7.01597 17.7236 7.62666 17.7236 8.26392V16.4563C17.7236 17.7639 16.663 18.8245 15.3555 18.8245H4.64258C3.33518 18.8243 2.27539 17.7637 2.27539 16.4563V4.54321C2.27559 3.23594 3.33531 2.17623 4.64258 2.17603H11.5488ZM4.64258 3.84302C4.25578 3.84322 3.94259 4.15642 3.94238 4.54321V16.4563C3.94238 16.8433 4.25565 17.1573 4.64258 17.1575H15.3555C15.7426 17.1575 16.0566 16.8434 16.0566 16.4563V9.04517H13.123C11.7911 9.04518 10.7109 7.96501 10.7109 6.63306V3.84302H4.64258ZM14.165 15.5237H5.83496V13.8567H14.165V15.5237ZM14.165 12.2864H5.83496V10.6194H14.165V12.2864ZM12.3779 6.63306C12.3779 7.04453 12.7116 7.37818 13.123 7.37817H15.4521L12.3779 4.37329V6.63306Z" fill="black"/>
</svg>
