<svg width="25" height="24" viewBox="0 0 25 24" fill="none" xmlns="http://www.w3.org/2000/svg">
<path d="M12.9395 8.59131L11.9365 8.59131L11.9365 20.698L12.9395 20.698L12.9395 8.59131Z" fill="white"/>
<path d="M9.60059 1.7207C10.6447 1.7207 11.5863 2.15986 12.251 2.86328C12.9156 2.15986 13.8572 1.7207 14.9014 1.7207H15.7842C17.7975 1.72085 19.4295 3.35292 19.4297 5.36621C19.4297 5.95861 19.2869 6.51721 19.0361 7.01172H19.2783C19.4854 7.01177 19.6876 7.03324 19.8828 7.07324C20.371 7.1732 20.8161 7.39155 21.1865 7.69727C21.2605 7.75835 21.3316 7.82284 21.3994 7.89062C21.5352 8.02638 21.6578 8.17531 21.7656 8.33496C21.8195 8.41471 21.8699 8.49708 21.916 8.58203C22.1007 8.92201 22.2217 9.30178 22.2627 9.70508C22.273 9.80603 22.2783 9.90903 22.2783 10.0127V19.2773C22.2783 19.795 22.1468 20.282 21.916 20.707C21.6851 21.1322 21.3541 21.495 20.9551 21.7646C20.8753 21.8185 20.793 21.8689 20.708 21.915C20.283 22.146 19.796 22.2772 19.2783 22.2773H5.22266C3.56582 22.2773 2.22269 20.9342 2.22266 19.2773V10.0127C2.22266 8.35584 3.5658 7.0127 5.22266 7.0127L5.46582 7.01172C5.2151 6.51721 5.07226 5.95861 5.07227 5.36621C5.07241 3.35291 6.70448 1.72085 8.71777 1.7207H9.60059ZM5.22266 9.0127C4.67037 9.0127 4.22266 9.46041 4.22266 10.0127V19.2773C4.22269 19.8296 4.67039 20.2773 5.22266 20.2773H11.2148V9.01172L5.22266 9.0127ZM13.2422 20.2773H16.7109V9.01172H13.2422V20.2773ZM8.71777 3.7207C7.80905 3.72085 7.07241 4.45748 7.07227 5.36621C7.07226 6.27506 7.80896 7.0116 8.71777 7.01172H11.2461V5.36621C11.246 4.4574 10.5094 3.7207 9.60059 3.7207H8.71777ZM14.9014 3.7207C13.9925 3.7207 13.256 4.4574 13.2559 5.36621V7.01172H15.7842C16.693 7.0116 17.4297 6.27506 17.4297 5.36621C17.4295 4.45749 16.6929 3.72085 15.7842 3.7207H14.9014Z" fill="white"/>
</svg>
