<svg width="24" height="24" viewBox="0 0 24 24" fill="none" xmlns="http://www.w3.org/2000/svg">
<path d="M12 2C17.5228 2 22 6.47715 22 12C22 17.5228 17.5228 22 12 22C6.47715 22 2 17.5228 2 12C2 6.47715 6.47715 2 12 2ZM12 4C7.58172 4 4 7.58172 4 12C4 16.4183 7.58172 20 12 20C16.4183 20 20 16.4183 20 12C20 7.58172 16.4183 4 12 4ZM12.7949 18.001H10.7949V16.001H12.7949V18.001ZM12.0195 6.00391C14.072 6.00391 15.7754 7.6661 15.7754 9.73828C15.7753 11.0011 15.1364 12.1781 14.0781 12.8672L12.791 13.7051V14.4863H10.791V12.6211L12.9873 11.1914C13.4787 10.8714 13.7753 10.3247 13.7754 9.73828C13.7754 8.79037 12.9872 8.00391 12.0195 8.00391C11.0289 8.00416 10.2227 8.80932 10.2227 9.78027V9.98926H8.22266V9.78027C8.22266 7.68505 9.94411 6.00416 12.0195 6.00391Z" fill="white"/>
</svg>
