<svg width="25" height="24" viewBox="0 0 25 24" fill="none" xmlns="http://www.w3.org/2000/svg">
<path fill-rule="evenodd" clip-rule="evenodd" d="M14.0968 2.84101C14.1888 3.09212 14.2135 3.35889 14.2135 3.59364V9.06668H17.8224C18.3537 9.06668 19.0456 9.24979 19.3939 9.90404C19.7426 10.5589 19.5074 11.2356 19.2096 11.6766L12.7926 21.1815C12.6609 21.3766 12.4912 21.5838 12.2752 21.7406C12.0719 21.8881 11.6659 22.1004 11.1724 21.9509C10.6778 21.8011 10.4581 21.3978 10.3714 21.1609C10.2794 20.9098 10.2547 20.643 10.2547 20.4083V14.9353H6.64583C6.11453 14.9353 5.4226 14.7521 5.07429 14.0979C4.72564 13.443 4.96082 12.7664 5.2586 12.3253L11.6756 2.82039C11.8073 2.6253 11.977 2.41811 12.193 2.2613C12.3963 2.11382 12.8024 1.90152 13.2958 2.05102C13.7904 2.20087 14.0101 2.60417 14.0968 2.84101ZM12.2135 5.59793L7.25994 12.9353H11.2547C11.807 12.9353 12.2547 13.383 12.2547 13.9353V18.404L17.2083 11.0667H13.2135C12.6612 11.0667 12.2135 10.619 12.2135 10.0667V5.59793Z" fill="white"/>
</svg>
