<svg width="20" height="20" viewBox="0 0 20 20" fill="none" xmlns="http://www.w3.org/2000/svg">
<g opacity="0.4">
<path d="M14.2824 3.67188H5.73998C4.60544 3.67188 3.69336 4.58395 3.69336 5.71849V14.2831C3.69336 15.4177 4.60544 16.3298 5.73998 16.3298H14.3046C15.4392 16.3298 16.3512 15.4177 16.3512 14.2831V5.74074C16.3512 4.6062 15.4169 3.67188 14.2824 3.67188ZM5.73998 5.22908H14.3046C14.5938 5.22908 14.8163 5.45154 14.8163 5.74074V8.45473L13.2146 7.34244C12.9031 7.14223 12.5027 7.16447 12.2358 7.43142L9.49953 10.1677L8.18702 9.12211C7.87558 8.8774 7.40842 8.89965 7.14146 9.21109L5.22832 11.28V5.71849C5.22832 5.45154 5.45078 5.22908 5.73998 5.22908ZM14.2824 14.7948H5.73998C5.45078 14.7948 5.22832 14.5723 5.22832 14.2831V13.5713L7.78659 10.7905L9.07685 11.8139C9.3883 12.0586 9.81097 12.0363 10.1002 11.7471L12.8809 8.98863L14.8163 10.3011V14.2831C14.794 14.5723 14.5716 14.7948 14.2824 14.7948Z" fill="#B1B3B5"/>
<path d="M19.0424 3.15891L16.8401 0.956571C16.2172 0.355934 15.3941 0 14.482 0H2.04662C0.91208 0 0 0.91208 0 2.04662V17.9524C0 19.0869 0.91208 19.999 2.04662 19.999H17.9524C19.0869 19.999 19.999 19.0869 19.999 17.9524V5.53922C20.0213 4.62714 19.6653 3.80404 19.0424 3.15891ZM18.4863 17.9746C18.4863 18.2638 18.2638 18.4863 17.9746 18.4863H2.04662C1.75742 18.4863 1.53496 18.2638 1.53496 17.9746V2.04662C1.53496 1.75742 1.75742 1.53496 2.04662 1.53496H14.482C14.9715 1.53496 15.4164 1.71293 15.7501 2.06886L17.9524 4.2712C18.2861 4.60489 18.4863 5.07205 18.4863 5.53922V17.9746Z" fill="#B1B3B5"/>
</g>
</svg>
