<svg width="19" height="19" viewBox="0 0 19 19" fill="none" xmlns="http://www.w3.org/2000/svg">
<path fill-rule="evenodd" clip-rule="evenodd" d="M14.9576 5.63264C14.7037 5.34797 14.3939 5.11854 14.0476 4.95857C13.7017 4.79881 13.3268 4.71175 12.9459 4.70275C12.5623 4.69489 12.181 4.76413 11.8246 4.90637C11.4688 5.04839 11.145 5.2603 10.8725 5.52957L9.1262 7.27584L7.5249 5.67621C6.36148 4.51161 4.53742 4.48987 3.50656 5.42041L3.50307 5.42356C3.21829 5.67901 2.98857 5.98983 2.82795 6.33705C2.66733 6.68426 2.57918 7.06058 2.56889 7.443C2.5586 7.82543 2.62637 8.20594 2.76808 8.56129C2.90978 8.91664 3.12245 9.23938 3.39307 9.50978L9.12565 15.2424L14.7081 9.6599C15.8719 8.49576 15.8933 6.67141 14.9624 5.63796L14.9576 5.63264ZM15.7689 10.7204L9.93948 16.5498C9.72351 16.7654 9.43081 16.8865 9.12565 16.8865C8.82049 16.8865 8.5278 16.7654 8.31182 16.5498L2.33285 10.5709C1.918 10.1564 1.592 9.66164 1.37478 9.11691C1.15755 8.57217 1.05365 7.98887 1.06943 7.40264C1.08521 6.8164 1.22034 6.23954 1.46656 5.70728C1.71277 5.17502 2.06491 4.69855 2.50146 4.30696C4.17634 2.79507 6.90785 2.93614 8.58609 4.61608L9.12565 5.15507L9.81471 4.46601C10.2306 4.05419 10.725 3.73018 11.2686 3.51323C11.8122 3.29627 12.3938 3.19081 12.979 3.20311C13.5659 3.21665 14.1437 3.35066 14.6766 3.59682C15.2095 3.84297 15.6862 4.19602 16.0769 4.63406C17.5866 6.31006 17.4483 9.04045 15.7689 10.7204Z" fill="black"/>
</svg>
