<svg width="29" height="28" viewBox="0 0 29 28" fill="none" xmlns="http://www.w3.org/2000/svg">
<path fill-rule="evenodd" clip-rule="evenodd" d="M23.1033 7.52359C22.7306 7.10575 22.2759 6.76898 21.7676 6.53417C21.2599 6.29968 20.7095 6.17188 20.1505 6.15868C19.5874 6.14715 19.0277 6.24878 18.5046 6.45755C17.9823 6.66602 17.5071 6.97707 17.107 7.3723L14.5438 9.93553L12.1934 7.58754C10.4857 5.87812 7.80827 5.84621 6.29515 7.21208L6.29002 7.21671C5.87201 7.59166 5.53483 8.04789 5.29907 8.55754C5.06331 9.06719 4.93392 9.61956 4.91881 10.1809C4.9037 10.7422 5.00319 11.3007 5.21118 11.8223C5.41918 12.3439 5.73133 12.8177 6.12857 13.2146L14.543 21.629L22.7371 13.4349C24.4453 11.7262 24.4767 9.04833 23.1104 7.53141L23.1033 7.52359ZM24.2942 14.9915L15.7376 23.5482C15.4205 23.8646 14.9909 24.0423 14.543 24.0423C14.0951 24.0423 13.6655 23.8646 13.3484 23.5482L4.57235 14.7721C3.96342 14.1636 3.48491 13.4375 3.16606 12.6379C2.84721 11.8383 2.69471 10.9821 2.71787 10.1216C2.74103 9.26115 2.93937 8.41442 3.30078 7.63316C3.66218 6.85189 4.17906 6.15251 4.81984 5.57772C7.27827 3.35854 11.2876 3.56561 13.751 6.03146L14.543 6.82261L15.5544 5.81119C16.1649 5.20671 16.8906 4.73111 17.6885 4.41266C18.4864 4.09422 19.3401 3.93942 20.199 3.95747C21.0604 3.97735 21.9086 4.17405 22.6908 4.53536C23.4731 4.89667 24.1727 5.41489 24.7463 6.05786C26.9622 8.51793 26.7592 12.5257 24.2942 14.9915Z" fill="black"/>
</svg>
