<svg width="18" height="18" viewBox="0 0 18 18" fill="none" xmlns="http://www.w3.org/2000/svg">
<g clip-path="url(#clip0_16615_21380)">
<circle cx="9" cy="9" r="8.25" fill="black" stroke="white" stroke-width="1.5"/>
<g clip-path="url(#clip1_16615_21380)">
<path fill-rule="evenodd" clip-rule="evenodd" d="M10.9587 10.7629L11.0365 7.65184L8.16654 10.5218L7.46592 9.82117L10.3247 6.96238L7.23546 7.03965L7.26088 6.0234L11.5877 5.91517C11.8684 5.90815 12.0902 6.12996 12.0832 6.41059L11.9749 10.7374L10.9587 10.7629ZM6.05371 10.766C6.37915 10.4406 6.90679 10.4406 7.23222 10.766C7.55766 11.0915 7.55766 11.6191 7.23222 11.9446C6.90679 12.27 6.37915 12.27 6.05371 11.9446C5.72828 11.6191 5.72828 11.0915 6.05371 10.766Z" fill="white"/>
</g>
</g>
<defs>
<clipPath id="clip0_16615_21380">
<rect width="18" height="18" fill="white"/>
</clipPath>
<clipPath id="clip1_16615_21380">
<rect width="10" height="10" fill="white" transform="translate(4 4)"/>
</clipPath>
</defs>
</svg>
