<svg width="18" height="18" viewBox="0 0 18 18" fill="none" xmlns="http://www.w3.org/2000/svg">
<path d="M15.6723 9.83659L9.8428 15.6661C9.62683 15.8816 9.33413 16.0027 9.02897 16.0027C8.72381 16.0027 8.43112 15.8816 8.21514 15.6661L2.23617 9.68709C1.82132 9.27258 1.49532 8.77785 1.2781 8.23312C1.06087 7.68839 0.956974 7.10509 0.972754 6.51885C0.988534 5.93262 1.12366 5.35575 1.36988 4.82349C1.61609 4.29124 1.96823 3.81476 2.40478 3.42317C4.07966 1.91128 6.81117 2.05236 8.48942 3.73229L9.02897 4.27128L9.71803 3.58222C10.1339 3.1704 10.6283 2.84639 11.1719 2.62944C11.7155 2.41249 12.2972 2.30703 12.8823 2.31932C13.4692 2.33287 14.047 2.46687 14.5799 2.71303C15.1128 2.95918 15.5895 3.31224 15.9803 3.75027C17.4899 5.42627 17.3516 8.15666 15.6723 9.83659Z" fill="#00A651"/>
</svg>
