<svg width="10" height="11" viewBox="0 0 10 11" fill="none" xmlns="http://www.w3.org/2000/svg">
<g clip-path="url(#clip0_21180_9372)">
<path d="M4.08457 4.0491C4.08457 4.37591 3.81964 4.64084 3.49284 4.64084C3.16603 4.64084 2.9011 4.37591 2.9011 4.0491C2.9011 3.7223 3.16603 3.45737 3.49284 3.45737C3.81964 3.45737 4.08457 3.7223 4.08457 4.0491Z" fill="#00A651"/>
<path fill-rule="evenodd" clip-rule="evenodd" d="M4.6846 1.35254C4.96725 1.29631 5.25932 1.38487 5.46315 1.58859L9.0446 5.16812C9.53308 5.65634 9.53307 6.44819 9.04456 6.93639L6.32502 9.65426C5.83672 10.1423 5.04529 10.142 4.55728 9.65375L0.982633 6.07717C0.77926 5.87368 0.690639 5.58225 0.746307 5.29999L1.34186 2.28034C1.37452 2.11476 1.50384 1.98523 1.66937 1.95231L4.6846 1.35254ZM4.87405 2.17801C4.86702 2.17097 4.85693 2.16792 4.84718 2.16986L2.10548 2.71522L1.56389 5.46124C1.56197 5.47099 1.56503 5.48105 1.57205 5.48807L4.49624 8.41385L7.80501 5.10739L4.87405 2.17801Z" fill="#00A651"/>
</g>
<defs>
<clipPath id="clip0_21180_9372">
<rect width="10" height="10" fill="white" transform="translate(0 0.5)"/>
</clipPath>
</defs>
</svg>
