<svg width="21" height="20" viewBox="0 0 21 20" fill="none" xmlns="http://www.w3.org/2000/svg">
<path fill-rule="evenodd" clip-rule="evenodd" d="M20.0403 4.01172C20.0403 1.80258 18.2495 0.0117188 16.0403 0.0117188H4.1543C1.94517 0.0117188 0.154301 1.80258 0.1543 4.01172L0.154297 15.9893C0.154297 18.1984 1.94516 19.9893 4.1543 19.9893H16.0403C18.2494 19.9893 20.0403 18.1984 20.0403 15.9893V4.01172ZM2.1543 15.9893L2.1543 4.01172C2.1543 2.90715 3.04973 2.01172 4.1543 2.01172H16.0403C17.1449 2.01172 18.0403 2.90715 18.0403 4.01172V15.9893C18.0403 16.626 17.7428 17.1931 17.2793 17.5594C16.9048 15.3771 15.3627 13.6027 13.3072 12.6857C14.2438 11.8209 14.8304 10.5827 14.8304 9.20741C14.8304 6.59342 12.7113 4.47437 10.0973 4.47437C7.48332 4.47437 5.36426 6.59342 5.36426 9.20741C5.36426 10.5826 5.95078 11.8209 6.88733 12.6856C4.83188 13.6026 3.28976 15.377 2.91522 17.5593C2.45173 17.1931 2.1543 16.6259 2.1543 15.9893ZM4.87422 17.9893H15.3203C14.9843 15.8191 12.8657 14.0074 10.0972 14.0074C7.32874 14.0074 5.21018 15.8191 4.87422 17.9893ZM10.0973 11.9405C11.6067 11.9405 12.8304 10.7168 12.8304 9.20741C12.8304 7.69799 11.6067 6.47437 10.0973 6.47437C8.58788 6.47437 7.36426 7.69799 7.36426 9.20741C7.36426 10.7168 8.58788 11.9405 10.0973 11.9405Z" fill="black"/>
</svg>
