<svg width="25" height="24" viewBox="0 0 25 24" fill="none" xmlns="http://www.w3.org/2000/svg">
<g clip-path="url(#clip0_20234_24804)">
<path fill-rule="evenodd" clip-rule="evenodd" d="M5.60295 4.45939L6.16295 6.94055C9.03297 2.99601 14.4969 1.84341 18.745 4.41784C23.2258 7.13336 24.6568 12.9671 21.9414 17.4477C20.6952 19.5041 18.7921 20.9182 16.6645 21.584C15.6972 21.8927 14.6838 22.0452 13.6627 22.033C12.1965 22.0155 10.7543 21.6588 9.44892 20.991C8.14357 20.3231 7.01053 19.3621 6.13854 18.1832C5.54807 17.385 5.08815 16.5015 4.77306 15.566C4.75596 15.5152 4.73929 15.4643 4.72305 15.4133C4.69657 15.33 4.67123 15.2464 4.64705 15.1624C4.49537 14.6356 4.86019 14.1183 5.39987 14.0223C5.87027 13.9387 6.31731 14.2036 6.53437 14.6189C6.56261 14.673 6.58695 14.7295 6.60695 14.7882L6.61465 14.8116C6.86428 15.5964 7.24194 16.3371 7.73438 17.0028C8.26165 17.7156 8.90958 18.3277 9.64683 18.8126C9.75044 18.8356 9.85213 18.8757 9.94794 18.9338C12.5007 20.4808 15.6099 20.3225 17.948 18.7844C18.6175 18.3376 19.2127 17.7848 19.7095 17.1457C20.4213 16.2299 20.9115 15.1618 21.1417 14.0249C21.3719 12.8881 21.3358 11.7134 21.0362 10.5928C20.8223 9.79283 20.4783 9.03595 20.02 8.35168L20.0066 8.33111C19.9763 8.28386 19.9496 8.2349 19.9265 8.18469C19.3526 7.37859 18.6085 6.67371 17.7084 6.12826C14.3894 4.11685 10.1299 4.98832 7.84739 8.02654L10.3541 7.46078L10.7944 9.4117L5.94268 10.5067C5.40395 10.6283 4.86865 10.2902 4.74706 9.75144L3.65202 4.89971L5.60295 4.45939ZM12.8057 14.0264L12.8057 7.5918L14.8057 7.5918L14.8057 13.1835L17.8174 16.0195L16.4463 17.4756L12.8062 14.0478L12.8316 14.0208L12.8057 14.0264Z" fill="#B1B3B5"/>
</g>
<defs>
<clipPath id="clip0_20234_24804">
<rect width="24" height="24" fill="white" transform="matrix(-1 0 0 1 24.4683 0)"/>
</clipPath>
</defs>
</svg>
