<svg width="90" height="73" viewBox="0 0 90 73" fill="none" xmlns="http://www.w3.org/2000/svg">
<path d="M74.0425 3.12891C77.4981 3.12891 80.2992 5.93011 80.2993 9.38574V55.2715C80.2993 58.7272 77.4982 61.5283 74.0425 61.5283H48.1831L41.1919 73L34.2007 61.5283H9.38525C5.92962 61.5282 3.12842 58.7271 3.12842 55.2715V9.38574C3.12852 5.93017 5.92969 3.12901 9.38525 3.12891H74.0425Z" fill="#93AAFC" fill-opacity="0.24"/>
<path d="M38.3687 37.4683C38.3687 33.978 40.192 32.5714 42.4842 31.1649C44.5679 29.9146 46.7038 28.6123 46.7038 24.9136C46.7038 21.4233 44.3595 19.4958 41.1297 19.4958C37.6394 19.4958 35.5036 21.788 35.5036 24.9136C35.5036 25.4867 35.5557 26.0076 35.6599 26.5806L29.2523 26.216C29.2523 25.695 29.2002 25.1741 29.2002 24.549C29.2002 18.1414 33.9928 13.5571 41.1297 13.5571C48.475 13.5571 53.476 17.7246 53.476 24.3927C53.476 31.2691 49.2564 33.3528 46.7038 35.0199C45.0889 36.1138 44.1512 37.0515 44.1512 38.6664V39.6562H38.3687V37.4683ZM37.1185 47.4703C37.1185 45.1782 39.046 43.3549 41.286 43.3549C43.526 43.3549 45.4014 45.1782 45.4014 47.4703C45.4014 49.7625 43.5781 51.6378 41.286 51.6378C38.9939 51.6378 37.1185 49.7625 37.1185 47.4703Z" fill="#93AAFC"/>
<path d="M81.7218 43.7998L82.2155 44.9685C83.4664 47.9297 85.823 50.2863 88.7843 51.5373L89.9529 52.031L88.7843 52.5246C85.823 53.7756 83.4664 56.1322 82.2155 59.0935L81.7218 60.2621L81.2281 59.0935C79.9772 56.1322 77.6206 53.7756 74.6593 52.5246L73.4907 52.031L74.6593 51.5373C77.6206 50.2863 79.9772 47.9297 81.2281 44.9685L81.7218 43.7998Z" fill="#93AAFC"/>
<path d="M65.589 55.1597L65.8951 55.8842C66.6707 57.7202 68.1317 59.1812 69.9677 59.9568L70.6922 60.2629L69.9677 60.569C68.1317 61.3446 66.6707 62.8056 65.8951 64.6416L65.589 65.3661L65.2829 64.6416C64.5074 62.8056 63.0463 61.3446 61.2104 60.569L60.4858 60.2629L61.2104 59.9568C63.0463 59.1812 64.5074 57.7202 65.2829 55.8842L65.589 55.1597Z" fill="#93AAFC"/>
<path d="M5.10319 0L5.40927 0.724553C6.18485 2.5605 7.64591 4.02157 9.48185 4.79716L10.2064 5.10324L9.48185 5.40932C7.64591 6.18491 6.18485 7.64598 5.40927 9.48193L5.10319 10.2065L4.79711 9.48193C4.02153 7.64598 2.56047 6.18491 0.724527 5.40932L0 5.10324L0.724527 4.79716C2.56047 4.02157 4.02153 2.5605 4.79711 0.724553L5.10319 0Z" fill="#93AAFC"/>
</svg>
