<svg width="14" height="20" viewBox="0 0 14 20" fill="none" xmlns="http://www.w3.org/2000/svg">
<path d="M13.113 0.421798H10.8685C10.5086 0.421798 10.3134 0.619251 10.3134 0.810529V7.64103C10.3451 8.11858 10.2764 8.5975 10.1118 9.04622C9.94715 9.49494 9.69044 9.90327 9.3585 10.2443C9.02657 10.5854 8.62696 10.8514 8.18601 11.0249C7.74506 11.1983 7.27276 11.2753 6.80028 11.2507C4.83633 11.2507 3.56769 9.76978 3.56769 7.64103V0.810529C3.56769 0.619251 3.26273 0.421798 3.06755 0.421798H0.676661C0.57753 0.430198 0.484554 0.473853 0.414212 0.545014C0.343871 0.616175 0.300709 0.710244 0.292406 0.810529V7.59785C0.272824 9.37202 0.948303 11.0819 2.1712 12.3537C3.39411 13.6256 5.06498 14.3559 6.8186 14.3852C8.49601 14.3854 10.1159 13.7667 11.3747 12.6451L11.4967 12.7624L10.5025 14.1322V14.6813C10.5025 16.082 8.4227 16.8656 7.20896 16.8656H6.43434C6.30912 16.8589 6.18633 16.9024 6.09267 16.9867C5.99901 17.0711 5.94206 17.1894 5.9342 17.3161V19.5497C5.94504 19.6751 6.00286 19.7917 6.09584 19.8754C6.18881 19.9591 6.30991 20.0037 6.43434 20.0001H7.20896C10.9173 20.0001 13.6253 17.8158 13.6253 13.7003V0.810529C13.6171 0.750889 13.5973 0.69348 13.5671 0.641613C13.5368 0.589746 13.4967 0.544444 13.4491 0.508314C13.4015 0.472183 13.3473 0.445939 13.2896 0.431091C13.2319 0.416243 13.1719 0.413084 13.113 0.421798V0.421798Z" fill="#00A651"/>
</svg>
