<svg width="29" height="28" viewBox="0 0 29 28" fill="none" xmlns="http://www.w3.org/2000/svg">
<path d="M5.65988 10.0541C6.58423 7.97962 8.20713 6.29526 10.2458 5.29446C12.2844 4.29366 14.6096 4.03986 16.8162 4.57728C19.0227 5.1147 20.9708 6.40928 22.3209 8.23545C23.671 10.0616 24.3376 12.3036 24.2045 14.5707C24.0715 16.8379 23.1472 18.9865 21.5927 20.6422C20.0382 22.2979 17.9521 23.3557 15.6978 23.6313C13.4435 23.9069 11.164 23.3828 9.25643 22.1504C7.34885 20.9179 5.93415 19.0553 5.25882 16.887" stroke="black" stroke-width="2"/>
<path d="M13.8573 9.15039V14.5336L19.0086 17.2959" stroke="black" stroke-width="2"/>
<path d="M3.73639 5.7832L5.13409 10.9818L10.6525 9.49806" stroke="black" stroke-width="2"/>
</svg>
