<svg width="29" height="28" viewBox="0 0 29 28" fill="none" xmlns="http://www.w3.org/2000/svg">
<path d="M24.8791 15.3005L15.811 24.3686C15.4751 24.7039 15.0198 24.8923 14.5451 24.8923C14.0704 24.8923 13.6151 24.7039 13.2791 24.3686L3.97849 15.0679C3.33316 14.4231 2.82606 13.6536 2.48815 12.8062C2.15024 11.9588 1.98863 11.0515 2.01317 10.1396C2.03772 9.22764 2.24791 8.3303 2.63092 7.50234C3.01392 6.67439 3.56169 5.9332 4.24078 5.32406C6.84614 2.97224 11.0951 3.19169 13.7058 5.80491L14.5451 6.64335L15.6169 5.57148C16.2639 4.93087 17.033 4.42685 17.8785 4.08937C18.7241 3.75189 19.6289 3.58784 20.5391 3.60697C21.4521 3.62803 22.3509 3.83649 23.1799 4.2194C24.0089 4.60231 24.7503 5.1515 25.3582 5.83289C27.7065 8.44 27.4914 12.6873 24.8791 15.3005Z" fill="#00A651"/>
</svg>
