<svg width="24" height="24" viewBox="0 0 24 24" fill="none" xmlns="http://www.w3.org/2000/svg">
<path fill-rule="evenodd" clip-rule="evenodd" d="M18.0049 9.10889C18.0049 12.4256 15.3162 15.1143 11.9995 15.1143C8.68284 15.1143 5.99414 12.4256 5.99414 9.10889C5.99414 5.79221 8.68284 3.10352 11.9995 3.10352C15.3162 3.10352 18.0049 5.79221 18.0049 9.10889ZM16.2012 15.9243C14.9799 16.6788 13.5406 17.1143 11.9995 17.1143C10.4583 17.1143 9.01884 16.6787 7.79745 15.9241L7.7975 20.2891L11.9994 18.2236L16.2012 20.2892L16.2012 15.9243ZM18.2013 14.1713C19.3286 12.7919 20.0049 11.0294 20.0049 9.10889C20.0049 4.68764 16.4208 1.10352 11.9995 1.10352C7.57827 1.10352 3.99414 4.68764 3.99414 9.10889C3.99414 11.0292 4.67026 12.7915 5.79743 14.1709L5.79752 21.895C5.79753 22.2404 5.97575 22.5613 6.26892 22.7439C6.5621 22.9264 6.92873 22.9448 7.23868 22.7924L11.9994 20.4522L16.7601 22.7925C17.07 22.9449 17.4367 22.9265 17.7298 22.744C18.023 22.5614 18.2012 22.2405 18.2012 21.8951L18.2013 14.1713Z" fill="black"/>
</svg>
