<svg width="24" height="24" viewBox="0 0 24 24" fill="none" xmlns="http://www.w3.org/2000/svg">
<path fill-rule="evenodd" clip-rule="evenodd" d="M16.6955 20.168V9.38585C16.6955 6.38867 14.2658 3.95898 11.2687 3.95898C8.27149 3.95898 5.8418 6.38867 5.8418 9.38585V20.168H16.6955ZM3.8418 20.168H1.41211V22.168H22.587V20.168H20.1582V9.95898C20.1582 5.54071 16.5765 1.95898 12.1582 1.95898H11.4688V1.96163C11.4023 1.95987 11.3356 1.95898 11.2687 1.95898C7.16691 1.95898 3.8418 5.28411 3.8418 9.38585V20.168ZM10.1152 10.334V8.22949H12.1152V10.334H14.3242V12.334H12.1152V16.891H10.1152V12.334H7.92222V10.334H10.1152Z" fill="black"/>
</svg>
