<svg width="24" height="24" viewBox="0 0 24 24" fill="none" xmlns="http://www.w3.org/2000/svg">
<path d="M11.5216 17.0256V14.5011H14.0461V12.5011H11.5216V9.97656H9.52161V12.5011H6.99707V14.5011H9.52161V17.0256H11.5216Z" fill="black"/>
<path fill-rule="evenodd" clip-rule="evenodd" d="M7.98223 2.81231C8.45107 2.34347 9.08696 2.08008 9.75 2.08008H14.25C14.913 2.08008 15.5489 2.34347 16.0178 2.81231C16.4866 3.28115 16.75 3.91704 16.75 4.58008V5.7511L18.5 5.7511C20.433 5.7511 22 7.3181 22 9.2511V17.7511C22 19.6841 20.433 21.2511 18.5 21.2511H5.5C3.567 21.2511 2 19.6841 2 17.7511L2.00001 9.25111C2.00001 7.31811 3.56701 5.75111 5.50001 5.75111L7.25 5.75111V4.58008C7.25 3.91704 7.51339 3.28115 7.98223 2.81231ZM14.75 4.58008V5.7511L9.25 5.75111V4.58008C9.25 4.44747 9.30268 4.32029 9.39645 4.22652C9.49022 4.13276 9.61739 4.08008 9.75 4.08008H14.25C14.3826 4.08008 14.5098 4.13276 14.6036 4.22652C14.6973 4.32029 14.75 4.44747 14.75 4.58008ZM16.7375 7.7511L5.50001 7.75111C4.67158 7.75111 4.00001 8.42268 4.00001 9.25111L4 17.7511C4 18.5795 4.67157 19.2511 5.5 19.2511H16.7375L16.7375 7.7511Z" fill="black"/>
</svg>
