<svg width="24" height="24" viewBox="0 0 24 24" fill="none" xmlns="http://www.w3.org/2000/svg">
<path fill-rule="evenodd" clip-rule="evenodd" d="M22 12C22 6.47715 17.5228 2 12 2C6.47715 2 2 6.47715 2 12C2 17.5228 6.47715 22 12 22C17.5228 22 22 17.5228 22 12ZM12 4C16.4183 4 20 7.58172 20 12C20 16.4183 16.4183 20 12 20C7.58172 20 4 16.4183 4 12C4 7.58172 7.58172 4 12 4ZM11.1641 10.2764V8.5H12.9417V10.3476L14.5 9.25439L15.6047 10.6471L13.5622 12.0799L15.5568 13.58L14.4067 14.9354L12.9417 13.8336V15.6104H11.1641V13.7622L9.60463 14.8561L8.49998 13.4634L10.5434 12.03L8.54911 10.5302L9.69922 9.1748L11.1641 10.2764Z" fill="black"/>
</svg>
