<svg width="24" height="24" viewBox="0 0 24 24" fill="none" xmlns="http://www.w3.org/2000/svg">
<path d="M20.9995 3.99618C20.9891 3.90431 20.9689 3.81381 20.9395 3.72618V3.63618C20.8915 3.52489 20.8238 3.42323 20.7395 3.33618C20.6546 3.25644 20.5565 3.19214 20.4495 3.14618H20.3595C20.2673 3.07579 20.1619 3.02476 20.0495 2.99618H19.9995C19.9 2.98109 19.7989 2.98109 19.6995 2.99618L1.69947 8.99618C1.4994 9.06194 1.3252 9.18918 1.2017 9.35977C1.07821 9.53036 1.01172 9.73558 1.01172 9.94618C1.01172 10.1568 1.07821 10.362 1.2017 10.5326C1.3252 10.7032 1.4994 10.8304 1.69947 10.8962L10.2295 13.7362L13.0695 22.2662C13.1352 22.4662 13.2625 22.6404 13.4331 22.7639C13.6036 22.8874 13.8089 22.9539 14.0195 22.9539C14.2301 22.9539 14.4353 22.8874 14.6059 22.7639C14.7765 22.6404 14.9037 22.4662 14.9695 22.2662L20.9695 4.26618C20.9917 4.17796 21.0018 4.08712 20.9995 3.99618ZM16.2995 6.28618L10.7295 11.8562L5.15947 9.99618L16.2995 6.28618ZM13.9995 18.8362L12.1395 13.2662L17.7095 7.69618L13.9995 18.8362Z" fill="black"/>
</svg>
