<svg width="24" height="24" viewBox="0 0 24 24" fill="none" xmlns="http://www.w3.org/2000/svg">
<path fill-rule="evenodd" clip-rule="evenodd" d="M11.7172 4.22185L5.55753 11.6176C8.56781 13.1002 11.9747 13.4393 15.1627 12.6432L11.7172 4.22185ZM14.5391 14.8192C12.1204 15.2444 9.62447 15.1106 7.25018 14.4151L11.8281 19.9117L14.5391 14.8192ZM12.01 22.68C12.0065 22.68 12.003 22.68 11.9995 22.68C11.7026 22.68 11.4211 22.5481 11.2311 22.32L3.1691 12.6401C2.8603 12.2694 2.8603 11.731 3.1691 11.3602L11.2311 1.68034C11.4211 1.45222 11.7026 1.32031 11.9995 1.32031C12.0028 1.32031 12.006 1.32033 12.0093 1.32036C12.3033 1.31748 12.5938 1.44419 12.7919 1.68507L14.4073 3.64871L20.8299 11.3602C21.1387 11.731 21.1387 12.2694 20.8299 12.6401L14.1646 20.6429L12.7926 22.3144C12.594 22.5564 12.3034 22.6826 12.01 22.68Z" fill="black"/>
</svg>
