<svg width="24" height="24" viewBox="0 0 24 24" fill="none" xmlns="http://www.w3.org/2000/svg">
<path fill-rule="evenodd" clip-rule="evenodd" d="M3.29289 3.29289C3.68342 2.90237 4.31658 2.90237 4.70711 3.29289L20.7071 19.2929C21.0976 19.6834 21.0976 20.3166 20.7071 20.7071C20.3166 21.0976 19.6834 21.0976 19.2929 20.7071L3.29289 4.70711C2.90237 4.31658 2.90237 3.68342 3.29289 3.29289ZM12 5C11.03 5 10.1371 5.31752 9.41554 5.85465C8.97254 6.18444 8.34606 6.09266 8.01627 5.64965C7.68648 5.20664 7.77826 4.58017 8.22127 4.25038C9.27613 3.4651 10.5852 3 12 3C15.4978 3 18.3333 5.83553 18.3333 9.33333C18.3333 11.1512 18.8449 13.0103 19.3173 14.3295C19.5035 14.8495 19.233 15.4219 18.713 15.6081C18.193 15.7943 17.6206 15.5238 17.4344 15.0038C16.9284 13.5906 16.3333 11.4826 16.3333 9.33333C16.3333 6.9401 14.3932 5 12 5ZM6.70753 9.39239C7.25758 9.44204 7.66323 9.9282 7.61357 10.4782C7.46021 12.1771 7.00053 13.7778 6.58838 14.9399C6.5252 15.118 6.46287 15.2866 6.40255 15.4444H12.4444C12.9967 15.4444 13.4444 15.8922 13.4444 16.4444C13.4444 16.9967 12.9967 17.4444 12.4444 17.4444H10.337C10.3942 18.3131 11.1169 19 12 19C12.7241 19 13.3428 18.5377 13.5721 17.889C13.7561 17.3683 14.3275 17.0953 14.8482 17.2794C15.3689 17.4634 15.6418 18.0348 15.4578 18.5555C14.9549 19.9782 13.5981 21 12 21C10.0121 21 8.39373 19.4181 8.33498 17.4444H4.88889C4.54231 17.4444 4.22044 17.265 4.03824 16.9702C3.85614 16.6755 3.83949 16.3076 3.9942 15.9978C3.99428 15.9976 3.99411 15.9979 3.9942 15.9978L4.88889 16.4444C3.99446 15.9972 3.99426 15.9976 3.9942 15.9978L3.99606 15.994L4.00558 15.9745C4.01446 15.9562 4.0283 15.9274 4.04646 15.8888C4.08281 15.8115 4.13641 15.6949 4.20227 15.544C4.33414 15.242 4.51435 14.8044 4.70343 14.2713C5.08407 13.1981 5.48876 11.7707 5.62167 10.2984C5.67133 9.74838 6.15748 9.34273 6.70753 9.39239Z" fill="black"/>
</svg>
