<svg width="24" height="24" viewBox="0 0 24 24" fill="none" xmlns="http://www.w3.org/2000/svg">
<path fill-rule="evenodd" clip-rule="evenodd" d="M12.4481 21.8804C12.1548 22.0392 11.7868 22.0402 11.4935 21.8814C3.44534 17.5238 2.96758 9.00158 3.00149 6.59571C3.00427 6.40378 3.0614 6.2167 3.16609 6.05677C3.27078 5.89683 3.41861 5.77078 3.59196 5.69363L11.5653 2.08736C11.693 2.02993 11.831 2.00018 11.9707 2C12.1103 1.99983 12.2485 2.02924 12.3762 2.08635L20.4055 5.69262C20.5814 5.76973 20.7314 5.89719 20.837 6.05938C20.9425 6.22158 20.9992 6.41148 20.9999 6.60582C21.0069 9.02383 20.4394 17.5278 12.4481 21.8804ZM15.9863 8.39626L11.3711 13.127L8.80953 10.5655L7.39531 11.9797L10.6728 15.2571C10.8618 15.4462 11.1187 15.5517 11.3861 15.55C11.6534 15.5484 11.909 15.4397 12.0957 15.2483L17.4179 9.79288L15.9863 8.39626Z" fill="black"/>
</svg>
