<svg width="24" height="24" viewBox="0 0 24 24" fill="none" xmlns="http://www.w3.org/2000/svg">
<path fill-rule="evenodd" clip-rule="evenodd" d="M17.4439 6.33902C17.3345 3.37186 14.8946 1 11.9007 1C8.83721 1 6.35375 3.48346 6.35375 6.54697V8.06158L2 8.06379L3.53462 19.4549C3.63487 20.199 4.00341 20.8497 4.53313 21.3128C5.06285 21.776 5.75692 22.0543 6.50776 22.0543H17.2937C18.0446 22.0543 18.7387 21.776 19.2684 21.3128C19.7981 20.8497 20.1667 20.1981 20.267 19.454L21.793 8.05375L17.4477 8.05595V6.54697L17.4439 6.33902ZM15.1556 8.05711V6.54697C15.1556 4.74938 13.6983 3.29214 11.9007 3.29214C10.163 3.29214 8.74341 4.65385 8.6507 6.36839L8.64589 6.54697V8.06041L15.1556 8.05711ZM19.5073 10.0549L18.8663 14.8438H4.93147L4.28735 10.0626L19.5073 10.0549Z" fill="black"/>
</svg>
