<svg width="24" height="24" viewBox="0 0 24 24" fill="none" xmlns="http://www.w3.org/2000/svg">
<path d="M10.9916 3.88245L9.12285 2.15689L10.4796 0.6875L14.1338 4.06169C14.5396 4.43636 14.5648 5.06902 14.1901 5.47478L10.816 9.12899L9.34656 7.77219L11.0899 5.88421C7.31744 6.34181 4.43298 9.59492 4.5154 13.475C4.60322 17.6089 8.0257 20.8888 12.1593 20.801C16.2933 20.7132 19.5734 17.2909 19.4855 13.157C19.4738 12.6048 19.9119 12.1477 20.4641 12.1359C21.0162 12.1242 21.4734 12.5623 21.4851 13.1145C21.5964 18.3528 17.44 22.6893 12.2018 22.8006C6.96387 22.9119 2.62713 18.7558 2.51586 13.5174C2.41036 8.55131 6.14051 4.39569 10.9916 3.88245Z" fill="black"/>
<path d="M11.517 14.5045L16.7643 9.12583L18.1959 10.5225L12.2416 16.6258C12.0549 16.8172 11.7993 16.9258 11.532 16.9275C11.2646 16.9291 11.0077 16.8237 10.8187 16.6346L7.15198 12.9679L8.56619 11.5537L11.517 14.5045Z" fill="black"/>
</svg>
