<svg width="24" height="24" viewBox="0 0 24 24" fill="none" xmlns="http://www.w3.org/2000/svg">
<path d="M4 5.11765C4 4.50039 4.50039 4 5.11765 4H18.8824C19.4996 4 20 4.50039 20 5.11765V8.29412H22V5.11765C22 3.39582 20.6042 2 18.8824 2H5.11765C3.39582 2 2 3.39582 2 5.11765V8.29412H4V5.11765Z" fill="black"/>
<path d="M17.9903 11.023H6.00121V13.023H17.9903V11.023Z" fill="black"/>
<path d="M18.8824 20C19.4996 20 20 19.4996 20 18.8824V15.7059H22V18.8824C22 20.6042 20.6042 22 18.8824 22H5.11765C3.396 22 2 20.6047 2 18.8826V15.7061L4 15.7059V18.8826C4 19.4997 4.50021 20 5.11765 20H18.8824Z" fill="black"/>
</svg>
