<svg width="24" height="24" viewBox="0 0 24 24" fill="none" xmlns="http://www.w3.org/2000/svg">
<path fill-rule="evenodd" clip-rule="evenodd" d="M12 2C17.5228 2 22 6.47715 22 12C22 17.5228 17.5228 22 12 22C6.47715 22 2 17.5228 2 12C2 6.47715 6.47715 2 12 2ZM20 12C20 7.58172 16.4183 4 12 4C7.58172 4 4 7.58172 4 12C4 16.4183 7.58172 20 12 20C16.4183 20 20 16.4183 20 12ZM16.6641 15.1989C14.5515 18.7557 9.4073 18.725 7.28125 15.2052L8.99318 14.1712C10.3508 16.4188 13.6164 16.4138 14.9446 14.1776L16.6641 15.1989ZM7.125 9.92153C7.125 9.09309 7.79658 8.42151 8.62502 8.42151C9.45347 8.42151 10.125 9.09309 10.125 9.92153C10.125 10.75 9.45347 11.4216 8.62502 11.4216C7.79658 11.4216 7.125 10.75 7.125 9.92153ZM15.375 8.42151C14.5466 8.42151 13.875 9.09309 13.875 9.92153C13.875 10.75 14.5466 11.4216 15.375 11.4216C16.2035 11.4216 16.875 10.75 16.875 9.92153C16.875 9.09309 16.2035 8.42151 15.375 8.42151Z" fill="black"/>
</svg>
