<svg width="24" height="24" viewBox="0 0 24 24" fill="none" xmlns="http://www.w3.org/2000/svg">
<path d="M4.5 4C2.84314 4 1.5 5.34315 1.5 7V17.5927C1.5 19.2495 2.84314 20.5928 4.5 20.5928H19.2901C20.9469 20.5928 22.2901 19.2497 22.2901 17.5928V15.749H3.5V7C3.5 6.44772 3.94772 6 4.5 6H13.6054V4H4.5Z" fill="black"/>
<path d="M7.78692 10.4245L18.8655 10.4245L16.427 12.863L17.8412 14.2772L21.9972 10.1212C22.3877 9.73065 22.3877 9.09748 21.9972 8.70696L17.8412 4.55092L16.427 5.96513L18.8863 8.42449L7.78692 8.42451L7.78692 10.4245Z" fill="black"/>
</svg>
