<svg width="24" height="24" viewBox="0 0 24 24" fill="none" xmlns="http://www.w3.org/2000/svg">
<path fill-rule="evenodd" clip-rule="evenodd" d="M19.3955 18.2958C19.9478 18.2958 20.3955 17.8481 20.3955 17.2958L20.3955 10.0448L3.60547 10.0448L3.60547 17.2958C3.60547 17.8481 4.05318 18.2958 4.60547 18.2958L19.3955 18.2958ZM20.3955 6.70313V8.04485L3.60547 8.04484L3.60547 6.70313C3.60547 6.15084 4.05319 5.70312 4.60547 5.70312L19.3955 5.70313C19.9478 5.70313 20.3955 6.15084 20.3955 6.70313ZM22.3955 17.2958C22.3955 18.9527 21.0524 20.2958 19.3955 20.2958L4.60547 20.2958C2.94861 20.2958 1.60547 18.9527 1.60547 17.2958L1.60547 6.70313C1.60547 5.04627 2.94862 3.70312 4.60547 3.70313L19.3955 3.70313C21.0524 3.70313 22.3955 5.04627 22.3955 6.70313L22.3955 17.2958ZM5.49905 11.9999H10.0168L10.0168 13.9999L5.49905 13.9999V11.9999Z" fill="black"/>
</svg>
