<svg width="24" height="24" viewBox="0 0 24 24" fill="none" xmlns="http://www.w3.org/2000/svg">
<path fill-rule="evenodd" clip-rule="evenodd" d="M0.951798 9.33176C0.293826 8.93645 0.308133 7.9779 0.977609 7.6024L10.5332 2.24284C11.4447 1.73155 12.5567 1.73155 13.4683 2.24284L23.0239 7.6024C23.3537 7.78738 23.5245 8.11387 23.5342 8.44482H23.5365V14.9182H21.5365V10.2409L19.0912 11.71L19.0911 18.4655C19.0911 19.8462 17.9718 20.9655 16.5911 20.9655L7.36283 20.9654C5.98213 20.9654 4.86285 19.8461 4.86285 18.4654L4.86285 11.6815L0.951798 9.33176ZM11.4857 13.3274L3.45801 8.50429L11.5115 3.9872C11.8154 3.81677 12.1861 3.81677 12.4899 3.9872L20.5435 8.50429L12.5157 13.3274C12.1988 13.5178 11.8027 13.5178 11.4857 13.3274Z" fill="black"/>
</svg>
