<svg width="24" height="24" viewBox="0 0 24 24" fill="none" xmlns="http://www.w3.org/2000/svg">
<path d="M22.7288 15.9151L19.5984 13.4387C19.0159 12.9652 18.288 12.7104 17.5234 12.7104C16.5406 12.7104 15.5942 13.1474 14.9755 13.876C14.5751 14.3495 14.3204 14.6409 14.1747 14.8228C13.6288 14.7865 12.391 14.24 11.0806 12.929C9.69731 11.545 9.22424 10.3068 9.18771 9.83324C9.3332 9.68767 9.66098 9.43262 10.134 9.03203C11.5173 7.8665 11.6991 5.82712 10.5708 4.40679L8.09569 1.27478C7.44062 0.473572 6.49403 0 5.47489 0C5.00161 0 4.56489 0.109236 4.12816 0.291382C3.18182 0.692 2.05323 1.4203 1.43449 2.07596C0.488155 3.02278 -0.858775 5.24432 0.742825 9.54179C1.76203 12.2368 3.72776 15.1867 6.31203 17.736C10.1709 21.5963 14.7211 24 18.1427 24C19.7078 24 21.0182 23.4902 21.9282 22.5797C22.5469 21.9606 23.2749 20.8316 23.7118 19.8846C24.3306 18.4643 23.93 16.8619 22.7288 15.9151ZM22.0737 19.1563C21.7096 19.9939 21.0908 20.9044 20.6904 21.305C20.0717 21.9241 19.198 22.2155 18.1788 22.2155C15.3396 22.2155 11.2264 20.0668 7.58637 16.4249C2.63596 11.4354 0.415563 5.57219 2.70883 3.31423C3.10924 2.91361 3.98296 2.29451 4.85636 1.93025C5.03842 1.85735 5.25678 1.82102 5.47513 1.82102C5.94841 1.82102 6.38513 2.03949 6.67633 2.40377L9.1514 5.53578C9.66099 6.19119 9.55182 7.10165 8.93304 7.64806C8.27797 8.19424 7.84098 8.59488 7.73184 8.70407C6.78551 9.65089 7.69553 12.1275 9.77018 14.2398C11.299 15.7694 13.046 16.6798 14.211 16.6798C14.6477 16.6798 15.0118 16.5706 15.2664 16.3155C15.3756 16.2063 15.776 15.7694 16.3219 15.1137C16.6132 14.7494 17.0499 14.5675 17.4869 14.5675C17.8144 14.5675 18.1419 14.6768 18.4332 14.8953L21.5636 17.3716C22.1463 17.7725 22.3284 18.5007 22.0737 19.1563Z" fill="black"/>
</svg>
