<svg width="24" height="24" viewBox="0 0 24 24" fill="none" xmlns="http://www.w3.org/2000/svg">
<path fill-rule="evenodd" clip-rule="evenodd" d="M11.3672 1.4375H10.3672V3.35793C5.48399 3.82144 1.66406 7.9338 1.66406 12.9384C1.66406 18.2535 5.97283 22.5623 11.288 22.5623C16.2925 22.5623 20.4048 18.7424 20.8684 13.8592H22.7889V12.8592C22.7889 6.55117 17.6752 1.4375 11.3672 1.4375ZM18.8568 13.8592H10.3672V5.36949C6.59082 5.8241 3.66406 9.03944 3.66406 12.9384C3.66406 17.1489 7.0774 20.5623 11.288 20.5623C15.1869 20.5623 18.4022 17.6355 18.8568 13.8592ZM12.3672 11.8592V3.48994C16.7719 3.95463 20.2717 7.45446 20.7364 11.8592H12.3672Z" fill="black"/>
</svg>
