<svg width="24" height="24" viewBox="0 0 24 24" fill="none" xmlns="http://www.w3.org/2000/svg">
<path fill-rule="evenodd" clip-rule="evenodd" d="M18.1998 21.1948C21.1492 19.2021 23.0884 15.8277 23.0884 12.0003C23.0884 5.87645 18.1241 0.912109 12.0003 0.912109C5.87645 0.912109 0.912109 5.87645 0.912109 12.0003C0.912109 18.1241 5.87645 23.0884 12.0003 23.0884C14.2967 23.0884 16.4301 22.3903 18.1998 21.1948ZM11.7964 3.00095C6.91914 3.10931 2.99869 7.09696 2.99869 12.0003C2.99869 13.3233 3.28412 14.5797 3.79676 15.7112L4.63378 13.0455C4.90706 12.1752 5.38453 11.3829 6.02635 10.7347C7.15477 9.59501 8.70983 8.9815 10.3124 9.04368L10.531 9.05217C12.3026 9.12091 14.0315 8.49753 15.3516 7.314L16.1962 6.55675L16.2107 6.41652C15.7961 5.88521 15.3448 5.41925 14.8895 5.01349C14.0655 4.27908 13.238 3.75236 12.6166 3.40997C12.307 3.23935 12.0514 3.11612 11.8771 3.03702C11.8479 3.02375 11.8209 3.01173 11.7964 3.00095ZM16.7036 16.8914C16.1685 17.7199 15.533 18.4136 14.8895 18.9871C14.0655 19.7215 13.238 20.2482 12.6166 20.5906C12.4217 20.698 12.2482 20.7866 12.103 20.8573L12.4728 17.3461C12.5775 16.3525 13.3947 15.5858 14.393 15.5447C14.9357 15.5224 15.4645 15.7202 15.8593 16.0934L16.7036 16.8914ZM17.3216 8.23384C17.8118 9.30224 18.1237 10.5507 18.1237 12.0003C18.1237 13.1209 17.9373 14.1214 17.6262 15.0114L17.2331 14.6399C16.4463 13.8962 15.3925 13.5019 14.3107 13.5464C12.3212 13.6283 10.6924 15.1563 10.4838 17.1366L10.1055 20.7283C10.1029 20.7526 10.1013 20.7769 10.1005 20.801C8.12963 20.3776 6.39842 19.309 5.13875 17.827C5.2285 17.7252 5.29887 17.6034 5.34216 17.4656L6.54193 13.6446C6.71964 13.0787 7.03015 12.5634 7.44754 12.1419C8.18138 11.4007 9.19267 11.0017 10.2349 11.0422L10.4534 11.0507C12.7442 11.1396 14.9797 10.3335 16.6867 8.80314L17.3216 8.23384Z" fill="black"/>
</svg>
