<svg width="24" height="24" viewBox="0 0 24 24" fill="none" xmlns="http://www.w3.org/2000/svg">
<path fill-rule="evenodd" clip-rule="evenodd" d="M5.6203 18.5H21.1203V20.5H5.6203V18.5Z" fill="black"/>
<path fill-rule="evenodd" clip-rule="evenodd" d="M7.35161 3.5C7.02951 3.5 6.72712 3.65515 6.53927 3.9168C6.35142 4.17846 6.30111 4.51458 6.40411 4.81977L7.47741 8.00002H6.33868L4.76353 6.10984C4.57354 5.88184 4.29209 5.75002 3.99531 5.75002H1.23829C0.912839 5.75002 0.607747 5.90839 0.420462 6.17455C0.233177 6.44072 0.187129 6.78136 0.297025 7.0877L2.80087 14.0671C2.81153 14.0968 2.8235 14.1258 2.8367 14.1539C3.25069 15.2674 4.32052 16.0353 5.54537 16.0353H21.3702C22.4748 16.0353 23.3703 15.1398 23.3702 14.0352L23.3702 13.242C23.3703 13.2352 23.3703 13.2284 23.3703 13.2217V12C23.3703 10.9392 22.9489 9.92174 22.1987 9.17159C21.4486 8.42145 20.4312 8.00002 19.3703 8.00002H14.5602L10.7325 3.8243C10.5431 3.61767 10.2756 3.50002 9.99532 3.50002L7.35161 3.5ZM21.3703 12.4647V12C21.3703 11.4696 21.1596 10.9609 20.7845 10.5858C20.4094 10.2107 19.9007 10 19.3703 10H14.1203C13.84 10 13.5726 9.88237 13.3832 9.67575L9.55541 5.50002L8.74451 5.50001L9.8178 8.68025C9.9208 8.98544 9.87049 9.32156 9.68264 9.58322C9.49479 9.84487 9.19241 10 8.87031 10H5.87031C5.57353 10 5.29208 9.8682 5.10209 9.64021L3.52693 7.75002H2.65944L4.35083 12.4647H21.3703Z" fill="black"/>
</svg>
