<svg width="24" height="24" viewBox="0 0 24 24" fill="none" xmlns="http://www.w3.org/2000/svg">
<path d="M16.778 12.3869C17.2917 12.398 17.8083 12.3642 18.3199 12.4045C18.8381 12.5011 18.963 13.2855 18.5026 13.5424C18.1886 13.7116 17.8154 13.6054 17.4749 13.6353H16.778V12.3869ZM18.617 10.9739C18.7311 11.3767 18.3428 11.7384 17.9548 11.6829H16.778C16.7863 11.303 16.7619 10.8907 16.79 10.5308C17.2614 10.5441 17.7372 10.5037 18.2058 10.5519C18.4072 10.6025 18.5757 10.7681 18.617 10.9739ZM21.4489 5.00003C21.4708 5.76933 21.4521 6.57929 21.4584 7.3642C21.4569 10.5553 21.4614 13.7464 21.4559 16.9377C21.4352 18.1337 20.3753 19.1729 19.1876 19.1967C17.9988 19.2016 16.8098 19.1975 15.6208 19.1988V14.3745C16.9162 14.3678 18.2124 14.388 19.5073 14.3644C20.108 14.3266 20.766 13.9303 20.794 13.2692C20.8647 12.6053 20.2388 12.146 19.6445 12.0735C19.416 12.0676 19.4227 12.0069 19.6445 11.9804C20.2113 11.8579 20.6564 11.2713 20.4896 10.6837C20.3475 10.0658 19.6645 9.82661 19.0964 9.8278C17.938 9.81993 16.7795 9.8267 15.621 9.82442C15.6285 8.92377 15.6054 8.02216 15.6335 7.12217C15.7253 5.9478 16.8119 4.97932 17.9828 5.00034C19.1383 5.00016 20.2937 5.00016 21.4489 5.00012V5.00003Z" fill="url(#paint0_linear_9225_358663)"/>
<path d="M2.53081 7.24402C2.5604 6.04995 3.62483 5.01928 4.81098 5.00183C5.99542 4.99818 7.18003 5.0013 8.36447 5.00025C8.36121 8.99533 8.37088 12.9909 8.35959 16.9857C8.31396 18.1653 7.26113 19.1763 6.0879 19.1972C4.90122 19.2015 3.71441 19.1978 2.52769 19.199V14.212C3.68039 14.4843 4.88918 14.6002 6.06513 14.4196C6.76806 14.3065 7.53714 13.9613 7.77513 13.2321C7.95025 12.6083 7.85166 11.9517 7.87772 11.3115V9.82464H5.84262C5.83348 10.808 5.86135 11.7931 5.82789 12.7753C5.77303 13.379 5.17517 13.7626 4.60579 13.7421C3.89965 13.7496 2.50035 13.2303 2.50035 13.2303C2.49683 11.3879 2.52083 9.08052 2.53081 7.24419V7.24402Z" fill="url(#paint1_linear_9225_358663)"/>
<path d="M9.12401 10.4246C9.01689 10.4473 9.10247 10.0597 9.07508 9.91266C9.08238 8.98296 9.05983 8.05224 9.08753 7.1232C9.17904 5.94386 10.274 4.97297 11.4497 5.00057H14.9121C14.9089 8.99566 14.9185 12.9912 14.9072 16.986C14.8616 18.1656 13.8087 19.1766 12.6354 19.1975C11.4487 19.202 10.2618 19.1982 9.07504 19.1994V13.7354C9.88557 14.4005 10.9872 14.504 11.997 14.5058C12.7582 14.5055 13.515 14.3882 14.2543 14.2126V13.2116C13.4212 13.6268 12.4418 13.8906 11.5183 13.652C10.874 13.4916 10.4064 12.869 10.4168 12.2042C10.3422 11.5128 10.7474 10.7828 11.4269 10.5773C12.2705 10.3132 13.1899 10.5151 13.9806 10.8585C14.15 10.9472 14.322 11.0572 14.2543 10.7741V9.98725C12.9318 9.67261 11.5243 9.55682 10.1957 9.89912C9.81111 10.0076 9.43641 10.1721 9.12401 10.4247V10.4246Z" fill="url(#paint2_linear_9225_358663)"/>
<defs>
<linearGradient id="paint0_linear_9225_358663" x1="15.5809" y1="11.7958" x2="21.4215" y2="11.7958" gradientUnits="userSpaceOnUse">
<stop stop-color="#58B03A"/>
<stop offset="1" stop-color="#55B330"/>
</linearGradient>
<linearGradient id="paint1_linear_9225_358663" x1="2.40351" y1="12.2356" x2="8.26877" y2="12.2356" gradientUnits="userSpaceOnUse">
<stop stop-color="#0F6EB6"/>
<stop offset="1" stop-color="#006DBA"/>
</linearGradient>
<linearGradient id="paint2_linear_9225_358663" x1="9.06648" y1="11.9339" x2="14.911" y2="11.9339" gradientUnits="userSpaceOnUse">
<stop stop-color="#DE0D3D"/>
<stop offset="1" stop-color="#E30138"/>
</linearGradient>
</defs>
</svg>
