<svg width="24" height="24" viewBox="0 0 24 24" fill="none" xmlns="http://www.w3.org/2000/svg">
<path d="M8 3H16C16.5523 3 17 3.44772 17 4V12.5907C17.7267 12.7242 18.4034 13.0005 19 13.3895V4C19 2.34315 17.6569 1 16 1H8C6.34315 1 5 2.34315 5 4V20C5 21.6569 6.34315 23 8 23H13.7055C12.7574 22.5642 11.9546 21.8667 11.3895 21H8C7.44772 21 7 20.5523 7 20V4C7 3.44772 7.44772 3 8 3Z" fill="black"/>
<path fill-rule="evenodd" clip-rule="evenodd" d="M15.688 18.0503L17.8055 15.8747L18.9521 16.9906L16.269 19.7473C16.1197 19.9007 15.9152 19.9879 15.7011 19.9893C15.4871 19.9908 15.2814 19.9064 15.13 19.755L13.3201 17.9451L14.4514 16.8137L15.688 18.0503Z" fill="black"/>
<path fill-rule="evenodd" clip-rule="evenodd" d="M16 21.5C17.933 21.5 19.5 19.933 19.5 18C19.5 16.067 17.933 14.5 16 14.5C14.067 14.5 12.5 16.067 12.5 18C12.5 19.933 14.067 21.5 16 21.5ZM16 23.5C19.0376 23.5 21.5 21.0376 21.5 18C21.5 14.9624 19.0376 12.5 16 12.5C12.9624 12.5 10.5 14.9624 10.5 18C10.5 21.0376 12.9624 23.5 16 23.5Z" fill="black"/>
<path d="M9 3H15C15 4.10457 14.1046 5 13 5H11C9.89543 5 9 4.10457 9 3Z" fill="black"/>
</svg>
