<svg width="24" height="24" viewBox="0 0 24 24" fill="none" xmlns="http://www.w3.org/2000/svg">
<path d="M9.32572 11.3741V10.2991H7.17572V11.3741C7.17572 12.6537 7.68407 13.881 8.58893 14.7859C9.49379 15.6907 10.7211 16.1991 12.0007 16.1991C13.2804 16.1991 14.5076 15.6907 15.4125 14.7859C16.3174 13.881 16.8257 12.6537 16.8257 11.3741V10.2991H14.6757V11.3741C14.6757 12.0835 14.3939 12.7639 13.8922 13.2656C13.3906 13.7672 12.7102 14.0491 12.0007 14.0491C11.2913 14.0491 10.6109 13.7672 10.1092 13.2656C9.60755 12.7639 9.32572 12.0835 9.32572 11.3741Z" fill="black"/>
<path fill-rule="evenodd" clip-rule="evenodd" d="M13.5893 2.09644L12.1026 2.09473L10.5796 2.09644L4.92944 2.09645C3.26937 2.09686 1.92383 3.44273 1.92383 5.10281C1.92383 5.1407 1.92453 5.17843 1.92592 5.21599C1.92453 5.25493 1.92383 5.29405 1.92383 5.33333V18.1889C1.92383 20.1644 3.52527 21.7658 5.50075 21.7658H18.5008C20.4763 21.7658 22.0777 20.1644 22.0777 18.1889V5.33327C22.0777 5.294 22.077 5.25489 22.0756 5.21596C22.077 5.17841 22.0777 5.14069 22.0777 5.1028C22.0777 3.44273 20.7322 2.09686 19.0721 2.09644L13.5893 2.09644ZM4.07767 7.98658C4.34794 8.06635 4.63407 8.10917 4.93019 8.10917H19.0713C19.3675 8.10917 19.6536 8.06635 19.9238 7.98658V18.1889C19.9238 18.9748 19.2867 19.612 18.5008 19.612H5.50075C4.71481 19.612 4.07767 18.9748 4.07767 18.1889V7.98658Z" fill="black"/>
</svg>
