<svg width="24" height="24" viewBox="0 0 24 24" fill="none" xmlns="http://www.w3.org/2000/svg">
<path d="M13.9537 10.5004C13.5888 10.4903 13.2258 10.5546 12.8866 10.6895C12.6332 10.7903 12.3972 10.929 12.1863 11.1002C11.1985 10.3566 9.73809 10.2705 8.71875 11.1866C8.44723 11.4299 8.2281 11.7259 8.07472 12.0566C7.92117 12.3877 7.83675 12.7467 7.8266 13.1115C7.81645 13.4763 7.8808 13.8394 8.0157 14.1785C8.15061 14.5176 8.35324 14.8257 8.61122 15.0839L8.61335 15.086L11.4904 17.9479C11.8805 18.3359 12.5108 18.3359 12.9009 17.9479L15.7099 15.1541L15.7136 15.1504C16.6801 14.1791 16.8894 12.5173 15.8786 11.3926C15.6353 11.1211 15.3393 10.9019 15.0085 10.7485C14.6774 10.595 14.3185 10.5106 13.9537 10.5004Z" fill="black"/>
<path fill-rule="evenodd" clip-rule="evenodd" d="M20.9998 5.46257C20.9998 5.45443 20.9999 5.44628 20.9999 5.43813C20.9999 3.67832 19.5736 2.25154 17.8137 2.25098L13.7336 2.25098L12.2724 2.24902L10.7744 2.25099L6.55528 2.25099C4.79546 2.25155 3.36914 3.67832 3.36914 5.43814C3.36914 5.4463 3.36917 5.45446 3.36923 5.4626C3.36917 5.4708 3.36914 5.47901 3.36914 5.48723V18.6893C3.36914 20.4736 4.8156 21.9201 6.59991 21.9201H17.7691C19.5534 21.9201 20.9999 20.4736 20.9999 18.6893V5.48716C20.9999 5.47896 20.9998 5.47076 20.9998 5.46257ZM13.7321 4.40483L17.7705 4.41024C18.3565 4.41103 18.8326 4.87962 18.8457 5.46239C18.8329 6.02187 18.3753 6.47144 17.8127 6.47144H6.55629C5.99373 6.47144 5.53617 6.02189 5.52327 5.46243C5.53644 4.87966 6.01257 4.41107 6.5985 4.41031L10.7739 4.40483L13.7321 4.40483ZM5.52299 8.45405C5.84703 8.56505 6.19462 8.62529 6.55629 8.62529H17.8127C18.1744 8.62529 18.522 8.56505 18.846 8.45405V18.6893C18.846 19.2841 18.3639 19.7663 17.7691 19.7663H6.59991C6.00514 19.7663 5.52299 19.2841 5.52299 18.6893V8.45405Z" fill="black"/>
</svg>
