<svg width="24" height="24" viewBox="0 0 24 24" fill="none" xmlns="http://www.w3.org/2000/svg">
<path fill-rule="evenodd" clip-rule="evenodd" d="M16.15 2.02651C16.467 1.58246 17.0814 1.47443 17.5308 1.78371L23.2183 5.6976C23.438 5.84881 23.5883 6.08154 23.6356 6.34405C23.6829 6.60655 23.6233 6.87708 23.4702 7.09548L21.5414 9.84639L21.0604 12.0516C21.052 12.0944 21.041 12.1362 21.0275 12.1767L19.5159 17.1496C19.5127 17.1603 19.5092 17.1709 19.5056 17.1815C19.409 17.4649 19.2451 17.7207 19.0281 17.927C18.8208 18.124 18.5708 18.2702 18.2979 18.3544L12.5001 20.4398C12.4603 20.4541 12.4197 20.4658 12.3784 20.475C12.1364 20.5287 11.8859 20.532 11.6425 20.4846C11.6201 20.4802 11.5979 20.4751 11.5759 20.4692L4.84784 18.6732L1.39345 18.74C1.12613 18.7451 0.867872 18.643 0.676349 18.4565C0.484825 18.2699 0.375987 18.0144 0.374139 17.7471L0.326196 10.809C0.322418 10.2622 0.758558 9.81379 1.30526 9.80236L4.51314 9.73527L8.09767 6.22604C8.40466 5.92861 8.80732 5.74989 9.23384 5.72177L9.23534 5.72167L12.8439 5.48915L14.1994 4.75903L16.15 2.02651ZM9.91772 7.68185L9.43797 7.71276L5.90941 11.1672L5.9622 16.9006L11.971 18.5046L17.6327 16.4683L18.7817 12.6879L15.2617 12.1973L14.8943 12.9838L14.8933 12.9859C14.5061 13.8099 13.863 14.4867 13.0598 14.9154C12.2566 15.3442 11.3364 15.5019 10.4364 15.365C10.4034 15.36 10.3706 15.3534 10.3383 15.3451L9.79604 15.2061C8.69011 14.9226 8.0455 13.7723 8.38096 12.6811L9.91772 7.68185ZM19.4865 9.88277L19.2993 10.7407L14.8062 10.1145C14.3714 10.0539 13.9479 10.284 13.7622 10.6818L13.0832 12.1353L13.0827 12.1364C12.8788 12.5697 12.5405 12.9256 12.118 13.1511C11.7086 13.3696 11.2414 13.4544 10.7819 13.3941L10.2927 13.2687L11.8155 8.31478L14.8178 6.69765L19.4865 9.88277Z" fill="black"/>
</svg>
