<svg width="24" height="24" viewBox="0 0 24 24" fill="none" xmlns="http://www.w3.org/2000/svg">
<path d="M13.75 8.57275H8.75V10.5728H13.75V8.57275Z" fill="black"/>
<path fill-rule="evenodd" clip-rule="evenodd" d="M8.25003 2.99996L8.25001 4.57275C6.79132 4.57275 5.39237 5.15222 4.36092 6.18367C3.32947 7.21512 2.75001 8.61406 2.75001 10.0728L2.75 22.0728C2.75 22.338 2.85536 22.5923 3.04289 22.7799C3.23043 22.9674 3.48478 23.0728 3.75 23.0728H18.7452L18.75 23.0728H20.25C20.8023 23.0728 21.25 22.625 21.25 22.0728V10.5728C21.25 7.59975 19.0877 5.13179 16.25 4.65571V3.00013C16.25 1.8969 15.3569 1.00014 14.2511 1.00011L10.249 1C9.1431 0.999973 8.25005 1.89674 8.25003 2.99996ZM10.25 3L10.25 4.57275H14.25V3.00013L10.25 3ZM8.25001 6.57275C7.32175 6.57275 6.43151 6.9415 5.77513 7.59788C5.11876 8.25426 4.75001 9.1445 4.75001 10.0728L4.75 21.0728H6.75189V16.5728C6.75189 14.916 8.095 13.5728 9.75184 13.5728L12.9085 13.5728C14.5653 13.5727 15.9085 14.9159 15.9085 16.5728V21.0728H17.75V10.0728C17.75 9.1445 17.3813 8.25426 16.7249 7.59788C16.0704 6.94342 15.1835 6.57491 14.2582 6.57276H14.25L14.2456 6.57275H8.25001Z" fill="black"/>
</svg>
