<svg width="24" height="24" viewBox="0 0 24 24" fill="none" xmlns="http://www.w3.org/2000/svg">
<path fill-rule="evenodd" clip-rule="evenodd" d="M4.4587 2.13379H19.5488C19.9399 2.13701 20.3197 2.2658 20.6321 2.50112C20.9445 2.73645 21.173 3.06589 21.2841 3.44092L21.287 3.45086L22.7369 8.54085C22.7666 8.63544 22.7826 8.73608 22.7826 8.84045V10.4709C22.7826 11.601 22.3337 12.6848 21.5346 13.4839C21.4133 13.6051 21.2856 13.7183 21.1521 13.823V20.2538C21.1521 20.7353 20.9608 21.197 20.6204 21.5374C20.28 21.8778 19.8183 22.0691 19.3368 22.0691H4.66259C4.18116 22.0691 3.71945 21.8778 3.37902 21.5374C3.0386 21.197 2.84735 20.7353 2.84735 20.2538V13.823C2.71386 13.7183 2.58608 13.6051 2.46486 13.4839C1.66578 12.6848 1.21686 11.601 1.21686 10.4709V8.85143C1.21648 8.81735 1.21785 8.78318 1.22098 8.74905C1.2273 8.67927 1.24079 8.61157 1.26071 8.54667L2.71514 3.4409C2.82619 3.06587 3.0548 2.73645 3.36722 2.50112C3.679 2.26627 4.05784 2.13756 4.44813 2.13384L4.4587 2.13379ZM19.5525 12.4832C19.6152 12.4361 19.6836 12.3963 19.7565 12.3649C19.8867 12.28 20.0088 12.1812 20.1204 12.0697C20.5444 11.6456 20.7826 11.0706 20.7826 10.4709V9.84044H16.2607V10.4709C16.2607 11.0706 16.4989 11.6456 16.9229 12.0697C17.3469 12.4937 17.922 12.7319 18.5216 12.7319C18.8835 12.7319 19.2363 12.6451 19.5525 12.4832ZM15.5087 13.4839C15.4218 13.397 15.3391 13.3068 15.2606 13.2135C15.1822 13.3068 15.0995 13.397 15.0126 13.4839C14.2135 14.283 13.1297 14.7319 11.9997 14.7319C10.8696 14.7319 9.78579 14.283 8.98671 13.4839C8.89987 13.397 8.81717 13.3068 8.73873 13.2136C8.66029 13.3068 8.57758 13.397 8.49075 13.4839C7.69166 14.283 6.60788 14.7319 5.4778 14.7319C5.26549 14.7319 5.05481 14.716 4.84735 14.685V20.0691H19.1521V14.685C18.9446 14.716 18.7339 14.7319 18.5216 14.7319C17.3916 14.7319 16.3078 14.283 15.5087 13.4839ZM14.2606 9.84044H9.73875V10.4709L9.73873 10.4817C9.74156 11.0774 9.97945 11.6482 10.4009 12.0697C10.8249 12.4937 11.4 12.7319 11.9997 12.7319C12.5993 12.7319 13.1744 12.4937 13.5984 12.0697C14.0224 11.6456 14.2606 11.0706 14.2606 10.4709V9.84044ZM7.73871 9.84044H3.21686V10.4709C3.21686 11.0706 3.45506 11.6456 3.87907 12.0697C3.99066 12.1812 4.11272 12.28 4.24292 12.3649C4.31582 12.3963 4.38423 12.4361 4.44694 12.4832C4.76309 12.6451 5.11597 12.7319 5.4778 12.7319C6.07744 12.7319 6.65252 12.4937 7.07653 12.0697C7.49801 11.6482 7.73589 11.0774 7.73872 10.4817L7.73871 10.4709V9.84044Z" fill="black"/>
</svg>
