<svg width="24" height="24" viewBox="0 0 24 24" fill="none" xmlns="http://www.w3.org/2000/svg">
<path fill-rule="evenodd" clip-rule="evenodd" d="M11.4265 1.63487C11.7709 1.39385 12.2291 1.39385 12.5735 1.63487L12.5768 1.63719L12.5828 1.64145L12.6029 1.65572C12.6198 1.66778 12.6436 1.68492 12.6738 1.70702C12.7344 1.75122 12.8208 1.8153 12.9295 1.89835C13.1467 2.06439 13.4533 2.30669 13.8195 2.61794C14.5505 3.23927 15.5263 4.14159 16.5046 5.26667C18.4368 7.48875 20.5 10.719 20.5 14.4541C20.5 16.7084 19.6045 18.8704 18.0104 20.4645C16.4163 22.0586 14.2543 22.9541 12 22.9541C9.74566 22.9541 7.58365 22.0586 5.98959 20.4645C4.39553 18.8704 3.5 16.7084 3.5 14.4541C3.5 10.719 5.56315 7.48875 7.49539 5.26667C8.47373 4.14159 9.4495 3.23927 10.1805 2.61794C10.5467 2.30669 10.8533 2.06439 11.0705 1.89835C11.1792 1.8153 11.2656 1.75122 11.3262 1.70702C11.3564 1.68492 11.3802 1.66778 11.3971 1.65572L11.4172 1.64145L11.4232 1.63719L11.4265 1.63487ZM12 3.70998C11.8486 3.83066 11.6719 3.97509 11.4758 4.14182C10.8005 4.7158 9.90127 5.54787 9.00461 6.57903C7.18685 8.66945 5.5 11.4392 5.5 14.4541C5.5 14.5414 5.50176 14.6285 5.50525 14.7155H18.4947C18.4982 14.6285 18.5 14.5414 18.5 14.4541C18.5 11.4392 16.8132 8.66945 14.9954 6.57903C14.0987 5.54787 13.1995 4.7158 12.5242 4.14182C12.3281 3.97509 12.1514 3.83066 12 3.70998Z" fill="black"/>
</svg>
