<svg width="24" height="24" viewBox="0 0 24 24" fill="none" xmlns="http://www.w3.org/2000/svg">
<path fill-rule="evenodd" clip-rule="evenodd" d="M3.76562 4.94623C3.76562 4.264 4.31869 3.71094 5.00092 3.71094H8.34345V1.71094H5.00092C3.21412 1.71094 1.76562 3.15943 1.76562 4.94623V8.29917H3.76562V4.94623ZM20.2324 4.94623C20.2324 4.264 19.6794 3.71094 18.9971 3.71094H15.6546V1.71094H18.9971C20.7839 1.71094 22.2324 3.15943 22.2324 4.94623V8.29917H20.2324V4.94623ZM20.2324 18.9131C20.2324 19.5954 19.6794 20.1484 18.9971 20.1484H15.6442V22.1484H18.9971C20.7839 22.1484 22.2324 20.6999 22.2324 18.9131V15.5706H20.2324V18.9131ZM4.99115 20.1484C4.30892 20.1484 3.75586 19.5954 3.75586 18.9131V15.5706H1.75586V18.9131C1.75586 20.6999 3.20435 22.1484 4.99115 22.1484H8.34409V20.1484H4.99115ZM7.34375 7.91309V10.9131H9.34375V7.91309H7.34375ZM9.68596 14.7422C10.7808 16.4047 13.2192 16.4047 14.314 14.7422L15.9844 15.8422C14.0993 18.7047 9.90067 18.7047 8.01561 15.8422L9.68596 14.7422ZM14.6543 7.91309V10.9131H16.6543V7.91309H14.6543Z" fill="black"/>
</svg>
