<svg width="24" height="24" viewBox="0 0 24 24" fill="none" xmlns="http://www.w3.org/2000/svg">
<path fill-rule="evenodd" clip-rule="evenodd" d="M6.4875 1.83203H17.5165C17.8558 1.83339 18.1874 1.93338 18.4709 2.1198C18.7418 2.29791 18.9576 2.54759 19.0947 2.84072L21.6024 7.58203H23.5V9.58203H22V16.582C22 17.0462 21.8156 17.4913 21.4874 17.8195C21.1592 18.1477 20.7141 18.332 20.25 18.332H18C17.5359 18.332 17.0908 18.1477 16.7626 17.8195C16.4344 17.4913 16.25 17.0462 16.25 16.582V15.332H7.75V16.582C7.75 17.0462 7.56563 17.4913 7.23744 17.8195C6.90925 18.1477 6.46413 18.332 6 18.332H3.75C3.28587 18.332 2.84075 18.1477 2.51256 17.8195C2.18437 17.4913 2 17.0462 2 16.582V9.58203H0.5V7.58203H2.39764L4.90527 2.84074C5.04234 2.5476 5.25817 2.29792 5.52905 2.1198C5.81257 1.93338 6.14417 1.8334 6.48348 1.83204L6.4875 1.83203ZM4 16.332V9.58203H20V16.332H18.25V13.332H5.75V16.332H4Z" fill="black"/>
<path d="M23.5 20.167H0.5V22.167H23.5V20.167Z" fill="black"/>
</svg>
