<svg width="24" height="24" viewBox="0 0 24 24" fill="none" xmlns="http://www.w3.org/2000/svg">
<path fill-rule="evenodd" clip-rule="evenodd" d="M18.1351 4.72716C17.6374 4.23046 16.8309 4.23059 16.3334 4.72754L15.9487 5.11231L18.9108 8.07443L19.2959 7.68927C19.7927 7.193 19.7937 6.38574 19.2959 5.88801L18.1351 4.72716ZM17.4966 9.48864L14.5344 6.52652L9.20558 11.8554C9.01136 12.0496 8.89944 12.3108 8.89246 12.5849L8.82828 15.1656H11.3763C11.6602 15.1656 11.9324 15.0528 12.1334 14.8518L17.4966 9.48864ZM14.92 3.31256C16.1985 2.03545 18.2704 2.03545 19.5489 3.31256L20.7101 4.4738C21.9885 5.75216 21.989 7.82595 20.7098 9.10387L13.5476 16.2661C12.972 16.8416 12.1912 17.1656 11.3763 17.1656H7.80311C7.53358 17.1656 7.27546 17.0568 7.08726 16.8639C6.89906 16.6709 6.79671 16.4102 6.80341 16.1407L6.89308 12.5351C6.91288 11.7486 7.23401 10.9985 7.79137 10.4412L14.92 3.31256Z" fill="black"/>
<path fill-rule="evenodd" clip-rule="evenodd" d="M2.43359 6.33447C2.43359 4.12533 4.22445 2.33447 6.43359 2.33447H11.3605V4.33447H6.43359C5.32902 4.33447 4.43359 5.2299 4.43359 6.33447V17.7285C4.43359 18.8331 5.32902 19.7285 6.43359 19.7285H17.7082C18.8127 19.7285 19.7082 18.8331 19.7082 17.7285V12.3703H21.7082V17.7285C21.7082 19.9377 19.9173 21.7285 17.7082 21.7285H6.43359C4.22445 21.7285 2.43359 19.9377 2.43359 17.7285V6.33447Z" fill="black"/>
</svg>
