<svg width="24" height="24" viewBox="0 0 24 24" fill="none" xmlns="http://www.w3.org/2000/svg">
<path fill-rule="evenodd" clip-rule="evenodd" d="M11.5749 14.3984L13.6924 12.2228L14.839 13.3388L12.1559 16.0955C12.0066 16.2488 11.802 16.336 11.588 16.3375C11.374 16.3389 11.1683 16.2545 11.0169 16.1032L9.20696 14.2932L10.3383 13.1618L11.5749 14.3984Z" fill="black"/>
<path d="M11.9026 0.5C14.8965 0.5 17.3364 2.87186 17.4457 5.83902L17.4496 6.04697V8.98091H15.1574V6.04697C15.1574 4.24938 13.7002 2.79214 11.9026 2.79214C10.1649 2.79214 8.7453 4.15385 8.65259 5.86839L8.64777 6.04697V8.98091H6.35563V6.04697C6.35563 2.98346 8.8391 0.5 11.9026 0.5Z" fill="black"/>
<path fill-rule="evenodd" clip-rule="evenodd" d="M3 13.5C3 16.5 6.33761 20.7266 11.0176 23.2606C11.6099 23.5813 12.3361 23.578 12.9244 23.2595L12.9265 23.2584C17.5795 20.724 21 16.5 21 13.5C20.219 13.5 19 13.5 19 13.5C19 15.5 15.7791 19.4255 11.9749 21.4993L11.9694 21.4998L11.9656 21.4995C8.13841 19.4258 5 15.5 5 13.5H3Z" fill="black"/>
<path d="M5.00025 10.5C5.00026 9.94771 5.44797 9.5 6.00025 9.5L18.0001 9.50001C18.5524 9.50001 19.0001 9.94772 19.0001 10.5L19 13.5C19 13.5 20.219 13.5 21 13.5C21.0001 12.3284 21.0001 10.5 21.0001 10.5C21.0001 8.84316 19.657 7.50001 18.0001 7.50001L6.00026 7.5C4.34341 7.5 3.00027 8.84312 3.00025 10.5L3 13.5H5L5.00025 10.5Z" fill="black"/>
</svg>
