<svg width="24" height="24" viewBox="0 0 24 24" fill="none" xmlns="http://www.w3.org/2000/svg">
<path fill-rule="evenodd" clip-rule="evenodd" d="M15.4609 19.2147C14.6997 19.5805 13.8716 19.8294 13 19.9381V4.06189C13.8716 4.17058 14.6997 4.41949 15.4609 4.78533L15.4609 19.2147ZM17.4609 17.8462C19.0234 16.3862 20 14.3071 20 12C20 9.69285 19.0234 7.61381 17.4609 6.15375L17.4609 17.8462ZM22 12C22 17.5228 17.5228 22 12 22C6.47715 22 2 17.5228 2 12C2 6.47715 6.47715 2 12 2C17.5228 2 22 6.47715 22 12ZM4 12C4 7.92038 7.05369 4.55399 11 4.06189V19.9381C7.05369 19.446 4 16.0796 4 12Z" fill="black"/>
</svg>
