<svg width="24" height="24" viewBox="0 0 24 24" fill="none" xmlns="http://www.w3.org/2000/svg">
<path d="M10.9926 6.71366C10.6857 6.50909 10.2912 6.49002 9.96601 6.66404C9.64085 6.83806 9.43787 7.17692 9.43787 7.54571V13.9588C9.43787 14.3276 9.64085 14.6664 9.96601 14.8404C10.2912 15.0145 10.6857 14.9954 10.9926 14.7908L15.8024 11.5843C16.0806 11.3988 16.2477 11.0866 16.2477 10.7522C16.2477 10.4179 16.0806 10.1057 15.8024 9.92019L10.9926 6.71366Z" fill="black"/>
<path fill-rule="evenodd" clip-rule="evenodd" d="M1.66998 6.0376C1.66998 4.1046 3.23698 2.5376 5.16998 2.5376H18.9121C20.8451 2.5376 22.4121 4.1046 22.4121 6.0376V18.4622C22.4121 20.1191 21.069 21.4622 19.4121 21.4622H4.66992C3.01307 21.4622 1.66992 20.1191 1.66992 18.4622L1.66998 6.0376ZM3.66998 16.967H20.4121L20.4121 6.0376C20.4121 5.20917 19.7405 4.5376 18.9121 4.5376H5.16998C4.34155 4.5376 3.66998 5.20917 3.66998 6.0376V16.967Z" fill="black"/>
</svg>
