<svg width="24" height="24" viewBox="0 0 24 24" fill="none" xmlns="http://www.w3.org/2000/svg">
<path d="M18.0007 8.3099C17.6407 7.8999 17.2707 7.4899 16.8807 7.0999L16.5907 6.8299L16.7307 6.7099C17.2197 6.29011 17.5682 5.73042 17.7291 5.10634C17.8901 4.48226 17.8557 3.82384 17.6307 3.2199C17.3046 2.53888 16.7882 1.96684 16.1441 1.57289C15.4999 1.17894 14.7555 0.979928 14.0007 0.999904V2.9999C14.3565 2.99495 14.7071 3.08501 15.0165 3.2608C15.3259 3.43658 15.5828 3.69172 15.7607 3.9999C15.9307 4.3999 15.7607 4.8399 15.2907 5.3099C15.2207 5.3899 15.1407 5.4399 15.0707 5.5099C12.0707 3.0999 8.78065 1.7399 7.17065 3.3499C7.00201 3.5223 6.86342 3.72173 6.76065 3.9399V4.0399L6.58065 4.5699L2.17065 17.6699C2.00384 18.1636 1.95705 18.6899 2.03415 19.2052C2.11125 19.7206 2.31002 20.2101 2.614 20.6333C2.91798 21.0566 3.31842 21.4013 3.78216 21.6389C4.24589 21.8766 4.75957 22.0003 5.28065 21.9999C5.62089 21.9966 5.95844 21.9392 6.28065 21.8299L20.0007 17.2799C20.1693 17.2171 20.3178 17.11 20.4307 16.9699L20.6407 16.7899C22.0707 15.3499 21.1507 12.5799 19.2307 9.8899C20.3707 9.22456 21.6834 8.91466 23.0007 8.9999V6.9999C21.238 6.90292 19.4893 7.36108 18.0007 8.3099ZM5.70065 19.9299C5.47366 20.005 5.23025 20.0156 4.9976 19.9604C4.76496 19.9052 4.55222 19.7865 4.38315 19.6174C4.21408 19.4483 4.09532 19.2356 4.04014 19.003C3.98496 18.7703 3.99552 18.5269 4.07065 18.2999L5.43065 14.1999C6.40124 16.0508 7.89261 17.5769 9.72065 18.5899L5.70065 19.9299ZM12.7007 17.5999C11.1894 17.1997 9.81074 16.4071 8.70439 15.3025C7.59804 14.1979 6.80329 12.8205 6.40065 11.3099L7.40065 8.3099L7.46065 8.3999C7.57065 8.6199 7.71065 8.8499 7.85065 9.0799C7.99065 9.3099 8.01065 9.3699 8.11065 9.5199C8.21065 9.6699 8.44065 9.9999 8.62065 10.2499C8.80065 10.4999 8.81065 10.5299 8.92065 10.6699C9.03065 10.8099 9.35065 11.2199 9.58065 11.4899L9.87065 11.8399C10.2107 12.2299 10.5707 12.6099 10.9507 12.9999C11.3307 13.3899 11.6307 13.6399 11.9507 13.9999L12.2807 14.2799L13.0607 14.9099L13.4307 15.1899C13.7107 15.3899 13.9807 15.5899 14.2607 15.7699L14.5707 15.9699C14.9307 16.1899 15.2907 16.3999 15.6407 16.5799H15.6907L12.7007 17.5999ZM19.2107 15.3699H19.1507C18.4607 15.7499 15.5907 14.7999 12.3607 11.5599C12.0207 11.2199 11.7007 10.8899 11.4107 10.5599L11.1207 10.2099L10.5907 9.5699L10.3007 9.1699C10.1707 8.9799 10.0307 8.7999 9.91065 8.6199L9.65065 8.1999L9.36065 7.7299C9.28065 7.5899 9.22065 7.4599 9.15065 7.3299C9.08065 7.1999 9.00065 7.0699 8.94065 6.9299C8.88702 6.81273 8.84027 6.69253 8.80065 6.5699C8.75065 6.4399 8.69065 6.3099 8.65065 6.1899C8.61065 6.0699 8.60065 5.9999 8.57065 5.8799C8.54065 5.7599 8.52065 5.6599 8.50065 5.5599C8.49566 5.47331 8.49566 5.3865 8.50065 5.2999C8.49102 5.22019 8.49102 5.13961 8.50065 5.0599L8.61065 4.7499C8.97065 4.3899 10.8407 4.7499 13.3407 6.6499C12.9169 6.84117 12.4638 6.9595 12.0007 6.9999V8.9999C13.0629 8.9388 14.0935 8.61588 15.0007 8.0599L15.4807 8.5199C15.9007 8.9399 16.2907 9.3699 16.6607 9.7999C16.0882 10.835 15.8771 12.0314 16.0607 13.1999L18.0607 12.8099C18.0017 12.4389 18.0017 12.0609 18.0607 11.6899C18.3659 12.1527 18.6366 12.6374 18.8707 13.1399C19.4307 14.4599 19.3907 15.1999 19.2107 15.3699Z" fill="black"/>
</svg>
