<svg width="24" height="24" viewBox="0 0 24 24" fill="none" xmlns="http://www.w3.org/2000/svg">
<path fill-rule="evenodd" clip-rule="evenodd" d="M7.10156 20.8311H16.133V22.7696H7.10156V20.8311Z" fill="black"/>
<path fill-rule="evenodd" clip-rule="evenodd" d="M8.05333 4.27375C9.14447 3.52531 10.4435 3.13941 11.7663 3.17077C15.1785 3.24939 17.9326 6.09351 17.9169 9.51222L17.9169 9.51351C17.9138 10.4627 17.6947 11.3987 17.2762 12.2507C16.8577 13.1026 16.2508 13.8482 15.5015 14.4308L15.4966 14.4346C15.3772 14.5286 15.1756 14.6806 14.9962 14.8145C14.9081 14.8802 14.8279 14.9397 14.7698 14.9828L14.6766 15.0516C14.428 15.2349 14.2812 15.5261 14.2821 15.835L14.283 16.2537C14.2833 16.4851 14.2833 16.754 14.2821 16.9158L14.2821 16.9225L14.2821 17.2254H8.95117V16.9225L8.95117 16.9206C8.95085 16.7542 8.95085 16.4827 8.95093 16.2519L8.95117 15.8335C8.95144 15.5276 8.80725 15.2389 8.56221 15.0558L8.46694 14.9844C8.40792 14.9402 8.32652 14.8792 8.23693 14.8118C8.0575 14.6768 7.85061 14.5205 7.72345 14.4223C6.68423 13.6053 5.92825 12.4822 5.5626 11.2119C5.19662 9.94032 5.24026 8.58584 5.68732 7.3405C6.13439 6.09516 6.96219 5.02219 8.05333 4.27375ZM11.8116 1.23277C10.0821 1.1919 8.3835 1.69654 6.95681 2.67515C5.52994 3.65387 4.44743 5.05699 3.8628 6.68551C3.27818 8.31403 3.22112 10.0853 3.69971 11.748C4.1783 13.4108 5.16826 14.8807 6.52918 15.9492L6.53496 15.9538C6.65844 16.0492 6.84564 16.1908 7.01238 16.3164C7.01232 16.5312 7.01235 16.7701 7.01265 16.9234V18.1946C7.01265 18.7299 7.4466 19.1639 7.98191 19.1639H15.2514C15.7867 19.1639 16.2207 18.7299 16.2207 18.1946V16.9257C16.2217 16.7711 16.2218 16.5323 16.2216 16.3188C16.3845 16.1969 16.5691 16.0575 16.6939 15.9592C17.6743 15.1963 18.4684 14.2204 19.0161 13.1053C19.5643 11.9893 19.8513 10.7632 19.8554 9.51986C19.8753 5.05198 16.2862 1.33622 11.8116 1.23277Z" fill="black"/>
<path fill-rule="evenodd" clip-rule="evenodd" d="M10.8232 2.12314C10.7816 2.6349 11.7484 3.17469 11.7484 3.17469C12.6311 3.29838 13.4742 3.62071 14.2144 4.11741C17.857 6.56199 17.6469 11.9873 13.8261 14.1429L12.9686 14.6267C12.664 14.7985 12.4756 15.1211 12.4756 15.4708V18.1945C12.4756 18.7299 12.9095 19.1638 13.4448 19.1638C13.6447 19.1638 14.5244 19.1638 14.5244 19.1638C14.9743 19.1638 15.4057 18.9851 15.7238 18.667C16.0419 18.3489 16.2207 17.9175 16.2207 17.4676V16.9256C16.2217 16.771 16.2218 16.5323 16.2216 16.3187C16.3844 16.1968 16.569 16.0575 16.6938 15.9592C17.6743 15.1963 18.4684 14.2203 19.0161 13.1052C19.5643 11.9893 19.8513 10.7631 19.8554 9.51978C19.8753 5.05168 16.2864 1.33579 11.8116 1.23268C11.2983 1.22086 10.8648 1.61138 10.8232 2.12314Z" fill="black"/>
<path fill-rule="evenodd" clip-rule="evenodd" d="M9.13221 9.465C9.13221 8.09259 10.2448 6.98003 11.6172 6.98003V5.0415C9.17415 5.0415 7.19369 7.02197 7.19369 9.465V9.9906H9.13221V9.465Z" fill="black"/>
</svg>
