<svg width="24" height="24" viewBox="0 0 24 24" fill="none" xmlns="http://www.w3.org/2000/svg">
<path fill-rule="evenodd" clip-rule="evenodd" d="M9.11392 2.00304C9.93115 1.34266 10.9501 0.982422 12.0008 0.982422C13.0515 0.982422 14.0705 1.34266 14.8877 2.00304C15.405 2.42104 15.8216 2.9433 16.1138 3.53088C16.5088 3.43444 16.9165 3.39037 17.3264 3.40115C18.1207 3.42205 18.896 3.64817 19.577 4.05752C20.258 4.46688 20.8214 5.04553 21.2125 5.73718C21.5045 6.25375 21.693 6.82021 21.7696 7.40491L21.7753 7.39539C21.9699 8.47682 21.9174 9.58825 21.6217 10.6465L21.1362 12.3845L21.1367 12.3697L19.1135 20.9717C19.0216 21.3528 18.8049 21.6923 18.498 21.9363C18.191 22.1803 17.8114 22.3148 17.4193 22.3183L17.4102 22.3184L6.58226 22.3184C6.19018 22.3148 5.81053 22.1803 5.50359 21.9363C5.19665 21.6923 4.98 21.3528 4.88804 20.9717L4.8867 20.9661L2.41718 10.4661C2.18174 9.60326 2.10754 8.70596 2.19669 7.81904C2.22586 7.08876 2.42857 6.37494 2.78915 5.73718C3.18021 5.04553 3.74363 4.46688 4.4246 4.05752C5.10558 3.64817 5.88091 3.42205 6.67518 3.40115C7.08507 3.39037 7.4928 3.43444 7.88785 3.53088C8.17997 2.9433 8.59664 2.42104 9.11392 2.00304ZM19.4715 6.72153C19.6751 7.08163 19.7897 7.4846 19.8064 7.89692C19.7079 7.90607 19.61 7.92355 19.5137 7.94936L19.497 7.95399L15.8043 9.01275L12.6586 7.7545C12.4499 7.66876 12.2265 7.62463 12.0008 7.62463C11.7751 7.62463 11.5516 7.66876 11.3429 7.7545L8.19728 9.01275L4.50451 7.95399L4.48781 7.94936C4.39157 7.92356 4.29367 7.90608 4.19518 7.89692C4.21195 7.48461 4.32655 7.08163 4.53015 6.72153C4.7513 6.33039 5.06992 6.00315 5.45502 5.77165C5.84012 5.54015 6.27859 5.41228 6.72777 5.40046C7.17694 5.38865 7.62152 5.4933 8.01826 5.70423C8.29515 5.85145 8.62506 5.86025 8.9094 5.72801C9.19374 5.59577 9.39959 5.33781 9.46542 5.03121C9.58995 4.45122 9.90957 3.93147 10.371 3.55864C10.8323 3.1858 11.4076 2.98242 12.0008 2.98242C12.594 2.98242 13.1693 3.1858 13.6307 3.55864C14.092 3.93147 14.4117 4.45122 14.5362 5.03121C14.602 5.33781 14.8079 5.59577 15.0922 5.72801C15.3766 5.86025 15.7065 5.85145 15.9834 5.70423C16.3801 5.4933 16.8247 5.38865 17.2738 5.40046C17.723 5.41228 18.1615 5.54015 18.5466 5.77165C18.9317 6.00315 19.2503 6.33039 19.4715 6.72153ZM14.6567 10.7078L13.3752 20.3184H10.6263L9.34487 10.7078L12.0008 9.64542L14.6567 10.7078ZM4.36056 9.9933L7.34603 10.8493L8.60858 20.3184H6.78895L4.36056 9.9933Z" fill="black"/>
</svg>
