<svg width="24" height="24" viewBox="0 0 24 24" fill="none" xmlns="http://www.w3.org/2000/svg">
<g clip-path="url(#clip0_7593_312539)">
<path fill-rule="evenodd" clip-rule="evenodd" d="M8.41475 6.14792L20.6186 1.90399C20.9222 1.79841 21.258 1.84521 21.5212 2.02977C21.7844 2.21434 21.9428 2.51417 21.9469 2.83558C21.9574 3.64484 21.7849 4.87541 21.2351 6.05172C20.6783 7.24309 19.6987 8.44526 18.0739 9.01026L10.2139 11.7436L9.55699 9.85459L17.417 7.12123C18.3958 6.78086 19.0257 6.05534 19.4232 5.20489C19.5596 4.91318 19.6643 4.61468 19.743 4.32594L9.07439 8.03601L7.1955 8.70156C7.13996 9.64021 6.95869 10.9169 6.45191 12.207C5.87086 13.6861 4.8473 15.2127 3.08484 16.2309L4.19405 21.0375C4.31824 21.5756 3.98266 22.1126 3.44452 22.2368C2.90638 22.3609 2.36945 22.0254 2.24527 21.4872L0.960578 15.9202C0.852888 15.4536 1.09118 14.9761 1.52882 14.7816C3.15676 14.058 4.07123 12.7973 4.59039 11.4757C5.11634 10.1368 5.21697 8.77579 5.21697 7.98729C5.21697 7.56372 5.48382 7.18611 5.88308 7.04468L8.41475 6.14792Z" fill="black"/>
<path fill-rule="evenodd" clip-rule="evenodd" d="M19.306 6.92915C19.8461 6.81385 20.3774 7.15823 20.4927 7.69835C20.642 8.39765 20.6907 9.4785 20.3501 10.5345C19.9967 11.6299 19.21 12.7198 17.7206 13.2377L8.64023 16.3954L7.98331 14.5064L17.0637 11.3487C17.8523 11.0744 18.2477 10.5372 18.4466 9.92056C18.6582 9.2646 18.6292 8.54852 18.5368 8.11589C18.4215 7.57577 18.7659 7.04445 19.306 6.92915Z" fill="black"/>
<path fill-rule="evenodd" clip-rule="evenodd" d="M18.2906 11.4182C18.842 11.3871 19.3143 11.8088 19.3454 12.3602C19.384 13.0438 19.2294 14.1507 18.7883 15.1954C18.347 16.2408 17.5384 17.4044 16.146 17.8886L3.94222 22.1325C3.42058 22.3139 2.85064 22.0381 2.66924 21.5165C2.48784 20.9948 2.76366 20.4249 3.2853 20.2435L15.4891 15.9996C16.1307 15.7765 16.6162 15.1981 16.9458 14.4175C17.2757 13.636 17.3689 12.8329 17.3486 12.4729C17.3174 11.9215 17.7392 11.4493 18.2906 11.4182Z" fill="black"/>
</g>
<defs>
<clipPath id="clip0_7593_312539">
<rect width="24" height="24" fill="white"/>
</clipPath>
</defs>
</svg>
