<svg width="24" height="24" viewBox="0 0 24 24" fill="none" xmlns="http://www.w3.org/2000/svg">
<path d="M13.7688 18.4841H8.29187V16.1841H13.7688V18.4841Z" fill="black"/>
<path fill-rule="evenodd" clip-rule="evenodd" d="M17.3852 1.61037L12.0853 1.60254L11.556 1.6033L11.1053 1.60254L6.61346 1.60998C4.87369 1.61286 3.46484 3.02404 3.46484 4.76382V19.243C3.46484 20.9848 4.87687 22.3968 6.61869 22.3968H17.3806C19.1224 22.3968 20.5344 20.9848 20.5344 19.243V4.76421C20.5344 3.02421 19.1252 1.61294 17.3852 1.61037ZM15.4419 20.3968C16.0791 20.3968 16.5957 19.8803 16.5957 19.243V4.76374C16.5957 4.12726 16.0803 3.61098 15.4438 3.6099L11.5545 3.6033L6.61702 3.61044C5.98042 3.61135 5.46484 4.12768 5.46484 4.76428V19.243C5.46484 19.8006 5.86036 20.2658 6.38615 20.3734C6.46126 20.3888 6.53903 20.3968 6.61869 20.3968H15.4419Z" fill="black"/>
</svg>
