<svg width="24" height="24" viewBox="0 0 24 24" fill="none" xmlns="http://www.w3.org/2000/svg">
<path fill-rule="evenodd" clip-rule="evenodd" d="M5 4C5 2.89543 5.89543 2 7 2H17C18.1046 2 19 2.89543 19 4V8.1163C19 8.55508 18.8557 8.98169 18.5893 9.33038L16.5 12.0655V20C16.5 21.1046 15.6046 22 14.5 22H9.5C8.39543 22 7.5 21.1046 7.5 20V12.0655L5.41066 9.33038C5.1443 8.98169 5 8.55508 5 8.1163V4ZM17 4L7 4V6.22705H17V4ZM9.08934 10.8514L7.0846 8.22705H16.9154L14.9107 10.8514C14.6443 11.2001 14.5 11.6267 14.5 12.0655V20H9.5V12.0655C9.5 11.6267 9.3557 11.2001 9.08934 10.8514ZM11 12V15H13V12H11Z" fill="black"/>
</svg>
