<svg width="24" height="24" viewBox="0 0 24 24" fill="none" xmlns="http://www.w3.org/2000/svg">
<path fill-rule="evenodd" clip-rule="evenodd" d="M0.240234 5.25098H2.78556C3.25998 5.25098 3.6691 5.58432 3.76494 6.04895L4.19611 8.13913L5.45941 15.5069C5.46535 15.5415 5.47186 15.5759 5.47895 15.6101L6.08827 19.3031C6.32731 20.7519 7.57989 21.8147 9.04826 21.8147H20.775V19.8147H9.04826C8.5588 19.8147 8.14127 19.4604 8.06159 18.9775L7.89274 17.9541C8.06316 17.9842 8.23816 17.9999 8.41626 17.9999H19.3893C20.1198 17.9999 20.7981 17.7361 21.3231 17.2935C21.8482 16.8508 22.2227 16.2268 22.3462 15.5069L23.7885 6.99892L20.0924 7.00194C20.062 7.00057 20.0315 6.99988 20.0007 6.99988H7.00073C6.92335 6.99988 6.84699 7.00427 6.77189 7.01283L6.00601 7.01345L5.7237 5.64489C5.43616 4.251 4.2088 3.25098 2.78556 3.25098H0.240234V5.25098ZM19.3893 15.9999C19.633 15.9999 19.858 15.9127 20.0339 15.7644C20.2096 15.6163 20.3335 15.4095 20.3748 15.1697L20.9122 11.9999H6.88727L7.42643 15.1443L7.42907 15.1439L7.44378 15.233C7.49461 15.4459 7.61164 15.6295 7.77166 15.7644C7.94755 15.9127 8.17256 15.9999 8.41626 15.9999H19.3893Z" fill="black"/>
</svg>
