<svg width="24" height="24" viewBox="0 0 24 24" fill="none" xmlns="http://www.w3.org/2000/svg">
<path fill-rule="evenodd" clip-rule="evenodd" d="M13.6499 4.03567C13.6704 4.04131 13.6908 4.04762 13.7111 4.05462C13.754 4.06944 13.7968 4.0844 13.8392 4.0995C18.8967 4.80244 22.7901 9.14407 22.7901 14.3951V15.5927C22.7901 17.2495 21.447 18.5927 19.7901 18.5927H5.0001C3.34327 18.5927 2 17.2495 2 15.5927V14.3951C2 9.00677 6.09967 4.57602 11.3499 4.05188V2H13.6499V4.03567ZM12.3951 5.99999C12.555 5.99999 12.7139 6.00447 12.8717 6.01329C14.3247 8.21132 14.9152 10.7755 15.1258 12.8863C15.2371 14.0022 15.2401 14.9702 15.2154 15.6566C15.2031 15.9993 15.1839 16.2704 15.1682 16.4529C15.1635 16.5076 15.1591 16.5544 15.1553 16.5927H5.0001C4.44773 16.5927 4 16.1449 4 15.5927V14.3951C4 9.75859 7.7586 5.99999 12.3951 5.99999Z" fill="black"/>
<path d="M22.5 22.8381H2.49996V20.5381H22.5V22.8381Z" fill="black"/>
</svg>
