<svg width="24" height="24" viewBox="0 0 24 24" fill="none" xmlns="http://www.w3.org/2000/svg">
<path d="M8.82552 14.2544C8.82552 14.9118 8.29255 15.4448 7.63511 15.4448C6.97767 15.4448 6.4447 14.9118 6.4447 14.2544C6.4447 13.5969 6.97767 13.064 7.63511 13.064C8.29255 13.064 8.82552 13.5969 8.82552 14.2544Z" fill="black"/>
<path d="M16.3648 15.4448C17.0223 15.4448 17.5553 14.9118 17.5553 14.2544C17.5553 13.5969 17.0223 13.064 16.3648 13.064C15.7074 13.064 15.1744 13.5969 15.1744 14.2544C15.1744 14.9118 15.7074 15.4448 16.3648 15.4448Z" fill="black"/>
<path fill-rule="evenodd" clip-rule="evenodd" d="M2.46875 10.6831L2.46877 10.6766V5.12983L2.46878 5.1321L2.46877 5.1279V5.12983C2.46721 4.68555 2.55348 4.24534 2.72265 3.83451C2.8921 3.42298 3.14136 3.04908 3.45606 2.73438C3.77076 2.41968 4.14466 2.17042 4.55619 2.00097C4.96702 1.8318 5.40723 1.74553 5.85151 1.74709H18.1485L18.1463 1.7471L18.1505 1.74709H18.1485C18.5928 1.74553 19.033 1.8318 19.4439 2.00097C19.8554 2.17042 20.2293 2.41968 20.544 2.73438C20.8587 3.04908 21.108 3.42298 21.2774 3.83451C21.4465 4.24527 21.5328 4.6854 21.5313 5.1296L21.5313 5.1321L21.5313 5.1279V5.1296V17.8174L21.5313 17.8256V20.2064C21.5313 20.7665 21.2494 21.2418 20.8601 21.5508C20.4765 21.8552 19.9965 22 19.5313 22H16.5313C16.0662 22 15.5861 21.8552 15.2026 21.5508C14.8132 21.2418 14.5313 20.7665 14.5313 20.2064V18.8256H9.46875V20.2064C9.46875 20.7665 9.18688 21.2418 8.79749 21.5508C8.41393 21.8552 7.93389 22 7.46875 22H4.46875C4.00361 22 3.52357 21.8552 3.14001 21.5508C2.75062 21.2418 2.46875 20.7665 2.46875 20.2064V17.8256L2.46877 17.819V10.6896L2.46875 10.6831ZM8.46875 16.8256L8.47467 16.8256H15.5254L15.5313 16.8256L15.5372 16.8256H19.5313V11.6831H4.46877L4.46877 16.8256H8.46283L8.46875 16.8256ZM7.46875 20V18.8256H4.46875V20H7.46875ZM16.5313 18.8256V20H19.5313V18.8256H16.5313Z" fill="black"/>
</svg>
