<svg width="24" height="24" viewBox="0 0 24 24" fill="none" xmlns="http://www.w3.org/2000/svg">
<path fill-rule="evenodd" clip-rule="evenodd" d="M16.4632 1.42322C17.8816 1.25159 19.0172 2.57947 18.6277 3.95402L18.3566 4.91072L20.4972 7.33356H22.7268V14.6285L19.7552 15.6929L18.0032 21.9239H12.1977V18.9786H9.64148V21.9239H3.88501L2.54747 17.0173L1.0952 11.3067C0.0663692 7.26109 3.12341 3.3293 7.29777 3.3293H12.7202L12.7476 3.2954C13.5651 2.28418 14.7444 1.63122 16.0353 1.47501L16.4632 1.42322ZM16.7035 3.40874L16.2755 3.46052C15.501 3.55425 14.7934 3.94603 14.3029 4.55276L13.6751 5.3293H7.29777C4.4279 5.3293 2.32618 8.0324 3.0335 10.8137L4.48155 16.5078L5.41278 19.9239H7.64148V16.9786H14.1977V19.9239H16.488L18.1092 14.1581L20.7268 13.2204V9.33356H19.5955L16.1346 5.41636L16.7035 3.40874ZM12.9816 9.19531H7.49604V7.19531H12.9816V9.19531ZM16.3399 11.0098C16.9774 11.0098 17.4942 10.493 17.4942 9.8555C17.4942 9.21798 16.9774 8.70117 16.3399 8.70117C15.7024 8.70117 15.1855 9.21798 15.1855 9.8555C15.1855 10.493 15.7024 11.0098 16.3399 11.0098Z" fill="black"/>
</svg>
