<svg width="24" height="24" viewBox="0 0 24 24" fill="none" xmlns="http://www.w3.org/2000/svg">
<path fill-rule="evenodd" clip-rule="evenodd" d="M20.9076 16.4417C21.0796 16.7861 21.0611 17.195 20.8587 17.5224C20.6563 17.85 20.2987 18.0494 19.9136 18.0494H16.0846C16.0193 20.2423 14.2211 22 12.0123 22C9.8036 22 8.00537 20.2423 7.94011 18.0494H4.11111C3.72603 18.0494 3.3684 17.85 3.16594 17.5224C2.96364 17.1951 2.94512 16.7864 3.11693 16.4421L3.11983 16.4363L3.13312 16.409C3.14541 16.3836 3.1644 16.3439 3.18912 16.2909C3.23858 16.1849 3.3109 16.0259 3.39848 15.8216C3.57389 15.4123 3.80922 14.8241 4.04467 14.1178C4.52002 12.6917 4.97531 10.8443 4.97531 9.03704C4.97531 5.15059 8.1259 2 12.0123 2C15.8988 2 19.0494 5.15059 19.0494 9.03704C19.0494 10.8443 19.5047 12.6917 19.98 14.1178C20.2155 14.8241 20.4508 15.4123 20.6262 15.8216C20.7138 16.0259 20.7861 16.1849 20.8356 16.2909C20.8603 16.3439 20.8793 16.3836 20.8916 16.409L20.9049 16.4363L20.9076 16.4417ZM10.1645 18.0494C10.2281 19.0146 11.0311 19.7778 12.0123 19.7778C12.9936 19.7778 13.7966 19.0146 13.8601 18.0494H10.1645Z" fill="black"/>
</svg>
