<svg width="24" height="24" viewBox="0 0 24 24" fill="none" xmlns="http://www.w3.org/2000/svg">
<path fill-rule="evenodd" clip-rule="evenodd" d="M11.8496 1.8501C6.87905 1.8501 2.84961 5.87953 2.84961 10.8501C2.84961 15.8207 6.87905 19.8501 11.8496 19.8501C13.6804 19.8501 15.3836 19.3034 16.8047 18.3644L20.2354 22.3068L21.9705 20.7969L18.5467 16.8626C19.9785 15.2688 20.8496 13.1612 20.8496 10.8501C20.8496 5.87953 16.8202 1.8501 11.8496 1.8501ZM5.14961 10.8501C5.14961 7.14979 8.1493 4.1501 11.8496 4.1501C15.5499 4.1501 18.5496 7.14979 18.5496 10.8501C18.5496 14.5504 15.5499 17.5501 11.8496 17.5501C8.1493 17.5501 5.14961 14.5504 5.14961 10.8501Z" fill="black"/>
</svg>
