<svg width="24" height="24" viewBox="0 0 24 24" fill="none" xmlns="http://www.w3.org/2000/svg">
<path fill-rule="evenodd" clip-rule="evenodd" d="M10.6923 8.68616C10.6923 7.47497 9.71039 6.49311 8.4992 6.49311C7.28801 6.49311 6.30615 7.47497 6.30615 8.68616C6.30615 9.89734 7.28801 10.8792 8.4992 10.8792C9.71039 10.8792 10.6923 9.89734 10.6923 8.68616Z" fill="black"/>
<path fill-rule="evenodd" clip-rule="evenodd" d="M17.6954 15.3633C17.6954 14.1521 16.7136 13.1702 15.5024 13.1702C14.2912 13.1702 13.3093 14.1521 13.3093 15.3633C13.3093 16.5745 14.2912 17.5563 15.5024 17.5563C16.7136 17.5563 17.6954 16.5745 17.6954 15.3633Z" fill="black"/>
<path fill-rule="evenodd" clip-rule="evenodd" d="M17.2637 7.67196L8.22578 17.7621L6.62429 16.3276L15.6622 6.23748L17.2637 7.67196Z" fill="black"/>
<path fill-rule="evenodd" clip-rule="evenodd" d="M12.1003 1.93994L18.6418 1.94786C20.4246 1.95001 21.8687 3.39584 21.8687 5.17862V18.8288C21.8687 20.6131 20.4222 22.0596 18.6379 22.0596H5.36358C3.57928 22.0596 2.13281 20.6131 2.13281 18.8288V5.17868C2.13281 3.39587 3.57695 1.95002 5.35976 1.94791L12.1003 1.93994ZM12.0977 4.09379L5.36231 4.10176C4.76804 4.10246 4.28666 4.58441 4.28666 5.17868V18.8288C4.28666 19.4236 4.76881 19.9057 5.36358 19.9057H18.6379C19.2327 19.9057 19.7148 19.4236 19.7148 18.8288V5.17862C19.7148 4.58436 19.2335 4.10242 18.6392 4.1017L12.1002 4.09379H12.0977Z" fill="black"/>
</svg>
