<svg width="24" height="24" viewBox="0 0 24 24" fill="none" xmlns="http://www.w3.org/2000/svg">
<path fill-rule="evenodd" clip-rule="evenodd" d="M4.99506 19.2168C4.31283 19.2168 3.75977 18.6637 3.75977 17.9815V14.6286H1.75977V17.9815C1.75977 19.7683 3.20826 21.2168 4.99506 21.2168H8.33759V19.2168H4.99506ZM18.9913 19.2168C19.6735 19.2168 20.2266 18.6637 20.2266 17.9815V14.6286H22.2266V17.9815C22.2266 19.7683 20.7781 21.2168 18.9913 21.2168H15.6487V19.2168H18.9913ZM12.9937 11.9994L12.9937 3.73867H10.9937V12.0221L8.29149 9.31984L6.87728 10.7341L11.2753 15.1321C11.6658 15.5226 12.299 15.5226 12.6895 15.1321L17.0876 10.7341L15.6734 9.31984L12.9937 11.9994Z" fill="black"/>
</svg>
