<svg width="24" height="24" viewBox="0 0 24 24" fill="none" xmlns="http://www.w3.org/2000/svg">
<path fill-rule="evenodd" clip-rule="evenodd" d="M17.8168 13.7316L17.7064 14.7255C17.4687 16.8645 16.9347 18.9643 16.1164 20.9639L15.7377 21.8894L13.8867 21.132L14.2654 20.2065C15.0133 18.3789 15.5013 16.4596 15.7186 14.5045L15.8291 13.5106L17.8168 13.7316Z" fill="black"/>
<path fill-rule="evenodd" clip-rule="evenodd" d="M10.4608 7.04945C11.4916 6.65582 12.6177 6.58463 13.6898 6.84531C14.762 7.106 15.7297 7.68625 16.4647 8.50922L17.1309 9.25505L15.6392 10.5873L14.9731 9.84148C14.508 9.32078 13.8957 8.95364 13.2173 8.7887C12.539 8.62376 11.8265 8.6688 11.1742 8.91786C10.522 9.16691 9.96085 9.60823 9.56506 10.1834C9.16946 10.7582 8.95774 11.4396 8.95792 12.1375C8.9638 14.6013 8.43787 17.34 5.81421 21.0131L5.23297 21.8269L3.6055 20.6644L4.18674 19.8506C6.56276 16.5242 6.96293 14.1951 6.95792 12.1414L6.95792 12.1395C6.95733 11.0361 7.29196 9.95853 7.9175 9.04955C8.54303 8.14057 9.42995 7.44308 10.4608 7.04945Z" fill="black"/>
<path fill-rule="evenodd" clip-rule="evenodd" d="M12.4007 4.24807C11.5063 4.24573 10.6183 4.39835 9.77604 4.69918L8.83431 5.03554L8.16159 3.15208L9.10333 2.81572C10.1627 2.43733 11.2797 2.24528 12.4046 2.24808C15.0274 2.24842 17.5426 3.29046 19.3972 5.14505C21.2521 6.99995 22.2942 9.51573 22.2942 12.139C22.2932 14.2062 22.0645 16.2676 21.6124 18.2849L21.3937 19.2607L19.4421 18.8233L19.6608 17.8475C20.0808 15.9735 20.2932 14.059 20.2942 12.1385C20.2941 10.0458 19.4627 8.03897 17.983 6.55926C16.5032 5.07943 14.4961 4.24808 12.4033 4.24808L12.4007 4.24807Z" fill="black"/>
<path fill-rule="evenodd" clip-rule="evenodd" d="M5.60702 8.00661L5.19852 8.91937C4.74537 9.93187 4.51158 11.0288 4.51251 12.1381C4.51512 13.5612 4.20914 14.967 3.61567 16.2605L3.19866 17.1694L1.38086 16.3353L1.79788 15.4264C2.27078 14.3957 2.51459 13.2747 2.51251 12.1407C2.51135 10.7493 2.8046 9.37239 3.37301 8.10236L3.78151 7.1896L5.60702 8.00661Z" fill="black"/>
<path fill-rule="evenodd" clip-rule="evenodd" d="M11.8863 19.6162L11.441 20.5116C11.318 20.759 11.1873 21.0058 11.0489 21.2481L10.5528 22.1163L8.81627 21.124L9.31241 20.2558C9.42954 20.0508 9.54219 19.8382 9.6502 19.621L10.0955 18.7256L11.8863 19.6162Z" fill="black"/>
<path fill-rule="evenodd" clip-rule="evenodd" d="M13.4212 11.5856L13.3986 12.5853C13.3662 14.0199 13.1675 15.4463 12.8062 16.836L12.5546 17.8038L10.6189 17.3006L10.8705 16.3328C11.1929 15.0928 11.3702 13.8201 11.3991 12.5402L11.4217 11.5404L13.4212 11.5856Z" fill="black"/>
</svg>
