<svg width="24" height="24" viewBox="0 0 24 24" fill="none" xmlns="http://www.w3.org/2000/svg">
<path fill-rule="evenodd" clip-rule="evenodd" d="M4.99506 3.77881C4.31283 3.77881 3.75977 4.33187 3.75977 5.0141V8.36704H1.75977V5.0141C1.75977 3.2273 3.20826 1.77881 4.99506 1.77881H8.33759V3.77881H4.99506ZM18.9913 3.77881C19.6735 3.77881 20.2266 4.33187 20.2266 5.0141V8.36704H22.2266V5.0141C22.2266 3.2273 20.7781 1.77881 18.9913 1.77881H15.6487V3.77881H18.9913ZM18.9913 20.2163C19.6735 20.2163 20.2266 19.6632 20.2266 18.981V15.6385H22.2266V18.981C22.2266 20.7678 20.7781 22.2163 18.9913 22.2163H15.6383V20.2163H18.9913ZM3.75 18.981C3.75 19.6632 4.30306 20.2163 4.98529 20.2163H8.33823V22.2163H4.98529C3.19849 22.2163 1.75 20.7678 1.75 18.981V15.6385H3.75V18.981ZM12.9937 8.99616L12.9937 17.2574H10.9937V8.97351L8.29149 11.6758L6.87728 10.2616L11.2753 5.86351C11.6658 5.47299 12.299 5.47299 12.6895 5.86351L17.0876 10.2616L15.6734 11.6758L12.9937 8.99616Z" fill="black"/>
</svg>
