<svg width="24" height="24" viewBox="0 0 24 24" fill="none" xmlns="http://www.w3.org/2000/svg">
<path fill-rule="evenodd" clip-rule="evenodd" d="M2.25 11.0717V19.8464H0.5V21.8464H23.5V19.8464H21.8423L21.8423 11.0003C21.8423 10.4491 21.6148 9.92237 21.2135 9.54445L14.0243 2.77303C13.8387 2.59829 13.5935 2.50098 13.3386 2.50098H11.1915C11.144 2.50098 11.0973 2.50429 11.0515 2.5107C10.6552 2.53916 10.2841 2.70608 9.99846 2.97754L9.997 2.97894L2.79676 9.79225L2.78292 9.80561C2.61523 9.97052 2.48313 10.1665 2.39243 10.3808C2.30176 10.5951 2.25372 10.8246 2.25012 11.0562L2.25 11.0717ZM18.0959 11.1706V19.8464H14.423V13.7087C14.423 13.2446 14.2386 12.7995 13.9104 12.4713C13.5822 12.1431 13.1371 11.9587 12.673 11.9587H9.67297C9.20885 11.9587 8.76373 12.1431 8.43554 12.4713C8.10735 12.7995 7.92297 13.2446 7.92297 13.7087V19.8464H4.25V11.1706L11.1729 4.61967L18.0959 11.1706Z" fill="black"/>
</svg>
