<svg width="24" height="24" viewBox="0 0 24 24" fill="none" xmlns="http://www.w3.org/2000/svg">
<path fill-rule="evenodd" clip-rule="evenodd" d="M11.9991 14.785C14.4844 14.785 16.4991 12.7703 16.4991 10.285C16.4991 7.79975 14.4844 5.78503 11.9991 5.78503C9.51386 5.78503 7.49915 7.79975 7.49915 10.285C7.49915 12.7703 9.51386 14.785 11.9991 14.785ZM11.9991 12.785C13.3799 12.785 14.4991 11.6657 14.4991 10.285C14.4991 8.90432 13.3799 7.78503 11.9991 7.78503C10.6184 7.78503 9.49915 8.90432 9.49915 10.285C9.49915 11.6657 10.6184 12.785 11.9991 12.785Z" fill="black"/>
<path d="M7.46036 18.3222L16.5379 18.3222L16.5379 16.3222L7.46036 16.3222L7.46036 18.3222Z" fill="black"/>
<path fill-rule="evenodd" clip-rule="evenodd" d="M18.4268 2.01074C19.9958 2.01074 21.2678 3.28273 21.2678 4.85182V19.1883C21.2678 20.7347 20.0142 21.9883 18.4678 21.9883H5.53047C3.98407 21.9883 2.73047 20.7347 2.73047 19.1883L2.73047 4.81074C2.73047 3.26434 3.98408 2.01074 5.53047 2.01074H18.4268ZM4.73047 4.81074L4.73047 19.1883C4.73047 19.6301 5.08864 19.9883 5.53047 19.9883H18.4678C18.9097 19.9883 19.2678 19.6301 19.2678 19.1883V4.85182C19.2678 4.38731 18.8913 4.01074 18.4268 4.01074H5.53047C5.08864 4.01074 4.73047 4.36892 4.73047 4.81074Z" fill="black"/>
</svg>
