<svg width="24" height="24" viewBox="0 0 24 24" fill="none" xmlns="http://www.w3.org/2000/svg">
<path d="M7.32538 8.14555C7.65054 7.97153 8.04508 7.9906 8.35194 8.19517L13.5884 11.6861C13.8666 11.8716 14.0337 12.1838 14.0337 12.5182C14.0337 12.8525 13.8666 13.1648 13.5884 13.3502L8.35194 16.8412C8.04508 17.0458 7.65054 17.0648 7.32538 16.8908C7.00023 16.7168 6.79724 16.3779 6.79724 16.0091V9.02722C6.79724 8.65843 7.00023 8.31957 7.32538 8.14555Z" fill="black"/>
<path fill-rule="evenodd" clip-rule="evenodd" d="M1.27344 8.90826C1.27344 5.2364 4.25007 2.25977 7.92193 2.25977C9.45847 2.25977 10.8741 2.78191 11.9995 3.65677C13.125 2.78191 14.5406 2.25977 16.0772 2.25977C19.749 2.25977 22.7256 5.2364 22.7256 8.90826V19.4108C22.7256 20.5786 21.7789 21.5253 20.6111 21.5253H3.38802C2.22017 21.5253 1.27344 20.5786 1.27344 19.4108V8.90826ZM7.92193 4.48893C5.4812 4.48893 3.5026 6.46753 3.5026 8.90826V19.2962H18.6242V7.19337C18.6242 6.06682 17.9802 5.07223 17.0177 4.58924C16.7146 4.52354 16.3999 4.48893 16.0772 4.48893C14.7885 4.48893 13.6299 5.03907 12.8206 5.92069C12.6095 6.15063 12.3117 6.28152 11.9995 6.28152C11.6874 6.28152 11.3896 6.15063 11.1785 5.92069C10.3691 5.03907 9.2106 4.48893 7.92193 4.48893Z" fill="black"/>
</svg>
