<svg width="24" height="24" viewBox="0 0 24 24" fill="none" xmlns="http://www.w3.org/2000/svg">
<path fill-rule="evenodd" clip-rule="evenodd" d="M4.04492 8.26189L4.04492 4.81172C4.04492 4.36989 4.4031 4.01172 4.84492 4.01172H8.25401C8.71853 4.01172 9.09509 4.38828 9.09509 4.8528V8.26189C9.09509 8.70372 8.73692 9.06189 8.29509 9.06189H4.84492C4.40309 9.06189 4.04492 8.70371 4.04492 8.26189ZM11.0951 4.8528C11.0951 3.28371 9.82309 2.01172 8.25401 2.01172H4.84492C3.29852 2.01172 2.04492 3.26532 2.04492 4.81172V8.26189C2.04492 9.80828 3.29852 11.0619 4.84492 11.0619H8.29509C9.84149 11.0619 11.0951 9.80828 11.0951 8.26189V4.8528ZM4.04492 19.1027L4.04492 15.6525C4.04492 15.2107 4.4031 14.8525 4.84492 14.8525H8.25401C8.71853 14.8525 9.09509 15.2291 9.09509 15.6936V19.1027C9.09509 19.5445 8.73692 19.9027 8.29509 19.9027H4.84492C4.40309 19.9027 4.04492 19.5445 4.04492 19.1027ZM11.0951 15.6936C11.0951 14.1245 9.82309 12.8525 8.25401 12.8525H4.84492C3.29852 12.8525 2.04492 14.1061 2.04492 15.6525V19.1027C2.04492 20.6491 3.29852 21.9027 4.84492 21.9027H8.29509C9.84149 21.9027 11.0951 20.6491 11.0951 19.1027V15.6936ZM14.9043 4.81172L14.9043 8.26189C14.9043 8.70371 15.2625 9.06189 15.7043 9.06189H19.1545C19.5963 9.06189 19.9545 8.70372 19.9545 8.26189V4.8528C19.9545 4.38828 19.5779 4.01172 19.1134 4.01172H15.7043C15.2625 4.01172 14.9043 4.36989 14.9043 4.81172ZM19.1134 2.01172C20.6825 2.01172 21.9545 3.28371 21.9545 4.8528V8.26189C21.9545 9.80828 20.7009 11.0619 19.1545 11.0619H15.7043C14.1579 11.0619 12.9043 9.80828 12.9043 8.26189V4.81172C12.9043 3.26532 14.1579 2.01172 15.7043 2.01172H19.1134ZM16.6824 13.0239H18.4824V14.9824H21.9844V16.7824L18.4824 16.7824V21.8984H18.4531V21.9025H18.4395H12.8688H12.8551V20.1025H12.8688H16.6824L16.6824 13.0239ZM13.0164 17.7955V13.0386H14.8164L14.8164 17.7955H13.0164ZM20.1844 21.9026V18.7451H21.9844V21.9026H20.1844Z" fill="black"/>
</svg>
