<svg width="24" height="24" viewBox="0 0 24 24" fill="none" xmlns="http://www.w3.org/2000/svg">
<path fill-rule="evenodd" clip-rule="evenodd" d="M21.9852 18.7532C21.9852 17.1841 20.7132 15.9121 19.1442 15.9121H15.6231H5.31965H5.31953C3.77314 15.9121 2.51953 17.1657 2.51953 18.7121V19.1008C2.51953 20.6472 3.77313 21.9008 5.31953 21.9008H5.31965H15.6641H19.1852C20.7316 21.9008 21.9852 20.6472 21.9852 19.1008V18.7532ZM4.51953 18.7121V19.1008C4.51953 19.5426 4.8777 19.9008 5.31953 19.9008H15.664C16.0545 19.9008 16.3797 19.621 16.4499 19.2509V18.5992C16.3776 18.2082 16.0349 17.9121 15.6229 17.9121H5.31953C4.8777 17.9121 4.51953 18.2703 4.51953 18.7121Z" fill="black"/>
<path fill-rule="evenodd" clip-rule="evenodd" d="M5.31641 7.91212C5.31641 11.1077 7.81455 13.7198 10.9644 13.902L10.9645 13.9052C11.8251 13.9724 12.6975 13.9728 13.5582 13.9052L13.5582 13.9008C16.6989 13.709 19.1868 11.1011 19.1868 7.91212C19.1868 4.73074 16.7107 2.12767 13.5806 1.92484L13.5806 1.92165C12.728 1.85508 11.8639 1.85405 11.0111 1.91976C7.83927 2.07871 5.31641 4.70079 5.31641 7.91212ZM11.3164 11.9121C13.5255 11.9121 15.3164 10.1212 15.3164 7.91211C15.3164 5.70297 13.5255 3.91211 11.3164 3.91211C9.10727 3.91211 7.31641 5.70297 7.31641 7.91211C7.31641 10.1212 9.10727 11.9121 11.3164 11.9121Z" fill="black"/>
</svg>
