<svg width="24" height="24" viewBox="0 0 24 24" fill="none" xmlns="http://www.w3.org/2000/svg">
<g clip-path="url(#clip0_12340_268078)">
<path d="M9.83206 2.28057C10.5432 0.220402 13.4568 0.220402 14.1679 2.28057C14.617 3.58136 16.1024 4.19666 17.3397 3.59436C19.2993 2.64045 21.3596 4.70069 20.4056 6.6603C19.8033 7.89759 20.4186 9.38305 21.7194 9.83206C23.7796 10.5432 23.7796 13.4568 21.7194 14.1679C20.4186 14.617 19.8033 16.1024 20.4056 17.3397C21.3596 19.2993 19.2993 21.3596 17.3397 20.4056C16.1024 19.8033 14.617 20.4186 14.1679 21.7194C13.4568 23.7796 10.5432 23.7796 9.83206 21.7194C9.38305 20.4186 7.89759 19.8033 6.6603 20.4056C4.70069 21.3596 2.64045 19.2993 3.59436 17.3397C4.19666 16.1024 3.58136 14.617 2.28057 14.1679C0.220402 13.4568 0.220402 10.5432 2.28057 9.83206C3.58136 9.38305 4.19666 7.89759 3.59436 6.6603C2.64045 4.70069 4.70069 2.64045 6.6603 3.59436C7.89759 4.19666 9.38305 3.58136 9.83206 2.28057Z" fill="#00A651"/>
<path d="M9.83206 2.28057C10.5432 0.220402 13.4568 0.220402 14.1679 2.28057C14.617 3.58136 16.1024 4.19666 17.3397 3.59436C19.2993 2.64045 21.3596 4.70069 20.4056 6.6603C19.8033 7.89759 20.4186 9.38305 21.7194 9.83206C23.7796 10.5432 23.7796 13.4568 21.7194 14.1679C20.4186 14.617 19.8033 16.1024 20.4056 17.3397C21.3596 19.2993 19.2993 21.3596 17.3397 20.4056C16.1024 19.8033 14.617 20.4186 14.1679 21.7194C13.4568 23.7796 10.5432 23.7796 9.83206 21.7194C9.38305 20.4186 7.89759 19.8033 6.6603 20.4056C4.70069 21.3596 2.64045 19.2993 3.59436 17.3397C4.19666 16.1024 3.58136 14.617 2.28057 14.1679C0.220402 13.4568 0.220402 10.5432 2.28057 9.83206C3.58136 9.38305 4.19666 7.89759 3.59436 6.6603C2.64045 4.70069 4.70069 2.64045 6.6603 3.59436C7.89759 4.19666 9.38305 3.58136 9.83206 2.28057Z" stroke="white"/>
<path fill-rule="evenodd" clip-rule="evenodd" d="M10.9946 14.1885L16.5073 8.5378L17.718 9.719L11.6074 15.9826C11.4495 16.1444 11.2334 16.2363 11.0073 16.2377C10.7812 16.2391 10.5639 16.1499 10.404 15.99L6.64109 12.2271L7.83716 11.031L10.9946 14.1885Z" fill="white"/>
</g>
<defs>
<clipPath id="clip0_12340_268078">
<rect width="24" height="24" fill="white"/>
</clipPath>
</defs>
</svg>
