<svg width="24" height="24" viewBox="0 0 24 24" fill="none" xmlns="http://www.w3.org/2000/svg">
<path fill-rule="evenodd" clip-rule="evenodd" d="M1.84961 11.5098C1.84961 6.54138 5.87733 2.51367 10.8458 2.51367H12.4441C17.252 2.51367 21.1496 6.41128 21.1496 11.2192V21.6637C21.1496 22.0505 20.9552 22.4113 20.6321 22.6241C20.3091 22.8368 19.9008 22.8729 19.5454 22.7202L14.3945 20.506H10.8458C5.87733 20.506 1.84961 16.4783 1.84961 11.5098ZM10.8458 4.81367C7.14758 4.81367 4.14961 7.81164 4.14961 11.5098C4.14961 15.208 7.14758 18.206 10.8458 18.206H14.6312C14.7874 18.206 14.9419 18.2378 15.0853 18.2995L18.8496 19.9176V11.2192C18.8496 7.68154 15.9817 4.81367 12.4441 4.81367H10.8458Z" fill="black"/>
</svg>
