<svg width="24" height="24" viewBox="0 0 24 24" fill="none" xmlns="http://www.w3.org/2000/svg">
<path fill-rule="evenodd" clip-rule="evenodd" d="M19.0579 2.54548C20.6881 2.57636 22 3.90744 22 5.54494V16.7949C22 18.4518 20.6569 19.7949 19 19.7949H18.9992V22.0449H16.6992V19.7949H7.3V22.0449H5L5 19.7949C3.34314 19.7949 2 18.4518 2 16.7949L2 5.54492C2.00001 3.88807 3.34315 2.54492 5.00001 2.54492L18.2119 2.54494L18.9992 2.54492L19 2.54494C19.0194 2.54494 19.0387 2.54512 19.0579 2.54548ZM16.6992 4.54493L5.00001 4.54492C4.44772 4.54492 4 4.99264 4 5.54492L4 10.1699H5.42424C5.88751 7.88768 7.90526 6.16992 10.3242 6.16992C13.0856 6.16992 15.3242 8.4085 15.3242 11.1699C15.3242 13.9313 13.0856 16.1699 10.3242 16.1699C7.90526 16.1699 5.88751 14.4522 5.42424 12.1699H4L4 16.7949C4 17.3472 4.44772 17.7949 5 17.7949H16.6992V4.54493ZM11.036 12.1699H7.49492C7.90676 13.3351 9.018 14.1699 10.3242 14.1699C11.9811 14.1699 13.3242 12.8268 13.3242 11.1699C13.3242 9.51307 11.9811 8.16992 10.3242 8.16992C9.018 8.16992 7.90676 9.00473 7.49492 10.1699H11.036V12.1699Z" fill="black"/>
</svg>
