<svg width="24" height="24" viewBox="0 0 24 24" fill="none" xmlns="http://www.w3.org/2000/svg">
<path d="M9.80298 8.51843C9.80298 9.30277 9.16715 9.9386 8.38281 9.9386C7.59848 9.9386 6.96265 9.30277 6.96265 8.51843C6.96265 7.7341 7.59848 7.09827 8.38281 7.09827C9.16715 7.09827 9.80298 7.7341 9.80298 8.51843Z" fill="black"/>
<path fill-rule="evenodd" clip-rule="evenodd" d="M11.243 2.04667C11.9214 1.91174 12.6224 2.12427 13.1116 2.61321L21.707 11.2041C22.8794 12.3758 22.8794 14.2762 21.7069 15.4479L15.18 21.9708C14.0081 23.142 12.1087 23.1415 10.9375 21.9696L2.35832 13.3858C1.87022 12.8974 1.65753 12.198 1.79114 11.5206L3.22047 4.27341C3.29885 3.87601 3.60921 3.56515 4.00648 3.48613L11.243 2.04667ZM11.6977 4.0278C11.6808 4.01092 11.6566 4.00359 11.6332 4.00824L5.05315 5.31711L3.75334 11.9076C3.74873 11.931 3.75607 11.9551 3.77292 11.972L10.791 18.9938L18.732 11.0583L11.6977 4.0278Z" fill="black"/>
</svg>
