<svg width="24" height="24" viewBox="0 0 24 24" fill="none" xmlns="http://www.w3.org/2000/svg">
<path d="M12.9662 11.3929C12.4139 11.3929 11.9662 11.8407 11.9662 12.3929V16.3929C11.9662 16.9452 12.4139 17.3929 12.9662 17.3929H16.9662C17.5185 17.3929 17.9662 16.9452 17.9662 16.3929V12.3929C17.9662 11.8407 17.5185 11.3929 16.9662 11.3929H12.9662Z" fill="black"/>
<path fill-rule="evenodd" clip-rule="evenodd" d="M2 5.66602C2 4.00916 3.34315 2.66602 5 2.66602H19.5467C21.2036 2.66602 22.5467 4.00916 22.5467 5.66602V18.666C22.5467 20.3229 21.2036 21.666 19.5467 21.666H5C3.34315 21.666 2 20.3229 2 18.666V5.66602ZM7.88843 19.666H19.5467C20.099 19.666 20.5467 19.2183 20.5467 18.666V5.66602C20.5467 5.11373 20.099 4.66602 19.5467 4.66602H7.88843V19.666Z" fill="black"/>
</svg>
