<svg width="24" height="24" viewBox="0 0 24 24" fill="none" xmlns="http://www.w3.org/2000/svg">
<path d="M16.6029 7.64453V9.4043H18.3625V11.4043H16.6029V13.1639H14.6029V11.4043H12.8431V9.4043H14.6029V7.64453H16.6029Z" fill="black"/>
<path d="M10.1717 9.4043H5.6488V11.4043H10.1717V9.4043Z" fill="black"/>
<path fill-rule="evenodd" clip-rule="evenodd" d="M1.25769 10.4042C1.25769 6.26481 4.61333 2.90918 8.75271 2.90918H15.2585C19.3979 2.90918 22.7535 6.26481 22.7535 10.4042C22.7535 10.457 22.753 10.5097 22.7519 10.5623L23.0996 17.7762C23.2098 20.0645 21.3842 21.9803 19.0932 21.9803C17.8366 21.9803 16.6527 21.3914 15.8945 20.3893L14.0106 17.8992H9.99995L8.11605 20.3893C7.3579 21.3914 6.17394 21.9803 4.91736 21.9803C2.62633 21.9803 0.800717 20.0645 0.910996 17.7762L1.25891 10.5568C1.25789 10.506 1.25769 10.4552 1.25769 10.4042ZM8.75271 4.90918H15.2585C18.2933 4.90918 20.7535 7.36938 20.7535 10.4042C20.7535 13.439 18.2933 15.8992 15.2585 15.8992H8.75271C5.7179 15.8992 3.25769 13.439 3.25769 10.4042C3.25769 7.36938 5.7179 4.90918 8.75271 4.90918ZM3.03504 15.2504L2.90868 17.8724C2.85339 19.0198 3.7687 19.9803 4.91736 19.9803C5.54737 19.9803 6.14098 19.685 6.52109 19.1826L7.56308 17.8053C5.75748 17.5174 4.16696 16.5846 3.03504 15.2504Z" fill="black"/>
</svg>
