<svg width="24" height="24" viewBox="0 0 24 24" fill="none" xmlns="http://www.w3.org/2000/svg">
<path d="M9.72278 9.88501H14.2764V12.0279H9.72278V9.88501Z" fill="black"/>
<path fill-rule="evenodd" clip-rule="evenodd" d="M10.1246 1.26953C8.34939 1.26952 6.91027 2.70864 6.91028 4.48388L6.91028 5.33142H3.16019C2.12464 5.33142 1.28516 6.1709 1.28516 7.20645V20.0638C1.28516 21.0993 2.12464 21.9388 3.16019 21.9388H20.839C21.8746 21.9388 22.7141 21.0993 22.7141 20.0638V7.20645C22.7141 6.1709 21.8746 5.33142 20.839 5.33142H17.089V4.48389C17.089 2.70867 15.6499 1.26956 13.8747 1.26955L10.1246 1.26953ZM14.9461 5.33142V4.48389C14.9461 3.89215 14.4664 3.41245 13.8747 3.41244L10.1246 3.41242C9.53287 3.41242 9.05317 3.89213 9.05317 4.48387L9.05317 5.33142H14.9461ZM3.42805 14.4996V7.47431H20.5712V14.4996H3.42805Z" fill="black"/>
</svg>
