<svg width="24" height="24" viewBox="0 0 24 24" fill="none" xmlns="http://www.w3.org/2000/svg">
<path fill-rule="evenodd" clip-rule="evenodd" d="M7.00001 6.00001C7 4.34315 8.34315 3 10 3H18C19.6569 3 21 4.34315 21 6V15C21 16.657 19.6564 18 17.9997 18H16.2308V16H17.9997C18.5522 16 19 15.5521 19 15V6C19 5.44772 18.5523 5 18 5H10C9.44772 5 9 5.44772 9.00001 6L9.00001 8.71428L7.00001 8.71429L7.00001 6.00001Z" fill="black"/>
<path fill-rule="evenodd" clip-rule="evenodd" d="M5.14242 9.09387C5.06777 9.1821 5 9.33291 5 9.52941V19.4706C5 19.6671 5.06777 19.8179 5.14242 19.9061C5.21526 19.9922 5.27253 20 5.29403 20H14.706C14.7275 20 14.7847 19.9922 14.8576 19.9061C14.9322 19.8179 15 19.6671 15 19.4706V9.52941C15 9.33291 14.9322 9.1821 14.8576 9.09387C14.7847 9.00778 14.7275 9 14.706 9H5.29403C5.27253 9 5.21526 9.00778 5.14242 9.09387ZM3 9.52941C3 8.29563 3.87694 7 5.29403 7H14.706C16.1231 7 17 8.29563 17 9.52941V19.4706C17 20.7044 16.1231 22 14.706 22H5.29403C3.87694 22 3 20.7044 3 19.4706V9.52941Z" fill="black"/>
</svg>
