<svg width="24" height="24" viewBox="0 0 24 24" fill="none" xmlns="http://www.w3.org/2000/svg">
<g clip-path="url(#clip0_765_33847)">
<path fill-rule="evenodd" clip-rule="evenodd" d="M14.4297 20.3935C18.9288 19.188 21.5986 14.5635 20.3931 10.0645C19.1877 5.56574 14.5633 2.89568 10.0642 4.10121C5.56512 5.30674 2.89534 9.93125 4.10077 14.43C4.24371 14.9635 3.92713 15.5118 3.39366 15.6547C2.8602 15.7977 2.31186 15.4811 2.16892 14.9476C0.677605 9.38197 3.98054 3.66078 9.54658 2.16936C15.1126 0.677946 20.8336 3.98118 22.325 9.54684C23.8163 15.1128 20.5134 20.834 14.9474 22.3254C14.4139 22.4683 13.8656 22.1518 13.7226 21.6183C13.5797 21.0848 13.8963 20.5365 14.4297 20.3935Z" fill="black"/>
</g>
<defs>
<clipPath id="clip0_765_33847">
<rect width="24" height="24" fill="white"/>
</clipPath>
</defs>
</svg>
