<svg width="24" height="24" viewBox="0 0 24 24" fill="none" xmlns="http://www.w3.org/2000/svg">
<path fill-rule="evenodd" clip-rule="evenodd" d="M12 4C16.4183 4 20 7.58172 20 12C20 15.7523 17.4166 18.9013 13.9315 19.7653C13.3631 14.6767 9.32331 10.6369 4.23472 10.0685C5.09875 6.58336 8.24769 4 12 4ZM4.00018 12.055C4.02961 16.4296 7.57036 19.9704 11.945 19.9998C11.4838 15.8283 8.17165 12.5162 4.00018 12.055ZM22 12C22 6.47715 17.5228 2 12 2C6.47715 2 2 6.47715 2 12C2 17.5228 6.47715 22 12 22C17.5228 22 22 17.5228 22 12Z" fill="black"/>
</svg>
