<svg width="24" height="24" viewBox="0 0 24 24" fill="none" xmlns="http://www.w3.org/2000/svg">
<path d="M13.3952 10.7403L15.8542 8.28127L17.2684 9.69548L13.1124 13.8515C12.7219 14.242 12.0887 14.242 11.6982 13.8515L7.54213 9.69548L8.95634 8.28127L11.3952 10.7201V4H13.3952L13.3952 10.7403Z" fill="black"/>
<path d="M4 7.01081C4 6.45852 4.44772 6.01081 5 6.01081H8.69752V4.01081H5C3.34314 4.01081 2 5.35396 2 7.01081V17.6035C2 19.2604 3.34314 20.6036 5 20.6036H19.7901C21.2981 20.6036 22.5462 19.4909 22.7583 18.0417C22.7792 17.8987 22.7901 17.7524 22.7901 17.6036C22.7901 17.6036 22.7901 17.6036 22.7901 17.6036V7.01081C22.7901 5.35395 21.4469 4.01081 19.7901 4.01081H16.0926V6.01081H19.7901C20.3424 6.01081 20.7901 6.45852 20.7901 7.01081V15.7598H4V7.01081Z" fill="black"/>
</svg>
