<svg width="24" height="24" viewBox="0 0 24 24" fill="none" xmlns="http://www.w3.org/2000/svg">
<path fill-rule="evenodd" clip-rule="evenodd" d="M20.9332 3.52345C20.9332 3.21551 20.7913 2.92475 20.5486 2.73524C20.3059 2.54573 19.9894 2.47862 19.6906 2.5533L8.27114 5.40818C7.82597 5.51947 7.51367 5.91945 7.51367 6.37832V10.66V15.5495C6.99044 15.2725 6.39387 15.1157 5.76067 15.1157C3.68802 15.1157 2.00781 16.7959 2.00781 18.8686C2.00781 20.9412 3.68802 22.6214 5.76067 22.6214C7.82654 22.6214 9.50254 20.9522 9.51347 18.8889L9.51367 18.8684V11.4416L18.9332 9.08674V12.5414C18.41 12.2646 17.8136 12.1079 17.1806 12.1079C15.1079 12.1079 13.4277 13.7881 13.4277 15.8608C13.4277 17.9334 15.1079 19.6136 17.1806 19.6136C19.1486 19.6136 20.7629 18.0987 20.9208 16.1713C20.9289 16.1199 20.9332 16.0672 20.9332 16.0135V15.9073L20.9334 15.8608L20.9332 15.8143V7.8373C20.9338 7.81696 20.9338 7.79652 20.9332 7.77601V3.52345ZM18.9332 15.8925C18.9162 16.846 18.138 17.6136 17.1806 17.6136C16.2125 17.6136 15.4277 16.8288 15.4277 15.8608C15.4277 14.8927 16.2125 14.1079 17.1806 14.1079C18.138 14.1079 18.9162 14.8756 18.9332 15.829V15.8925ZM5.76067 17.1157C4.79259 17.1157 4.00781 17.9005 4.00781 18.8686C4.00781 19.8367 4.79259 20.6214 5.76067 20.6214C6.72874 20.6214 7.51352 19.8367 7.51352 18.8686C7.51352 17.9005 6.72874 17.1157 5.76067 17.1157Z" fill="black"/>
</svg>
