<svg width="24" height="24" viewBox="0 0 24 24" fill="none" xmlns="http://www.w3.org/2000/svg">
<path d="M12.6895 8.59131L11.6865 8.59131L11.6865 20.698L12.6895 20.698L12.6895 8.59131Z" fill="black"/>
<path fill-rule="evenodd" clip-rule="evenodd" d="M6.82227 5.36646C6.82226 6.27538 7.55908 7.0122 8.46799 7.0122L10.9966 7.0122V5.36645C10.9966 4.45753 10.2597 3.7207 9.35082 3.7207H8.46804C7.55911 3.7207 6.82227 4.45753 6.82227 5.36646ZM13.0054 7.0122L15.534 7.01221C16.4429 7.01221 17.1797 6.27538 17.1797 5.36647C17.1797 4.45754 16.4428 3.72071 15.5339 3.72071H14.6511C13.7422 3.72071 13.0054 4.45753 13.0054 5.36645V7.0122ZM18.788 7.0122C19.0385 6.51781 19.1797 5.95862 19.1797 5.36645C19.1797 3.35296 17.5474 1.72071 15.5339 1.72071L14.6511 1.72071C13.6071 1.72071 12.6656 2.15954 12.001 2.86281C11.3364 2.15954 10.3948 1.7207 9.35082 1.7207H8.46804C6.45454 1.7207 4.82228 3.35295 4.82227 5.36645C4.82226 5.95862 4.96344 6.51782 5.21399 7.01222L4.97265 7.01222C3.3158 7.01223 1.97266 8.35537 1.97266 10.0122L1.97266 19.2773C1.97266 20.9341 3.31581 22.2773 4.97266 22.2773H19.0275C19.0729 22.2773 19.1179 22.2763 19.1627 22.2743C19.2204 22.2717 19.2776 22.2676 19.3343 22.2618C20.8472 22.1083 22.0279 20.8307 22.0279 19.2773V10.0122C22.0279 8.40701 20.7672 7.09628 19.1819 7.01611C19.1309 7.01352 19.0795 7.01221 19.0279 7.01221L19.0275 7.0122L18.788 7.0122ZM15.534 9.01221L12.9922 9.01221L12.9922 20.2773H16.4609V9.01221L15.534 9.01221ZM4.97265 9.01222L10.9653 9.01221L10.9653 20.2773H4.97266C4.42038 20.2773 3.97266 19.8296 3.97266 19.2773L3.97266 10.0122C3.97266 9.45994 4.42037 9.01222 4.97265 9.01222Z" fill="black"/>
</svg>
