<svg width="24" height="24" viewBox="0 0 24 24" fill="none" xmlns="http://www.w3.org/2000/svg">
<path fill-rule="evenodd" clip-rule="evenodd" d="M22.0403 6.01123C22.0403 3.80209 20.2495 2.01123 18.0403 2.01123H6.1543C3.94517 2.01123 2.1543 3.80209 2.1543 6.01123L2.1543 17.9888C2.1543 20.198 3.94516 21.9888 6.1543 21.9888H18.0403C20.2494 21.9888 22.0403 20.1979 22.0403 17.9888V6.01123ZM4.1543 17.9888L4.1543 6.01123C4.1543 4.90666 5.04973 4.01123 6.1543 4.01123H18.0403C19.1449 4.01123 20.0403 4.90666 20.0403 6.01123V17.9888C20.0403 18.6255 19.7428 19.1927 19.2793 19.5589C18.9048 17.3766 17.3627 15.6022 15.3072 14.6852C16.2438 13.8204 16.8304 12.5822 16.8304 11.2069C16.8304 8.59293 14.7113 6.47388 12.0973 6.47388C9.48332 6.47388 7.36426 8.59293 7.36426 11.2069C7.36426 12.5822 7.95078 13.8204 8.88733 14.6851C6.83188 15.6021 5.28976 17.3765 4.91522 19.5588C4.45173 19.1926 4.1543 18.6254 4.1543 17.9888ZM6.87422 19.9888H17.3203C16.9843 17.8186 14.8657 16.007 12.0972 16.007C9.32874 16.007 7.21018 17.8186 6.87422 19.9888ZM12.0973 13.94C13.6067 13.94 14.8304 12.7163 14.8304 11.2069C14.8304 9.6975 13.6067 8.47388 12.0973 8.47388C10.5879 8.47388 9.36426 9.6975 9.36426 11.2069C9.36426 12.7163 10.5879 13.94 12.0973 13.94Z" fill="black"/>
</svg>
