<svg width="24" height="24" viewBox="0 0 24 24" fill="none" xmlns="http://www.w3.org/2000/svg">
<path fill-rule="evenodd" clip-rule="evenodd" d="M11.9991 4.24902C8.35171 4.24902 4.85357 5.69721 2.2735 8.27529C1.3281 9.22173 0.759382 10.481 0.675017 11.816C0.590714 13.1501 0.995165 14.4692 1.8127 15.5268C2.04565 15.8304 2.3722 16.0488 2.74182 16.1482C3.10993 16.2471 3.50027 16.2225 3.85292 16.0782L8.28265 14.3082L8.29279 14.304C8.55935 14.1941 8.79499 14.0207 8.97921 13.7989C9.16342 13.5771 9.29069 13.3136 9.3498 13.0314L9.86589 10.4064C11.2397 9.95749 12.7202 9.95358 14.0961 10.3951L14.6483 13.0401L14.6513 13.0542C14.7136 13.3324 14.8422 13.5916 15.0263 13.8094C15.2103 14.0272 15.4443 14.1974 15.7083 14.3053L20.1452 16.0781C20.4979 16.2225 20.8882 16.2471 21.2563 16.1482C21.6258 16.0488 21.9522 15.8306 22.1851 15.5272C23.0029 14.4696 23.4075 13.1503 23.3231 11.816C23.2388 10.481 22.6701 9.22173 21.7247 8.27529C19.1446 5.69721 15.6464 4.24902 11.9991 4.24902ZM3.68745 9.68976C5.89247 7.4866 8.88201 6.24902 11.9991 6.24902C15.116 6.24902 18.1053 7.48646 20.3103 9.68938C20.9119 10.2917 21.2734 11.0926 21.3271 11.9422C21.3476 12.2667 21.3227 12.5899 21.255 12.9029L16.2496 10.9236L16.0256 9.85057C15.9662 9.55728 15.8322 9.28423 15.6364 9.05779C15.4395 8.82993 15.1868 8.65704 14.903 8.5561L14.8945 8.55315C13.008 7.90116 10.9567 7.90483 9.07259 8.56355C8.78842 8.66258 8.53457 8.83321 8.33558 9.05899C8.1363 9.28511 7.99879 9.55886 7.93638 9.85373L7.93349 9.86788L7.71275 10.9906L2.75405 12.9514C2.67818 12.6233 2.64946 12.2835 2.67104 11.9422C2.72471 11.0927 3.08606 10.292 3.68745 9.68976Z" fill="black"/>
<path d="M3.74902 19.7515H20.249V17.7515H3.74902V19.7515Z" fill="black"/>
</svg>
