<svg width="24" height="24" viewBox="0 0 24 24" fill="none" xmlns="http://www.w3.org/2000/svg">
<path fill-rule="evenodd" clip-rule="evenodd" d="M17.9072 8.63498L20.8868 10.5799C21.0397 11.5201 21.0404 12.4789 20.8889 13.4194L17.9021 15.3738L17.6886 18.9614C16.9497 19.5651 16.1184 20.046 15.2266 20.3854L12.0165 18.7753L8.82701 20.3836C7.93565 20.0458 7.1044 19.5667 6.36522 18.9648L6.16101 15.3917L3.1663 13.422C3.01299 12.4804 3.01227 11.5203 3.16418 10.5785L6.16505 8.60111L6.36569 5.03714C7.10285 4.43509 7.93194 3.95533 8.82121 3.6162L11.9876 5.23801L15.2244 3.61562C16.1169 3.95375 16.9492 4.43347 17.6892 5.0363L17.9072 8.63498ZM19.4016 20.1237C19.4842 20.0487 19.5497 19.957 19.594 19.8547C19.6382 19.7524 19.6602 19.6418 19.6583 19.5303L19.8388 16.4966L22.367 14.8423C22.4645 14.7881 22.5493 14.7138 22.6158 14.6243C22.6823 14.5348 22.7289 14.4321 22.7526 14.3231C23.0862 12.7914 23.0851 11.2058 22.7494 9.67458C22.7257 9.56564 22.6791 9.46301 22.6126 9.37353C22.5461 9.28404 22.4613 9.20977 22.3639 9.15567L19.8427 7.51001L19.6583 4.46585C19.6602 4.35435 19.6382 4.24373 19.5939 4.14138C19.5496 4.03904 19.484 3.94732 19.4015 3.87236C18.2418 2.81763 16.8681 2.02574 15.3742 1.55084C15.268 1.51687 15.1558 1.50593 15.0451 1.51876C14.9343 1.53158 14.8276 1.56788 14.732 1.62522L11.9974 2.99593L9.31769 1.62341C9.22206 1.56604 9.11528 1.52973 9.0045 1.51692C8.89372 1.5041 8.78148 1.51506 8.67527 1.54907C7.18203 2.02606 5.80937 2.81981 4.65112 3.87609C4.5686 3.95105 4.50303 4.04275 4.45878 4.14507C4.41452 4.24739 4.3926 4.35797 4.39448 4.46943L4.22474 7.48448L1.68574 9.15749C1.58824 9.21161 1.50342 9.28592 1.43693 9.37545C1.37044 9.46497 1.32383 9.56766 1.30019 9.67664C0.966583 11.2083 0.96766 12.794 1.30335 14.3252C1.32702 14.4341 1.37365 14.5367 1.44014 14.6262C1.50662 14.7157 1.59143 14.79 1.6889 14.8441L4.22166 16.5099L4.39448 19.5339C4.39261 19.6454 4.41455 19.756 4.45884 19.8584C4.50312 19.9607 4.56874 20.0524 4.65131 20.1274C5.81097 21.1821 7.18471 21.974 8.67861 22.4489C8.78478 22.4829 8.89697 22.4938 9.00771 22.481C9.11844 22.4682 9.22516 22.4319 9.32075 22.3745L12.0189 21.014L14.7351 22.3763C14.8307 22.4337 14.9375 22.47 15.0483 22.4828C15.159 22.4957 15.2713 22.4847 15.3775 22.4507C16.8707 21.9737 18.2434 21.1799 19.4016 20.1237ZM14.5702 11.9999C14.5702 13.4054 13.4308 14.5448 12.0253 14.5448C10.6198 14.5448 9.48047 13.4054 9.48047 11.9999C9.48047 10.5945 10.6198 9.45508 12.0253 9.45508C13.4308 9.45508 14.5702 10.5945 14.5702 11.9999ZM16.5702 11.9999C16.5702 14.51 14.5354 16.5448 12.0253 16.5448C9.51527 16.5448 7.48047 14.51 7.48047 11.9999C7.48047 9.48988 9.51527 7.45508 12.0253 7.45508C14.5354 7.45508 16.5702 9.48988 16.5702 11.9999Z" fill="black"/>
</svg>
