<svg width="24" height="24" viewBox="0 0 24 24" fill="none" xmlns="http://www.w3.org/2000/svg">
<path d="M15.2733 7.22953L10.5012 12.1211L7.88511 9.50503L6.25876 11.1314L9.69814 14.5708C9.91555 14.7882 10.211 14.9095 10.5184 14.9076C10.8259 14.9057 11.1198 14.7807 11.3345 14.5606L16.9196 8.83564L15.2733 7.22953Z" fill="black"/>
<path fill-rule="evenodd" clip-rule="evenodd" d="M10.6534 22.7985C9.65489 22.4437 5.82572 20.8553 3.699 16.7798L3.69842 16.7786C2.84093 15.1365 2.26249 13.0926 2.254 10.5662L2.25391 10.5097V4.70366C2.25442 4.28385 2.41012 3.88138 2.68688 3.58453C2.96363 3.28768 3.33885 3.12066 3.73024 3.12012H20.4487C20.8832 3.12066 21.2998 3.28768 21.607 3.58453C21.9142 3.88138 22.0871 4.28385 22.0876 4.70366V10.5097C22.0876 19.3646 13.3743 22.318 11.817 22.8168C11.5901 22.8912 11.3501 22.9144 11.115 22.8865C11.0954 22.8842 11.0758 22.8815 11.0563 22.8785C10.92 22.8728 10.7843 22.8461 10.6534 22.7985ZM17.9699 10.5097V5.12012H4.25391V10.5097C4.25391 11.3678 4.3304 12.1601 4.46784 12.8912C5.46507 18.1958 9.67084 20.2756 11.1474 20.8214C12.7537 20.1894 17.9699 17.5948 17.9699 10.5097Z" fill="black"/>
</svg>
