<svg width="24" height="24" viewBox="0 0 24 24" fill="none" xmlns="http://www.w3.org/2000/svg">
<path fill-rule="evenodd" clip-rule="evenodd" d="M17.6963 5.47031L15.2027 5.98496L14.7984 4.02624L19.6695 3.02092C20.2104 2.90929 20.7394 3.25727 20.851 3.79816L21.8563 8.66926L19.8976 9.07351L19.3775 6.55365L13.3428 16.0368C13.1374 16.3595 12.7658 16.5368 12.3857 16.4934C12.0056 16.45 11.6835 16.1935 11.5562 15.8327L9.35808 9.60474L4.84847 18.9998H20V20.9998H3C2.44772 20.9998 2 20.552 2 19.9998V3.49976H4V16.1456L8.59766 6.56715C8.77257 6.20275 9.14965 5.97948 9.55327 6.00135C9.95688 6.02321 10.3076 6.2859 10.4422 6.66706L12.7584 13.2298L17.6963 5.47031Z" fill="black"/>
</svg>
