<svg width="24" height="24" viewBox="0 0 24 24" fill="none" xmlns="http://www.w3.org/2000/svg">
<path fill-rule="evenodd" clip-rule="evenodd" d="M1 3.91641C0.999996 2.30572 2.30572 1 3.9164 1L20.0836 1C21.6943 1 23 2.30572 23 3.9164V20.0836C23 21.6943 21.6943 23 20.0836 23H3.91644C2.30576 23 1.00005 21.6943 1.00004 20.0836L1 3.91641ZM6.25896 10.5402C6.25896 9.29935 7.26485 8.29345 8.50568 8.29345C9.74651 8.29345 10.7524 9.29935 10.7524 10.5402V17.53H13.2488V10.5402C13.2488 9.29935 14.2547 8.29345 15.4955 8.29345C16.7363 8.29345 17.7422 9.29935 17.7422 10.5402V17.53H20.2386V10.5402C20.2386 7.92064 18.115 5.79709 15.4955 5.79709C14.1124 5.79709 12.8676 6.38909 12.0006 7.33351C11.1336 6.38909 9.88877 5.79709 8.50568 5.79709C5.88615 5.79709 3.7626 7.92064 3.7626 10.5402V17.53H6.25896V10.5402Z" fill="#00A651"/>
</svg>
