<svg width="24" height="24" viewBox="0 0 24 24" fill="none" xmlns="http://www.w3.org/2000/svg">
<path fill-rule="evenodd" clip-rule="evenodd" d="M3.11719 6.09395L3.11719 17.9056C3.11719 18.3475 3.47536 18.7056 3.91719 18.7056H20.0818C20.5236 18.7056 20.8818 18.3475 20.8818 17.9056V6.13502C20.8818 5.67051 20.5052 5.29395 20.0407 5.29395H3.91719C3.47536 5.29395 3.11719 5.65212 3.11719 6.09395ZM20.0407 3.29395C21.6098 3.29395 22.8818 4.56594 22.8818 6.13502V17.9056C22.8818 19.452 21.6282 20.7056 20.0818 20.7056H3.91719C2.37079 20.7056 1.11719 19.452 1.11719 17.9056L1.11719 6.09394C1.11719 4.54755 2.3708 3.29395 3.91719 3.29395H20.0407ZM13.1383 10.891L19.1351 10.8909L19.1351 8.89094L13.1383 8.89097L13.1383 10.891ZM13.1383 15.1087L19.1351 15.1088L19.1352 13.1088L13.1383 13.1087L13.1383 15.1087ZM9.47778 11.8893C9.47778 12.6765 8.8396 13.3147 8.05236 13.3147C7.26513 13.3147 6.62695 12.6765 6.62695 11.8893C6.62695 11.102 7.26513 10.4639 8.05236 10.4639C8.8396 10.4639 9.47778 11.102 9.47778 11.8893ZM11.4778 11.8893C11.4778 13.7811 9.94417 15.3147 8.05236 15.3147C6.16056 15.3147 4.62695 13.7811 4.62695 11.8893C4.62695 9.99748 6.16056 8.46387 8.05236 8.46387C9.94417 8.46387 11.4778 9.99748 11.4778 11.8893Z" fill="black"/>
</svg>
