<svg width="24" height="24" viewBox="0 0 24 24" fill="none" xmlns="http://www.w3.org/2000/svg">
<path d="M11.1574 18.303L16.8644 12.596L15.4504 11.182L11.1574 15.475L8.86444 13.182L7.45044 14.596L11.1574 18.303Z" fill="black"/>
<path fill-rule="evenodd" clip-rule="evenodd" d="M18.0144 3.85522V1.89844H15.7144V3.85522H8.28914V1.89844H5.98914V3.85522H5.96875C4.3119 3.85522 2.96875 5.19837 2.96875 6.85522L2.96875 18.9997C2.96875 20.6566 4.3119 21.9997 5.96875 21.9997H18.0301C19.6869 21.9997 21.0301 20.6566 21.0301 18.9997V6.85523C21.0301 5.19837 19.6869 3.85522 18.0301 3.85522H18.0144ZM4.96875 9.87683L4.96875 18.9997C4.96875 19.552 5.41647 19.9997 5.96875 19.9997H18.0301C18.5824 19.9997 19.0301 19.552 19.0301 18.9997V9.87683H4.96875ZM4.96875 7.87683H19.0301V6.85523C19.0301 6.30294 18.5824 5.85522 18.0301 5.85522H5.96875C5.41647 5.85522 4.96875 6.30294 4.96875 6.85522L4.96875 7.87683Z" fill="black"/>
</svg>
