<svg width="24" height="24" viewBox="0 0 24 24" fill="none" xmlns="http://www.w3.org/2000/svg">
<path fill-rule="evenodd" clip-rule="evenodd" d="M17.4456 6.33902C17.3362 3.37186 14.8963 1 11.9024 1C8.83893 1 6.35547 3.48346 6.35547 6.54697V8L6.00009 8C4.34325 8 3.00011 9.34312 3.00009 11L3 18.9989C2.99998 20.6564 4.34415 21.9998 6.00167 21.9989L18.0016 21.9922C19.6578 21.9913 21 20.6484 21 18.9922L21 11C21 9.34316 19.6568 8.00001 18 8.00001L17.4494 8.00001V6.54697L17.4456 6.33902ZM15.1573 8.00001V6.54697C15.1573 4.74938 13.7 3.29214 11.9024 3.29214C10.1648 3.29214 8.74513 4.65385 8.65242 6.36839L8.64761 6.54697V8L15.1573 8.00001ZM5.00009 11C5.0001 10.4477 5.44781 10 6.00009 10L18 10C18.5523 10 19 10.4477 19 11L19 18.9922C19 19.5443 18.5526 19.9919 18.0005 19.9922L6.00056 19.9989C5.44805 19.9992 4.99999 19.5514 5 18.9989L5.00009 11Z" fill="black"/>
<path fill-rule="evenodd" clip-rule="evenodd" d="M11.1114 16.7617V18.6099H12.8889V16.8331L14.354 17.9349L15.5041 16.5795L13.5094 15.0794L15.5519 13.6466L14.4473 12.2539L12.8889 13.3471V11.4995H11.1114V13.2759L9.64651 12.1743L8.4964 13.5297L10.4907 15.0295L8.44727 16.4629L9.55192 17.8556L11.1114 16.7617Z" fill="black"/>
</svg>
