<svg width="24" height="24" viewBox="0 0 24 24" fill="none" xmlns="http://www.w3.org/2000/svg">
<path fill-rule="evenodd" clip-rule="evenodd" d="M12.7843 1.17338C12.528 1.05886 12.2504 0.999653 11.9694 1C11.6884 1.00035 11.411 1.06025 11.155 1.17541L11.1532 1.17622L3.18211 4.78147C2.83325 4.93747 2.53783 5.19064 2.32938 5.50909C2.12037 5.8284 2.00708 6.20054 2.00157 6.58124L2.00156 6.58161C1.96664 9.05896 2.4428 18.1181 11.0174 22.7608C11.6097 23.0815 12.3359 23.0783 12.9242 22.7598L12.9264 22.7586C21.4362 18.1236 22.0071 9.0912 21.9999 6.60293L21.9999 6.60192C21.9984 6.21606 21.886 5.83795 21.675 5.51383C21.4649 5.19106 21.1655 4.93508 20.8118 4.77889L12.7859 1.17413L12.7843 1.17338ZM19.9957 6.60484L11.9719 3.00099L4.00136 6.61018C3.96852 8.94461 4.44805 16.9266 11.9654 20.9998L11.9692 21C11.9702 21 11.9711 21 11.9719 20.9999C11.9727 20.9998 11.9734 20.9997 11.974 20.9996L11.9747 20.9995C19.4417 16.9291 20.0065 8.95822 19.9999 6.60972C19.9999 6.6084 19.9997 6.60732 19.9995 6.60653L19.9957 6.60487L19.9957 6.60484ZM16.4536 7.06762L11.2063 12.4463L8.25547 9.49551L6.84126 10.9097L10.5079 14.5764C10.697 14.7655 10.9539 14.8709 11.2212 14.8693C11.4886 14.8676 11.7442 14.759 11.9309 14.5676L17.8851 8.46424L16.4536 7.06762Z" fill="black"/>
</svg>
