<svg width="24" height="24" viewBox="0 0 24 24" fill="none" xmlns="http://www.w3.org/2000/svg">
<path d="M4 3H15C15.5523 3 16 3.44772 16 4V7H18V4C18 2.34315 16.6569 1 15 1H4C2.34315 1 1 2.34315 1 4V13H3V4C3 3.44772 3.44772 3 4 3Z" fill="black"/>
<path d="M7 15H12V17H1C0.447715 17 0 16.5523 0 16V14C0 13.4477 0.447715 13 1 13H5C5 14.1046 5.89543 15 7 15Z" fill="black"/>
<path fill-rule="evenodd" clip-rule="evenodd" d="M15 7C13.3431 7 12 8.34315 12 10V20C12 21.6569 13.3431 23 15 23H20C21.6569 23 23 21.6569 23 20V10C23 8.34315 21.6569 7 20 7H15ZM20 9H15C14.4477 9 14 9.44772 14 10V20C14 20.5523 14.4477 21 15 21H20C20.5523 21 21 20.5523 21 20V10C21 9.44771 20.5523 9 20 9Z" fill="black"/>
<path fill-rule="evenodd" clip-rule="evenodd" d="M8.40651 8.39646L10.524 6.22089L11.6706 7.33685L8.9875 10.0935C8.8382 10.2469 8.63367 10.3341 8.41963 10.3355C8.20558 10.337 7.99988 10.2526 7.84853 10.1012L6.03858 8.29127L7.16995 7.1599L8.40651 8.39646Z" fill="black"/>
<path fill-rule="evenodd" clip-rule="evenodd" d="M17.1641 15.1212L19.2816 12.9457L20.4282 14.0616L17.7451 16.8183C17.5958 16.9717 17.3913 17.0589 17.1773 17.0603C16.9632 17.0618 16.7575 16.9774 16.6062 16.826L14.7962 15.0161L15.9276 13.8847L17.1641 15.1212Z" fill="black"/>
</svg>
