<svg width="24" height="24" viewBox="0 0 24 24" fill="none" xmlns="http://www.w3.org/2000/svg">
<path fill-rule="evenodd" clip-rule="evenodd" d="M3.33267 7.70807L7.73911 2.14841C8.77927 0.836026 10.6925 0.629289 11.989 1.68917L13.7278 3.11067L14.7865 2.66824C16.3106 2.03131 18.0628 2.74628 18.7063 4.26765L19.9086 7.11033C21.4621 7.22358 22.6873 8.51986 22.6873 10.1023V19.7683C22.6873 21.4251 21.3442 22.7683 19.6873 22.7683H5.14063C3.48377 22.7683 2.14062 21.4251 2.14062 19.7683V10.1023C2.14063 9.12438 2.60853 8.25575 3.33267 7.70807ZM10.7231 3.23761C10.291 2.88432 9.65323 2.95323 9.30651 3.39069L7.44867 5.73475L11.6368 3.98452L10.7231 3.23761ZM4.74866 9.18204C4.39119 9.33449 4.14062 9.68913 4.14062 10.1023V19.7683C4.14062 20.3206 4.58834 20.7683 5.14063 20.7683H19.6873C20.2396 20.7683 20.6873 20.3206 20.6873 19.7683V16.9148L18.8479 16.9148C17.5764 16.9148 16.5457 15.884 16.5457 14.6126C16.5457 13.3411 17.5764 12.3104 18.8479 12.3104H20.6873V10.1023C20.6873 9.55001 20.2396 9.10229 19.6873 9.10229H5.14062C5.04673 9.10229 4.95586 9.11523 4.8697 9.13943L4.74866 9.18204Z" fill="black"/>
</svg>
