<svg width="24" height="24" viewBox="0 0 24 24" fill="none" xmlns="http://www.w3.org/2000/svg">
<path fill-rule="evenodd" clip-rule="evenodd" d="M3.11719 17.9056L3.11719 15.7869L7.36736 11.5368C7.53325 11.3715 7.75829 11.2783 7.9925 11.2783C8.22688 11.2783 8.4517 11.3713 8.61763 11.5368L8.62478 11.544L16.099 18.7056H3.91719C3.47536 18.7056 3.11719 18.3475 3.11719 17.9056ZM5.95478 10.121L3.11719 12.9585L3.11719 6.09395C3.11719 5.65212 3.47536 5.29395 3.91719 5.29395H20.0407C20.5052 5.29395 20.8818 5.67051 20.8818 6.13502V13.9301L19.4544 12.5028C18.944 11.9935 18.2524 11.7075 17.5314 11.7075C16.8103 11.7075 16.1187 11.9935 15.6083 12.5028L14.0953 14.0158L10.0223 10.1131C9.4822 9.57842 8.75279 9.27832 7.9925 9.27832C7.22848 9.27832 6.49565 9.58137 5.95478 10.121ZM15.5397 15.3998L18.9898 18.7056H20.0818C20.5236 18.7056 20.8818 18.3475 20.8818 17.9056V16.7585L18.0418 13.9186C17.9064 13.7836 17.7226 13.7075 17.5314 13.7075C17.3401 13.7075 17.1563 13.7836 17.0209 13.9186L15.5397 15.3998ZM22.8818 6.13502C22.8818 4.56594 21.6098 3.29395 20.0407 3.29395H3.91719C2.3708 3.29395 1.11719 4.54755 1.11719 6.09394L1.11719 17.9056C1.11719 19.452 2.37079 20.7056 3.91719 20.7056H20.0818C21.6282 20.7056 22.8818 19.452 22.8818 17.9056V6.13502ZM15.4239 7.25098C14.5954 7.25098 13.9238 7.92256 13.9238 8.751C13.9238 9.57944 14.5954 10.251 15.4239 10.251C16.2523 10.251 16.9239 9.57944 16.9239 8.751C16.9239 7.92256 16.2523 7.25098 15.4239 7.25098Z" fill="black"/>
</svg>
