<svg width="24" height="24" viewBox="0 0 24 24" fill="none" xmlns="http://www.w3.org/2000/svg">
<path fill-rule="evenodd" clip-rule="evenodd" d="M4.99065 3.74023C2.94958 3.74023 1.29497 5.39485 1.29496 7.43592L1.29492 16.6013C1.29491 18.6424 2.94953 20.2971 4.99061 20.2971H19.0084C21.0495 20.2971 22.7041 18.6424 22.7041 16.6014V7.43593C22.7041 5.39485 21.0495 3.74023 19.0084 3.74023H4.99065ZM3.29496 7.64098L3.29492 16.6014C3.29492 17.5379 4.05411 18.2971 4.99061 18.2971H19.0084C19.9449 18.2971 20.7041 17.5379 20.7041 16.6014V7.65395C20.6478 7.70073 20.5882 7.74569 20.5253 7.78863L12.6441 13.1627C12.2599 13.4247 11.7546 13.4247 11.3704 13.1627L3.48921 7.78863C3.42044 7.74173 3.35572 7.69243 3.29496 7.64098Z" fill="black"/>
</svg>
