<svg width="24" height="24" viewBox="0 0 24 24" fill="none" xmlns="http://www.w3.org/2000/svg">
<path d="M18.4574 10.4426L18.4571 10.4423L18.446 10.4307C18.2852 10.2631 18.0939 10.0636 17.926 9.86242C17.7613 9.66511 17.563 9.40152 17.4384 9.1001M18.4574 10.4426L18.3625 8.71795M18.4574 10.4426L18.9995 9.9227L19.1791 9.7504L13.3403 18.996C13.6342 18.8744 13.9549 18.833 14.1966 18.8131C14.4466 18.7925 14.7132 18.7885 14.9364 18.7851L14.952 18.7849C14.9533 18.7849 14.9546 18.7848 14.9558 18.7848C15.9142 18.7702 16.4535 18.7149 16.8054 18.363C17.1569 18.0115 17.2125 17.473 17.2271 16.5166C17.2272 16.5143 17.2272 16.5119 17.2273 16.5096L17.2275 16.494C17.2308 16.2708 17.2349 16.0042 17.2555 15.7542C17.2754 15.5124 17.3168 15.1917 17.4384 14.8978C17.5631 14.5964 17.7614 14.3328 17.9261 14.1355C18.0941 13.9343 18.2856 13.7346 18.4464 13.5669L18.4574 13.5555L18.4574 13.5554C19.1146 12.8702 19.4414 12.4605 19.4414 11.999C19.4414 11.5377 19.1149 11.1282 18.4579 10.4431C18.4577 10.443 18.4576 10.4428 18.4574 10.4426ZM17.4384 9.1001L18.3625 8.71795M17.4384 9.1001C17.4384 9.10016 17.4384 9.10023 17.4384 9.10029L18.3625 8.71795M17.4384 9.1001C17.3168 8.8062 17.2754 8.48555 17.2555 8.24387C17.2349 7.99383 17.2308 7.72724 17.2275 7.50403L17.2273 7.48844L18.2238 7.47335L18.2271 7.4733M18.3625 8.71795C18.2415 8.42568 18.2342 7.94158 18.2271 7.47335V7.4733M18.2271 7.4733H17.2271V7.47335V7.4809L17.2272 7.48467L14.9671 4.21329M18.2271 7.4733C18.214 6.60199 18.199 5.61447 17.5125 4.92793C16.826 4.24138 15.8384 4.22646 14.9671 4.21329M14.9671 4.21329L14.9665 4.25541L14.952 5.21318C14.9522 5.21318 14.9525 5.21318 14.9527 5.21319L14.9532 5.2132L14.9532 5.2132L14.9671 4.21329ZM13.3402 5.00203L13.7225 4.07797L13.3401 5.00199C13.3402 5.002 13.3402 5.00202 13.3402 5.00203ZM13.3402 5.00203C13.0388 4.87736 12.7752 4.67904 12.5779 4.51432M13.3402 5.00203L12.5779 4.51432M11.9979 20.015L11.9982 20.0147L12.0098 20.0035C12.1774 19.8428 12.3769 19.6514 12.578 19.4836C12.7753 19.3189 13.0388 19.1207 13.3401 18.9961L11.9979 20.015ZM11.9979 20.015C11.9976 20.0152 11.9974 20.0154 11.9972 20.0157C11.3122 20.6725 10.9027 20.999 10.4414 20.999C9.97995 20.999 9.57021 20.6723 8.885 20.015L8.88496 20.015M11.9979 20.015L8.88496 20.015M8.88496 20.015L8.87351 20.004M8.88496 20.015L8.87351 20.004M5.924 18.7848C4.96748 18.7701 4.42891 18.7145 4.07742 18.363C3.72524 18.0108 3.67012 17.4708 3.65558 16.5108C3.65557 16.5104 3.65557 16.51 3.65556 16.5096L3.65556 16.5096L3.65532 16.4939C3.65197 16.2707 3.64796 16.0042 3.62733 15.7542C3.60739 15.5125 3.56602 15.1919 3.44445 14.8979L5.924 18.7848ZM5.924 18.7848C5.92626 18.7848 5.92855 18.7848 5.93082 18.7849L5.94642 18.7851C6.16962 18.7885 6.43622 18.7925 6.68626 18.8131C6.92798 18.833 7.24872 18.8744 7.54267 18.9961M5.924 18.7848L7.54267 18.9961M7.54267 18.9961C7.84403 19.1207 8.10762 19.319 8.30493 19.4837M7.54267 18.9961L8.30493 19.4837M2.42544 13.5555L2.42573 13.5558L2.43688 13.5674C2.5976 13.735 2.78898 13.9345 2.95684 14.1356C3.12149 14.3329 3.31971 14.5964 3.44437 14.8978L2.42544 13.5555ZM2.42544 13.5555C2.42543 13.5555 2.42542 13.5555 2.42541 13.5555C1.76812 12.8701 1.44141 12.4605 1.44141 11.999C1.44141 11.5376 1.76817 11.1278 2.42539 10.4426L2.42543 10.4426M2.42544 13.5555L2.42543 10.4426M2.42543 10.4426L2.4364 10.4311M2.42543 10.4426L2.4364 10.4311M3.65557 7.48771L3.65556 7.48844L3.65532 7.50412C3.65197 7.72731 3.64796 7.99387 3.62733 8.24387C3.60738 8.48557 3.56601 8.80626 3.44441 9.10019L3.65557 7.48771ZM3.65557 7.48771C3.67011 6.52741 3.72518 5.98727 4.07742 5.63503C4.42959 5.28285 4.96961 5.22774 5.92962 5.2132C5.93001 5.21319 5.9304 5.21318 5.93079 5.21318L5.93082 5.21318L5.9465 5.21294C6.16969 5.20958 6.43625 5.20558 6.68626 5.18495C6.92793 5.165 7.24858 5.12364 7.54248 5.00207C7.84391 4.87742 8.1075 4.67914 8.30481 4.51445C8.50592 4.34659 8.70546 4.15521 8.87303 3.99449L8.88466 3.98334L8.88495 3.98306C8.88501 3.983 8.88508 3.98293 8.88515 3.98287L3.65557 7.48771ZM11.9979 3.98305L11.9978 3.98301C11.3126 3.32579 10.9029 2.99902 10.4414 2.99902C9.98006 2.99902 9.57054 3.32559 8.88544 3.98258L11.9979 3.98305ZM11.9979 3.98305L12.0093 3.99402M11.9979 3.98305L12.0093 3.99402M8.87351 20.004C8.70584 19.8432 8.50617 19.6517 8.30493 19.4837M8.87351 20.004L8.30493 19.4837M2.4364 10.4311C2.59722 10.2635 2.78873 10.0638 2.95671 9.86255M2.4364 10.4311L2.95671 9.86255M2.95671 9.86255C3.1214 9.66523 3.31969 9.40165 3.44437 9.10029L2.95671 9.86255ZM12.0093 3.99402C12.177 4.15484 12.3766 4.34635 12.5779 4.51432M12.0093 3.99402L12.5779 4.51432" stroke="black" stroke-width="2"/>
<path fill-rule="evenodd" clip-rule="evenodd" d="M9.68162 13.1461L14.2968 8.4153L15.7284 9.81192L10.4062 15.2674C10.2195 15.4588 9.96396 15.5674 9.6966 15.5691C9.42925 15.5707 9.17236 15.4652 8.98331 15.2762L5.70586 11.9987L7.12007 10.5845L9.68162 13.1461Z" fill="black"/>
<path fill-rule="evenodd" clip-rule="evenodd" d="M21.737 9.75L21.7367 9.7497C21.4 9.39858 21.0519 9.03563 20.9204 8.71755C20.7994 8.42528 20.7921 7.94118 20.785 7.47296V7.47291C20.7719 6.6016 20.757 5.61407 20.0704 4.92753C19.3839 4.24098 18.3963 4.22606 17.525 4.21289L17.525 4.21289C17.0568 4.20583 16.5727 4.19851 16.2804 4.07757C15.9623 3.946 15.5992 3.59775 15.2479 3.26092C14.631 2.66923 13.9317 1.99863 12.9993 1.99863C12.7921 1.99863 12.5372 1.98466 12.2595 1.96944C11.5951 1.93302 10.7993 1.88941 10.209 2.01248C10.2847 2.00333 10.3619 1.99854 10.4407 1.99854C11.3731 1.99854 12.0725 2.66914 12.6893 3.26083C13.0406 3.59766 13.4037 3.94591 13.7218 4.07748C14.0141 4.19842 14.4982 4.20574 14.9664 4.2128L14.9664 4.2128C15.8378 4.22597 16.8253 4.24089 17.5118 4.92744C18.1984 5.61398 18.2133 6.60151 18.2265 7.47282V7.47287C18.2335 7.94109 18.2408 8.42519 18.3618 8.71746C18.4933 9.03554 18.8414 9.39849 19.1781 9.74961L19.1784 9.74991C19.7701 10.3669 20.4407 11.0662 20.4407 11.9985C20.4407 12.9309 19.7701 13.6303 19.1784 14.2472C18.8416 14.5984 18.4934 14.9615 18.3618 15.2796C18.2408 15.5719 18.2335 16.056 18.2265 16.5242V16.5243C18.2133 17.3956 18.1984 18.3831 17.5118 19.0696C16.8253 19.7562 15.8378 19.7711 14.9664 19.7843H14.9664C14.4982 19.7913 14.0141 19.7987 13.7218 19.9196C13.4037 20.0511 13.0408 20.3992 12.6897 20.7359L12.6897 20.7359L12.6893 20.7362C12.0724 21.3279 11.3731 21.9985 10.4407 21.9985C10.2885 21.9985 10.1424 21.9807 10.002 21.9482C10.6084 22.1203 11.511 22.07 12.2489 22.0288C12.5319 22.0131 12.7908 21.9986 12.9993 21.9986C13.9317 21.9986 14.631 21.328 15.2479 20.7363L15.2482 20.736L15.2483 20.736C15.5994 20.3993 15.9623 20.0512 16.2804 19.9197C16.5727 19.7987 17.0568 19.7914 17.525 19.7844H17.525C18.3963 19.7712 19.3839 19.7563 20.0704 19.0697C20.757 18.3832 20.7719 17.3957 20.785 16.5243V16.5243C20.7921 16.0561 20.7994 15.572 20.9204 15.2797C21.0519 14.9616 21.4002 14.5985 21.737 14.2472C22.3287 13.6304 22.9993 12.931 22.9993 11.9986C22.9993 11.0663 22.3287 10.367 21.737 9.75Z" fill="black"/>
</svg>
