<svg width="24" height="24" viewBox="0 0 24 24" fill="none" xmlns="http://www.w3.org/2000/svg">
<path fill-rule="evenodd" clip-rule="evenodd" d="M17.8637 2.46768L10.922 2.46143L3.77284 2.46772C1.98965 2.4693 0.544922 3.9153 0.544922 5.69849V15.3844C0.544922 17.1687 1.99139 18.6152 3.77569 18.6152H17.8608C19.6451 18.6152 21.0916 17.1687 21.0916 15.3844V5.69845C21.0916 3.91528 19.6469 2.46929 17.8637 2.46768ZM2.69877 9.07499V15.3844C2.69877 15.9792 3.18092 16.4613 3.77569 16.4613H17.8608C18.4556 16.4613 18.9378 15.9792 18.9378 15.3844V9.07499H2.69877ZM18.9378 6.92114H2.69877V5.69849C2.69877 5.1041 3.18035 4.62209 3.77474 4.62157L17.8618 4.62153C18.4562 4.62206 18.9378 5.10406 18.9378 5.69845V6.92114Z" fill="black"/>
<path d="M23.4539 9.99805C23.4539 8.34118 22.1108 6.99803 20.4539 6.99805L18.9572 6.99806V16.4941H3.62988V18.5383C3.62988 20.1952 4.97303 21.5383 6.62988 21.5383H19.9539C21.8869 21.5383 23.4539 19.9713 23.4539 18.0383V9.99805Z" fill="black"/>
<path d="M4.4126 10.8005H9.58692V12.9505H4.4126V10.8005Z" fill="black"/>
</svg>
