<svg width="24" height="24" viewBox="0 0 24 24" fill="none" xmlns="http://www.w3.org/2000/svg">
<path d="M13.875 10.5C13.875 9.67158 14.5466 9 15.375 9C16.2035 9 16.875 9.67158 16.875 10.5C16.875 11.3285 16.2035 12 15.375 12C14.5466 12 13.875 11.3285 13.875 10.5Z" fill="black"/>
<path d="M8.62502 9C7.79658 9 7.125 9.67158 7.125 10.5C7.125 11.3285 7.79658 12 8.62502 12C9.45347 12 10.125 11.3285 10.125 10.5C10.125 9.67158 9.45347 9 8.62502 9Z" fill="black"/>
<path fill-rule="evenodd" clip-rule="evenodd" d="M12 2C17.5228 2 22 6.47715 22 12C22 17.5228 17.5228 22 12 22C6.47715 22 2 17.5228 2 12C2 6.47715 6.47715 2 12 2ZM20 12C20 7.58172 16.4183 4 12 4C7.58172 4 4 7.58172 4 12C4 16.4183 7.58172 20 12 20C16.4183 20 20 16.4183 20 12Z" fill="black"/>
</svg>
