<svg width="24" height="24" viewBox="0 0 24 24" fill="none" xmlns="http://www.w3.org/2000/svg">
<mask id="path-1-inside-1_10855_344704" fill="white">
<path d="M5 5H19V19C19 20.6569 17.6569 22 16 22H8C6.34315 22 5 20.6569 5 19V5Z"/>
<path d="M8 4H16C16 2.89543 15.1046 2 14 2H10C8.89543 2 8 2.89543 8 4Z"/>
</mask>
<path d="M5 5V3H3V5H5ZM19 5H21V3H19V5ZM8 4H6V6H8V4ZM16 4V6H18V4H16ZM5 7H19V3H5V7ZM17 5V19H21V5H17ZM16 20H8V24H16V20ZM7 19V5H3V19H7ZM8 20C7.44772 20 7 19.5523 7 19H3C3 21.7614 5.23858 24 8 24V20ZM17 19C17 19.5523 16.5523 20 16 20V24C18.7614 24 21 21.7614 21 19H17ZM8 6H16V2H8V6ZM14 0H10V4H14V0ZM10 0C7.79086 0 6 1.79086 6 4H10V0ZM18 4C18 1.79086 16.2091 0 14 0V4H18Z" fill="black" mask="url(#path-1-inside-1_10855_344704)"/>
<path d="M9 9H11V18H9V9Z" fill="black"/>
<path d="M13 9H15V18H13V9Z" fill="black"/>
<path d="M3 4H21C21 5.10457 20.1046 6 19 6H5C3.89543 6 3 5.10457 3 4Z" fill="black"/>
</svg>
