<svg width="24" height="24" viewBox="0 0 24 24" fill="none" xmlns="http://www.w3.org/2000/svg">
<path fill-rule="evenodd" clip-rule="evenodd" d="M1.47266 13.0424C1.47266 8.93724 4.80053 5.60938 8.90566 5.60938H10.9251C15.212 5.60938 18.6871 9.08454 18.6871 13.3714V21.3674C18.6871 21.6983 18.5235 22.0078 18.25 22.194C17.9765 22.3802 17.6286 22.4191 17.3207 22.2979L12.6928 20.4754H8.90566C4.80052 20.4754 1.47266 17.1475 1.47266 13.0424ZM8.90566 7.60938C5.9051 7.60938 3.47266 10.0418 3.47266 13.0424C3.47266 16.0429 5.90509 18.4754 8.90566 18.4754H12.8826C13.008 18.4754 13.1323 18.499 13.249 18.5449L16.6871 19.8989V13.3714C16.6871 10.1891 14.1074 7.60938 10.9251 7.60938H8.90566Z" fill="black"/>
<path fill-rule="evenodd" clip-rule="evenodd" d="M5.74609 6.31231C6.57325 5.92333 7.48378 5.68235 8.44355 5.6235C9.43978 4.40093 10.9574 3.62012 12.6575 3.62012H15.0059C18.0065 3.62012 20.4389 6.05256 20.4389 9.05312C20.4389 10.6366 19.7615 12.0619 18.6807 13.0549C18.6849 13.1599 18.687 13.2654 18.687 13.3714V15.5121C20.9283 14.232 22.4389 11.819 22.4389 9.05312C22.4389 4.94799 19.1111 1.62012 15.0059 1.62012H12.6575C9.52029 1.62012 6.83705 3.56363 5.74609 6.31231Z" fill="black"/>
</svg>
