<svg width="24" height="24" viewBox="0 0 24 24" fill="none" xmlns="http://www.w3.org/2000/svg">
<path d="M10.9916 3.88293L9.12285 2.15738L10.4796 0.687988L14.1338 4.06218C14.5396 4.43685 14.5648 5.06951 14.1901 5.47527L10.816 9.12947L9.34656 7.77268L11.0899 5.8847C7.31744 6.3423 4.43298 9.59541 4.5154 13.4755C4.60322 17.6094 8.0257 20.8893 12.1593 20.8015C16.2933 20.7137 19.5734 17.2914 19.4855 13.1574C19.4738 12.6053 19.9119 12.1482 20.4641 12.1364C21.0162 12.1247 21.4734 12.5628 21.4851 13.115C21.5964 18.3533 17.44 22.6898 12.2018 22.8011C6.96387 22.9123 2.62713 18.7562 2.51586 13.5179C2.41036 8.5518 6.14051 4.39618 10.9916 3.88293Z" fill="black"/>
</svg>
