<svg width="24" height="24" viewBox="0 0 24 24" fill="none" xmlns="http://www.w3.org/2000/svg">
<path fill-rule="evenodd" clip-rule="evenodd" d="M7.35931 14.7735H5.78133L4.59803 10.2592C4.54187 10.0516 4.42262 9.86798 4.2472 9.78145C3.80943 9.56401 3.32703 9.39096 2.80078 9.30368V9.12988H5.34278C5.69362 9.12988 5.95674 9.39096 6.0006 9.69417L6.61456 12.9505L8.19177 9.12988H9.72589L7.35931 14.7735ZM10.6035 14.7735H9.11328L10.3404 9.12988H11.8307L10.6035 14.7735ZM13.7576 10.6936C13.8014 10.3897 14.0645 10.2159 14.3715 10.2159C14.8539 10.1722 15.3794 10.2595 15.8179 10.4762L16.0811 9.26108C15.6425 9.08728 15.1601 9 14.7224 9C13.2759 9 12.2234 9.78173 12.2234 10.8667C12.2234 11.692 12.969 12.1254 13.4952 12.3865C14.0645 12.6468 14.2838 12.8206 14.24 13.081C14.24 13.4714 13.8014 13.6452 13.3637 13.6452C12.8374 13.6452 12.3112 13.5151 11.8295 13.2976L11.5664 14.5135C12.0927 14.7302 12.662 14.8175 13.1882 14.8175C14.8101 14.8604 15.8179 14.0794 15.8179 12.9072C15.8179 11.431 13.7576 11.3444 13.7576 10.6936ZM21.0348 14.7735L19.8515 9.12988H18.5805C18.3174 9.12988 18.0543 9.30368 17.9666 9.56401L15.7754 14.7735H17.3095L17.6157 13.9489H19.5007L19.6761 14.7735H21.0348ZM18.7991 10.6504L19.2369 12.7774H18.0097L18.7991 10.6504Z" fill="#172B85"/>
</svg>
