<svg width="24" height="24" viewBox="0 0 24 24" fill="none" xmlns="http://www.w3.org/2000/svg">
<path d="M7.12056 8C6.69119 8.00052 6.279 8.1687 5.97183 8.46871L6.13062 8.78887L6.06659 8.84266C5.92312 8.58997 5.716 8.37923 5.46583 8.2314C5.21566 8.08357 4.93116 8.00379 4.64061 8C3.73328 8 3.00011 8.79399 3.00011 9.72374V11.7273C2.99939 11.7443 3.0022 11.7613 3.00838 11.7771C3.01456 11.793 3.02397 11.8074 3.03601 11.8195C3.04805 11.8315 3.06246 11.8409 3.07832 11.8471C3.09419 11.8533 3.11116 11.8561 3.12818 11.8554H3.78642C3.80239 11.8556 3.81824 11.8527 3.83304 11.8467C3.84784 11.8407 3.86128 11.8318 3.87257 11.8205C3.88386 11.8092 3.89277 11.7958 3.89876 11.781C3.90475 11.7662 3.9077 11.7503 3.90744 11.7343V9.70901C3.90744 9.24734 4.18726 8.86955 4.66366 8.86955C5.11188 8.86955 5.42692 9.20188 5.42692 9.69364V11.3585C5.42605 11.3749 5.42853 11.3914 5.43422 11.4068C5.4399 11.4223 5.44867 11.4365 5.45998 11.4484C5.4713 11.4604 5.48493 11.47 5.50005 11.4765C5.51517 11.4831 5.53146 11.4865 5.54794 11.4865H6.17545C6.19195 11.4866 6.20828 11.4832 6.22345 11.4767C6.23861 11.4702 6.25228 11.4606 6.26361 11.4486C6.27495 11.4366 6.28371 11.4225 6.28936 11.4069C6.29501 11.3914 6.29743 11.3749 6.29647 11.3585V9.69364C6.29647 9.20188 6.62943 8.86955 7.07573 8.86955C7.55213 8.86955 7.81658 9.24734 7.81658 9.70901V11.735C7.81838 11.7677 7.83267 11.7985 7.85649 11.821C7.88032 11.8435 7.91187 11.856 7.94464 11.856H8.59521C8.61222 11.8567 8.62919 11.8539 8.64506 11.8477C8.66093 11.8415 8.67533 11.8321 8.68737 11.8201C8.69941 11.8081 8.70882 11.7936 8.715 11.7778C8.72118 11.7619 8.724 11.7449 8.72327 11.7279V9.72374C8.72391 8.79399 8.02084 8 7.12056 8Z" fill="black"/>
<path d="M13.0054 8.07556H12.408C12.3915 8.07469 12.3751 8.07717 12.3596 8.08286C12.3441 8.08854 12.33 8.09731 12.318 8.10863C12.306 8.11994 12.2965 8.13357 12.2899 8.14869C12.2834 8.16381 12.28 8.1801 12.2799 8.19658V8.27982L12.4918 8.61214L12.4349 8.66977C12.26 8.46334 12.0429 8.29676 11.7983 8.18123C11.5536 8.0657 11.2871 8.00391 11.0166 8C10.4952 8 9.9952 8.20711 9.62654 8.57576C9.25789 8.94442 9.05078 9.44442 9.05078 9.96578C9.05078 10.4871 9.25789 10.9871 9.62654 11.3558C9.9952 11.7244 10.4952 11.9316 11.0166 11.9316C11.2879 11.9286 11.5555 11.8677 11.8013 11.7528C12.0471 11.638 12.2656 11.4719 12.4419 11.2656L12.4912 11.306L12.2793 11.6498V11.7254C12.2793 11.7593 12.2928 11.7919 12.3168 11.8159C12.3408 11.8399 12.3734 11.8534 12.4073 11.8534H13.0047C13.0218 11.8542 13.0387 11.8513 13.0546 11.8452C13.0705 11.839 13.0849 11.8296 13.0969 11.8175C13.1089 11.8055 13.1184 11.7911 13.1245 11.7752C13.1307 11.7594 13.1335 11.7424 13.1328 11.7254V8.19658C13.1334 8.17997 13.1305 8.16342 13.1242 8.14803C13.1179 8.13264 13.1085 8.11876 13.0964 8.10732C13.0844 8.09587 13.07 8.08712 13.0543 8.08164C13.0386 8.07617 13.0219 8.07409 13.0054 8.07556ZM11.0166 11.0851C10.3666 11.0851 9.91265 10.6234 9.91265 9.97346C9.91265 9.32354 10.3647 8.84714 11.0166 8.84714C11.6684 8.84714 12.1435 9.31585 12.1435 9.97346C12.1435 10.6311 11.6748 11.0851 11.0166 11.0851Z" fill="black"/>
<path d="M21.5399 8.07556H20.9425C20.926 8.07469 20.9096 8.07717 20.8941 8.08286C20.8786 8.08854 20.8645 8.09731 20.8525 8.10863C20.8405 8.11994 20.831 8.13357 20.8244 8.14869C20.8179 8.16381 20.8145 8.1801 20.8144 8.19658V8.27982L21.0264 8.61214L20.9694 8.66977C20.7946 8.46333 20.5777 8.29673 20.3332 8.18119C20.0886 8.06566 19.8221 8.00387 19.5517 8C19.0304 8 18.5304 8.20711 18.1617 8.57576C17.793 8.94442 17.5859 9.44442 17.5859 9.96578C17.5859 10.4871 17.793 10.9871 18.1617 11.3558C18.5304 11.7244 19.0304 11.9316 19.5517 11.9316C19.823 11.9287 20.0904 11.8677 20.3362 11.7529C20.5819 11.638 20.8002 11.4719 20.9764 11.2656L21.0257 11.306L20.8138 11.6498V11.7254C20.8138 11.7593 20.8273 11.7919 20.8513 11.8159C20.8753 11.8399 20.9079 11.8534 20.9418 11.8534H21.5393C21.5563 11.8542 21.5732 11.8513 21.5891 11.8452C21.605 11.839 21.6194 11.8296 21.6314 11.8175C21.6435 11.8055 21.6529 11.7911 21.6591 11.7752C21.6652 11.7594 21.668 11.7424 21.6673 11.7254V8.19658C21.6679 8.17997 21.665 8.16342 21.6587 8.14803C21.6524 8.13264 21.643 8.11876 21.6309 8.10732C21.6189 8.09587 21.6045 8.08712 21.5888 8.08164C21.5731 8.07617 21.5565 8.07409 21.5399 8.07556ZM19.5549 11.0851C18.9044 11.0851 18.451 10.6234 18.451 9.97346C18.451 9.32354 18.9044 8.84714 19.5549 8.84714C20.2055 8.84714 20.6812 9.31585 20.6812 9.97346C20.6812 10.6311 20.2093 11.0851 19.5517 11.0851H19.5549Z" fill="black"/>
<path d="M17.0956 8.07559H16.4834C16.3848 8.07559 16.3323 8.12874 16.3323 8.18124V10.0266C16.3323 10.6029 15.9539 11.0018 15.3718 11.0018C14.8352 11.0018 14.4869 10.601 14.4869 10.0266V8.18124C14.4869 8.12874 14.4037 8.07559 14.3511 8.07559H13.6935C13.6662 8.07753 13.6404 8.08928 13.621 8.10869C13.6016 8.1281 13.5898 8.15386 13.5879 8.18124V10.019C13.5879 11.0018 14.3563 11.856 15.3725 11.856C15.8302 11.8559 16.2723 11.6891 16.616 11.3867L16.6499 11.4174L16.3778 11.7882V11.9316C16.3778 12.31 15.8111 12.5213 15.4813 12.5213H15.27C15.2531 12.5202 15.2361 12.5224 15.22 12.5279C15.204 12.5334 15.1892 12.542 15.1765 12.5533C15.1638 12.5646 15.1535 12.5782 15.1461 12.5935C15.1388 12.6088 15.1345 12.6254 15.1336 12.6423V13.2506C15.1367 13.2844 15.1525 13.3157 15.1779 13.3381C15.2032 13.3606 15.2361 13.3726 15.27 13.3717H15.4813C16.4943 13.3717 17.2358 12.7819 17.2358 11.6703V8.18124C17.2337 8.16503 17.2283 8.14941 17.2201 8.13528C17.2119 8.12115 17.2009 8.10881 17.1879 8.09897C17.1748 8.08913 17.1599 8.082 17.1441 8.07798C17.1282 8.07397 17.1117 8.07316 17.0956 8.07559Z" fill="black"/>
<path d="M11.4464 12.7637H3.34961C3.25689 12.7637 3.16796 12.8005 3.1024 12.8661C3.03683 12.9316 3 13.0206 3 13.1133V14.5073C3 14.7362 3.0451 14.963 3.13272 15.1745C3.22035 15.386 3.34878 15.5783 3.51068 15.7402C3.83767 16.0671 4.28116 16.2508 4.74359 16.2508H11.4464C11.9089 16.2508 12.3523 16.0671 12.6793 15.7402C13.0063 15.4132 13.19 14.9697 13.19 14.5073C13.19 14.0448 13.0063 13.6013 12.6793 13.2744C12.3523 12.9474 11.9089 12.7637 11.4464 12.7637Z" fill="black"/>
<path d="M4.55469 13.5557H5.17694C5.59271 13.5557 5.81046 13.7189 5.81046 14.036C5.81769 14.12 5.79791 14.2041 5.75392 14.2764C5.70994 14.3487 5.644 14.4054 5.56549 14.4384C5.67468 14.4605 5.77196 14.5212 5.83902 14.6091C5.90609 14.6971 5.93831 14.8062 5.92965 14.916C5.92965 15.3796 5.50543 15.4399 5.27267 15.4399H4.5575L4.55469 13.5557ZM5.17131 14.3476C5.37591 14.3476 5.47634 14.2641 5.47634 14.0898C5.47634 13.9155 5.3731 13.832 5.17131 13.832H4.88975V14.3439L5.17131 14.3476ZM5.27267 15.1552C5.48947 15.1552 5.59271 15.0625 5.59271 14.8771C5.59271 14.6916 5.48947 14.5989 5.27267 14.5989H4.89162V15.1552H5.27267Z" fill="white"/>
<path d="M6.79322 13.5557H7.21462L7.93167 15.4399H7.57597L7.4211 15.0236H6.58674L6.43188 15.4399H6.07617L6.79322 13.5557ZM7.32068 14.7472L7.00533 13.8913L6.68998 14.7472H7.32068Z" fill="white"/>
<path d="M8.1543 13.5557H8.55881L9.48046 14.9855V13.5557H9.81458V15.4399H9.40725L8.49124 14.0091V15.4399H8.1543V13.5557Z" fill="white"/>
<path d="M10.7012 14.61H10.5351V15.4446H10.1953V13.5557H10.5322V14.3207H10.6927L11.3497 13.5557H11.743L10.9799 14.4468L11.7871 15.4399H11.3629L10.7012 14.61Z" fill="white"/>
</svg>
