<svg width="24" height="24" viewBox="0 0 24 24" fill="none" xmlns="http://www.w3.org/2000/svg">
<path fill-rule="evenodd" clip-rule="evenodd" d="M21.9719 14.1189C22.4271 14.2225 22.75 14.6272 22.75 15.094V17.0195C22.75 18.6764 21.4069 20.0195 19.75 20.0195H4.25C2.59313 20.0195 1.24998 18.6764 1.25 17.0195L1.25003 15.0664C1.25004 14.5764 1.60508 14.1586 2.08864 14.0795L2.15678 14.0683L2.32033 14.041C2.44574 14.0199 2.57774 13.9971 2.65096 13.9832C3.09789 13.8862 3.49848 13.6397 3.78643 13.2842C4.07623 12.9264 4.23436 12.4799 4.23436 12.0195C4.23436 11.559 4.07623 11.1126 3.78643 10.7548C3.49825 10.399 3.09725 10.1523 2.64988 10.0555C2.55304 10.0366 2.40008 10.0043 2.27743 9.97809L2.10858 9.94178L2.03766 9.92641C1.57812 9.82635 1.25002 9.4195 1.25003 8.94919L1.25008 7.01945C1.25013 5.36262 2.59326 4.01953 4.25008 4.01953L19.75 4.01954C21.4069 4.01954 22.75 5.36268 22.75 7.01954V8.97183C22.75 9.45828 22.4 9.87416 21.9207 9.95716L21.3411 10.0575C20.8974 10.1557 20.4999 10.4014 20.2136 10.7548C19.9238 11.1126 19.7657 11.559 19.7657 12.0195C19.7657 12.4799 19.9238 12.9264 20.2136 13.2842C20.5018 13.64 20.9029 13.8867 21.3503 13.9835C21.4515 14.0033 21.6082 14.0376 21.7303 14.0646C21.7961 14.0792 21.8563 14.0928 21.9001 14.1026L21.9719 14.1189ZM10 18.0195H19.75C20.3023 18.0195 20.75 17.5718 20.75 17.0195V15.8956C19.929 15.6785 19.1962 15.2056 18.6595 14.543C18.0812 13.8291 17.7657 12.9382 17.7657 12.0195C17.7657 11.1007 18.0812 10.2099 18.6595 9.49595C19.1962 8.83334 19.929 8.36046 20.75 8.14335V7.01954C20.75 6.46725 20.3023 6.01954 19.75 6.01954L10 6.01953V18.0195Z" fill="black"/>
</svg>
