<svg width="24" height="24" viewBox="0 0 24 24" fill="none" xmlns="http://www.w3.org/2000/svg">
<path d="M4.24609 11.5376C4.24609 7.25472 7.71809 3.78271 12.001 3.78271C16.284 3.78271 19.756 7.25472 19.756 11.5376H21.756C21.756 6.15015 17.3885 1.78271 12.001 1.78271C6.61352 1.78271 2.24609 6.15015 2.24609 11.5376H4.24609Z" fill="black"/>
<path d="M8.35303 11.3882C8.35303 9.36527 9.99296 7.72534 12.0159 7.72534C14.0389 7.72534 15.6788 9.36527 15.6788 11.3882H17.6788C17.6788 8.2607 15.1434 5.72534 12.0159 5.72534C8.88839 5.72534 6.35303 8.2607 6.35303 11.3882H8.35303Z" fill="black"/>
<path d="M12.8948 11.573C12.7308 11.2184 12.3752 10.9917 11.9845 10.9927C11.5937 10.9937 11.2394 11.2222 11.0772 11.5777L6.87043 20.8021C6.72926 21.1116 6.75515 21.4717 6.93916 21.7579C7.12318 22.0441 7.44006 22.217 7.78028 22.217H16.2515C16.5926 22.217 16.9102 22.0431 17.094 21.7557C17.2778 21.4683 17.3023 21.1071 17.1592 20.7974L12.8948 11.573Z" fill="black"/>
</svg>
