<svg width="24" height="24" viewBox="0 0 24 24" fill="none" xmlns="http://www.w3.org/2000/svg">
<path d="M15.828 8.49194L7.17204 8.49195L7.17203 6.38785L15.828 6.38784L15.828 8.49194Z" fill="black"/>
<path d="M7.17208 12.4298L12.0476 12.4298L12.0476 10.3257L7.17208 10.3257L7.17208 12.4298Z" fill="black"/>
<path d="M17.2252 17.1848L18.5127 18.4129L17.4083 19.5707L15.873 18.1062C15.7148 17.9552 15.6252 17.746 15.6252 17.5273V15.2689H17.2252V17.1848Z" fill="black"/>
<path fill-rule="evenodd" clip-rule="evenodd" d="M20 13.2572V5C20 3.34315 18.6569 2 17 2H6C4.34315 2 3 3.34315 3 5L3 18C3 19.6569 4.34315 21 6 21H12.2572C13.266 22.2215 14.7921 23 16.5 23C19.5376 23 22 20.5376 22 17.5C22 15.7921 21.2215 14.266 20 13.2572ZM6 4C5.44772 4 5 4.44772 5 5L5 18C5 18.5523 5.44772 19 6 19H11.207C11.0722 18.5232 11 18.02 11 17.5C11 14.4624 13.4624 12 16.5 12C17.02 12 17.5232 12.0722 18 12.207V5C18 4.44772 17.5523 4 17 4H6ZM20 17.5C20 19.433 18.433 21 16.5 21C14.567 21 13 19.433 13 17.5C13 15.567 14.567 14 16.5 14C18.433 14 20 15.567 20 17.5Z" fill="black"/>
</svg>
