<svg width="24" height="24" viewBox="0 0 24 24" fill="none" xmlns="http://www.w3.org/2000/svg">
<path fill-rule="evenodd" clip-rule="evenodd" d="M22.8818 6.13502C22.8818 4.56594 21.6098 3.29395 20.0407 3.29395H3.91719C2.3708 3.29395 1.11719 4.54755 1.11719 6.09394L1.11719 17.9056C1.11719 19.452 2.37079 20.7056 3.91719 20.7056H20.0818C21.6282 20.7056 22.8818 19.452 22.8818 17.9056V6.13502ZM13.4821 10.891L19.4788 10.8909L19.4788 8.89094L13.4821 8.89097L13.4821 10.891ZM19.4789 15.1088L13.4821 15.1087L13.4821 13.1087L19.4789 13.1088L19.4789 15.1088ZM9.177 11.8893C9.177 12.6765 8.53882 13.3147 7.75158 13.3147C6.96435 13.3147 6.32617 12.6765 6.32617 11.8893C6.32617 11.102 6.96435 10.4639 7.75158 10.4639C8.53882 10.4639 9.177 11.102 9.177 11.8893ZM11.177 11.8893C11.177 13.7811 9.64339 15.3147 7.75158 15.3147C5.85978 15.3147 4.32617 13.7811 4.32617 11.8893C4.32617 9.99748 5.85978 8.46387 7.75158 8.46387C9.64339 8.46387 11.177 9.99748 11.177 11.8893Z" fill="black"/>
</svg>
