<svg width="29" height="29" viewBox="0 0 29 29" fill="none" xmlns="http://www.w3.org/2000/svg">
<path fill-rule="evenodd" clip-rule="evenodd" d="M1.84961 16.5098C1.84961 11.5414 5.87733 7.51367 10.8458 7.51367H12.4441C17.252 7.51367 21.1496 11.4113 21.1496 16.2192V26.6637C21.1496 27.0505 20.9552 27.4113 20.6321 27.6241C20.3091 27.8368 19.9008 27.8729 19.5454 27.7202L14.3945 25.506H10.8458C5.87733 25.506 1.84961 21.4783 1.84961 16.5098ZM10.8458 9.81367C7.14758 9.81367 4.14961 12.8116 4.14961 16.5098C4.14961 20.208 7.14758 23.206 10.8458 23.206H14.6312C14.7874 23.206 14.9419 23.2378 15.0853 23.2995L18.8496 24.9176V16.2192C18.8496 12.6815 15.9817 9.81367 12.4441 9.81367H10.8458Z" fill="black"/>
<rect x="12" y="1" width="16" height="16" rx="8" fill="#00A651" stroke="white" stroke-width="2"/>
</svg>
